<?xml version="1.0" encoding="iso-8859-1"?>
<!-- Generator: Adobe Illustrator 18.0.0, SVG Export Plug-In . SVG Version: 6.00 Build 0)  -->
<!DOCTYPE svg PUBLIC "-//W3C//DTD SVG 1.1//EN" "http://www.w3.org/Graphics/SVG/1.1/DTD/svg11.dtd">
<svg version="1.1" xmlns="http://www.w3.org/2000/svg" xmlns:xlink="http://www.w3.org/1999/xlink" x="0px" y="0px"
	 viewBox="0 0 512 512.003" style="enable-background:new 0 0 512 512.003;" xml:space="preserve">
<g id="_x23_audio-cassetta">
	<g>
		<defs>
			<circle id="SVGID_1_" cx="256" cy="256.001" r="256"/>
		</defs>
		<clipPath id="SVGID_2_">
			<use xlink:href="#SVGID_1_"  style="overflow:visible;"/>
		</clipPath>
		<circle style="clip-path:url(#SVGID_2_);fill:#E8B750;" cx="256" cy="256.001" r="256"/>
		<path style="clip-path:url(#SVGID_2_);fill:#A44844;" d="M461.409,458.726h-407c-6.6,0-12-5.4-12-12v-280c0-6.6,5.4-12,12-12h407
			c6.6,0,12,5.4,12,12v280C473.409,453.326,468.009,458.726,461.409,458.726z"/>
		<path style="clip-path:url(#SVGID_2_);fill:#DB605A;" d="M461.409,430.726h-407c-6.6,0-12-5.4-12-12v-280c0-6.6,5.4-12,12-12h407
			c6.6,0,12,5.4,12,12v280C473.409,425.326,468.009,430.726,461.409,430.726z"/>
		<path style="clip-path:url(#SVGID_2_);fill:#EAEBE1;" d="M106.969,354.542l-32.681-23.883c-2.308-1.686-3.672-4.373-3.672-7.231
			V198.252c0-2.705,1.222-5.265,3.326-6.965l32.924-26.612c1.594-1.288,3.581-1.991,5.63-1.991h292.58
			c2.197,0,4.317,0.807,5.957,2.268l31.167,27.76c1.908,1.699,2.999,4.133,2.999,6.688V323.57c0,2.778-1.289,5.399-3.489,7.094
			l-30.807,23.741c-1.567,1.207-3.489,1.862-5.467,1.862H112.254C110.354,356.267,108.503,355.663,106.969,354.542z"/>
		<rect x="70.154" y="216.976" style="clip-path:url(#SVGID_2_);fill:#77B4BE;" width="374.974" height="139.672"/>
		<g style="clip-path:url(#SVGID_2_);">
			<circle style="fill:#26424B;" cx="144.113" cy="278.476" r="32"/>
			<circle style="fill:#26424B;" cx="145.113" cy="278.476" r="32"/>
			<circle style="fill:#26424B;" cx="146.113" cy="278.476" r="32"/>
			<circle style="fill:#26424B;" cx="147.113" cy="278.476" r="32"/>
			<circle style="fill:#26424B;" cx="148.113" cy="278.476" r="32"/>
			<circle style="fill:#26424B;" cx="149.113" cy="278.476" r="32"/>
			<circle style="fill:#26424B;" cx="150.113" cy="278.476" r="32"/>
			<circle style="fill:#26424B;" cx="151.113" cy="278.476" r="32"/>
			<circle style="fill:#26424B;" cx="152.113" cy="278.476" r="32"/>
			<circle style="fill:#26424B;" cx="153.113" cy="278.476" r="32"/>
			<circle style="fill:#26424B;" cx="154.113" cy="278.476" r="32"/>
			<circle style="fill:#26424B;" cx="155.113" cy="278.476" r="32"/>
			<circle style="fill:#26424B;" cx="156.113" cy="278.476" r="32"/>
			<circle style="fill:#26424B;" cx="157.113" cy="278.476" r="32"/>
			<circle style="fill:#26424B;" cx="158.113" cy="278.476" r="32"/>
			<circle style="fill:#26424B;" cx="159.113" cy="278.476" r="32"/>
			<circle style="fill:#26424B;" cx="160.113" cy="278.476" r="32"/>
			<circle style="fill:#26424B;" cx="161.113" cy="278.476" r="32"/>
			<circle style="fill:#26424B;" cx="162.113" cy="278.476" r="32"/>
			<circle style="fill:#26424B;" cx="163.113" cy="278.476" r="32"/>
			<circle style="fill:#26424B;" cx="164.113" cy="278.476" r="32"/>
			<circle style="fill:#26424B;" cx="165.113" cy="278.476" r="32"/>
			<circle style="fill:#26424B;" cx="166.113" cy="278.476" r="32"/>
			<circle style="fill:#26424B;" cx="167.113" cy="278.476" r="32"/>
			<circle style="fill:#26424B;" cx="168.113" cy="278.476" r="32"/>
			<circle style="fill:#26424B;" cx="169.113" cy="278.476" r="32"/>
			<circle style="fill:#26424B;" cx="170.113" cy="278.476" r="32"/>
			<circle style="fill:#26424B;" cx="171.113" cy="278.476" r="32"/>
			<circle style="fill:#26424B;" cx="172.113" cy="278.476" r="32"/>
			<circle style="fill:#26424B;" cx="173.113" cy="278.476" r="32"/>
			<circle style="fill:#26424B;" cx="174.113" cy="278.476" r="32"/>
			<circle style="fill:#26424B;" cx="175.113" cy="278.476" r="32"/>
			<circle style="fill:#26424B;" cx="176.113" cy="278.476" r="32"/>
			<circle style="fill:#26424B;" cx="177.113" cy="278.476" r="32"/>
			<circle style="fill:#26424B;" cx="178.113" cy="278.476" r="32"/>
			<circle style="fill:#26424B;" cx="179.113" cy="278.476" r="32"/>
			<circle style="fill:#26424B;" cx="180.113" cy="278.476" r="32"/>
			<circle style="fill:#26424B;" cx="181.113" cy="278.476" r="32"/>
			<circle style="fill:#26424B;" cx="182.113" cy="278.476" r="32"/>
			<circle style="fill:#26424B;" cx="183.113" cy="278.476" r="32"/>
			<circle style="fill:#26424B;" cx="184.113" cy="278.476" r="32"/>
			<circle style="fill:#26424B;" cx="185.113" cy="278.476" r="32"/>
			<circle style="fill:#26424B;" cx="186.113" cy="278.476" r="32"/>
			<circle style="fill:#26424B;" cx="187.113" cy="278.476" r="32"/>
			<circle style="fill:#26424B;" cx="188.113" cy="278.476" r="32"/>
			<circle style="fill:#26424B;" cx="189.113" cy="278.476" r="32"/>
			<circle style="fill:#26424B;" cx="190.113" cy="278.476" r="32"/>
			<circle style="fill:#26424B;" cx="191.113" cy="278.476" r="32"/>
			<circle style="fill:#26424B;" cx="192.113" cy="278.476" r="32"/>
			<circle style="fill:#26424B;" cx="193.113" cy="278.476" r="32"/>
			<circle style="fill:#26424B;" cx="194.113" cy="278.476" r="32"/>
			<circle style="fill:#26424B;" cx="195.113" cy="278.476" r="32"/>
			<circle style="fill:#26424B;" cx="196.113" cy="278.476" r="32"/>
			<circle style="fill:#26424B;" cx="197.113" cy="278.476" r="32"/>
			<circle style="fill:#26424B;" cx="198.113" cy="278.476" r="32"/>
			<circle style="fill:#26424B;" cx="199.113" cy="278.476" r="32"/>
			<circle style="fill:#26424B;" cx="200.113" cy="278.476" r="32"/>
			<circle style="fill:#26424B;" cx="201.113" cy="278.476" r="32"/>
			<circle style="fill:#26424B;" cx="202.113" cy="278.476" r="32"/>
			<circle style="fill:#26424B;" cx="203.113" cy="278.476" r="32"/>
			<circle style="fill:#26424B;" cx="204.113" cy="278.476" r="32"/>
			<circle style="fill:#26424B;" cx="205.113" cy="278.476" r="32"/>
			<circle style="fill:#26424B;" cx="206.113" cy="278.476" r="32"/>
			<circle style="fill:#26424B;" cx="207.113" cy="278.476" r="32"/>
			<circle style="fill:#26424B;" cx="208.113" cy="278.476" r="32"/>
			<circle style="fill:#26424B;" cx="209.113" cy="278.476" r="32"/>
			<circle style="fill:#26424B;" cx="210.113" cy="278.476" r="32"/>
			<circle style="fill:#26424B;" cx="211.113" cy="278.476" r="32"/>
			<circle style="fill:#26424B;" cx="212.113" cy="278.476" r="32"/>
			<circle style="fill:#26424B;" cx="213.113" cy="278.476" r="32"/>
			<circle style="fill:#26424B;" cx="214.113" cy="278.476" r="32"/>
			<circle style="fill:#26424B;" cx="215.113" cy="278.476" r="32"/>
			<circle style="fill:#26424B;" cx="216.113" cy="278.476" r="32"/>
			<circle style="fill:#26424B;" cx="217.113" cy="278.476" r="32"/>
			<circle style="fill:#26424B;" cx="218.113" cy="278.476" r="32"/>
			<circle style="fill:#26424B;" cx="219.113" cy="278.476" r="32"/>
			<circle style="fill:#26424B;" cx="220.113" cy="278.476" r="32"/>
			<circle style="fill:#26424B;" cx="221.113" cy="278.476" r="32"/>
			<circle style="fill:#26424B;" cx="222.113" cy="278.476" r="32"/>
			<circle style="fill:#26424B;" cx="223.113" cy="278.476" r="32"/>
			<circle style="fill:#26424B;" cx="224.113" cy="278.476" r="32"/>
			<circle style="fill:#26424B;" cx="225.113" cy="278.476" r="32"/>
			<circle style="fill:#26424B;" cx="226.113" cy="278.476" r="32"/>
			<circle style="fill:#26424B;" cx="227.113" cy="278.476" r="32"/>
			<circle style="fill:#26424B;" cx="228.113" cy="278.476" r="32"/>
			<circle style="fill:#26424B;" cx="229.113" cy="278.476" r="32"/>
			<circle style="fill:#26424B;" cx="230.113" cy="278.476" r="32"/>
			<circle style="fill:#26424B;" cx="231.113" cy="278.476" r="32"/>
			<circle style="fill:#26424B;" cx="232.113" cy="278.476" r="32"/>
			<circle style="fill:#26424B;" cx="233.113" cy="278.476" r="32"/>
			<circle style="fill:#26424B;" cx="234.113" cy="278.476" r="32"/>
			<circle style="fill:#26424B;" cx="235.113" cy="278.476" r="32"/>
			<circle style="fill:#26424B;" cx="236.113" cy="278.476" r="32"/>
			<circle style="fill:#26424B;" cx="237.113" cy="278.476" r="32"/>
			<circle style="fill:#26424B;" cx="238.113" cy="278.476" r="32"/>
			<circle style="fill:#26424B;" cx="239.113" cy="278.476" r="32"/>
			<circle style="fill:#26424B;" cx="240.113" cy="278.476" r="32"/>
			<circle style="fill:#26424B;" cx="241.113" cy="278.476" r="32"/>
			<circle style="fill:#26424B;" cx="242.113" cy="278.476" r="32"/>
			<circle style="fill:#26424B;" cx="243.113" cy="278.476" r="32"/>
			<circle style="fill:#26424B;" cx="244.113" cy="278.476" r="32"/>
			<circle style="fill:#26424B;" cx="245.113" cy="278.476" r="32"/>
			<circle style="fill:#26424B;" cx="246.113" cy="278.476" r="32"/>
			<circle style="fill:#26424B;" cx="247.113" cy="278.476" r="32"/>
			<circle style="fill:#26424B;" cx="248.113" cy="278.476" r="32"/>
			<circle style="fill:#26424B;" cx="249.113" cy="278.476" r="32"/>
			<circle style="fill:#26424B;" cx="250.113" cy="278.476" r="32"/>
			<circle style="fill:#26424B;" cx="251.113" cy="278.476" r="32"/>
			<circle style="fill:#26424B;" cx="252.113" cy="278.476" r="32"/>
			<circle style="fill:#26424B;" cx="253.113" cy="278.476" r="32"/>
			<circle style="fill:#26424B;" cx="254.113" cy="278.476" r="32"/>
			<circle style="fill:#26424B;" cx="255.113" cy="278.476" r="32"/>
			<circle style="fill:#26424B;" cx="256.113" cy="278.476" r="32"/>
			<circle style="fill:#26424B;" cx="257.113" cy="278.476" r="32"/>
			<circle style="fill:#26424B;" cx="258.113" cy="278.476" r="32"/>
			<circle style="fill:#26424B;" cx="259.113" cy="278.476" r="32"/>
			<circle style="fill:#26424B;" cx="260.113" cy="278.476" r="32"/>
			<circle style="fill:#26424B;" cx="261.113" cy="278.476" r="32"/>
			<circle style="fill:#26424B;" cx="262.113" cy="278.476" r="32"/>
			<circle style="fill:#26424B;" cx="263.113" cy="278.476" r="32"/>
			<circle style="fill:#26424B;" cx="264.113" cy="278.476" r="32"/>
			<circle style="fill:#26424B;" cx="265.113" cy="278.476" r="32"/>
			<circle style="fill:#26424B;" cx="266.113" cy="278.476" r="32"/>
			<circle style="fill:#26424B;" cx="267.113" cy="278.476" r="32"/>
			<circle style="fill:#26424B;" cx="268.113" cy="278.476" r="32"/>
			<circle style="fill:#26424B;" cx="269.113" cy="278.476" r="32"/>
			<circle style="fill:#26424B;" cx="270.113" cy="278.476" r="32"/>
			<circle style="fill:#26424B;" cx="271.113" cy="278.476" r="32"/>
			<circle style="fill:#26424B;" cx="272.113" cy="278.476" r="32"/>
			<circle style="fill:#26424B;" cx="273.113" cy="278.476" r="32"/>
			<circle style="fill:#26424B;" cx="274.113" cy="278.476" r="32"/>
			<circle style="fill:#26424B;" cx="275.113" cy="278.476" r="32"/>
			<circle style="fill:#26424B;" cx="276.113" cy="278.476" r="32"/>
			<circle style="fill:#26424B;" cx="277.113" cy="278.476" r="32"/>
			<circle style="fill:#26424B;" cx="278.113" cy="278.476" r="32"/>
			<circle style="fill:#26424B;" cx="279.113" cy="278.476" r="32"/>
			<circle style="fill:#26424B;" cx="280.113" cy="278.476" r="32"/>
			<circle style="fill:#26424B;" cx="281.113" cy="278.476" r="32"/>
			<circle style="fill:#26424B;" cx="282.113" cy="278.476" r="32"/>
			<circle style="fill:#26424B;" cx="283.113" cy="278.476" r="32"/>
			<circle style="fill:#26424B;" cx="284.113" cy="278.476" r="32"/>
			<circle style="fill:#26424B;" cx="285.113" cy="278.476" r="32"/>
			<circle style="fill:#26424B;" cx="286.113" cy="278.476" r="32"/>
			<circle style="fill:#26424B;" cx="287.113" cy="278.476" r="32"/>
			<circle style="fill:#26424B;" cx="288.113" cy="278.476" r="32"/>
			<circle style="fill:#26424B;" cx="289.113" cy="278.476" r="32"/>
			<circle style="fill:#26424B;" cx="290.113" cy="278.476" r="32"/>
			<circle style="fill:#26424B;" cx="291.113" cy="278.476" r="32"/>
			<circle style="fill:#26424B;" cx="292.113" cy="278.476" r="32"/>
			<circle style="fill:#26424B;" cx="293.113" cy="278.476" r="32"/>
			<circle style="fill:#26424B;" cx="294.113" cy="278.476" r="32"/>
			<circle style="fill:#26424B;" cx="295.113" cy="278.476" r="32"/>
			<circle style="fill:#26424B;" cx="296.113" cy="278.476" r="32"/>
			<circle style="fill:#26424B;" cx="297.113" cy="278.476" r="32"/>
			<circle style="fill:#26424B;" cx="298.113" cy="278.476" r="32"/>
			<circle style="fill:#26424B;" cx="299.113" cy="278.476" r="32"/>
			<circle style="fill:#26424B;" cx="300.113" cy="278.476" r="32"/>
			<circle style="fill:#26424B;" cx="301.113" cy="278.476" r="32"/>
			<circle style="fill:#26424B;" cx="302.113" cy="278.476" r="32"/>
			<circle style="fill:#26424B;" cx="303.113" cy="278.476" r="32"/>
			<circle style="fill:#26424B;" cx="304.113" cy="278.476" r="32"/>
			<circle style="fill:#26424B;" cx="305.113" cy="278.476" r="32"/>
			<circle style="fill:#26424B;" cx="306.113" cy="278.476" r="32"/>
			<circle style="fill:#26424B;" cx="307.113" cy="278.476" r="32"/>
			<circle style="fill:#26424B;" cx="308.113" cy="278.476" r="32"/>
			<circle style="fill:#26424B;" cx="309.113" cy="278.476" r="32"/>
			<circle style="fill:#26424B;" cx="310.113" cy="278.476" r="32"/>
			<circle style="fill:#26424B;" cx="311.113" cy="278.476" r="32"/>
			<circle style="fill:#26424B;" cx="312.113" cy="278.476" r="32"/>
			<circle style="fill:#26424B;" cx="313.113" cy="278.476" r="32"/>
			<circle style="fill:#26424B;" cx="314.113" cy="278.476" r="32"/>
			<circle style="fill:#26424B;" cx="315.113" cy="278.476" r="32"/>
			<circle style="fill:#26424B;" cx="316.113" cy="278.476" r="32"/>
			<circle style="fill:#26424B;" cx="317.113" cy="278.476" r="32"/>
			<circle style="fill:#26424B;" cx="318.113" cy="278.476" r="32"/>
			<circle style="fill:#26424B;" cx="319.113" cy="278.476" r="32"/>
			<circle style="fill:#26424B;" cx="320.113" cy="278.476" r="32"/>
			<circle style="fill:#26424B;" cx="321.113" cy="278.476" r="32"/>
			<circle style="fill:#26424B;" cx="322.113" cy="278.476" r="32"/>
			<circle style="fill:#26424B;" cx="323.113" cy="278.476" r="32"/>
			<circle style="fill:#26424B;" cx="324.113" cy="278.476" r="32"/>
			<circle style="fill:#26424B;" cx="325.113" cy="278.476" r="32"/>
			<circle style="fill:#26424B;" cx="326.113" cy="278.476" r="32"/>
			<circle style="fill:#26424B;" cx="327.113" cy="278.476" r="32"/>
			<circle style="fill:#26424B;" cx="328.113" cy="278.476" r="32"/>
			<circle style="fill:#26424B;" cx="329.113" cy="278.476" r="32"/>
			<circle style="fill:#26424B;" cx="330.113" cy="278.476" r="32"/>
			<circle style="fill:#26424B;" cx="331.113" cy="278.476" r="32"/>
			<circle style="fill:#26424B;" cx="332.113" cy="278.476" r="32"/>
			<circle style="fill:#26424B;" cx="333.113" cy="278.476" r="32"/>
			<circle style="fill:#26424B;" cx="334.113" cy="278.476" r="32"/>
			<circle style="fill:#26424B;" cx="335.113" cy="278.476" r="32"/>
			<circle style="fill:#26424B;" cx="336.113" cy="278.476" r="32"/>
			<circle style="fill:#26424B;" cx="337.113" cy="278.476" r="32"/>
			<circle style="fill:#26424B;" cx="338.113" cy="278.476" r="32"/>
			<circle style="fill:#26424B;" cx="339.113" cy="278.476" r="32"/>
			<circle style="fill:#26424B;" cx="340.113" cy="278.476" r="32"/>
			<circle style="fill:#26424B;" cx="341.113" cy="278.476" r="32"/>
			<circle style="fill:#26424B;" cx="342.113" cy="278.476" r="32"/>
			<circle style="fill:#26424B;" cx="343.113" cy="278.476" r="32"/>
			<circle style="fill:#26424B;" cx="344.113" cy="278.476" r="32"/>
			<circle style="fill:#26424B;" cx="345.113" cy="278.476" r="32"/>
			<circle style="fill:#26424B;" cx="346.113" cy="278.476" r="32"/>
			<circle style="fill:#26424B;" cx="347.113" cy="278.476" r="32"/>
			<circle style="fill:#26424B;" cx="348.113" cy="278.476" r="32"/>
			<circle style="fill:#26424B;" cx="349.113" cy="278.476" r="32"/>
			<circle style="fill:#26424B;" cx="350.113" cy="278.476" r="32"/>
			<circle style="fill:#26424B;" cx="351.113" cy="278.476" r="32"/>
			<circle style="fill:#26424B;" cx="352.113" cy="278.476" r="32"/>
			<circle style="fill:#26424B;" cx="353.113" cy="278.476" r="32"/>
			<circle style="fill:#26424B;" cx="354.113" cy="278.476" r="32"/>
			<circle style="fill:#26424B;" cx="355.113" cy="278.476" r="32"/>
			<circle style="fill:#26424B;" cx="356.113" cy="278.476" r="32"/>
			<circle style="fill:#26424B;" cx="357.113" cy="278.476" r="32"/>
			<circle style="fill:#26424B;" cx="358.113" cy="278.476" r="32"/>
			<circle style="fill:#26424B;" cx="359.113" cy="278.476" r="32"/>
			<circle style="fill:#26424B;" cx="360.113" cy="278.476" r="32"/>
			<circle style="fill:#26424B;" cx="361.113" cy="278.476" r="32"/>
			<circle style="fill:#26424B;" cx="362.113" cy="278.476" r="32"/>
			<circle style="fill:#26424B;" cx="363.113" cy="278.476" r="32"/>
			<circle style="fill:#26424B;" cx="364.113" cy="278.476" r="32"/>
			<circle style="fill:#26424B;" cx="365.113" cy="278.476" r="32"/>
			<circle style="fill:#26424B;" cx="366.113" cy="278.476" r="32"/>
			<circle style="fill:#26424B;" cx="367.113" cy="278.476" r="32"/>
			<circle style="fill:#26424B;" cx="368.113" cy="278.476" r="32"/>
		</g>
		<polygon style="clip-path:url(#SVGID_2_);fill:#26424B;" points="388.409,429.726 127.409,429.726 149.409,382.726 
			362.409,382.726 		"/>
		<circle style="opacity:0.3;clip-path:url(#SVGID_2_);fill:#0D0B10;" cx="165.613" cy="414.726" r="10.5"/>
		<circle style="opacity:0.3;clip-path:url(#SVGID_2_);fill:#0D0B10;" cx="190.196" cy="397.309" r="7.083"/>
		<circle style="opacity:0.3;clip-path:url(#SVGID_2_);fill:#0D0B10;" cx="329.029" cy="397.309" r="7.083"/>
		<circle style="opacity:0.3;clip-path:url(#SVGID_2_);fill:#0D0B10;" cx="350.946" cy="414.726" r="10.5"/>
		<rect x="61.113" y="434.605" style="clip-path:url(#SVGID_2_);fill:#26424B;" width="115" height="21"/>
		<rect x="200.779" y="434.605" style="clip-path:url(#SVGID_2_);fill:#26424B;" width="115" height="21"/>
		<rect x="340.446" y="434.605" style="clip-path:url(#SVGID_2_);fill:#26424B;" width="115" height="21"/>
		<circle style="clip-path:url(#SVGID_2_);fill:#EAEBE1;" cx="147.203" cy="278.476" r="24.794"/>
		<circle style="clip-path:url(#SVGID_2_);fill:#EAEBE1;" cx="365.24" cy="278.476" r="24.794"/>
		<g style="opacity:0.2;clip-path:url(#SVGID_2_);">
			<path style="fill:#FFFFFF;" d="M54.409,126.726c-6.6,0-12,5.4-12,12v280c0,6.6,5.4,12,12,12h87.984l304-304H54.409z"/>
		</g>
	</g>
</g>
<g id="Livello_1">
</g>
</svg>
