<?xml version="1.0" encoding="iso-8859-1"?>
<!-- Generator: Adobe Illustrator 18.0.0, SVG Export Plug-In . SVG Version: 6.00 Build 0)  -->
<!DOCTYPE svg PUBLIC "-//W3C//DTD SVG 1.1//EN" "http://www.w3.org/Graphics/SVG/1.1/DTD/svg11.dtd">
<svg version="1.1" xmlns="http://www.w3.org/2000/svg" xmlns:xlink="http://www.w3.org/1999/xlink" x="0px" y="0px"
	 viewBox="0 0 514.908 512.009" style="enable-background:new 0 0 514.908 512.009;" xml:space="preserve">
<g id="_x23_bag">
	<g>
		<defs>
			<circle id="SVGID_1_" cx="256" cy="256.005" r="256"/>
		</defs>
		<clipPath id="SVGID_2_">
			<use xlink:href="#SVGID_1_"  style="overflow:visible;"/>
		</clipPath>
		<g style="clip-path:url(#SVGID_2_);">
			<defs>
				<circle id="SVGID_3_" cx="256" cy="256.005" r="256"/>
			</defs>
			<clipPath id="SVGID_4_">
				<use xlink:href="#SVGID_3_"  style="overflow:visible;"/>
			</clipPath>
			<g style="clip-path:url(#SVGID_4_);">
				<circle style="fill:#E8B750;" cx="256" cy="256.005" r="256"/>
			</g>
			<polygon style="opacity:0.22;clip-path:url(#SVGID_4_);" points="480.583,368.129 499.241,376.588 514.908,368.921 			"/>
		</g>
		<g style="clip-path:url(#SVGID_2_);">
			<path style="fill:#660000;" d="M463.364,482.759H50.451c-10.171,0-18.416-8.245-18.416-18.416V200.324c0-19.33,15.67-35,35-35
				H446.78c19.33,0,35,15.67,35,35v264.019C481.78,474.514,473.535,482.759,463.364,482.759z"/>
			<g>
				<path style="fill:#660000;" d="M51.87,465.247c-3.586,0-6.494-2.907-6.494-6.494V203.683c0-16.119,13.067-29.186,29.186-29.186
					h364.689c16.119,0,29.186,13.067,29.186,29.186v255.071c0,3.586-2.907,6.494-6.494,6.494H51.87z"/>
				<g style="opacity:0.5;">
					<path style="fill:#FFFFFF;" d="M458.25,466.498h-5.003v-2.502h5.003V466.498z M448.243,466.498h-5.003v-2.502h5.003V466.498z
						 M438.237,466.498h-5.003v-2.502h5.003V466.498z M428.23,466.498h-5.003v-2.502h5.003V466.498z M418.223,466.498h-5.003v-2.502
						h5.003V466.498z M408.217,466.498h-5.004v-2.502h5.004V466.498z M398.21,466.498h-5.003v-2.502h5.003V466.498z
						 M388.203,466.498H383.2v-2.502h5.003V466.498z M378.197,466.498h-5.003v-2.502h5.003V466.498z M368.19,466.498h-5.003v-2.502
						h5.003V466.498z M358.183,466.498h-5.003v-2.502h5.003V466.498z M348.176,466.498h-5.003v-2.502h5.003V466.498z
						 M338.17,466.498h-5.003v-2.502h5.003V466.498z M328.164,466.498h-5.003v-2.502h5.003V466.498z M318.157,466.498h-5.003v-2.502
						h5.003V466.498z M308.15,466.498h-5.003v-2.502h5.003V466.498z M298.144,466.498h-5.003v-2.502h5.003V466.498z
						 M288.137,466.498h-5.003v-2.502h5.003V466.498z M278.13,466.498h-5.003v-2.502h5.003V466.498z M268.124,466.498h-5.003v-2.502
						h5.003V466.498z M258.117,466.498h-5.003v-2.502h5.003V466.498z M248.11,466.498h-5.003v-2.502h5.003V466.498z
						 M238.103,466.498H233.1v-2.502h5.003V466.498z M228.097,466.498h-5.003v-2.502h5.003V466.498z M218.09,466.498h-5.003v-2.502
						h5.003V466.498z M208.083,466.498h-5.003v-2.502h5.003V466.498z M198.077,466.498h-5.003v-2.502h5.003V466.498z
						 M188.07,466.498h-5.003v-2.502h5.003V466.498z M178.063,466.498h-5.003v-2.502h5.003V466.498z M168.057,466.498h-5.003v-2.502
						h5.003V466.498z M158.05,466.498h-5.003v-2.502h5.003V466.498z M148.043,466.498h-5.003v-2.502h5.003V466.498z
						 M138.036,466.498h-5.003v-2.502h5.003V466.498z M128.03,466.498h-5.003v-2.502h5.003V466.498z M118.023,466.498h-5.003v-2.502
						h5.003V466.498z M108.016,466.498h-5.003v-2.502h5.003V466.498z M98.01,466.498h-5.003v-2.502h5.003V466.498z M88.003,466.498
						H83v-2.502h5.003V466.498z M77.996,466.498h-5.003v-2.502h5.003V466.498z M67.989,466.498h-5.003v-2.502h5.003V466.498z
						 M57.983,466.498h-5.003v-2.502h5.003V466.498z M51.87,466.498c-2.024,0-3.939-0.776-5.393-2.186l1.742-1.796
						c0.984,0.954,2.28,1.48,3.651,1.48V466.498z M463.494,466.343l-0.498-2.452c1.339-0.272,2.504-1.046,3.28-2.182l2.065,1.412
						C467.195,464.797,465.473,465.941,463.494,466.343z M44.129,458.982l-0.003-0.213v-4.821h2.502l0.003,4.972L44.129,458.982z
						 M469.689,457.642h-2.502v-5.003h2.502V457.642z M46.628,448.944h-2.502v-5.003h2.502V448.944z M469.689,447.635h-2.502v-5.003
						h2.502V447.635z M46.628,438.938h-2.502v-5.003h2.502V438.938z M469.689,437.629h-2.502v-5.003h2.502V437.629z M46.628,428.931
						h-2.502v-5.003h2.502V428.931z M469.689,427.622h-2.502v-5.003h2.502V427.622z M46.628,418.924h-2.502v-5.003h2.502V418.924z
						 M469.689,417.615h-2.502v-5.003h2.502V417.615z M46.628,408.918h-2.502v-5.003h2.502V408.918z M469.689,407.608h-2.502v-5.003
						h2.502V407.608z M46.628,398.911h-2.502v-5.003h2.502V398.911z M469.689,397.602h-2.502v-5.003h2.502V397.602z M46.628,388.904
						h-2.502v-5.003h2.502V388.904z M469.689,387.595h-2.502v-5.003h2.502V387.595z M46.628,378.897h-2.502v-5.003h2.502V378.897z
						 M469.689,377.588h-2.502v-5.003h2.502V377.588z M46.628,368.891h-2.502v-5.003h2.502V368.891z M469.689,367.582h-2.502v-5.003
						h2.502V367.582z M46.628,358.884h-2.502v-5.003h2.502V358.884z M469.689,357.575h-2.502v-5.003h2.502V357.575z M46.628,348.877
						h-2.502v-5.003h2.502V348.877z M469.689,347.568h-2.502v-5.003h2.502V347.568z M46.628,338.871h-2.502v-5.003h2.502V338.871z
						 M469.689,337.561h-2.502v-5.003h2.502V337.561z M46.628,328.864h-2.502v-5.003h2.502V328.864z M469.689,327.555h-2.502v-5.003
						h2.502V327.555z M46.628,318.857h-2.502v-5.003h2.502V318.857z M469.689,317.548h-2.502v-5.003h2.502V317.548z M46.628,308.85
						h-2.502v-5.003h2.502V308.85z M469.689,307.541h-2.502v-5.003h2.502V307.541z M46.628,298.844h-2.502v-5.003h2.502V298.844z
						 M469.689,297.535h-2.502v-5.003h2.502V297.535z M46.628,288.837h-2.502v-5.003h2.502V288.837z M469.689,287.528h-2.502v-5.003
						h2.502V287.528z M46.628,278.83h-2.502v-5.003h2.502V278.83z M469.689,277.521h-2.502v-5.003h2.502V277.521z M46.628,268.824
						h-2.502v-5.003h2.502V268.824z M469.689,267.515h-2.502v-5.003h2.502V267.515z M46.628,258.817h-2.502v-5.003h2.502V258.817z
						 M469.689,257.508h-2.502v-5.003h2.502V257.508z M46.628,248.81h-2.502v-5.003h2.502V248.81z M469.689,247.501h-2.502v-5.003
						h2.502V247.501z M46.628,238.804h-2.502V233.8h2.502V238.804z M469.689,237.494h-2.502v-5.003h2.502V237.494z M46.628,228.797
						h-2.502v-5.003h2.502V228.797z M469.689,227.488h-2.502v-5.003h2.502V227.488z M46.628,218.79h-2.502v-5.003h2.502V218.79z
						 M469.689,217.481h-2.502v-5.003h2.502V217.481z M46.628,208.783h-2.502v-5.003h2.502V208.783z M469.689,207.474h-2.502v-3.792
						c-0.001-0.387-0.009-0.775-0.024-1.161l2.5-0.101c0.017,0.418,0.025,0.838,0.026,1.259V207.474z M47.017,199.009l-2.467-0.415
						c0.288-1.712,0.727-3.409,1.304-5.045l2.36,0.832C47.683,195.881,47.281,197.439,47.017,199.009z M466.562,197.779
						c-0.335-1.556-0.807-3.093-1.404-4.569l2.319-0.938c0.651,1.608,1.166,3.284,1.531,4.981L466.562,197.779z M50.187,190.026
						l-2.181-1.225c0.849-1.511,1.835-2.961,2.93-4.309l1.941,1.579C51.871,187.308,50.966,188.638,50.187,190.026z M462.991,188.95
						c-0.84-1.35-1.803-2.638-2.863-3.83l1.87-1.663c1.154,1.298,2.203,2.701,3.117,4.172L462.991,188.95z M56.2,182.629
						l-1.645-1.884c1.307-1.141,2.721-2.177,4.201-3.079l1.301,2.137C58.699,180.631,57.401,181.582,56.2,182.629z M456.656,181.83
						c-1.246-0.994-2.586-1.886-3.98-2.652l1.204-2.193c1.52,0.835,2.979,1.807,4.336,2.889L456.656,181.83z M64.338,177.678
						l-0.915-2.328c1.613-0.635,3.294-1.134,4.995-1.483l0.503,2.45C67.36,176.638,65.818,177.095,64.338,177.678z M448.301,177.245
						c-1.505-0.515-3.065-0.902-4.639-1.152l0.391-2.471c1.715,0.272,3.417,0.694,5.057,1.255L448.301,177.245z M73.67,175.761
						l-0.079-2.5c0.323-0.01,0.653-0.011,0.974-0.015h4.069v2.502h-4.071C74.282,175.749,73.967,175.751,73.67,175.761z
						 M438.875,175.747h-5.003v-2.502h5.003V175.747z M428.869,175.747h-5.003v-2.502h5.003V175.747z M418.862,175.747h-5.003
						v-2.502h5.003V175.747z M408.855,175.747h-5.003v-2.502h5.003V175.747z M398.848,175.747h-5.003v-2.502h5.003V175.747z
						 M388.842,175.747h-5.003v-2.502h5.003V175.747z M378.835,175.747h-5.003v-2.502h5.003V175.747z M368.828,175.747h-5.003
						v-2.502h5.003V175.747z M358.822,175.747h-5.003v-2.502h5.003V175.747z M348.815,175.747h-5.003v-2.502h5.003V175.747z
						 M338.808,175.747h-5.003v-2.502h5.003V175.747z M328.801,175.747h-5.003v-2.502h5.003V175.747z M318.795,175.747h-5.003
						v-2.502h5.003V175.747z M308.788,175.747h-5.003v-2.502h5.003V175.747z M298.781,175.747h-5.003v-2.502h5.003V175.747z
						 M288.775,175.747h-5.003v-2.502h5.003V175.747z M278.768,175.747h-5.003v-2.502h5.003V175.747z M268.761,175.747h-5.003
						v-2.502h5.003V175.747z M258.755,175.747h-5.003v-2.502h5.003V175.747z M248.748,175.747h-5.003v-2.502h5.003V175.747z
						 M238.741,175.747h-5.003v-2.502h5.003V175.747z M228.734,175.747h-5.003v-2.502h5.003V175.747z M218.728,175.747h-5.003
						v-2.502h5.003V175.747z M208.721,175.747h-5.003v-2.502h5.003V175.747z M198.714,175.747h-5.003v-2.502h5.003V175.747z
						 M188.708,175.747h-5.003v-2.502h5.003V175.747z M178.701,175.747h-5.003v-2.502h5.003V175.747z M168.694,175.747h-5.003
						v-2.502h5.003V175.747z M158.687,175.747h-5.003v-2.502h5.003V175.747z M148.681,175.747h-5.003v-2.502h5.003V175.747z
						 M138.674,175.747h-5.003v-2.502h5.003V175.747z M128.667,175.747h-5.003v-2.502h5.003V175.747z M118.661,175.747h-5.003
						v-2.502h5.003V175.747z M108.654,175.747h-5.003v-2.502h5.003V175.747z M98.647,175.747h-5.003v-2.502h5.003V175.747z
						 M88.641,175.747h-5.003v-2.502h5.003V175.747z"/>
				</g>
			</g>
			<path style="fill:#26424B;" d="M339.713,100.836H162.094c-5.504,0-10.007,4.503-10.007,10.007v75.886
				c0,5.504,4.503,10.007,10.007,10.007h177.619c5.504,0,10.007-4.503,10.007-10.007v-75.886
				C349.72,105.339,345.217,100.836,339.713,100.836z M324.703,171.719H177.104v-45.866h147.599V171.719z"/>
			<path style="opacity:0.24;fill:#0D0B10;" d="M478.109,315.838c-146.028,31.181-294.754,30.706-440.782-0.475
				c-5.444-1.177-5.291-8.081-5.292-13.569c0-35.857-4.6-70.314-4.6-106.172c-0.007-15.918,13.128-29.059,29.186-29.186
				c134.813,0,269.625,0,404.438,0c16.059,0.127,29.194,13.268,29.186,29.186c0,35.857-9.893,73.043-9.893,108.9
				C480.351,310.009,483.553,314.661,478.109,315.838z"/>
			<path style="fill:#660000;" d="M480.352,304.522c-146.028,31.181-296.997,31.181-443.025,0
				c-5.444-1.177-9.891-6.681-9.893-12.168c0-35.857,0-71.715,0-107.572c-0.007-15.918,13.128-29.059,29.186-29.186
				c134.813,0,269.625,0,404.438,0c16.059,0.127,29.194,13.268,29.186,29.186c0,35.857,0,71.715,0,107.572
				C490.243,297.841,485.796,303.345,480.352,304.522z"/>
			<g style="opacity:0.5;">
				<g>
					<path style="fill:#FFFFFF;" d="M260.806,319.949l-0.005-2.669c1.665-0.003,3.331-0.012,4.997-0.024l0.018,2.669
						C264.146,319.937,262.476,319.946,260.806,319.949z M255.797,319.946c-1.669-0.006-3.34-0.016-5.009-0.03l0.02-2.669
						c1.666,0.014,3.331,0.024,4.998,0.03L255.797,319.946z M270.826,319.873l-0.031-2.669c1.665-0.022,3.331-0.048,4.996-0.079
						l0.044,2.669C274.165,319.825,272.495,319.851,270.826,319.873z M245.778,319.859c-1.67-0.023-3.34-0.052-5.009-0.085
						l0.046-2.668c1.665,0.032,3.331,0.06,4.996,0.084L245.778,319.859z M280.845,319.689l-0.057-2.668
						c1.666-0.04,3.331-0.084,4.996-0.133l0.068,2.668C284.183,319.605,282.514,319.649,280.845,319.689z M235.761,319.663
						c-1.669-0.042-3.338-0.088-5.008-0.139l0.072-2.668c1.665,0.051,3.331,0.097,4.995,0.139L235.761,319.663z M290.859,319.396
						l-0.081-2.667c1.664-0.058,3.329-0.12,4.994-0.187l0.094,2.667C294.197,319.276,292.528,319.338,290.859,319.396z
						 M225.746,319.358c-1.669-0.06-3.338-0.124-5.006-0.193l0.096-2.667c1.665,0.069,3.329,0.133,4.994,0.193L225.746,319.358z
						 M300.873,318.994l-0.107-2.666c1.665-0.076,3.328-0.156,4.993-0.241l0.119,2.666
						C304.209,318.838,302.54,318.918,300.873,318.994z M215.735,318.945c-1.669-0.078-3.336-0.16-5.004-0.247l0.122-2.665
						c1.663,0.086,3.327,0.169,4.991,0.246L215.735,318.945z M310.88,318.485l-0.132-2.665c1.663-0.093,3.327-0.192,4.99-0.295
						l0.145,2.664C314.215,318.292,312.548,318.39,310.88,318.485z M205.727,318.423c-1.667-0.096-3.335-0.197-5-0.301l0.147-2.664
						c1.662,0.105,3.325,0.205,4.989,0.301L205.727,318.423z M320.885,317.866l-0.158-2.663c1.663-0.112,3.325-0.228,4.986-0.349
						l0.171,2.662C324.218,317.637,322.551,317.754,320.885,317.866z M195.726,317.794c-1.667-0.114-3.332-0.233-4.998-0.356
						l0.173-2.662c1.662,0.123,3.323,0.241,4.985,0.355L195.726,317.794z M330.88,317.139l-0.182-2.662
						c1.661-0.13,3.323-0.265,4.983-0.404l0.195,2.661C334.211,316.874,332.546,317.008,330.88,317.139z M185.731,317.054
						c-1.665-0.132-3.33-0.268-4.994-0.41l0.199-2.66c1.66,0.14,3.321,0.277,4.981,0.408L185.731,317.054z M340.869,316.303
						l-0.208-2.659c1.66-0.148,3.32-0.3,4.979-0.457l0.221,2.658C344.198,316.002,342.534,316.155,340.869,316.303z
						 M175.745,316.208c-1.664-0.15-3.327-0.305-4.99-0.464l0.223-2.658c1.66,0.159,3.318,0.313,4.977,0.463L175.745,316.208z
						 M350.852,315.361l-0.235-2.657c1.659-0.166,3.317-0.337,4.975-0.511l0.246,2.656
						C354.177,315.023,352.514,315.194,350.852,315.361z M165.766,315.253c-1.662-0.168-3.323-0.341-4.985-0.518l0.249-2.655
						c1.657,0.177,3.315,0.349,4.972,0.517L165.766,315.253z M360.823,314.308l-0.259-2.655c1.656-0.184,3.314-0.372,4.969-0.565
						l0.272,2.653C364.145,313.935,362.485,314.124,360.823,314.308z M155.797,314.19c-1.66-0.186-3.319-0.377-4.98-0.572
						l0.274-2.653c1.656,0.195,3.312,0.385,4.968,0.571L155.797,314.19z M370.784,313.148l-0.283-2.651
						c1.655-0.202,3.309-0.408,4.963-0.619l0.296,2.649C374.102,312.738,372.443,312.946,370.784,313.148z M145.84,313.019
						c-1.659-0.205-3.317-0.413-4.975-0.626l0.3-2.649c1.653,0.212,3.308,0.421,4.962,0.625L145.84,313.019z M380.734,311.879
						l-0.309-2.648c1.653-0.22,3.306-0.444,4.958-0.673l0.322,2.646C384.048,311.434,382.392,311.659,380.734,311.879z
						 M135.894,311.739c-1.656-0.222-3.313-0.449-4.968-0.68l0.324-2.646c1.652,0.23,3.304,0.456,4.957,0.678L135.894,311.739z
						 M390.671,310.504l-0.334-2.644c1.651-0.238,3.301-0.48,4.951-0.727l0.347,2.642
						C393.981,310.023,392.326,310.266,390.671,310.504z M125.961,310.353c-1.655-0.24-3.308-0.484-4.961-0.734l0.35-2.642
						c1.648,0.249,3.298,0.493,4.948,0.732L125.961,310.353z M400.595,309.02l-0.36-2.641c1.649-0.255,3.297-0.516,4.944-0.781
						l0.373,2.639C403.9,308.503,402.247,308.764,400.595,309.02z M116.043,308.858c-1.652-0.258-3.304-0.521-4.954-0.788
						l0.375-2.638c1.647,0.266,3.294,0.528,4.941,0.785L116.043,308.858z M410.503,307.429l-0.384-2.636
						c1.646-0.274,3.292-0.552,4.937-0.834l0.397,2.635C413.803,306.877,412.154,307.156,410.503,307.429z M106.138,307.256
						c-1.649-0.276-3.298-0.556-4.946-0.841l0.401-2.634c1.643,0.284,3.288,0.564,4.933,0.839L106.138,307.256z M420.399,305.731
						l-0.41-2.632c1.643-0.291,3.286-0.587,4.928-0.887l0.422,2.63C423.693,305.142,422.046,305.439,420.399,305.731z
						 M96.248,305.547c-1.646-0.294-3.292-0.592-4.937-0.895l0.425-2.629c1.642,0.302,3.283,0.599,4.926,0.893L96.248,305.547z
						 M430.275,303.925l-0.435-2.628c1.64-0.309,3.28-0.623,4.919-0.941l0.448,2.625C433.563,303.3,431.92,303.614,430.275,303.925z
						 M86.377,303.73c-1.643-0.311-3.287-0.628-4.928-0.948l0.45-2.625c1.638,0.32,3.277,0.635,4.917,0.946L86.377,303.73z
						 M440.135,302.012l-0.459-2.623c1.637-0.327,3.273-0.658,4.91-0.994l0.472,2.621
						C443.418,301.352,441.777,301.684,440.135,302.012z M76.524,301.807c-1.641-0.329-3.28-0.663-4.92-1.002l0.476-2.62
						c1.635,0.337,3.271,0.671,4.907,0.999L76.524,301.807z M449.976,299.992l-0.485-2.618c1.634-0.344,3.267-0.694,4.901-1.047
						l0.498,2.616C453.252,299.297,451.613,299.647,449.976,299.992z M66.689,299.777c-1.638-0.347-3.274-0.699-4.911-1.055
						l0.5-2.615c1.632,0.355,3.265,0.706,4.897,1.052L66.689,299.777z M459.797,297.866l-0.51-2.612
						c1.63-0.362,3.261-0.729,4.89-1.101l0.523,2.609C463.065,297.134,461.432,297.502,459.797,297.866z M56.874,297.641
						c-1.634-0.365-3.267-0.734-4.9-1.108l0.526-2.609c1.628,0.373,3.257,0.741,4.887,1.105L56.874,297.641z M469.598,295.633
						l-0.536-2.607c1.411-0.33,2.822-0.662,4.231-0.999l0.124,0.592h1.4v1.779l-0.978,0.233
						C472.426,294.969,471.013,295.302,469.598,295.633z M47.079,295.398c-1.081-0.253-2.16-0.509-3.24-0.766l-0.978-0.233v-6.406
						h2.502v4.267c0.751,0.178,1.502,0.356,2.254,0.532L47.079,295.398z M474.817,287.283h-2.502v-5.337h2.502V287.283z
						 M45.363,282.655h-2.502v-5.337h2.502V282.655z M474.817,276.608h-2.502v-5.337h2.502V276.608z M45.363,271.981h-2.502v-5.337
						h2.502V271.981z M474.817,265.935h-2.502v-5.337h2.502V265.935z M45.363,261.307h-2.502v-5.337h2.502V261.307z M474.817,255.26
						h-2.502v-5.337h2.502V255.26z M45.363,250.633h-2.502v-5.337h2.502V250.633z M474.817,244.586h-2.502v-5.337h2.502V244.586z
						 M45.363,239.959h-2.502v-5.337h2.502V239.959z M474.817,233.912h-2.502v-5.337h2.502V233.912z M45.363,229.285h-2.502v-5.337
						h2.502V229.285z M474.817,223.238h-2.502v-5.337h2.502V223.238z M45.363,218.611h-2.502v-5.337h2.502V218.611z
						 M474.817,212.564h-2.502v-5.337h2.502V212.564z M45.363,207.937h-2.502v-4.448c0-0.311,0.004-0.62,0.013-0.929l2.5,0.078
						c-0.007,0.283-0.011,0.566-0.011,0.85V207.937z M472.278,201.959c-0.082-1.699-0.304-3.397-0.659-5.047l2.438-0.597
						c0.388,1.801,0.629,3.654,0.719,5.507L472.278,201.959z M45.923,197.576l-2.451-0.537c0.349-1.815,0.85-3.608,1.489-5.331
						l2.326,0.982C46.702,194.268,46.243,195.912,45.923,197.576z M470.149,192.062c-0.617-1.56-1.368-3.077-2.231-4.509
						l2.104-1.443c0.941,1.56,1.758,3.213,2.432,4.914L470.149,192.062z M49.423,188.125l-2.134-1.393
						c0.902-1.573,1.941-3.079,3.086-4.475l1.883,1.756C51.206,185.297,50.252,186.681,49.423,188.125z M464.997,183.512
						c-1.075-1.253-2.258-2.417-3.518-3.462l1.536-2.107c1.37,1.136,2.658,2.404,3.827,3.767L464.997,183.512z M55.702,180.471
						l-1.578-2.07c1.346-1.169,2.792-2.222,4.299-3.13l1.231,2.323C58.269,178.428,56.94,179.396,55.702,180.471z M457.467,177.266
						c-1.406-0.804-2.884-1.485-4.394-2.023l0.793-2.53c1.644,0.586,3.253,1.327,4.783,2.201L457.467,177.266z M64.002,175.467
						l-0.847-2.511c1.633-0.626,3.327-1.107,5.033-1.429l0.436,2.628C67.056,174.45,65.501,174.892,64.002,175.467z
						 M448.423,174.043c-1.331-0.219-2.696-0.337-4.055-0.352h-0.738v-2.669h0.751c1.49,0.016,2.975,0.145,4.424,0.384
						L448.423,174.043z M438.626,173.691h-5.003v-2.669h5.003V173.691z M428.619,173.691h-5.003v-2.669h5.003V173.691z
						 M418.613,173.691h-5.003v-2.669h5.003V173.691z M408.606,173.691h-5.003v-2.669h5.003V173.691z M398.599,173.691h-5.003
						v-2.669h5.003V173.691z M388.592,173.691h-5.003v-2.669h5.003V173.691z M378.586,173.691h-5.003v-2.669h5.003V173.691z
						 M368.579,173.691h-5.003v-2.669h5.003V173.691z M358.572,173.691h-5.003v-2.669h5.003V173.691z M348.566,173.691h-5.003
						v-2.669h5.003V173.691z M338.558,173.691h-5.003v-2.669h5.003V173.691z M328.551,173.691h-5.003v-2.669h5.003V173.691z
						 M318.545,173.691h-5.003v-2.669h5.003V173.691z M308.539,173.691h-5.003v-2.669h5.003V173.691z M298.532,173.691h-5.003
						v-2.669h5.003V173.691z M288.526,173.691h-5.003v-2.669h5.003V173.691z M278.52,173.691h-5.003v-2.669h5.003V173.691z
						 M268.513,173.691h-5.003v-2.669h5.003V173.691z M258.506,173.691h-5.003v-2.669h5.003V173.691z M248.499,173.691h-5.003
						v-2.669h5.003V173.691z M238.493,173.691h-5.003v-2.669h5.003V173.691z M228.485,173.691h-5.003v-2.669h5.003V173.691z
						 M218.479,173.691h-5.003v-2.669h5.003V173.691z M208.472,173.691h-5.003v-2.669h5.003V173.691z M198.465,173.691h-5.003
						v-2.669h5.003V173.691z M188.458,173.691h-5.003v-2.669h5.003V173.691z M178.452,173.691h-5.003v-2.669h5.003V173.691z
						 M168.445,173.691h-5.003v-2.669h5.003V173.691z M158.438,173.691h-5.003v-2.669h5.003V173.691z M148.432,173.691h-5.003
						v-2.669h5.003V173.691z M138.425,173.691h-5.003v-2.669h5.003V173.691z M128.418,173.691h-5.003v-2.669h5.003V173.691z
						 M118.411,173.691h-5.003v-2.669h5.003V173.691z M108.405,173.691h-5.003v-2.669h5.003V173.691z M98.398,173.691h-5.003v-2.669
						h5.003V173.691z M88.391,173.691h-5.003v-2.669h5.003V173.691z M78.385,173.691h-5.003v-2.669h5.003V173.691z"/>
				</g>
			</g>
			<path style="fill:#D1D1CF;" d="M273.486,357.675h-38.493c-5.72,0-10.356-4.637-10.356-10.356v-30.571
				c0-5.72,4.637-10.356,10.356-10.356h38.493c5.72,0,10.356,4.637,10.356,10.356v30.571
				C283.842,353.038,279.205,357.675,273.486,357.675z"/>
			<path style="fill:#EAEBE1;" d="M273.486,352.672h-38.493c-5.72,0-10.356-4.637-10.356-10.356v-30.571
				c0-5.72,4.637-10.356,10.356-10.356h38.493c5.72,0,10.356,4.637,10.356,10.356v30.571
				C283.842,348.035,279.205,352.672,273.486,352.672z"/>
			<path style="fill:#26424B;" d="M260.392,324.285c0-3.358-2.722-6.081-6.081-6.081c-3.358,0-6.081,2.722-6.081,6.081
				c0,2.166,1.137,4.063,2.842,5.14v10.211c0,1.781,1.457,3.238,3.238,3.238c1.781,0,3.238-1.457,3.238-3.238v-10.211
				C259.256,328.348,260.392,326.451,260.392,324.285z"/>
		</g>
		<g style="opacity:0.2;clip-path:url(#SVGID_2_);">
			<path style="fill:#FFFFFF;" d="M56.62,155.595c-16.059,0.128-29.194,13.268-29.186,29.186c0,35.857,0,71.715,0,107.572
				c0.001,3.526,1.843,7.053,4.6,9.44v162.549c0,10.171,8.245,18.416,18.416,18.416h20.434l327.164-327.164
				C284.239,155.595,170.43,155.595,56.62,155.595z"/>
		</g>
	</g>
</g>
<g id="Livello_1">
</g>
</svg>
