<?xml version="1.0" encoding="iso-8859-1"?>
<!-- Generator: Adobe Illustrator 18.0.0, SVG Export Plug-In . SVG Version: 6.00 Build 0)  -->
<!DOCTYPE svg PUBLIC "-//W3C//DTD SVG 1.1//EN" "http://www.w3.org/Graphics/SVG/1.1/DTD/svg11.dtd">
<svg version="1.1" xmlns="http://www.w3.org/2000/svg" xmlns:xlink="http://www.w3.org/1999/xlink" x="0px" y="0px"
	 viewBox="0 0 512 566.007" style="enable-background:new 0 0 512 566.007;" xml:space="preserve">
<g id="_x23_beer">
	<g>
		<defs>
			<circle id="SVGID_1_" cx="256" cy="256.005" r="256"/>
		</defs>
		<clipPath id="SVGID_2_">
			<use xlink:href="#SVGID_1_"  style="overflow:visible;"/>
		</clipPath>
		<g style="clip-path:url(#SVGID_2_);">
			<circle style="fill:#78C1B0;" cx="256" cy="256.005" r="256"/>
		</g>
		<g style="clip-path:url(#SVGID_2_);">
			<g>
				<path style="fill:#EAEBE1;" d="M427.93,293.395h-35.725c-8.733,0-15.878,7.145-15.878,15.878v124.377
					c0,8.733,7.145,15.878,15.878,15.878h35.725c8.733,0,15.878-7.145,15.878-15.878V309.273
					C443.808,300.54,436.663,293.395,427.93,293.395z M423.961,429.68h-27.786V313.242h27.786V429.68z"/>
				<path style="fill:#EAEBE1;" d="M368.561,566.007c-79.694,0-159.389,0-239.083,0c-10.34,0.001-17.544-8.555-16.314-19.131
					c11.193-98.748,8.931-198.941-7.519-297.688c-1.807-10.576,5.447-19.131,16.439-19.131c84.624,0,169.248,0,253.872,0
					c10.992,0,18.246,8.553,16.439,19.131c-16.45,98.748-18.712,198.941-7.519,297.688
					C386.104,557.452,378.901,566.006,368.561,566.007z"/>
				<path style="fill:#E8B750;" d="M136.311,543.383c10.501-97.41,8.086-195.115-7.174-290.702h239.765
					c-15.264,95.66-17.673,193.364-7.176,290.702H136.311z"/>
			</g>
			<path style="fill:#FFFFFF;" d="M400.082,178.098c0-22.021-17.852-39.873-39.873-39.873c-2.807,0-5.544,0.293-8.187,0.845
				c-3.827-10.645-14.008-18.259-25.971-18.259c-8.888,0-16.789,4.207-21.836,10.733c-6.426-12.477-19.424-21.015-34.424-21.015
				c-11.753,0-22.274,5.245-29.373,13.514c-5.609-13.833-19.167-23.593-35.011-23.593c-19.918,0-36.223,15.419-37.66,34.97
				c-7.588-4.941-16.64-7.823-26.369-7.823c-26.731,0-48.401,21.67-48.401,48.401c0,20.102,12.256,37.338,29.701,44.653
				c2.437,2.315,5.718,3.748,9.324,3.748h245.258c7.466,0,13.574-6.109,13.574-13.574v-7.199
				C396.606,196.71,400.082,187.811,400.082,178.098z M233.703,163.235c0.449,1.157,0.952,2.287,1.506,3.388H230.3
				C231.505,165.566,232.642,164.436,233.703,163.235z M305.335,166.623h-0.962c0.118-0.235,0.241-0.467,0.355-0.705
				C304.924,166.158,305.13,166.39,305.335,166.623z"/>
			<g>
				<rect x="396.175" y="313.242" style="fill:none;" width="27.786" height="116.438"/>
				<path style="opacity:0.3;fill:#FFFFFF;" d="M375.955,230.056c-84.624,0-169.248,0-253.872,0
					c-10.992,0-18.246,8.555-16.439,19.131c16.45,98.748,18.712,198.941,7.519,297.688c-0.747,6.426,1.632,12.092,5.923,15.56
					L381.986,231.02C380.146,230.402,378.127,230.056,375.955,230.056z"/>
			</g>
		</g>
		<path style="opacity:0.59;clip-path:url(#SVGID_2_);fill:#FFFFFF;" d="M247.936,490.932L247.936,490.932
			c-6.49,0-11.799-5.31-11.799-11.799V300.241c0-6.49,5.31-11.799,11.799-11.799h0c6.49,0,11.799,5.31,11.799,11.799v178.891
			C259.735,485.622,254.425,490.932,247.936,490.932z"/>
		<path style="opacity:0.59;clip-path:url(#SVGID_2_);fill:#FFFFFF;" d="M317.661,490.932L317.661,490.932
			c-6.49,0-11.799-5.31-11.799-11.799V300.241c0-6.49,5.31-11.799,11.799-11.799l0,0c6.49,0,11.799,5.31,11.799,11.799v178.891
			C329.46,485.622,324.151,490.932,317.661,490.932z"/>
		<path style="opacity:0.59;clip-path:url(#SVGID_2_);fill:#FFFFFF;" d="M178.21,490.932L178.21,490.932
			c-6.49,0-11.799-5.31-11.799-11.799V300.241c0-6.49,5.31-11.799,11.799-11.799h0c6.49,0,11.799,5.31,11.799,11.799v178.891
			C190.01,485.622,184.7,490.932,178.21,490.932z"/>
	</g>
</g>
<g id="Livello_1">
</g>
</svg>
