<?xml version="1.0" encoding="iso-8859-1"?>
<!-- Generator: Adobe Illustrator 18.0.0, SVG Export Plug-In . SVG Version: 6.00 Build 0)  -->
<!DOCTYPE svg PUBLIC "-//W3C//DTD SVG 1.1//EN" "http://www.w3.org/Graphics/SVG/1.1/DTD/svg11.dtd">
<svg version="1.1" xmlns="http://www.w3.org/2000/svg" xmlns:xlink="http://www.w3.org/1999/xlink" x="0px" y="0px"
	 viewBox="0 0 621.922 512.009" style="enable-background:new 0 0 621.922 512.009;" xml:space="preserve">
<g id="_x23_books">
	<g>
		<defs>
			<circle id="SVGID_1_" cx="331.702" cy="256.005" r="256"/>
		</defs>
		<clipPath id="SVGID_2_">
			<use xlink:href="#SVGID_1_"  style="overflow:visible;"/>
		</clipPath>
		<circle style="clip-path:url(#SVGID_2_);fill:#78C1B0;" cx="331.702" cy="256.005" r="256"/>
		<polygon style="opacity:0.22;clip-path:url(#SVGID_2_);" points="542.564,497.523 298.076,286.034 450.445,103.362 
			621.922,267.296 		"/>
		<g style="clip-path:url(#SVGID_2_);">
			<path style="fill:#EAEBE1;stroke:#FFFFFF;stroke-miterlimit:10;" d="M44.438,189.251v-67.415H450.08
				c2.726,0,4.937-2.21,4.937-4.937V104.73c0-3.872-3.168-7.041-7.041-7.041H36.176c-3.872,0-7.041,3.168-7.041,7.041v101.627
				c0,3.872,3.168,7.041,7.041,7.041h411.801c3.872,0,7.041-3.168,7.041-7.041v-10.183c0-3.824-3.1-6.923-6.923-6.923H44.438z"/>
			<path style="fill:#FFFFFF;" d="M451.452,189.251H44.438v-67.415h407.014c0,0-3.136,20.047-2.801,34.04
				C449.062,173.015,451.452,189.251,451.452,189.251z"/>
		</g>
		<g style="clip-path:url(#SVGID_2_);">
			<path style="fill:#DB605A;" d="M15.302,304.959v-67.415h405.643c2.726,0,4.937-2.21,4.937-4.937v-12.169
				c0-3.872-3.168-7.041-7.041-7.041H7.041c-3.872,0-7.041,3.168-7.041,7.041v101.626c0,3.872,3.168,7.041,7.041,7.041h411.801
				c3.872,0,7.041-3.168,7.041-7.041v-10.183c0-3.824-3.1-6.923-6.923-6.923H15.302z"/>
			<path style="fill:#FFFFFF;" d="M422.317,304.959H15.302v-67.415h407.014c0,0-3.136,20.047-2.801,34.04
				C419.926,288.722,422.317,304.959,422.317,304.959z"/>
		</g>
		<g style="clip-path:url(#SVGID_2_);">
			<path style="fill:#26424B;" d="M69.657,421.658v-67.415h405.643c2.726,0,4.937-2.21,4.937-4.937v-12.169
				c0-3.872-3.168-7.041-7.041-7.041H61.395c-3.872,0-7.041,3.168-7.041,7.041v101.626c0,3.872,3.168,7.041,7.041,7.041h411.801
				c3.872,0,7.041-3.168,7.041-7.041v-10.183c0-3.824-3.1-6.923-6.923-6.923H69.657z"/>
			<path style="fill:#FFFFFF;" d="M476.671,421.658H69.657v-67.415h407.014c0,0-3.136,20.047-2.801,34.04
				C474.281,405.421,476.671,421.658,476.671,421.658z"/>
		</g>
		<polygon style="clip-path:url(#SVGID_2_);fill:#E8B750;" points="404.964,256.005 381.964,242.458 358.964,256.005 
			358.964,145.458 404.964,145.458 		"/>
	</g>
</g>
<g id="Livello_1">
</g>
</svg>
