<?xml version="1.0" encoding="iso-8859-1"?>
<!-- Generator: Adobe Illustrator 18.0.0, SVG Export Plug-In . SVG Version: 6.00 Build 0)  -->
<!DOCTYPE svg PUBLIC "-//W3C//DTD SVG 1.1//EN" "http://www.w3.org/Graphics/SVG/1.1/DTD/svg11.dtd">
<svg version="1.1" xmlns="http://www.w3.org/2000/svg" xmlns:xlink="http://www.w3.org/1999/xlink" x="0px" y="0px"
	 viewBox="0 0 512 512.009" style="enable-background:new 0 0 512 512.009;" xml:space="preserve">
<g id="_x23_box">
	<g>
		<defs>
			<circle id="SVGID_1_" cx="256" cy="256.005" r="256"/>
		</defs>
		<clipPath id="SVGID_2_">
			<use xlink:href="#SVGID_1_"  style="overflow:visible;"/>
		</clipPath>
		<g style="clip-path:url(#SVGID_2_);">
			<defs>
				<circle id="SVGID_3_" cx="256" cy="256.005" r="256"/>
			</defs>
			<clipPath id="SVGID_4_">
				<use xlink:href="#SVGID_3_"  style="overflow:visible;"/>
			</clipPath>
			<g style="clip-path:url(#SVGID_4_);">
				<circle style="fill:#DB605A;" cx="256" cy="256.005" r="256"/>
			</g>
		</g>
		<g style="clip-path:url(#SVGID_2_);">
			<polygon style="fill:#BEA163;" points="474.579,250.336 384.772,215.192 338.058,196.912 256.452,164.978 256.452,164.742 
				256.151,164.86 255.849,164.742 255.849,164.978 37.722,250.336 37.722,412.237 474.579,412.237 			"/>
			<polygon style="fill:#AE893C;" points="474.278,411.823 255.548,497.416 255.548,335.515 474.278,249.921 			"/>
			<polygon style="fill:#E8B750;" points="166.343,300.786 119.63,282.506 37.421,250.336 37.421,412.237 256.151,497.831 
				256.151,335.929 			"/>
			<polygon style="opacity:0.5;fill:#FFFFFF;" points="153.946,408.932 125.855,397.916 125.855,284.447 153.946,295.464 			"/>
			<polygon style="opacity:0.3;fill:#FFFFFF;" points="350.867,411.873 378.959,400.857 378.959,287.388 350.867,298.405 			"/>
			<polygon style="opacity:0.5;fill:#FFFFFF;" points="125.855,284.447 327.498,192.78 354.067,203.464 153.93,295.689 			"/>
			<polygon style="opacity:0.5;fill:#FFFFFF;" points="350.867,298.405 165.258,200.428 188.449,191.209 378.959,287.388 			"/>
		</g>
		<path style="clip-path:url(#SVGID_2_);fill:#EAEBE1;" d="M229.873,47.383c-0.791-4.049-1.982-8.012-3.347-11.906
			c-1.664-4.749-4.439-10.104-9.429-10.758c-1.275-0.167-2.655,0.042-3.655,0.85c-1.527,1.235-1.768,3.441-1.8,5.404
			c-0.305,18.72,7.576,36.483,15.301,53.537c-4.815-4.691-9.756-9.253-14.815-13.679c-4.603-4.026-9.421-8.011-15.136-10.187
			c-5.715-2.176-12.558-2.274-17.595,1.194c-1.07,2.76,0.194,5.986,2.308,8.058c2.114,2.072,4.93,3.237,7.671,4.354
			c11.681,4.76,23.564,9.571,36.115,10.828C230.784,73.365,232.337,59.997,229.873,47.383z"/>
		<g style="clip-path:url(#SVGID_2_);">
			<path style="fill:#EAEBE1;" d="M236.78,244.012l-0.253,0v-3l0.262,0c1.876,0,3.781-0.051,5.654-0.152l0.162,2.996
				C240.677,243.959,238.718,244.012,236.78,244.012z M230.445,243.828c-2.011-0.116-4.05-0.29-6.06-0.517l0.337-2.981
				c1.955,0.221,3.939,0.391,5.895,0.503L230.445,243.828z M248.67,243.355l-0.332-2.981c1.956-0.218,3.925-0.495,5.854-0.825
				l0.506,2.957C252.711,242.845,250.683,243.131,248.67,243.355z M218.364,242.465c-1.985-0.334-3.993-0.728-5.967-1.17
				l0.656-2.928c1.922,0.431,3.876,0.814,5.809,1.14L218.364,242.465z M206.504,239.804c-1.942-0.546-3.896-1.154-5.807-1.805
				l0.967-2.84c1.86,0.634,3.763,1.225,5.652,1.757L206.504,239.804z M194.996,235.884c-1.872-0.752-3.749-1.567-5.578-2.42
				l1.27-2.719c1.779,0.831,3.605,1.624,5.428,2.356L194.996,235.884z M183.98,230.741c-1.783-0.955-3.56-1.972-5.28-3.021
				l1.562-2.562c1.673,1.021,3.4,2.009,5.134,2.938L183.98,230.741z M173.598,224.408c-1.663-1.146-3.314-2.357-4.908-3.6
				l1.844-2.366c1.548,1.206,3.152,2.382,4.768,3.496L173.598,224.408z M163.997,216.922c-1.595-1.411-3.082-2.838-4.421-4.241
				l2.17-2.071c1.281,1.342,2.707,2.71,4.239,4.065L163.997,216.922z M161.419,208.032c-1.276,0-2.551-0.103-3.786-0.306
				l0.244-1.485l-2.312,1.76c-1.117-1.468-2.12-2.963-2.988-4.457l-1.035,2.334c-1.896-0.841-3.73-1.919-5.449-3.203l1.797-2.403
				c1.368,1.023,2.816,1.899,4.311,2.608c-0.014-0.025-0.027-0.051-0.042-0.076l2.627-1.449c0.875,1.586,1.923,3.187,3.113,4.758
				l0.222-1.348c1.075,0.177,2.186,0.266,3.301,0.266c0.714,0.011,1.518-0.04,2.279-0.12l0.312,2.983
				C163.146,207.987,162.305,208.011,161.419,208.032z M170.199,206.463l-1.025-2.819c1.78-0.647,3.467-1.502,5.015-2.543
				l1.674,2.489C174.113,204.766,172.208,205.733,170.199,206.463z M180.648,199.365l-2.273-1.958
				c1.238-1.438,2.224-3.009,2.929-4.668l2.762,1.173C183.238,195.857,182.088,197.692,180.648,199.365z M141.463,198.414
				c-1.375-1.543-2.625-3.242-3.716-5.049l2.568-1.55c0.995,1.649,2.135,3.198,3.388,4.603L141.463,198.414z M149.63,197.074
				c-0.432-1.295-0.776-2.62-1.023-3.937c-0.139-0.733-0.242-1.493-0.31-2.257l2.988-0.263c0.059,0.667,0.149,1.329,0.27,1.965
				c0.223,1.184,0.532,2.376,0.921,3.543L149.63,197.074z M135.002,187.739c-0.752-1.97-1.322-3.999-1.696-6.032l2.951-0.542
				c0.341,1.853,0.861,3.705,1.548,5.504L135.002,187.739z M185.537,187.574l-2.998-0.12c0.008-0.199,0.013-0.398,0.013-0.597
				c0-1.583-0.261-3.195-0.776-4.791l2.855-0.921c0.611,1.894,0.921,3.815,0.921,5.712
				C185.551,187.096,185.546,187.335,185.537,187.574z M151.519,185.02l-2.959-0.5c0.358-2.121,0.977-4.171,1.836-6.093l2.738,1.225
				C152.379,181.342,151.835,183.149,151.519,185.02z M179.289,177.133c-1.084-1.534-2.369-2.883-3.822-4.012l1.842-2.369
				c1.686,1.311,3.176,2.875,4.43,4.649L179.289,177.133z M132.715,175.483l-0.002-0.387c0-1.934,0.15-3.895,0.447-5.83l2.965,0.454
				c-0.273,1.785-0.412,3.594-0.412,5.376l0.002,0.363L132.715,175.483z M156.079,174.95l-2.277-1.953
				c1.469-1.712,3.155-3.103,5.015-4.132l1.454,2.624C158.724,172.345,157.314,173.51,156.079,174.95z M170.664,170.515
				c-1.759-0.584-3.53-0.801-5.299-0.637l-0.281-2.986c2.165-0.207,4.373,0.061,6.525,0.776L170.664,170.515z M376.503,166.414
				c-1.431,0.003-2.923-0.031-4.412-0.095l0.129-2.997c1.446,0.062,2.895,0.096,4.284,0.092c0.541,0,1.081-0.005,1.62-0.015
				l0.057,2.999C377.622,166.408,377.062,166.414,376.503,166.414z M384.273,166.079l-0.26-2.988
				c1.969-0.172,3.934-0.416,5.842-0.726l0.48,2.961C388.355,165.648,386.316,165.902,384.273,166.079z M366.027,165.885
				c-1.962-0.193-3.988-0.442-6.023-0.742l0.438-2.968c1.987,0.292,3.966,0.536,5.879,0.724L366.027,165.885z M354.031,164.138
				c-1.912-0.361-3.905-0.774-5.924-1.228l0.658-2.927c1.984,0.446,3.943,0.852,5.822,1.207L354.031,164.138z M137.45,164.12
				l-2.855-0.92c0.639-1.982,1.44-3.921,2.383-5.762l2.67,1.367C138.778,160.503,138.039,162.291,137.45,164.12z M396.33,164.109
				l-0.713-2.914c1.516-0.371,3.034-0.794,4.515-1.26c0.369-0.116,0.741-0.238,1.112-0.367l0.982,2.835
				c-0.398,0.138-0.798,0.268-1.193,0.393C399.49,163.281,397.908,163.723,396.33,164.109z M342.234,161.5
				c-1.869-0.476-3.829-1-5.828-1.558l0.807-2.89c1.977,0.552,3.915,1.07,5.762,1.541L342.234,161.5z M407.988,159.417l-1.889-2.331
				c0.618-0.5,1.138-1.057,1.545-1.654c0.477-0.699,0.86-1.539,1.173-2.568l2.871,0.871c-0.402,1.326-0.915,2.434-1.565,3.388
				C409.55,157.961,408.833,158.733,407.988,159.417z M330.616,158.269c-1.921-0.572-3.84-1.159-5.758-1.754l0.891-2.865
				c1.906,0.593,3.813,1.176,5.723,1.745L330.616,158.269z M319.125,154.706c-1.909-0.609-3.815-1.222-5.718-1.834l0.918-2.855
				c1.9,0.611,3.805,1.224,5.712,1.832L319.125,154.706z M142.678,153.926l-2.406-1.792c0.268-0.359,0.543-0.714,0.824-1.064
				c1.012-1.261,2.121-2.478,3.294-3.614l2.088,2.154c-1.084,1.051-2.108,2.174-3.043,3.338
				C143.176,153.271,142.924,153.596,142.678,153.926z M307.694,151.042c-1.909-0.608-3.815-1.209-5.715-1.799l0.889-2.865
				c1.907,0.591,3.819,1.195,5.736,1.806L307.694,151.042z M412.88,147.617l-2.973-0.405c0.271-1.988,0.441-3.948,0.508-5.825
				l2.998,0.105C413.344,143.469,413.165,145.53,412.88,147.617z M296.254,147.508l-0.178-0.052
				c-1.854-0.547-3.707-1.075-5.563-1.585l0.795-2.893c1.874,0.515,3.744,1.048,5.609,1.598l0.19,0.056L296.254,147.508z
				 M150.91,145.924l-1.744-2.44c1.635-1.168,3.407-2.263,5.269-3.252l1.408,2.649C154.097,143.808,152.437,144.832,150.91,145.924z
				 M284.74,144.342c-1.93-0.491-3.863-0.965-5.801-1.42l0.686-2.921c1.957,0.46,3.908,0.938,5.855,1.434L284.74,144.342z
				 M393.991,143.592c-1.503,0-3.016-0.098-4.499-0.29l0.387-2.975c1.884,0.245,3.814,0.318,5.72,0.225l0.148,2.996
				C395.163,143.577,394.577,143.592,393.991,143.592z M401.949,142.676l-0.686-2.921c1.873-0.439,3.693-1.051,5.41-1.817
				l1.223,2.739C406.006,141.521,404.005,142.193,401.949,142.676z M383.375,141.93c-0.281-0.092-0.561-0.187-0.841-0.286
				c-1.749-0.621-3.405-1.385-4.927-2.272l1.512-2.592c1.359,0.793,2.846,1.478,4.416,2.036c0.254,0.09,0.512,0.177,0.77,0.261
				L383.375,141.93z M273.113,141.612c-1.945-0.418-3.896-0.819-5.85-1.2l0.574-2.944c1.974,0.385,3.941,0.79,5.906,1.212
				L273.113,141.612z M161.141,140.447l-1.104-2.79c1.837-0.726,3.792-1.393,5.812-1.981l0.84,2.88
				C164.758,139.118,162.891,139.755,161.141,140.447z M261.392,139.321c-1.961-0.345-3.925-0.672-5.892-0.981l0.465-2.964
				c1.986,0.312,3.968,0.642,5.946,0.99L261.392,139.321z M413.357,137.539l-1.519-2.101l-1.562,0.136
				c-0.172-1.974-0.479-3.892-0.911-5.7l2.918-0.698c0.364,1.521,0.646,3.112,0.839,4.744c0.3-0.252,0.594-0.511,0.88-0.774
				c0.622-0.573,1.224-1.189,1.787-1.831l2.254,1.979c-0.633,0.721-1.309,1.414-2.009,2.059
				C415.194,136.128,414.294,136.863,413.357,137.539z M249.592,137.47c-1.972-0.271-3.945-0.525-5.924-0.759l0.354-2.979
				c1.996,0.237,3.989,0.492,5.98,0.767L249.592,137.47z M172.404,137.128l-0.621-2.936c1.91-0.403,3.929-0.764,5.999-1.07
				l0.439,2.968C176.211,136.388,174.254,136.737,172.404,137.128z M237.734,136.063c-1.981-0.197-3.964-0.376-5.949-0.537
				l0.242-2.99c2.003,0.163,4.005,0.343,6.004,0.542L237.734,136.063z M372.557,135.434c-1.581-1.666-2.772-3.517-3.54-5.5
				l2.797-1.083c0.627,1.617,1.608,3.137,2.919,4.518L372.557,135.434z M184.105,135.371l-0.291-2.985
				c1.925-0.188,3.957-0.345,6.04-0.467l0.174,2.995C187.985,135.033,185.992,135.187,184.105,135.371z M225.83,135.1
				c-1.987-0.124-3.975-0.228-5.964-0.314l0.129-2.997c2.009,0.087,4.016,0.192,6.021,0.317L225.83,135.1z M195.983,134.655
				l-0.096-2.998c2.008-0.065,4.018-0.11,6.026-0.138l0.041,3C199.963,134.546,197.973,134.591,195.983,134.655z M213.897,134.585
				c-1.989-0.048-3.979-0.078-5.97-0.089l0.016-3c2.01,0.011,4.02,0.041,6.028,0.09L213.897,134.585z M421.661,128.117l-2.631-1.441
				c0.906-1.654,1.644-3.416,2.19-5.236l2.873,0.863C423.486,124.324,422.668,126.28,421.661,128.117z M407.56,124.438
				c-0.271-0.622-0.563-1.236-0.869-1.825c-0.555-1.07-1.199-2.117-1.917-3.111l2.434-1.755c0.803,1.113,1.525,2.286,2.146,3.485
				c0.336,0.647,0.658,1.323,0.956,2.007L407.56,124.438z M371.108,123.639l-2.986-0.277c0.196-2.123,0.826-4.229,1.871-6.26
				l2.668,1.373C371.792,120.162,371.27,121.9,371.108,123.639z M425.264,116.108l-2.99-0.242c0.055-0.681,0.083-1.373,0.083-2.056
				c0-1.212-0.088-2.418-0.261-3.587l2.967-0.44c0.195,1.314,0.294,2.669,0.294,4.027
				C425.357,114.573,425.326,115.346,425.264,116.108z M400.981,115.296c-1.432-1.276-2.981-2.372-4.608-3.256l1.434-2.636
				c1.828,0.994,3.568,2.223,5.171,3.652L400.981,115.296z M375.937,114.07l-2.092-2.15c1.585-1.542,3.369-2.787,5.302-3.701
				l1.283,2.712C378.796,111.703,377.285,112.76,375.937,114.07z M391.165,110.021c-1.835-0.437-3.675-0.597-5.496-0.46
				l-0.221-2.992c2.13-0.156,4.277,0.026,6.412,0.535L391.165,110.021z M420.601,104.814c-0.162-0.388-0.337-0.773-0.522-1.153
				c-0.634-1.293-1.398-2.546-2.272-3.724l2.41-1.787c0.982,1.324,1.842,2.734,2.556,4.191c0.213,0.434,0.412,0.873,0.597,1.316
				L420.601,104.814z M280.604,99.551l-0.009-3c1.925-0.006,3.919-0.06,5.926-0.161l0.15,2.996
				C284.619,99.49,282.577,99.546,280.604,99.551z M274.527,99.409c-2.055-0.104-4.098-0.268-6.072-0.489l0.334-2.981
				c1.914,0.214,3.896,0.374,5.889,0.475L274.527,99.409z M292.719,98.952l-0.275-2.987c1.922-0.178,3.91-0.399,5.908-0.658
				l0.385,2.975C296.703,98.546,294.678,98.771,292.719,98.952z M262.419,98.036c-2.032-0.371-4.04-0.816-5.969-1.324l0.764-2.901
				c1.854,0.489,3.787,0.917,5.743,1.274L262.419,98.036z M304.722,97.405l-0.482-2.961c1.916-0.312,3.889-0.664,5.865-1.044
				l0.566,2.946C308.668,96.732,306.667,97.088,304.722,97.405z M413.954,95.785c-1.384-1.21-2.944-2.341-4.639-3.363l1.549-2.569
				c1.845,1.112,3.549,2.348,5.064,3.674L413.954,95.785z M316.578,95.144l-0.621-2.935c1.948-0.413,3.896-0.839,5.847-1.273
				l0.652,2.928C320.496,94.301,318.536,94.73,316.578,95.144z M250.597,94.901c-1.942-0.695-3.853-1.48-5.678-2.334l1.271-2.717
				c1.74,0.814,3.562,1.563,5.416,2.226L250.597,94.901z M328.313,92.549l-0.662-2.926l0.604-0.137
				c1.751-0.396,3.502-0.792,5.255-1.183l0.652,2.928c-1.749,0.391-3.497,0.786-5.245,1.181L328.313,92.549z M340.012,89.949
				l-0.627-2.934c1.966-0.42,3.932-0.828,5.9-1.217l0.582,2.943C343.915,89.128,341.962,89.532,340.012,89.949z M404.153,89.81
				c-1.726-0.729-3.572-1.383-5.491-1.942l0.84-2.88c2.029,0.591,3.987,1.284,5.819,2.059L404.153,89.81z M239.488,89.688
				c-1.763-1.053-3.482-2.205-5.112-3.425l1.799-2.401c1.546,1.157,3.178,2.251,4.852,3.25L239.488,89.688z M351.735,87.646
				l-0.518-2.955c2.048-0.358,4.056-0.681,5.968-0.958l0.432,2.969C355.733,86.975,353.754,87.293,351.735,87.646z M392.97,86.52
				c-0.86-0.16-1.721-0.301-2.577-0.424c-1.082-0.156-2.163-0.29-3.244-0.404l0.314-2.983c1.118,0.118,2.236,0.257,3.356,0.417
				c0.896,0.129,1.798,0.277,2.699,0.445L392.97,86.52z M363.516,85.948l-0.324-2.982c2.061-0.224,4.094-0.402,6.042-0.53
				l0.195,2.993C367.524,85.554,365.535,85.729,363.516,85.948z M381.261,85.261c-1.932-0.081-3.932-0.104-5.914-0.074l-0.045-3
				c2.037-0.03,4.097-0.006,6.084,0.077L381.261,85.261z"/>
		</g>
	</g>
</g>
<g id="Livello_1">
</g>
</svg>
