<?xml version="1.0" encoding="iso-8859-1"?>
<!-- Generator: Adobe Illustrator 18.0.0, SVG Export Plug-In . SVG Version: 6.00 Build 0)  -->
<!DOCTYPE svg PUBLIC "-//W3C//DTD SVG 1.1//EN" "http://www.w3.org/Graphics/SVG/1.1/DTD/svg11.dtd">
<svg version="1.1" xmlns="http://www.w3.org/2000/svg" xmlns:xlink="http://www.w3.org/1999/xlink" x="0px" y="0px"
	 viewBox="0 0 512 550.599" style="enable-background:new 0 0 512 550.599;" xml:space="preserve">
<g id="_x23_calculator">
	<g>
		<defs>
			<circle id="SVGID_1_" cx="256" cy="256.005" r="256"/>
		</defs>
		<clipPath id="SVGID_2_">
			<use xlink:href="#SVGID_1_"  style="overflow:visible;"/>
		</clipPath>
		<circle style="clip-path:url(#SVGID_2_);fill:#DB605A;" cx="256" cy="256.005" r="256"/>
		<path style="clip-path:url(#SVGID_2_);fill:#EAEBE1;" d="M410.903,550.599h-311c-6.6,0-12-5.4-12-12v-402c0-6.6,5.4-12,12-12h311
			c6.6,0,12,5.4,12,12v402C422.903,545.199,417.503,550.599,410.903,550.599z"/>
		<path style="clip-path:url(#SVGID_2_);fill:#26424B;" d="M99.903,540.599c-1.084,0-2-0.916-2-2v-402c0-1.084,0.916-2,2-2h311
			c1.084,0,2,0.916,2,2v402c0,1.084-0.916,2-2,2H99.903z"/>
		<rect x="113.403" y="161.266" style="clip-path:url(#SVGID_2_);fill:#EAEBE1;" width="284" height="70"/>
		<g style="clip-path:url(#SVGID_2_);">
			<g>
				<path style="fill:#D1D1CF;" d="M173.438,297.932h-55.035c-2.75,0-5-2.25-5-5v-25.333c0-2.75,2.25-5,5-5h55.035
					c2.75,0,5,2.25,5,5v25.333C178.438,295.682,176.188,297.932,173.438,297.932z"/>
				<path style="fill:#EAEBE1;" d="M173.438,293.932h-55.035c-2.75,0-5-2.25-5-5v-25.333c0-2.75,2.25-5,5-5h55.035
					c2.75,0,5,2.25,5,5v25.333C178.438,291.682,176.188,293.932,173.438,293.932z"/>
			</g>
			<path style="fill:#EAEBE1;" d="M173.438,293.932h-55.035c-2.75,0-5-2.25-5-5v-25.333c0-2.75,2.25-5,5-5h55.035c2.75,0,5,2.25,5,5
				v25.333C178.438,291.682,176.188,293.932,173.438,293.932z"/>
		</g>
		<g style="clip-path:url(#SVGID_2_);">
			<g>
				<path style="fill:#D1D1CF;" d="M246.426,297.932h-55.035c-2.75,0-5-2.25-5-5v-25.333c0-2.75,2.25-5,5-5h55.035
					c2.75,0,5,2.25,5,5v25.333C251.426,295.682,249.176,297.932,246.426,297.932z"/>
				<path style="fill:#EAEBE1;" d="M246.426,293.932h-55.035c-2.75,0-5-2.25-5-5v-25.333c0-2.75,2.25-5,5-5h55.035
					c2.75,0,5,2.25,5,5v25.333C251.426,291.682,249.176,293.932,246.426,293.932z"/>
			</g>
			<path style="fill:#EAEBE1;" d="M246.426,293.932h-55.035c-2.75,0-5-2.25-5-5v-25.333c0-2.75,2.25-5,5-5h55.035c2.75,0,5,2.25,5,5
				v25.333C251.426,291.682,249.176,293.932,246.426,293.932z"/>
		</g>
		<g style="clip-path:url(#SVGID_2_);">
			<g>
				<path style="fill:#D1D1CF;" d="M319.415,297.932H264.38c-2.75,0-5-2.25-5-5v-25.333c0-2.75,2.25-5,5-5h55.035c2.75,0,5,2.25,5,5
					v25.333C324.415,295.682,322.165,297.932,319.415,297.932z"/>
				<path style="fill:#EAEBE1;" d="M319.415,293.932H264.38c-2.75,0-5-2.25-5-5v-25.333c0-2.75,2.25-5,5-5h55.035c2.75,0,5,2.25,5,5
					v25.333C324.415,291.682,322.165,293.932,319.415,293.932z"/>
			</g>
			<path style="fill:#EAEBE1;" d="M319.415,293.932H264.38c-2.75,0-5-2.25-5-5v-25.333c0-2.75,2.25-5,5-5h55.035c2.75,0,5,2.25,5,5
				v25.333C324.415,291.682,322.165,293.932,319.415,293.932z"/>
		</g>
		<g style="clip-path:url(#SVGID_2_);">
			<g>
				<path style="fill:#A44844;" d="M392.403,297.932h-55.035c-2.75,0-5-2.25-5-5v-25.333c0-2.75,2.25-5,5-5h55.035
					c2.75,0,5,2.25,5,5v25.333C397.403,295.682,395.153,297.932,392.403,297.932z"/>
				<path style="fill:#EAEBE1;" d="M392.403,293.932h-55.035c-2.75,0-5-2.25-5-5v-25.333c0-2.75,2.25-5,5-5h55.035
					c2.75,0,5,2.25,5,5v25.333C397.403,291.682,395.153,293.932,392.403,293.932z"/>
			</g>
			<path style="fill:#DB605A;" d="M392.403,293.932h-55.035c-2.75,0-5-2.25-5-5v-25.333c0-2.75,2.25-5,5-5h55.035c2.75,0,5,2.25,5,5
				v25.333C397.403,291.682,395.153,293.932,392.403,293.932z"/>
		</g>
		<g style="clip-path:url(#SVGID_2_);">
			<g>
				<path style="fill:#D1D1CF;" d="M173.438,361.599h-55.035c-2.75,0-5-2.25-5-5v-25.333c0-2.75,2.25-5,5-5h55.035
					c2.75,0,5,2.25,5,5v25.333C178.438,359.349,176.188,361.599,173.438,361.599z"/>
				<path style="fill:#EAEBE1;" d="M173.438,357.599h-55.035c-2.75,0-5-2.25-5-5v-25.333c0-2.75,2.25-5,5-5h55.035
					c2.75,0,5,2.25,5,5v25.333C178.438,355.349,176.188,357.599,173.438,357.599z"/>
			</g>
			<path style="fill:#EAEBE1;" d="M173.438,357.599h-55.035c-2.75,0-5-2.25-5-5v-25.333c0-2.75,2.25-5,5-5h55.035c2.75,0,5,2.25,5,5
				v25.333C178.438,355.349,176.188,357.599,173.438,357.599z"/>
		</g>
		<g style="clip-path:url(#SVGID_2_);">
			<g>
				<path style="fill:#D1D1CF;" d="M246.426,361.599h-55.035c-2.75,0-5-2.25-5-5v-25.333c0-2.75,2.25-5,5-5h55.035
					c2.75,0,5,2.25,5,5v25.333C251.426,359.349,249.176,361.599,246.426,361.599z"/>
				<path style="fill:#EAEBE1;" d="M246.426,357.599h-55.035c-2.75,0-5-2.25-5-5v-25.333c0-2.75,2.25-5,5-5h55.035
					c2.75,0,5,2.25,5,5v25.333C251.426,355.349,249.176,357.599,246.426,357.599z"/>
			</g>
			<path style="fill:#EAEBE1;" d="M246.426,357.599h-55.035c-2.75,0-5-2.25-5-5v-25.333c0-2.75,2.25-5,5-5h55.035c2.75,0,5,2.25,5,5
				v25.333C251.426,355.349,249.176,357.599,246.426,357.599z"/>
		</g>
		<g style="clip-path:url(#SVGID_2_);">
			<g>
				<path style="fill:#D1D1CF;" d="M319.415,361.599H264.38c-2.75,0-5-2.25-5-5v-25.333c0-2.75,2.25-5,5-5h55.035c2.75,0,5,2.25,5,5
					v25.333C324.415,359.349,322.165,361.599,319.415,361.599z"/>
				<path style="fill:#EAEBE1;" d="M319.415,357.599H264.38c-2.75,0-5-2.25-5-5v-25.333c0-2.75,2.25-5,5-5h55.035c2.75,0,5,2.25,5,5
					v25.333C324.415,355.349,322.165,357.599,319.415,357.599z"/>
			</g>
			<path style="fill:#EAEBE1;" d="M319.415,357.599H264.38c-2.75,0-5-2.25-5-5v-25.333c0-2.75,2.25-5,5-5h55.035c2.75,0,5,2.25,5,5
				v25.333C324.415,355.349,322.165,357.599,319.415,357.599z"/>
		</g>
		<g style="clip-path:url(#SVGID_2_);">
			<g>
				<path style="fill:#D1D1CF;" d="M392.403,361.599h-55.035c-2.75,0-5-2.25-5-5v-25.333c0-2.75,2.25-5,5-5h55.035
					c2.75,0,5,2.25,5,5v25.333C397.403,359.349,395.153,361.599,392.403,361.599z"/>
				<path style="fill:#EAEBE1;" d="M392.403,357.599h-55.035c-2.75,0-5-2.25-5-5v-25.333c0-2.75,2.25-5,5-5h55.035
					c2.75,0,5,2.25,5,5v25.333C397.403,355.349,395.153,357.599,392.403,357.599z"/>
			</g>
			<path style="fill:#EAEBE1;" d="M392.403,357.599h-55.035c-2.75,0-5-2.25-5-5v-25.333c0-2.75,2.25-5,5-5h55.035c2.75,0,5,2.25,5,5
				v25.333C397.403,355.349,395.153,357.599,392.403,357.599z"/>
		</g>
		<g style="clip-path:url(#SVGID_2_);">
			<g>
				<path style="fill:#D1D1CF;" d="M173.438,422.266h-55.035c-2.75,0-5-2.25-5-5v-25.333c0-2.75,2.25-5,5-5h55.035
					c2.75,0,5,2.25,5,5v25.333C178.438,420.016,176.188,422.266,173.438,422.266z"/>
				<path style="fill:#EAEBE1;" d="M173.438,418.266h-55.035c-2.75,0-5-2.25-5-5v-25.333c0-2.75,2.25-5,5-5h55.035
					c2.75,0,5,2.25,5,5v25.333C178.438,416.016,176.188,418.266,173.438,418.266z"/>
			</g>
			<path style="fill:#EAEBE1;" d="M173.438,418.266h-55.035c-2.75,0-5-2.25-5-5v-25.333c0-2.75,2.25-5,5-5h55.035c2.75,0,5,2.25,5,5
				v25.333C178.438,416.016,176.188,418.266,173.438,418.266z"/>
		</g>
		<g style="clip-path:url(#SVGID_2_);">
			<g>
				<path style="fill:#D1D1CF;" d="M246.426,422.266h-55.035c-2.75,0-5-2.25-5-5v-25.333c0-2.75,2.25-5,5-5h55.035
					c2.75,0,5,2.25,5,5v25.333C251.426,420.016,249.176,422.266,246.426,422.266z"/>
				<path style="fill:#EAEBE1;" d="M246.426,418.266h-55.035c-2.75,0-5-2.25-5-5v-25.333c0-2.75,2.25-5,5-5h55.035
					c2.75,0,5,2.25,5,5v25.333C251.426,416.016,249.176,418.266,246.426,418.266z"/>
			</g>
			<path style="fill:#EAEBE1;" d="M246.426,418.266h-55.035c-2.75,0-5-2.25-5-5v-25.333c0-2.75,2.25-5,5-5h55.035c2.75,0,5,2.25,5,5
				v25.333C251.426,416.016,249.176,418.266,246.426,418.266z"/>
		</g>
		<g style="clip-path:url(#SVGID_2_);">
			<g>
				<path style="fill:#D1D1CF;" d="M319.415,422.266H264.38c-2.75,0-5-2.25-5-5v-25.333c0-2.75,2.25-5,5-5h55.035c2.75,0,5,2.25,5,5
					v25.333C324.415,420.016,322.165,422.266,319.415,422.266z"/>
				<path style="fill:#EAEBE1;" d="M319.415,418.266H264.38c-2.75,0-5-2.25-5-5v-25.333c0-2.75,2.25-5,5-5h55.035c2.75,0,5,2.25,5,5
					v25.333C324.415,416.016,322.165,418.266,319.415,418.266z"/>
			</g>
			<path style="fill:#EAEBE1;" d="M319.415,418.266H264.38c-2.75,0-5-2.25-5-5v-25.333c0-2.75,2.25-5,5-5h55.035c2.75,0,5,2.25,5,5
				v25.333C324.415,416.016,322.165,418.266,319.415,418.266z"/>
		</g>
		<g style="clip-path:url(#SVGID_2_);">
			<g>
				<path style="fill:#D1D1CF;" d="M173.438,486.266h-55.035c-2.75,0-5-2.25-5-5v-25.333c0-2.75,2.25-5,5-5h55.035
					c2.75,0,5,2.25,5,5v25.333C178.438,484.016,176.188,486.266,173.438,486.266z"/>
				<path style="fill:#EAEBE1;" d="M173.438,482.266h-55.035c-2.75,0-5-2.25-5-5v-25.333c0-2.75,2.25-5,5-5h55.035
					c2.75,0,5,2.25,5,5v25.333C178.438,480.016,176.188,482.266,173.438,482.266z"/>
			</g>
			<path style="fill:#EAEBE1;" d="M173.438,482.266h-55.035c-2.75,0-5-2.25-5-5v-25.333c0-2.75,2.25-5,5-5h55.035c2.75,0,5,2.25,5,5
				v25.333C178.438,480.016,176.188,482.266,173.438,482.266z"/>
		</g>
		<g style="clip-path:url(#SVGID_2_);">
			<g>
				<path style="fill:#D1D1CF;" d="M246.426,486.266h-55.035c-2.75,0-5-2.25-5-5v-25.333c0-2.75,2.25-5,5-5h55.035
					c2.75,0,5,2.25,5,5v25.333C251.426,484.016,249.176,486.266,246.426,486.266z"/>
				<path style="fill:#EAEBE1;" d="M246.426,482.266h-55.035c-2.75,0-5-2.25-5-5v-25.333c0-2.75,2.25-5,5-5h55.035
					c2.75,0,5,2.25,5,5v25.333C251.426,480.016,249.176,482.266,246.426,482.266z"/>
			</g>
			<path style="fill:#EAEBE1;" d="M246.426,482.266h-55.035c-2.75,0-5-2.25-5-5v-25.333c0-2.75,2.25-5,5-5h55.035c2.75,0,5,2.25,5,5
				v25.333C251.426,480.016,249.176,482.266,246.426,482.266z"/>
		</g>
		<g style="clip-path:url(#SVGID_2_);">
			<g>
				<path style="fill:#D1D1CF;" d="M319.415,486.266H264.38c-2.75,0-5-2.25-5-5v-25.333c0-2.75,2.25-5,5-5h55.035c2.75,0,5,2.25,5,5
					v25.333C324.415,484.016,322.165,486.266,319.415,486.266z"/>
				<path style="fill:#EAEBE1;" d="M319.415,482.266H264.38c-2.75,0-5-2.25-5-5v-25.333c0-2.75,2.25-5,5-5h55.035c2.75,0,5,2.25,5,5
					v25.333C324.415,480.016,322.165,482.266,319.415,482.266z"/>
			</g>
			<path style="fill:#EAEBE1;" d="M319.415,482.266H264.38c-2.75,0-5-2.25-5-5v-25.333c0-2.75,2.25-5,5-5h55.035c2.75,0,5,2.25,5,5
				v25.333C324.415,480.016,322.165,482.266,319.415,482.266z"/>
		</g>
		<g style="clip-path:url(#SVGID_2_);">
			<path style="fill:#AE893C;" d="M392.403,485.932h-55.035c-2.75,0-5-2.25-5-5v-82.525c0-2.75,2.25-5,5-5h55.035c2.75,0,5,2.25,5,5
				v82.525C397.403,483.682,395.153,485.932,392.403,485.932z"/>
			<path style="fill:#AE893C;" d="M392.403,475.458h-55.035c-2.75,0-5-2.25-5-5v-82.525c0-2.75,2.25-5,5-5h55.035c2.75,0,5,2.25,5,5
				v82.525C397.403,473.208,395.153,475.458,392.403,475.458z"/>
		</g>
		<path style="clip-path:url(#SVGID_2_);fill:#E8B750;" d="M392.403,481.9h-55.035c-2.75,0-5-2.25-5-5v-88.968c0-2.75,2.25-5,5-5
			h55.035c2.75,0,5,2.25,5,5V476.9C397.403,479.65,395.153,481.9,392.403,481.9z"/>
		<g style="opacity:0.2;clip-path:url(#SVGID_2_);">
			<path style="fill:#FFFFFF;" d="M99.903,124.599c-6.6,0-12,5.4-12,12v319.604l289.353-331.604H99.903z"/>
		</g>
	</g>
</g>
<g id="Livello_1">
</g>
</svg>
