<?xml version="1.0" encoding="iso-8859-1"?>
<!-- Generator: Adobe Illustrator 18.0.0, SVG Export Plug-In . SVG Version: 6.00 Build 0)  -->
<!DOCTYPE svg PUBLIC "-//W3C//DTD SVG 1.1//EN" "http://www.w3.org/Graphics/SVG/1.1/DTD/svg11.dtd">
<svg version="1.1" xmlns="http://www.w3.org/2000/svg" xmlns:xlink="http://www.w3.org/1999/xlink" x="0px" y="0px"
	 viewBox="0 0 512 512.009" style="enable-background:new 0 0 512 512.009;" xml:space="preserve">
<g id="_x23_calendar">
	<g>
		<defs>
			<circle id="SVGID_1_" cx="256" cy="256.005" r="256"/>
		</defs>
		<clipPath id="SVGID_2_">
			<use xlink:href="#SVGID_1_"  style="overflow:visible;"/>
		</clipPath>
		<g style="clip-path:url(#SVGID_2_);">
			<g>
				<circle style="fill:#E8B750;" cx="256" cy="256.005" r="256"/>
			</g>
		</g>
		<rect x="90.575" y="129.368" style="clip-path:url(#SVGID_2_);fill:#DB605A;" width="350.541" height="66.423"/>
		<rect x="90.575" y="195.79" style="clip-path:url(#SVGID_2_);fill:#FFFFFF;" width="350.541" height="302.736"/>
		<g style="clip-path:url(#SVGID_2_);">
			<rect x="114.075" y="220.441" style="fill:#EAEBE1;" width="59" height="59"/>
			<rect x="198.075" y="220.441" style="fill:#EAEBE1;" width="59" height="59"/>
			<rect x="282.075" y="220.441" style="fill:#EAEBE1;" width="59" height="59"/>
			<rect x="366.075" y="220.441" style="fill:#EAEBE1;" width="59" height="59"/>
		</g>
		<g style="clip-path:url(#SVGID_2_);">
			<rect x="114.075" y="311.441" style="fill:#EAEBE1;" width="59" height="59"/>
			<rect x="198.075" y="311.441" style="fill:#EAEBE1;" width="59" height="59"/>
			<rect x="282.075" y="311.441" style="fill:#EAEBE1;" width="59" height="59"/>
			<rect x="366.075" y="311.441" style="fill:#EAEBE1;" width="59" height="59"/>
		</g>
		<g style="clip-path:url(#SVGID_2_);">
			<rect x="114.075" y="402.441" style="fill:#EAEBE1;" width="59" height="59"/>
			<rect x="198.075" y="402.441" style="fill:#EAEBE1;" width="59" height="59"/>
			<rect x="282.075" y="402.441" style="fill:#EAEBE1;" width="59" height="59"/>
			<rect x="366.075" y="402.441" style="fill:#EAEBE1;" width="59" height="59"/>
		</g>
		<g style="clip-path:url(#SVGID_2_);">
			<g>
				
					<rect x="101.847" y="245.606" transform="matrix(0.7071 0.7071 -0.7071 0.7071 218.7868 -28.3166)" style="fill:#DB605A;" width="83.456" height="8.669"/>
			</g>
			<g>
				
					<rect x="101.847" y="245.606" transform="matrix(0.7071 -0.7071 0.7071 0.7071 -134.6828 174.7285)" style="fill:#DB605A;" width="83.456" height="8.669"/>
			</g>
		</g>
		<g style="clip-path:url(#SVGID_2_);">
			<g>
				
					<rect x="101.418" y="336.606" transform="matrix(0.7071 0.7071 -0.7071 0.7071 283.0079 -1.3602)" style="fill:#DB605A;" width="83.456" height="8.669"/>
			</g>
			<g>
				
					<rect x="101.418" y="336.606" transform="matrix(0.7071 -0.7071 0.7071 0.7071 -199.155 201.0786)" style="fill:#DB605A;" width="83.456" height="8.669"/>
			</g>
		</g>
		<g style="clip-path:url(#SVGID_2_);">
			<g>
				
					<rect x="184.918" y="245.606" transform="matrix(0.7071 0.7071 -0.7071 0.7071 243.1178 -87.0569)" style="fill:#DB605A;" width="83.456" height="8.669"/>
			</g>
			<g>
				
					<rect x="184.918" y="245.606" transform="matrix(0.7071 -0.7071 0.7071 0.7071 -110.3517 233.4688)" style="fill:#DB605A;" width="83.456" height="8.669"/>
			</g>
		</g>
		<g style="clip-path:url(#SVGID_2_);">
			<g>
				
					<rect x="268.918" y="245.606" transform="matrix(0.7071 0.7071 -0.7071 0.7071 267.7208 -146.4538)" style="fill:#DB605A;" width="83.456" height="8.669"/>
			</g>
			<g>
				
					<rect x="268.918" y="245.606" transform="matrix(0.7071 -0.7071 0.7071 0.7071 -85.7487 292.8657)" style="fill:#DB605A;" width="83.456" height="8.669"/>
			</g>
		</g>
		<g style="clip-path:url(#SVGID_2_);">
			<g>
				
					<rect x="352.918" y="245.606" transform="matrix(0.7071 0.7071 -0.7071 0.7071 292.3239 -205.8508)" style="fill:#DB605A;" width="83.456" height="8.669"/>
			</g>
			<g>
				
					<rect x="352.918" y="245.606" transform="matrix(0.7071 -0.7071 0.7071 0.7071 -61.1457 352.2627)" style="fill:#DB605A;" width="83.456" height="8.669"/>
			</g>
		</g>
		<rect x="90.575" y="195.79" style="opacity:0.22;clip-path:url(#SVGID_2_);" width="350.541" height="15.15"/>
		<path style="clip-path:url(#SVGID_2_);fill:#26424B;" d="M145.575,163.868h-9c-2.75,0-5-2.25-5-5v-59c0-2.75,2.25-5,5-5h9
			c2.75,0,5,2.25,5,5v59C150.575,161.618,148.325,163.868,145.575,163.868z"/>
		<path style="clip-path:url(#SVGID_2_);fill:#26424B;" d="M230.098,163.868h-9c-2.75,0-5-2.25-5-5v-59c0-2.75,2.25-5,5-5h9
			c2.75,0,5,2.25,5,5v59C235.098,161.618,232.848,163.868,230.098,163.868z"/>
		<path style="clip-path:url(#SVGID_2_);fill:#26424B;" d="M314.622,163.868h-9c-2.75,0-5-2.25-5-5v-59c0-2.75,2.25-5,5-5h9
			c2.75,0,5,2.25,5,5v59C319.622,161.618,317.372,163.868,314.622,163.868z"/>
		<path style="clip-path:url(#SVGID_2_);fill:#26424B;" d="M399.146,163.868h-9c-2.75,0-5-2.25-5-5v-59c0-2.75,2.25-5,5-5h9
			c2.75,0,5,2.25,5,5v59C404.146,161.618,401.896,163.868,399.146,163.868z"/>
		<g style="opacity:0.3;clip-path:url(#SVGID_2_);">
			<polygon style="opacity:0.3;fill:#0D0B10;" points="196.247,498.526 441.115,498.526 441.115,210.941 441.115,195.79 
				441.115,131.224 			"/>
		</g>
	</g>
</g>
<g id="Livello_1">
</g>
</svg>
