<?xml version="1.0" encoding="iso-8859-1"?>
<!-- Generator: Adobe Illustrator 18.0.0, SVG Export Plug-In . SVG Version: 6.00 Build 0)  -->
<!DOCTYPE svg PUBLIC "-//W3C//DTD SVG 1.1//EN" "http://www.w3.org/Graphics/SVG/1.1/DTD/svg11.dtd">
<svg version="1.1" xmlns="http://www.w3.org/2000/svg" xmlns:xlink="http://www.w3.org/1999/xlink" x="0px" y="0px"
	 viewBox="0 0 512 519.231" style="enable-background:new 0 0 512 519.231;" xml:space="preserve">
<g id="_x23_chair">
	<g>
		<defs>
			<circle id="SVGID_1_" cx="256" cy="256.005" r="256"/>
		</defs>
		<clipPath id="SVGID_2_">
			<use xlink:href="#SVGID_1_"  style="overflow:visible;"/>
		</clipPath>
		<g style="clip-path:url(#SVGID_2_);">
			<circle style="fill:#DB605A;" cx="256" cy="256.005" r="256"/>
		</g>
		<rect x="240.311" y="292.521" style="clip-path:url(#SVGID_2_);fill:#E8B750;" width="35.62" height="64.262"/>
		<rect x="243.143" y="381.32" style="clip-path:url(#SVGID_2_);fill:#E8B750;" width="29.956" height="51.395"/>
		<path style="clip-path:url(#SVGID_2_);fill:#26424B;" d="M378.201,387.684H138.042c-8.8,0-16-7.2-16-16v-5.389c0-8.8,7.2-16,16-16
			h240.159c8.8,0,16,7.2,16,16v5.389C394.201,380.484,387.001,387.684,378.201,387.684z"/>
		<path style="clip-path:url(#SVGID_2_);fill:#26424B;" d="M358.255,319.331H162.661c-6.297,0-11.449-5.152-11.449-11.449V202.518
			c0-51.425,42.075-93.5,93.5-93.5h31.492c51.425,0,93.5,42.075,93.5,93.5v105.364C369.704,314.179,364.552,319.331,358.255,319.331
			z"/>
		<g style="clip-path:url(#SVGID_2_);">
			
				<rect x="191.181" y="388.168" transform="matrix(0.4189 0.908 -0.908 0.4189 522.6249 81.5399)" style="fill:#E8B750;" width="12.852" height="121.83"/>
		</g>
		<g style="clip-path:url(#SVGID_2_);">
			
				<rect x="254.092" y="442.657" transform="matrix(0.908 0.4189 -0.4189 0.908 217.0935 -90.6561)" style="fill:#E8B750;" width="121.831" height="12.852"/>
		</g>
		<g style="clip-path:url(#SVGID_2_);">
			<rect x="248.824" y="425.329" style="fill:#E8B750;" width="16.358" height="68.547"/>
		</g>
		<circle style="clip-path:url(#SVGID_2_);fill:#26424B;" cx="138.785" cy="485.737" r="20.681"/>
		<circle style="clip-path:url(#SVGID_2_);fill:#26424B;" cx="255.612" cy="498.55" r="20.681"/>
		<circle style="clip-path:url(#SVGID_2_);fill:#26424B;" cx="364.287" cy="485.737" r="20.681"/>
		<g style="clip-path:url(#SVGID_2_);">
			<path style="fill:#26424B;" d="M393.578,372.024l-7.113-6.073l3.556,3.036l-3.561-3.032c0.131-0.154,13.078-15.579,11.823-29.708
				c-0.469-5.289-2.87-9.653-7.34-13.339l5.95-7.215c6.422,5.297,10.025,11.947,10.709,19.766
				C409.183,353.514,394.216,371.277,393.578,372.024z"/>
		</g>
		<path style="clip-path:url(#SVGID_2_);fill:#26424B;" d="M403.588,322.837h-22.439c-3.469,0-6.306-2.838-6.306-6.306v-2.124
			c0-3.469,2.838-6.306,6.306-6.306h22.439c3.469,0,6.306,2.838,6.306,6.306v2.124C409.894,319.999,407.057,322.837,403.588,322.837
			z"/>
		<g style="clip-path:url(#SVGID_2_);">
			<path style="fill:#26424B;" d="M124.422,375.822l7.113-6.072l-3.556,3.036l3.561-3.032c-0.131-0.154-13.078-15.579-11.823-29.708
				c0.469-5.289,2.87-9.653,7.34-13.339l-5.95-7.215c-6.422,5.297-10.025,11.947-10.709,19.766
				C108.817,357.311,123.784,375.074,124.422,375.822z"/>
		</g>
		<path style="clip-path:url(#SVGID_2_);fill:#26424B;" d="M114.412,326.634h22.439c3.469,0,6.306-2.838,6.306-6.306v-2.124
			c0-3.469-2.838-6.306-6.306-6.306h-22.439c-3.469,0-6.306,2.838-6.306,6.306v2.124
			C108.106,323.796,110.943,326.634,114.412,326.634z"/>
		<g style="clip-path:url(#SVGID_2_);">
			<path style="opacity:0.14;fill:#0D0B10;" d="M318.052,125.553L162.644,319.172c0.637,0.094,1.283,0.159,1.945,0.159h191.738
				c7.357,0,13.377-6.02,13.377-13.377v-87.69C369.704,179.277,349.002,144.896,318.052,125.553z"/>
		</g>
	</g>
</g>
<g id="Livello_1">
</g>
</svg>
