<?xml version="1.0" encoding="iso-8859-1"?>
<!-- Generator: Adobe Illustrator 18.0.0, SVG Export Plug-In . SVG Version: 6.00 Build 0)  -->
<!DOCTYPE svg PUBLIC "-//W3C//DTD SVG 1.1//EN" "http://www.w3.org/Graphics/SVG/1.1/DTD/svg11.dtd">
<svg version="1.1" xmlns="http://www.w3.org/2000/svg" xmlns:xlink="http://www.w3.org/1999/xlink" x="0px" y="0px"
	 viewBox="0 0 760.602 666.179" style="enable-background:new 0 0 760.602 666.179;" xml:space="preserve">
<g id="_x23_computer">
	<g>
		<defs>
			<circle id="SVGID_1_" cx="257.71" cy="256.005" r="256"/>
		</defs>
		<clipPath id="SVGID_2_">
			<use xlink:href="#SVGID_1_"  style="overflow:visible;"/>
		</clipPath>
		<g style="clip-path:url(#SVGID_2_);">
			<circle style="fill:#E8B750;" cx="257.71" cy="256.005" r="256"/>
		</g>
		<polygon style="opacity:0.29;clip-path:url(#SVGID_2_);" points="545.41,666.179 118.48,320.458 231.951,180.334 391.868,66.233 
			760.602,400.439 		"/>
		<g style="clip-path:url(#SVGID_2_);">
			<path style="fill:#EAEBE1;stroke:#FFFFFF;stroke-miterlimit:10;" d="M446.094,418.655H68.759c-6.6,0-12-5.4-12-12V159.971
				c0-6.6,5.4-12,12-12h377.335c6.6,0,12,5.4,12,12v246.684C458.094,413.255,452.694,418.655,446.094,418.655z"/>
			
				<rect x="76.759" y="171.297" style="fill:#77B4BE;stroke:#26424B;stroke-width:10;stroke-miterlimit:10;" width="361.334" height="203.922"/>
			<rect x="218.661" y="381.921" style="fill:#EAEBE1;" width="79.369" height="88.389"/>
			<path style="fill:#EAEBE1;" d="M358.378,490.284H158.314c-6.6,0-12-5.4-12-12v-7.363c0-6.6,5.4-12,12-12h200.064
				c6.6,0,12,5.4,12,12v7.363C370.378,484.884,364.978,490.284,358.378,490.284z"/>
			<g>
				<circle style="fill:none;" cx="256" cy="256.005" r="256"/>
			</g>
			<circle style="fill:#26424B;" cx="258.346" cy="398.545" r="9.302"/>
			<rect x="122.985" y="66.233" style="fill:#F8F8F8;" width="268.883" height="303.765"/>
			<rect x="122.985" y="348.775" style="fill:#DB605A;" width="268.883" height="21.465"/>
			<rect x="122.985" y="130.345" style="fill:#26424B;" width="268.883" height="62.242"/>
			<g>
				<g>
					<path style="fill:#DB605A;" d="M164.131,100.558c0,5.32-4.33,9.66-9.67,9.66s-9.67-4.34-9.67-9.66c0-5.34,4.33-9.68,9.67-9.68
						S164.131,95.218,164.131,100.558z"/>
					<g>
						<path style="fill:#E8B750;" d="M138.783,109.069c-1.072,0-4.334,0-5.148-2.235c-0.722-1.98,0.964-4.253,5.154-6.948
							c3.456-2.224,8.271-4.509,13.56-6.437c6.928-2.525,13.578-4.033,17.79-4.033c1.071,0,4.334,0,5.148,2.235
							c0.722,1.98-0.964,4.253-5.154,6.948c-3.456,2.224-8.271,4.509-13.56,6.437C149.644,107.561,142.994,109.069,138.783,109.069z
							 M136.529,105.766c0.255,0.114,0.884,0.303,2.254,0.303c3.821,0,10.244-1.476,16.763-3.852
							c10.451-3.81,16.219-7.985,16.847-9.5c-0.255-0.114-0.884-0.303-2.254-0.303c-3.822,0-10.245,1.476-16.763,3.852
							C142.925,100.076,137.156,104.252,136.529,105.766z"/>
					</g>
				</g>
				<g>
					<path style="fill:none;" d="M144.828,99.923c-5.053,2.545-7.871,4.812-8.299,5.843c0.255,0.114,0.884,0.303,2.254,0.303
						c1.856,0,4.329-0.351,7.126-0.981c2.961-0.667,6.285-1.649,9.637-2.87c3.254-1.186,6.054-2.408,8.386-3.574
						c5.158-2.578,8.028-4.883,8.461-5.926c-0.255-0.114-0.884-0.303-2.254-0.303c-2.219,0-5.319,0.5-8.801,1.383
						c-2.515,0.637-5.229,1.473-7.961,2.469C150.044,97.481,147.193,98.732,144.828,99.923z"/>
					<path style="fill:none;" d="M145.909,105.087c-2.797,0.63-5.27,0.981-7.126,0.981c-1.37,0-1.999-0.189-2.254-0.303
						c0.427-1.031,3.245-3.298,8.299-5.843c0.094-1.38,0.471-2.68,1.084-3.841c-2.706,1.236-5.142,2.528-7.122,3.802
						c-4.19,2.695-5.876,4.968-5.154,6.948c0.814,2.235,4.076,2.235,5.148,2.235c2.392,0,5.573-0.488,9.144-1.371
						C147.115,106.95,146.428,106.072,145.909,105.087z"/>
					<path style="fill:none;" d="M175.287,91.65c-0.814-2.235-4.077-2.235-5.148-2.235c-3.045,0-7.367,0.791-12.144,2.182
						c1.266,0.498,2.403,1.249,3.343,2.201c3.483-0.882,6.582-1.383,8.801-1.383c1.37,0,1.999,0.189,2.254,0.303
						c-0.432,1.043-3.303,3.347-8.461,5.926c0.128,0.628,0.196,1.278,0.196,1.945c0,0.459-0.043,0.906-0.105,1.348
						c2.304-1.093,4.378-2.223,6.11-3.337C174.323,95.903,176.009,93.63,175.287,91.65z"/>
					<path style="fill:#DB605A;" d="M157.995,91.597c-1.831,0.533-3.727,1.151-5.646,1.851c-2.258,0.823-4.42,1.714-6.437,2.635
						c-0.613,1.16-0.99,2.461-1.084,3.841c2.365-1.191,5.216-2.442,8.548-3.657c2.733-0.996,5.447-1.832,7.961-2.469
						C160.398,92.846,159.26,92.095,157.995,91.597z"/>
				</g>
			</g>
			<g>
				<circle style="fill:#77B4BE;" cx="169.593" cy="247.719" r="16.71"/>
				<circle style="fill:#77B4BE;" cx="228.149" cy="247.719" r="16.71"/>
				<circle style="fill:#77B4BE;" cx="286.704" cy="247.719" r="16.71"/>
				<circle style="fill:#77B4BE;" cx="345.26" cy="247.719" r="16.71"/>
			</g>
			<g>
				<rect x="224.794" y="96.242" style="fill:#DB605A;" width="32.031" height="6"/>
			</g>
			<g>
				<rect x="263.794" y="96.242" style="fill:#DB605A;" width="32.031" height="6"/>
			</g>
			<g>
				<rect x="302.794" y="96.242" style="fill:#DB605A;" width="32.031" height="6"/>
			</g>
			<g>
				<rect x="341.794" y="96.242" style="fill:#DB605A;" width="32.031" height="6"/>
			</g>
			<rect x="152.883" y="286.974" style="fill:#DB605A;" width="46.402" height="42.947"/>
			<g>
				<rect x="224.793" y="290.421" style="fill:#DB605A;" width="137.177" height="3"/>
			</g>
			<g>
				<rect x="224.793" y="302.421" style="fill:#DB605A;" width="137.177" height="3"/>
			</g>
			<g>
				<rect x="224.793" y="314.421" style="fill:#DB605A;" width="137.177" height="3"/>
			</g>
			<g>
				<rect x="224.793" y="326.421" style="fill:#DB605A;" width="137.177" height="3"/>
			</g>
		</g>
		<polygon style="opacity:0.14;clip-path:url(#SVGID_2_);" points="391.868,147.971 458.284,200.421 458.094,401.921 
			391.868,370.24 		"/>
	</g>
</g>
<g id="Livello_1">
</g>
</svg>
