<?xml version="1.0" encoding="iso-8859-1"?>
<!-- Generator: Adobe Illustrator 18.0.0, SVG Export Plug-In . SVG Version: 6.00 Build 0)  -->
<!DOCTYPE svg PUBLIC "-//W3C//DTD SVG 1.1//EN" "http://www.w3.org/Graphics/SVG/1.1/DTD/svg11.dtd">
<svg version="1.1" xmlns="http://www.w3.org/2000/svg" xmlns:xlink="http://www.w3.org/1999/xlink" x="0px" y="0px"
	 viewBox="0 0 512 548.63" style="enable-background:new 0 0 512 548.63;" xml:space="preserve">
<g id="_x23_drawer">
	<g>
		<defs>
			<circle id="SVGID_1_" cx="256" cy="256.005" r="256"/>
		</defs>
		<clipPath id="SVGID_2_">
			<use xlink:href="#SVGID_1_"  style="overflow:visible;"/>
		</clipPath>
		<circle style="clip-path:url(#SVGID_2_);fill:#78C1B0;" cx="256" cy="256.005" r="256"/>
		<rect x="103.515" y="187.599" style="clip-path:url(#SVGID_2_);fill:#BEA163;" width="333.639" height="262.993"/>
		<g style="clip-path:url(#SVGID_2_);">
			<g>
				<polygon style="fill:#AE893C;" points="437.269,358.259 270.046,423.697 270.046,299.92 437.269,234.483 				"/>
				<polygon style="fill:#E8B750;" points="201.848,273.37 166.135,259.394 103.285,234.8 103.285,358.576 270.507,424.014 
					270.507,300.238 				"/>
			</g>
			<g>
				<polygon style="fill:#AE893C;" points="437.499,482.875 270.277,548.313 270.277,424.536 437.499,359.099 				"/>
				<polygon style="fill:#E8B750;" points="202.078,397.986 166.365,384.01 103.515,359.416 103.515,483.192 270.737,548.63 
					270.737,424.854 				"/>
			</g>
			<g>
				<polygon style="fill:#BEA163;" points="437.384,109.768 368.725,82.9 333.012,68.925 270.622,44.51 270.622,44.33 
					270.392,44.42 270.162,44.33 270.162,44.51 103.4,109.768 103.4,233.544 437.384,233.544 				"/>
				<polygon style="fill:#AE893C;" points="437.154,233.227 269.931,298.664 269.931,174.888 437.154,109.451 				"/>
				<polygon style="fill:#E8B750;" points="201.733,148.338 166.02,134.362 103.17,109.768 103.17,233.544 270.392,298.982 
					270.392,175.205 				"/>
				<polygon style="fill:#E8B750;" points="201.733,148.338 166.02,134.362 103.17,109.768 103.17,233.544 270.392,298.982 
					270.392,175.205 				"/>
				<g>
					<path style="opacity:0.14;fill:#0D0B10;" d="M103.17,253.729c0,0,121.003,46.333,121.003,48s25.879-32.667,25.879-32.667
						l-146.773-20.708L103.17,253.729z"/>
				</g>
				<g>
					<g>
						<polygon style="fill:#BEA163;" points="137.04,140.003 85.105,160.464 85.105,244.593 250.051,244.593 250.051,184.015 						
							"/>
					</g>
					<polygon style="fill:#8F794A;" points="137.04,140.003 137.04,189.848 249.858,238.27 250.051,184.472 					"/>
					<g>
						<polygon style="fill:#FFFFFF;" points="146.824,103.196 123.277,119.442 123.277,120.533 123.277,211.51 216.293,251.265 
							216.293,131.745 						"/>
					</g>
					<polygon style="fill:#E8B750;" points="151.94,186.679 127.667,177.18 84.949,160.464 84.949,244.593 198.607,289.069 
						198.607,204.941 					"/>
					<g>
						<polygon style="fill:#AE893C;" points="198.294,204.725 198.294,288.854 249.749,268.718 250.051,184.472 						"/>
					</g>
					<polygon style="opacity:0.14;fill:#0D0B10;" points="123.277,119.442 140.224,127.477 146.824,103.196 					"/>
					<polyline style="fill:#EAEBE1;" points="123.277,119.442 142.836,123.845 146.824,103.196 					"/>
				</g>
			</g>
			<path style="fill:#8F794A;" d="M162.941,207.989l-42.504-15.799c-2.073-0.771-3.139-3.098-2.369-5.171l0,0
				c0.771-2.073,3.098-3.139,5.171-2.368l42.504,15.799c2.073,0.771,3.139,3.098,2.368,5.171l0,0
				C167.342,207.694,165.015,208.76,162.941,207.989z"/>
			<path style="fill:#8F794A;" d="M201.932,310.651l-42.504-15.799c-2.073-0.771-3.139-3.098-2.368-5.171l0,0
				c0.771-2.073,3.098-3.139,5.171-2.368l42.504,15.799c2.073,0.771,3.139,3.098,2.369,5.171l0,0
				C206.332,310.356,204.005,311.422,201.932,310.651z"/>
			<path style="fill:#8F794A;" d="M195.561,422.308l-42.504-15.799c-2.073-0.771-3.139-3.098-2.369-5.171l0,0
				c0.771-2.073,3.098-3.139,5.171-2.368l42.504,15.799c2.073,0.771,3.139,3.098,2.368,5.171l0,0
				C199.961,422.013,197.634,423.079,195.561,422.308z"/>
		</g>
	</g>
</g>
<g id="Livello_1">
</g>
</svg>
