<?xml version="1.0" encoding="utf-8"?>
<!-- Generator: Adobe Illustrator 18.1.0, SVG Export Plug-In . SVG Version: 6.00 Build 0)  -->
<!DOCTYPE svg PUBLIC "-//W3C//DTD SVG 1.1//EN" "http://www.w3.org/Graphics/SVG/1.1/DTD/svg11.dtd">
<svg version="1.1" id="Livello_1" xmlns="http://www.w3.org/2000/svg" xmlns:xlink="http://www.w3.org/1999/xlink" x="0px" y="0px"
	 viewBox="0 0 534.7 527.6" enable-background="new 0 0 534.7 527.6" xml:space="preserve">
<circle fill="#77B4BE" cx="278.7" cy="256" r="256"/>
<g>
	
		<rect x="55.3" y="106.3" transform="matrix(0.9451 -0.3269 0.3269 0.9451 -86.9965 80.6733)" fill="#E2E2E2" width="282.4" height="385.8"/>
</g>
<g>
	<g>
		
			<rect x="43.5" y="176.5" transform="matrix(0.9427 -0.3338 0.3338 0.9427 -65.3943 39.36)" fill="#FFFFFF" width="76.7" height="67"/>
	</g>
	<g>
		
			<rect x="67.4" y="241.1" transform="matrix(0.9427 -0.3338 0.3338 0.9427 -84.293 58.6224)" fill="#FFFFFF" width="122.1" height="67"/>
	</g>
	<g>
		
			<rect x="123.9" y="408.8" transform="matrix(0.9427 -0.3338 0.3338 0.9427 -138.3087 79.5897)" fill="#FFFFFF" width="77.1" height="67"/>
	</g>
	<g>
		
			<rect x="201.4" y="381.4" transform="matrix(0.9427 -0.3338 0.3338 0.9427 -124.72 103.859)" fill="#FFFFFF" width="77.1" height="67"/>
	</g>
	<g>
		
			<rect x="278" y="354.3" transform="matrix(0.9427 -0.3338 0.3338 0.9427 -111.2665 127.887)" fill="#FFFFFF" width="77.1" height="67"/>
	</g>
	<g>
		
			<rect x="84" y="296.4" transform="matrix(0.9427 -0.3338 0.3338 0.9427 -93.2481 86.1167)" fill="#FFFFFF" width="240.1" height="36"/>
	</g>
	<g>
		
			<rect x="99.7" y="340.5" transform="matrix(0.9427 -0.3338 0.3338 0.9427 -107.0386 93.8922)" fill="#FFFFFF" width="240.1" height="36"/>
	</g>
	<g>
		
			<rect x="187.5" y="211.6" transform="matrix(-0.9427 0.3338 -0.3338 -0.9427 501.5434 404.0974)" fill="#FFFFFF" width="57.1" height="67"/>
	</g>
	<g>
		
			<rect x="245.9" y="191.8" transform="matrix(-0.9427 0.3338 -0.3338 -0.9427 603.6624 346.9199)" fill="#FFFFFF" width="52.3" height="67"/>
	</g>
	<g>
		
			<rect x="117.8" y="135.7" transform="matrix(0.9427 -0.3338 0.3338 0.9427 -45.1479 75.5203)" fill="#FFFFFF" width="158.8" height="67"/>
	</g>
</g>
<polygon opacity="0.1" fill="#0D0D0D" points="162.5,106.8 144.6,113 166.3,435.3 184.3,99.3 "/>
<rect x="166.3" y="49.5" fill="#EFEFEF" width="282.4" height="385.8"/>
<line fill="#C0CACC" x1="196.5" y1="266.3" x2="196.5" y2="257.6"/>
<line fill="#C0CACC" x1="418.5" y1="257.6" x2="418.5" y2="266.3"/>
<g>
	<g>
		<rect x="189.8" y="77.4" fill="#FFFFFF" width="76.7" height="67"/>
	</g>
	<g>
		<rect x="189.4" y="153.9" fill="#FFFFFF" width="122.1" height="67"/>
	</g>
	<g>
		<rect x="188" y="323.3" fill="#FFFFFF" width="77.1" height="67"/>
	</g>
	<g>
		<rect x="270.1" y="323.3" fill="#FFFFFF" width="77.1" height="67"/>
	</g>
	<g>
		<rect x="351.5" y="323.3" fill="#FFFFFF" width="77.1" height="67"/>
	</g>
	<g>
		<rect x="188.3" y="232.1" fill="#FFFFFF" width="240.1" height="36"/>
	</g>
	<g>
		<rect x="188.5" y="278.9" fill="#FFFFFF" width="240.1" height="36"/>
	</g>
	<g>
		<rect x="314.3" y="155.3" fill="#FFFFFF" width="57.1" height="67"/>
	</g>
	<g>
		<rect x="376.1" y="155.3" fill="#FFFFFF" width="52.3" height="67"/>
	</g>
	<g>
		<rect x="271.1" y="77.4" fill="#FFFFFF" width="158.8" height="67"/>
	</g>
</g>
<g>
</g>
<g>
</g>
<g>
</g>
<g>
</g>
<g>
</g>
<g>
</g>
<g>
</g>
<g>
</g>
<g>
</g>
<g>
</g>
<g>
</g>
<g>
</g>
<g>
</g>
<g>
</g>
<g>
</g>
</svg>
