<?xml version="1.0" encoding="utf-8"?>
<!-- Generator: Adobe Illustrator 18.1.0, SVG Export Plug-In . SVG Version: 6.00 Build 0)  -->
<!DOCTYPE svg PUBLIC "-//W3C//DTD SVG 1.1//EN" "http://www.w3.org/Graphics/SVG/1.1/DTD/svg11.dtd">
<svg version="1.1" id="Livello_1" xmlns="http://www.w3.org/2000/svg" xmlns:xlink="http://www.w3.org/1999/xlink" x="0px" y="0px"
	 viewBox="0 0 522.2 506.6" enable-background="new 0 0 522.2 506.6" xml:space="preserve">
<circle fill="#E8B750" cx="253.3" cy="253.3" r="253.3"/>
<polygon opacity="0.21" points="145.9,78.7 287.6,180.9 287.6,227.7 278.2,254.5 132.7,164.7 "/>
<g>
	<path fill="#E8B750" d="M480.2,362.4l-37-31.7H146.5l-4.8,62.5l186.9,101.4C395.7,473.6,450.6,425.2,480.2,362.4z"/>
	<path opacity="0.21" d="M480.2,362.4l-37-31.7H146.5l-4.8,62.5l186.9,101.4C395.7,473.6,450.6,425.2,480.2,362.4z"/>
	<path fill="#E8B750" d="M404.7,121.7l-41,41.5L504,255.9c0-21.8-2.8-43-8.1-63.2C458.6,164.9,404.7,124.2,404.7,121.7z"/>
	<path opacity="0.21" d="M404.7,121.7l-41,41.5L504,255.9c0-21.8-2.8-43-8.1-63.2C458.6,164.9,404.7,124.2,404.7,121.7z"/>
</g>
<g>
	<path fill="#FFE2C5" d="M258.6,232.1c-15.9,2.4-108.8-12-121.6,1.3c-14.3,14.8-10.9,65.6-9.8,84.6c4.5,83.6,61.9,74,114,75.9
		c48,1.7,109.8,6.2,106.1-83.7C343.7,227.7,302.3,225.6,258.6,232.1z"/>
	<g opacity="0.11">
		<path d="M133.2,224c-24.2-1.6-43.7,21.4-17.6,36.8c13.2,7.7,80.1,3.8,90.2-6c13-12.6,10.4-19.1,0.2-25.4
			c-24.6-15.2-93.7-15-96.1,6.3"/>
		<path d="M126.8,271.7c-24.2-1.6-43.7,21.4-17.6,36.8c13.2,7.7,80.1,3.8,90.2-6c44.3-43.1-92.6-49.1-95.9-19.1"/>
		<path d="M140.5,313.8c-24.2-1.6-43.7,21.4-17.6,36.8c13.2,7.7,80.1,3.8,90.2-6c44.3-43.1-92.6-49.1-95.9-19.1"/>
		<path d="M146,360.7c-19.7-1.3-35.6,17.5-14.3,29.9c10.7,6.3,65.2,3.1,73.4-4.9c36.1-35.1-75.3-40-78-15.5"/>
	</g>
	<polygon fill="#FFE2C5" points="339.1,264.8 481.1,269.2 478,365.5 331.5,365.5 	"/>
	<g>
		<path fill="#FFE2C5" d="M128.9,222.7c-23.4-1.7-42.1,21.3-16.8,36.8c12.8,7.8,77.4,4.1,87.1-5.7c42.6-43-89.6-49.6-92.6-19.5"/>
		<path fill="#FFE2C5" d="M122.9,270.6c-23.4-1.7-42.1,21.3-16.8,36.8c12.8,7.8,77.4,4.1,87.1-5.7c42.6-43-89.6-49.6-92.6-19.5"/>
		<path fill="#FFE2C5" d="M136.2,312.8c-23.4-1.7-42.1,21.3-16.8,36.8c12.8,7.8,77.4,4.1,87.1-5.7c42.6-43-89.6-49.6-92.6-19.5"/>
		<path fill="#FFE2C5" d="M141.7,359.8c-19-1.4-34.3,17.4-13.7,30c10.4,6.4,63,3.3,70.9-4.6c34.7-35-72.9-40.4-75.4-15.9"/>
	</g>
	<path fill="#FFE2C5" d="M283.9,249.8c4,2.5,8.7,3.5,13.4,4.2c9.7,1.3,19.6,0.9,29.2-1.2c-6-27.9-27.1-50.7-33.2-78.6
		c-2.3-10.4-2.5-21.5-6.8-31.3c0-0.1-0.1-0.2-0.1-0.3c-6.4-13.8-26.9-10.2-28.6,4.8c-3.3,28.6,1.1,58.1,12.8,84.5
		C273.5,238.8,277.4,245.9,283.9,249.8z"/>
	<polygon fill="#FFFFFF" points="422.2,254.5 372,254.5 372,379.4 422.2,378.5 	"/>
	<polygon fill="#26424B" points="402.6,243.3 397.1,390.6 518.2,383.7 522.2,264.7 	"/>
</g>
<polygon fill="#FFFFFF" points="132.7,111.7 145.9,78.7 167.6,108.7 197.8,111.7 180.7,129.7 192.3,159.7 158.9,141.7 132.7,164.7 
	127.6,135.7 102.2,123.7 "/>
<polygon opacity="0.21" points="271.7,24.6 401.6,126.2 372,162.4 252.8,91.5 "/>
<polygon fill="#FFFFFF" points="384.6,134.4 404.7,121.7 404.7,146.5 419.9,160 403.6,163 398,183.9 387,161 363.8,163.1 
	372.4,145.4 363.4,128.9 "/>
<polygon fill="#FFFFFF" points="258,49.5 271.7,24.6 286,50.5 309.6,55.9 294.3,68.5 300.5,93.4 275.9,75.8 252.8,91.5 251.6,68 
	232.7,56 "/>
<g>
</g>
<g>
</g>
<g>
</g>
<g>
</g>
<g>
</g>
<g>
</g>
<g>
</g>
<g>
</g>
<g>
</g>
<g>
</g>
<g>
</g>
<g>
</g>
<g>
</g>
<g>
</g>
<g>
</g>
</svg>
