<?xml version="1.0" encoding="iso-8859-1"?>
<!-- Generator: Adobe Illustrator 18.0.0, SVG Export Plug-In . SVG Version: 6.00 Build 0)  -->
<!DOCTYPE svg PUBLIC "-//W3C//DTD SVG 1.1//EN" "http://www.w3.org/Graphics/SVG/1.1/DTD/svg11.dtd">
<svg version="1.1" xmlns="http://www.w3.org/2000/svg" xmlns:xlink="http://www.w3.org/1999/xlink" x="0px" y="0px"
	 viewBox="0 0 529.623 587.501" style="enable-background:new 0 0 529.623 587.501;" xml:space="preserve">
<g id="_x23_inbox">
	<g>
		<defs>
			<circle id="SVGID_1_" cx="256" cy="256.005" r="256"/>
		</defs>
		<clipPath id="SVGID_2_">
			<use xlink:href="#SVGID_1_"  style="overflow:visible;"/>
		</clipPath>
		<g style="clip-path:url(#SVGID_2_);">
			<circle style="fill:#DB605A;" cx="256" cy="256.005" r="256"/>
		</g>
		<polygon style="clip-path:url(#SVGID_2_);fill:#BEA163;" points="259.273,341.596 60.724,419.292 60.724,272.328 259.273,194.632 
					"/>
		<polygon style="opacity:0.22;clip-path:url(#SVGID_2_);" points="378.131,587.501 105.201,374.029 258.727,194.632 
			529.623,304.015 		"/>
		<polygon style="clip-path:url(#SVGID_2_);fill:#BEA163;" points="375.754,240.427 372.769,266.608 333.351,251.236 
			333.351,223.834 258.727,194.632 258.727,341.596 457.276,419.292 457.276,272.328 		"/>
		<polygon style="clip-path:url(#SVGID_2_);fill:#5F5132;" points="259.547,419.292 60.997,341.855 259.273,272.328 
			455.803,348.349 		"/>
		<polygon style="clip-path:url(#SVGID_2_);fill:#EAEBE1;stroke:#FFFFFF;stroke-miterlimit:10;" points="259.273,272.328 
			168.846,304.037 309.846,363.303 400.35,324.839 		"/>
		<polyline style="clip-path:url(#SVGID_2_);fill:#FFFFFF;" points="145.637,307.98 109.81,194.632 304.755,261.486 
			332.754,390.552 145.637,311.902 		"/>
		<polygon style="clip-path:url(#SVGID_2_);fill:#AE893C;" points="457.276,418.916 258.727,496.612 258.727,349.648 
			457.276,271.952 		"/>
		<path style="clip-path:url(#SVGID_2_);fill:#BEA163;" d="M30.614,463.095"/>
		<polygon style="clip-path:url(#SVGID_2_);fill:#E8B750;" points="177.752,318.124 174.766,344.304 135.348,328.932 
			135.348,301.53 60.724,272.328 60.724,419.292 259.273,496.989 259.273,350.025 		"/>
		<g style="clip-path:url(#SVGID_2_);">
			<path style="fill:none;stroke:#FFFFFF;stroke-width:2;stroke-miterlimit:10;" d="M112.393,194.349
				c0.365-0.929,0.769-1.83,1.209-2.706"/>
			<path style="fill:none;stroke:#FFFFFF;stroke-width:2;stroke-miterlimit:10;stroke-dasharray:5.9385,5.9385;" d="M116.661,186.7
				c5.897-7.929,15.006-13.226,24.111-16.678c11.019-4.178,23.078-6.398,34.42-3.372c11.342,3.026,21.747,12.13,24.382,24.327
				c0.475,2.198,0.644,4.7-0.591,6.529c-0.755,1.119-1.928,1.814-3.065,2.465c-5.554,3.181-11.461,6.249-17.759,6.264
				c-6.298,0.015-13.046-3.952-14.479-10.521c-0.751-3.444,0.027-7.074,1.257-10.357c5.566-14.851,19.542-24.008,33.389-30.021
				c25.618-11.126,53.926-15.06,81.347-11.304c8.693,1.191,17.461,3.205,25.053,7.894c6.802,4.201,12.457,10.501,16.11,17.945
				c2.703,5.51,4.111,12.824,0.338,17.557c-2.833,3.553-7.618,4.384-11.979,4.489c-16.712,0.404-35.217-8.727-39.756-25.958
				c-2.938-11.155,0.655-23.403,7.169-32.659c5.398-7.67,12.591-13.598,20.174-18.805"/>
			<path style="fill:none;stroke:#FFFFFF;stroke-width:2;stroke-miterlimit:10;" d="M299.129,112.911
				c0.795-0.527,1.593-1.047,2.391-1.562"/>
		</g>
		<path style="clip-path:url(#SVGID_2_);fill:#EAEBE1;" d="M308.389,69.88c0.791-4.049,1.982-8.012,3.347-11.906
			c1.664-4.749,4.439-10.104,9.429-10.758c1.275-0.167,2.655,0.042,3.655,0.85c1.527,1.235,1.768,3.441,1.8,5.404
			c0.305,18.72-7.576,36.483-15.301,53.537c4.815-4.691,9.756-9.253,14.815-13.679c4.603-4.026,9.421-8.011,15.136-10.187
			c5.715-2.176,12.558-2.274,17.595,1.194c1.07,2.76-0.194,5.986-2.308,8.058c-2.114,2.072-4.93,3.237-7.671,4.354
			c-11.681,4.76-23.564,9.571-36.115,10.828C307.478,95.863,305.924,82.494,308.389,69.88z"/>
	</g>
</g>
<g id="Livello_1">
</g>
</svg>
