<?xml version="1.0" encoding="iso-8859-1"?>
<!-- Generator: Adobe Illustrator 18.0.0, SVG Export Plug-In . SVG Version: 6.00 Build 0)  -->
<!DOCTYPE svg PUBLIC "-//W3C//DTD SVG 1.1//EN" "http://www.w3.org/Graphics/SVG/1.1/DTD/svg11.dtd">
<svg version="1.1" xmlns="http://www.w3.org/2000/svg" xmlns:xlink="http://www.w3.org/1999/xlink" x="0px" y="0px"
	 viewBox="0 0 530.098 566.953" style="enable-background:new 0 0 530.098 566.953;" xml:space="preserve">
<g id="_x23_keys">
	<g>
		<defs>
			<circle id="SVGID_1_" cx="256" cy="256.005" r="256"/>
		</defs>
		<clipPath id="SVGID_2_">
			<use xlink:href="#SVGID_1_"  style="overflow:visible;"/>
		</clipPath>
		<circle style="clip-path:url(#SVGID_2_);fill:#DB605A;" cx="256" cy="256.005" r="256"/>
		<polygon style="opacity:0.22;clip-path:url(#SVGID_2_);" points="447.16,499.456 312.167,484.457 357.207,95.166 530.098,262.009 
					"/>
		<polygon style="opacity:0.22;clip-path:url(#SVGID_2_);" points="358.665,566.953 182.251,397.954 204.173,161.973 256,46.173 
			357.165,200.971 		"/>
		<path style="opacity:0.29;clip-path:url(#SVGID_2_);fill:#522422;" d="M253.446,39.527h-202c-6.6,0-12,5.4-12,12v104.309
			c0,6.6,5.4,12,12,12h202c6.6,0,12-5.4,12-12V51.527C265.446,44.927,260.046,39.527,253.446,39.527z M242.446,94.929
			c0,4.264-3.488,7.752-7.752,7.752h-58.496c-4.264,0-7.752-3.488-7.752-7.752V71.279c0-4.264,3.488-7.752,7.752-7.752h58.496
			c4.264,0,7.752,3.488,7.752,7.752V94.929z"/>
		<path style="clip-path:url(#SVGID_2_);fill:#EAEBE1;" d="M248.083,42.933H56.809c-6.25,0-11.363,5.113-11.363,11.363v98.77
			c0,6.25,5.113,11.363,11.363,11.363h191.274c6.25,0,11.363-5.113,11.363-11.363v-98.77
			C259.446,48.047,254.333,42.933,248.083,42.933z M237.667,95.394c0,4.037-3.303,7.34-7.34,7.34h-55.39
			c-4.037,0-7.34-3.303-7.34-7.34V72.999c0-4.037,3.303-7.34,7.34-7.34h55.39c4.037,0,7.34,3.303,7.34,7.34V95.394z"/>
		<g style="clip-path:url(#SVGID_2_);">
			<path style="fill:#EAEBE1;" d="M211.157,155.827c0-21.152-17.147-38.3-38.3-38.3h-2.822c-21.152,0-38.3,17.147-38.3,38.3v31.7
				l39.711,21l-39.711,7.596v32.404l28.593,1l-28.593,28v37.638l28.593,20.362l-28.593,7.012v15.036l36.844,41.506
				c0.484,0.018,0.967,0.037,1.455,0.037h2.822c3.242,0,6.388-0.406,9.394-1.165l28.906-39V155.827z"/>
		</g>
		<path style="opacity:0.29;clip-path:url(#SVGID_2_);fill:#522422;" d="M190.848,352.028l-3.41-0.04
			c-2.475-0.029-4.476-2.077-4.447-4.552l1.963-168.989c0.029-2.475,2.077-4.476,4.552-4.447l3.41,0.04
			c2.475,0.029,4.476,2.077,4.447,4.552L195.4,347.58C195.371,350.055,193.323,352.056,190.848,352.028z"/>
		<g style="clip-path:url(#SVGID_2_);">
			<g>
				<path style="fill:#EAEBE1;" d="M313.981,342.121c0,21.474,17.408,38.882,38.882,38.882h2.865
					c21.474,0,38.882-17.408,38.882-38.882v-32.183l-40.315-21.319l40.315-7.712v-32.896l-29.028-1.015l29.028-28.426v-38.211
					l-29.028-20.671l29.028-7.119v-15.265l-37.405-42.137c-0.491-0.018-0.982-0.037-1.478-0.037h-2.865
					c-3.291,0-6.485,0.413-9.537,1.183l-29.345,39.594V342.121z"/>
			</g>
			<path style="opacity:0.29;fill:#522422;" d="M334.531,142.935l3.599,0.042c2.475,0.029,4.476,2.077,4.447,4.552l-1.995,171.696
				c-0.029,2.475-2.077,4.476-4.552,4.447l-3.599-0.042c-2.475-0.029-4.476-2.077-4.447-4.552l1.995-171.696
				C330.008,144.908,332.056,142.906,334.531,142.935z"/>
		</g>
		<path style="clip-path:url(#SVGID_2_);fill:#EAEBE1;" d="M350.172,348.249c-48.812,0-88.382,39.57-88.382,88.382
			s39.57,88.382,88.382,88.382s88.382-39.57,88.382-88.382S398.984,348.249,350.172,348.249z M350.172,494.86
			c-14.778,0-26.758-11.98-26.758-26.758c0-14.778,11.98-26.758,26.758-26.758c14.778,0,26.758,11.98,26.758,26.758
			C376.93,482.88,364.95,494.86,350.172,494.86z"/>
	</g>
</g>
<g id="Livello_1">
</g>
</svg>
