<?xml version="1.0" encoding="utf-8"?>
<!-- Generator: Adobe Illustrator 18.1.0, SVG Export Plug-In . SVG Version: 6.00 Build 0)  -->
<!DOCTYPE svg PUBLIC "-//W3C//DTD SVG 1.1//EN" "http://www.w3.org/Graphics/SVG/1.1/DTD/svg11.dtd">
<svg version="1.1" id="Livello_1" xmlns="http://www.w3.org/2000/svg" xmlns:xlink="http://www.w3.org/1999/xlink" x="0px" y="0px"
	 viewBox="0 0 512.7 534.6" enable-background="new 0 0 512.7 534.6" xml:space="preserve">
<circle fill="#E8B750" cx="256" cy="256" r="256"/>
<g>
	<path fill="#E8B750" d="M468.5,250c0-16.5-1.6-32.6-4.6-48.1L275.2,43.4l-86,72.6L34.4,183.2l336.2,265.3
		C430.2,402.7,468.5,330.9,468.5,250z"/>
	<path opacity="0.1" fill="#231F20" d="M509.2,294c2.3-16.3,5.2-40,2.2-55.6L275.2,43.4l-86,72.6L34.4,183.2L394,473.7
		C453.5,428.1,498.2,372,509.2,294z"/>
</g>
<g>
	<path fill="#181818" d="M34.4,183.2c0,0,23-97.4,98.8-100.5S212.6,185,212.6,185s-32.3-7.6-89.1-9.9
		C98.4,174.1,80.3,175.6,34.4,183.2z"/>
	<path fill="#EFEFEF" d="M34.4,183.2c0,0,120.6,24.3,178.2,1.9C212.6,185,74.6,149.7,34.4,183.2z"/>
	<path fill="#181818" d="M184.8,104.5l45.1-37.6c0.2-0.2,0.5-0.3,0.7-0.3h0c19.1-2,28.4,22.8,12.7,33.9l-47.1,33.4L184.8,104.5z"/>
	<polygon fill="#181818" points="240.2,72.2 275.2,43.4 286.2,57.8 246.1,85.5 	"/>
	<polygon fill="#181818" points="249.2,76.7 399.5,244.2 409.6,236.1 250.2,63.6 	"/>
	<polygon fill="#181818" points="401.2,233.5 245.2,487.3 263.2,487.3 409.6,235.3 	"/>
	<circle fill="#D6D6D6" cx="402.4" cy="237.3" r="7.5"/>
	<polygon fill="#181818" points="269.6,69.3 416.8,237.6 430.7,238.4 276.6,64.5 	"/>
	<path fill="#181818" d="M416.8,237.6c-3.1,2.3-147.2,249.7-147.2,249.7h10.6l150.5-248.9L416.8,237.6z"/>
	<circle fill="#D6D6D6" cx="423.2" cy="238.4" r="7.5"/>
	<polygon fill="#181818" points="240.2,482.6 286.2,482.6 286.2,500 240.2,499.1 	"/>
	<polygon fill="#181818" points="269.6,494.8 269.6,514.6 278.2,514.6 278.2,492.8 	"/>
	<path fill="#181818" d="M345.3,534.6H162.2c-6.6,0-12-5.4-12-12v-2.9c0-6.6,5.4-12,12-12h183.1c6.6,0,12,5.4,12,12v2.9
		C357.3,529.2,351.9,534.6,345.3,534.6z"/>
</g>
<g>
</g>
<g>
</g>
<g>
</g>
<g>
</g>
<g>
</g>
<g>
</g>
<g>
</g>
<g>
</g>
<g>
</g>
<g>
</g>
<g>
</g>
<g>
</g>
<g>
</g>
<g>
</g>
<g>
</g>
</svg>
