<?xml version="1.0" encoding="utf-8"?>
<!-- Generator: Adobe Illustrator 18.1.0, SVG Export Plug-In . SVG Version: 6.00 Build 0)  -->
<!DOCTYPE svg PUBLIC "-//W3C//DTD SVG 1.1//EN" "http://www.w3.org/Graphics/SVG/1.1/DTD/svg11.dtd">
<svg version="1.1" id="Livello_1" xmlns="http://www.w3.org/2000/svg" xmlns:xlink="http://www.w3.org/1999/xlink" x="0px" y="0px"
	 viewBox="0 0 512 527.3" enable-background="new 0 0 512 527.3" xml:space="preserve">
<circle fill="#26424B" cx="256" cy="271.3" r="256"/>
<g>
	<polygon fill="#9BAA85" points="271.4,463.8 427.5,384.2 424.9,394.6 270.4,473.7 	"/>
	<polygon fill="#FFFFFF" points="431.6,262.8 416.8,389.7 271.4,463.8 282.2,354.9 	"/>
	<polygon opacity="0.2" points="282.2,346.1 280.1,369.5 429.7,279.5 431.6,254.8 	"/>
	<polygon fill="#9BAA85" points="19.9,218.5 19.9,336.9 270.4,473.7 282.2,354.9 	"/>
	<polygon fill="#C0D7A1" points="19.9,220.4 209.6,120.1 452.3,253.9 282.2,356.8 	"/>
	<polygon fill="#FFFFFF" points="202.5,294 280.1,337.5 416.4,256.2 329.9,214 	"/>
</g>
<g>
	<polygon fill="#AA4F4F" points="313.7,343.6 469.8,264.1 467.2,274.4 312.7,353.5 	"/>
	<polygon fill="#FFFFFF" points="473.9,142.6 459,269.6 313.7,343.6 324.4,234.8 	"/>
	<polygon opacity="0.2" points="324.4,226 322.4,249.3 471.9,159.4 473.9,134.6 	"/>
	<polygon fill="#CC5A5A" points="62.2,98.4 62.2,216.7 312.7,353.5 324.4,234.8 	"/>
	<polygon fill="#DB605A" points="62.2,100.2 251.9,0 494.6,133.8 324.4,236.6 	"/>
	<polygon fill="#CC5A5A" points="112.9,107.7 261.7,19 283.9,34.2 136.4,121.7 	"/>
	<g>
		<path fill="#FFFFFF" d="M184.4,129.6c-0.1,0-0.2,0-0.3,0c-0.1,0-0.2,0-0.2,0c-0.1,0-0.3-0.1-0.5-0.1c-0.2-0.1-0.3-0.2-0.4-0.2
			c-0.3-0.1-0.5-0.3-0.8-0.5c-0.3-0.2-0.5-0.3-0.8-0.5c-0.1,0-0.2-0.1-0.4-0.2c-0.2-0.1-0.3-0.2-0.5-0.2c0,0-0.1,0-0.2-0.1
			c-0.1-0.1-0.3-0.2-0.4-0.3c-0.1-0.1-0.3-0.2-0.4-0.3c-0.7-0.4-1.4-0.8-2-1.2c-0.6-0.4-1.3-0.8-2-1.2c-0.2-0.1-0.4-0.2-0.7-0.4
			c-0.2-0.1-0.4-0.3-0.6-0.4c-0.2-0.2-0.4-0.3-0.6-0.4c-0.3-0.2-0.6-0.3-0.9-0.5c-0.3-0.2-0.6-0.3-0.9-0.5c-0.3-0.2-0.6-0.4-0.9-0.6
			c-0.3-0.2-0.6-0.4-0.9-0.6c-0.5-0.3-1-0.5-1.7-0.7c-0.6-0.2-1.1-0.5-1.5-0.8c-0.1,0-0.1-0.1-0.2-0.1c-0.1,0-0.2-0.1-0.3-0.1l0,0
			l-0.1,0c-0.3-0.2-0.7-0.3-1-0.4c-0.3-0.1-0.7-0.3-1-0.4c-0.1-0.1-0.4-0.2-0.7-0.3c-0.3-0.1-0.6-0.2-0.8-0.3
			c-0.1,0-0.2-0.1-0.2-0.1c-0.2-0.1-0.3-0.3-0.3-0.6c0-0.2,0.3-0.3,0.9-0.3c0.1-0.2,0.3-0.4,0.7-0.6c0.4-0.2,0.7-0.3,0.9-0.4
			c0.1,0,0.4-0.1,0.7-0.1l0.2,0c0.1,0,0.2,0,0.2,0c0.9-0.1,1.9-0.1,2.8,0c0.1,0,0.3,0,0.6,0.1c0.3,0.1,0.5,0.1,0.6,0.1
			c0.4,0.1,0.9,0.3,1.6,0.5c0.1,0,0.2,0.1,0.2,0.1c0.1,0,0.2,0.1,0.4,0.2c0.2,0.1,0.3,0.1,0.4,0.2c0.5,0.3,1,0.6,1.5,1.1
			c0.1,0,0.1,0.1,0.2,0.2c0.1,0.1,0.2,0.2,0.2,0.3c0.1,0.2,0.3,0.4,0.4,0.7c0,0.1,0.1,0.1,0.1,0.2c0.1,0.1,0.1,0.1,0.1,0.2
			c0.1,0.4,0.1,0.7,0.1,1c-0.1,0.3-0.1,0.5-0.2,0.7c-0.1,0.2-0.2,0.4-0.3,0.6l0-0.1c0,0,0,0,0,0c0,0,0,0,0,0c-0.1,0-0.1,0-0.1,0
			c0,0,0,0-0.2,0l0.1,0c0.1,0,0.1,0,0.2,0c0.6-0.1,1.1-0.2,1.5-0.3c0.4-0.1,1-0.2,1.6-0.2c0.9-0.1,1.7,0,2.6,0.1
			c0.8,0.2,1.6,0.4,2.3,0.7c0.1,0,0.2,0.1,0.4,0.2c0.1,0.1,0.2,0.2,0.3,0.2c0.1,0.1,0.2,0.2,0.4,0.2c0.2,0.1,0.4,0.2,0.6,0.3
			c0.2,0.1,0.4,0.2,0.6,0.3c0.9,0.5,1.7,1,2.3,1.5c0.1,0.1,0.2,0.2,0.3,0.3c0.4,0.4,0.6,0.8,0.6,1.3c0,0.1,0,0.2,0,0.5
			c-0.1,0.3-0.1,0.4-0.1,0.5c-0.2,0.5-0.3,0.8-0.4,1c0,0,0,0.1-0.1,0.2c-0.2,0.2-0.4,0.4-0.8,0.6c-0.3,0.1-0.5,0.2-0.8,0.2
			c0,0-0.1,0-0.2,0c-0.1,0-0.2,0-0.3,0C184.8,129.4,184.7,129.5,184.4,129.6z M174.8,123.1c0.5,0.3,1,0.5,1.6,0.8
			c0.5,0.3,1,0.6,1.5,0.9c0.1,0.1,0.2,0.2,0.3,0.3c0.1,0.1,0.2,0.2,0.3,0.2c0.1,0.1,0.3,0.1,0.5,0.2c0.2,0.1,0.3,0.1,0.4,0.2
			c0.3,0.2,0.7,0.4,1,0.6c0.3,0.2,0.7,0.4,1,0.6c0.1,0.1,0.3,0.1,0.5,0.3c0.3,0.2,0.5,0.3,0.8,0.5c0.3,0.2,0.5,0.3,0.8,0.5
			c0.2,0.1,0.5,0.2,0.9,0.3l0,0l0,0c0.2,0,0.3,0.1,0.4,0.1l0.3-0.2c0.2-0.2,0.4-0.3,0.4-0.3c0.2-0.2,0.3-0.5,0.5-0.7
			c0.1-0.2,0.2-0.5,0.2-0.8c0,0,0-0.1,0-0.1c0-0.1,0-0.2-0.1-0.3c-0.1-0.1-0.1-0.2-0.2-0.3c-0.1-0.1-0.2-0.2-0.2-0.3
			c-0.1-0.1-0.2-0.2-0.3-0.3c-0.1-0.1-0.2-0.2-0.3-0.3c-0.6-0.4-1.2-0.7-1.9-1.1c-0.7-0.3-1.3-0.7-1.9-1c-0.4-0.3-0.9-0.5-1.6-0.7
			c-0.1,0-0.2,0-0.2,0c-0.1,0-0.1,0-0.2-0.1c-0.1,0-0.3,0-0.7-0.1l-0.8-0.1l-0.5,0c-0.7,0-1.3,0.1-1.7,0.2c-0.5,0.1-1,0.2-1.6,0.2
			c-0.1,0-0.2,0-0.3,0C174.1,122.7,174.5,122.9,174.8,123.1z M164.6,117.5c0,0,0.1,0.1,0.1,0.1c0.4,0.1,0.7,0.3,1,0.4
			c0.3,0.2,0.7,0.3,1,0.5l0.4,0.2l0.3,0.2l0.1,0.1l0.1,0.1l0.3,0.2l0.3,0.1c0.3,0.1,0.5,0.3,0.8,0.4c0.2,0.1,0.5,0.3,0.7,0.4
			c0.1,0.1,0.2,0.1,0.3,0.2c0.1,0.1,0.2,0.1,0.2,0.1c0.1,0,0.1,0.1,0.2,0.1c0.1,0,0.1,0,0.2,0.1c0.4,0.2,0.7,0.5,1.1,0.7
			c0.3,0.2,0.7,0.5,1.1,0.7l0,0c0,0,0-0.1,0-0.2c0.1-0.2,0.2-0.4,0.3-0.6c0.1-0.2,0.2-0.4,0.2-0.6c0-0.2,0-0.4,0-0.5
			c-0.1-0.3-0.2-0.5-0.5-0.8c-0.2-0.2-0.5-0.5-0.8-0.7c0-0.1-0.3-0.2-0.8-0.5c-0.5-0.3-0.8-0.5-0.9-0.5c0,0,0,0-0.2-0.1
			c0,0-0.1-0.1-0.3-0.1c-0.2-0.1-0.3-0.1-0.3-0.1c-0.5-0.2-1.1-0.2-1.7-0.3c-0.1,0-0.3,0-0.5,0c-0.3,0-0.5,0-0.6,0
			c-0.4,0-0.8,0-1.2,0.1c-0.1,0-0.3,0-0.5,0.1c-0.2,0.1-0.4,0.1-0.5,0.1c-0.1,0-0.2,0-0.3,0.1C164.5,117.5,164.5,117.5,164.6,117.5z
			"/>
		<path fill="#FFFFFF" d="M174.3,113.7c0.1,0.1,0.2,0.2,0.3,0.2c1.5,0.8,2.8,1.5,4,2.1c0.5,0.2,1,0.5,1.4,0.8
			c0.1,0.1,0.2,0.1,0.3,0.2c0.1,0.1,0.2,0.1,0.3,0.2c0.3,0.2,0.6,0.3,0.9,0.5c0.3,0.1,0.6,0.3,0.9,0.4c0.7,0.4,1.4,0.7,2.1,1.1
			c0.7,0.4,1.4,0.7,2.1,1c0.5,0.3,0.9,0.5,1.2,0.6c0.1,0.1,0.2,0.1,0.4,0.2c0.1,0,0.3,0.1,0.4,0.2c0.3,0.2,0.6,0.3,0.9,0.5
			c0.3,0.2,0.6,0.3,0.9,0.5c0.3,0.2,0.6,0.3,0.9,0.5c0.3,0.1,0.7,0.3,1,0.4c0.4,0.2,0.8,0.3,1.3,0.3c0,0,0,0,0.1,0l0.1,0
			c0.2,0,0.4,0,0.6-0.1c0.1,0,0.2-0.1,0.3-0.1c0.1-0.1,0.2-0.1,0.3-0.2c0.6-0.3,1.2-0.8,1.8-1.4c0.2-0.2,0.3-0.4,0.2-0.7
			c0-0.2-0.2-0.5-0.5-0.8c-0.3-0.3-0.6-0.6-1-0.9c-0.4-0.3-0.8-0.5-1.2-0.8c-0.1,0-0.2-0.1-0.3-0.2c-0.2-0.1-0.3-0.2-0.3-0.2
			c-0.1,0-0.2-0.2-0.5-0.3c-0.3-0.2-0.5-0.3-0.6-0.3c-0.3-0.2-0.7-0.3-1-0.5c-0.4-0.2-0.7-0.3-1.1-0.5c-0.6-0.3-1.3-0.7-1.9-1
			c-0.7-0.3-1.2-0.7-1.8-1.1c-0.1-0.1-0.2-0.1-0.3-0.2s-0.2-0.1-0.3-0.2c-0.7-0.5-1.5-0.9-2.2-1.3c-0.8-0.4-1.6-0.8-2.4-1.2
			c-0.4-0.2-0.8-0.3-1.2-0.5c-0.4-0.2-0.8-0.3-1.2-0.5c-0.3-0.1-0.6-0.2-0.9-0.4c-0.3-0.2-0.5-0.4-0.6-0.6c-0.1-0.2,0-0.4,0.2-0.5
			c0.3-0.1,0.6-0.1,0.9,0c0.6,0.2,1.5,0.6,2.8,1.3c1.3,0.7,2.3,1.2,2.9,1.5c0.3,0.2,0.7,0.4,1.1,0.5c0.4,0.2,0.7,0.4,1,0.5
			c0.3,0.2,0.5,0.3,0.7,0.5c0.2,0.2,0.5,0.3,0.7,0.5c0.2,0.2,0.4,0.3,0.4,0.3c1,0.6,2.1,1.2,3.2,1.7c1.1,0.5,2.2,1.1,3.2,1.7
			c1.1,0.6,2,1.2,2.6,1.8c0.2,0.1,0.3,0.3,0.5,0.4c0.4,0.4,0.6,0.8,0.6,1.2c0.1,0.2,0,0.4-0.1,0.7c-0.1,0.2-0.2,0.3-0.4,0.5
			c-0.3,0.3-0.7,0.5-1,0.8c-0.3,0.3-0.7,0.5-1.1,0.7c-0.3,0.2-0.7,0.3-1.1,0.4c-0.4,0.1-0.8,0.2-1.2,0.2c-0.6,0-1.2,0-1.9-0.2
			c-0.1-0.1-0.3-0.1-0.4-0.1c-0.1,0-0.5-0.2-1.1-0.4c-0.6-0.3-0.9-0.4-1-0.5l-0.7-0.3l-0.7-0.3c-1.4-0.6-2.7-1.2-4-1.8
			c-1.3-0.5-2.5-1.2-3.9-1.9c-0.4-0.2-0.9-0.5-1.5-0.8l-0.1-0.1l-0.1-0.1c-0.7-0.4-1.4-0.7-2.1-1c-0.7-0.3-1.4-0.7-2.1-1
			c-0.3-0.1-0.5-0.3-0.8-0.4c-0.3-0.1-0.5-0.3-0.8-0.5c-0.3-0.1-0.5-0.3-0.7-0.4l-0.7-0.4c-0.1-0.1-0.3-0.2-0.5-0.3
			c-0.1-0.1-0.3-0.3-0.5-0.5c-0.2-0.2-0.1-0.4,0.3-0.5c0.3-0.1,0.6,0,0.9,0.2c0.3,0.2,0.5,0.3,0.6,0.3c0.1,0,0.3,0.1,0.7,0.3
			c0.4,0.2,0.7,0.3,0.7,0.3C173.9,113.4,174.1,113.6,174.3,113.7z"/>
		<path fill="#FFFFFF" d="M185.6,105.8c-0.1,0.1-0.1,0.1-0.1,0.2c0,0.3,0.1,0.5,0.2,0.8c0,0.1,0.1,0.3,0.2,0.4
			c0.1,0.2,0.2,0.3,0.3,0.4c0.2,0.4,0.4,0.6,0.5,0.7c0.2,0.2,0.4,0.3,0.5,0.4c0,0,0.1,0.1,0.2,0.1l0.2,0.1c0,0.1,0.4,0.2,1.1,0.6
			c0.7,0.3,1.1,0.5,1.3,0.6l0.5,0.2c0.2,0.1,0.3,0.1,0.5,0.2c0.1,0,0.2,0.1,0.3,0.1c0.1,0,0.2,0,0.3,0.1c0.5,0.2,1.1,0.4,1.8,0.6
			c0.7,0.2,1.3,0.3,2,0.3c1,0,1.9,0,2.7,0c0.8-0.1,1.7,0,2.8,0.2c0.2,0,0.4,0.1,0.6,0.2c0.2,0.1,0.4,0.1,0.6,0.2
			c0.5,0.1,0.7,0.2,0.8,0.2c0.3,0.1,0.6,0.1,0.8,0.2c1.2,0.4,2.1,0.9,2.8,1.6c0,0,0,0,0.1,0l0,0c0.4,0.6,0.4,1.2,0.1,2l-0.1,0.1
			c0,0.1-0.1,0.1-0.1,0.1c-0.3,0.5-0.5,0.8-0.7,1c-0.1,0.1-0.2,0.2-0.3,0.3c-0.3,0.2-0.5,0.3-0.8,0.3l0,0l0,0c-0.1,0-0.2,0-0.4,0
			c-0.2,0-0.3,0-0.1,0l0,0l0,0l0,0l0,0c0,0-0.1,0-0.1,0c0,0-0.1,0-0.1,0c0,0,0,0,0,0l0,0l-0.1,0c0,0-0.1-0.1-0.1-0.1
			c-0.1-0.1-0.1-0.1-0.1-0.2c0,0,0,0,0,0c0,0,0.1-0.2,0.4-0.4c0.2-0.2,0.4-0.4,0.6-0.6c0.2-0.2,0.3-0.4,0.5-0.6
			c0.1-0.1,0.1-0.2,0.2-0.5c0-0.2,0-0.4-0.2-0.7c0,0,0,0-0.1-0.1l-0.1-0.1c0,0-0.1-0.1-0.2-0.2c-0.1-0.1-0.2-0.2-0.2-0.2
			c-0.6-0.4-1.5-0.7-2.5-1c-1-0.3-2-0.5-2.9-0.6c-0.2,0-0.5,0-0.7,0c-0.2,0-0.5,0-0.7,0c-0.5,0-1,0-1.5,0c-0.5,0-1,0-1.5-0.1
			c-0.5,0-1.1-0.1-1.6-0.3c-0.6-0.1-1.1-0.3-1.5-0.4c-1.1-0.3-2-0.6-2.7-0.8c-0.7-0.3-1.6-0.6-2.5-1c-0.3-0.1-0.6-0.3-0.8-0.6
			c-0.3-0.3-0.4-0.5-0.5-0.6c-0.5-0.6-0.8-1-1-1.5c0,0,0-0.1-0.1-0.1c0-0.1,0-0.2-0.1-0.2c-0.1-0.3-0.1-0.8,0-1.2c0,0,0-0.1,0-0.2
			c0-0.1,0-0.2,0.1-0.2c0.1-0.1,0.1-0.2,0.2-0.3c0.1-0.1,0.3-0.2,0.6-0.3c0.3-0.1,0.5-0.1,0.8,0c0.1,0,0.2,0.1,0.2,0.3
			c0,0.1,0.1,0.2,0.1,0.3c0.1,0.2,0.1,0.3,0.1,0.5l0,0C185.7,105.7,185.6,105.8,185.6,105.8z"/>
		<path fill="#FFFFFF" d="M194.5,101.4c0.1,0.1,0.1,0.1,0.2,0.1c0.3,0.2,0.7,0.3,1,0.5c0.3,0.2,0.7,0.3,1,0.5
			c0.2,0.1,0.3,0.2,0.4,0.2c0.1,0.1,0.3,0.2,0.4,0.2c0.1,0.1,0.2,0.1,0.3,0.2c0.1,0.1,0.2,0.1,0.3,0.2c0.3,0.1,0.5,0.3,0.8,0.4
			c0.3,0.1,0.5,0.3,0.8,0.4l0.5,0.3c0.1,0,0.1,0.1,0.2,0.1s0.1,0,0.2,0.1c0.4,0.2,0.8,0.5,1.2,0.8c0.4,0.3,0.8,0.5,1.3,0.8l2.1,1.1
			c0.7,0.4,1.4,0.7,2.1,1.1c0.1,0.1,0.2,0.2,0.3,0.2c0.1,0.1,0.2,0.2,0.3,0.2c0.1,0.1,0.3,0.1,0.4,0.2c0.2,0.1,0.3,0.1,0.4,0.2
			c0.4,0.2,0.7,0.4,1.1,0.6c0.3,0.2,0.7,0.4,1.1,0.6c0.1,0.1,0.2,0.1,0.3,0.2c0.1,0.1,0.2,0.1,0.3,0.2c0.5,0.3,1,0.6,1.4,0.8
			c0.2,0.1,0.4,0.2,0.6,0.2c0.3-0.2,0.6-0.4,0.8-0.5c0.5-0.3,0.9-0.4,1.3-0.4c0.5,0,0.8,0.1,0.8,0.3c0,0.2-0.2,0.4-0.7,0.7
			c-0.3,0.2-0.7,0.4-1,0.6c-0.1,0.4-0.4,0.6-1.1,0.6c-0.5,0.2-0.7,0.3-0.8,0.3c-0.1,0.1-0.2,0.1-0.3,0.2c-0.1,0.1-0.1,0.1-0.2,0.2
			c-0.2,0.1-0.5,0.2-0.8,0.2c-0.5,0-0.7-0.1-0.8-0.3c-0.1-0.2,0.1-0.4,0.6-0.7c0.2-0.1,0.4-0.2,0.8-0.4c-0.3-0.1-0.6-0.3-0.8-0.4
			c-0.3-0.1-0.5-0.3-0.6-0.3c0,0-0.2-0.1-0.4-0.2c-0.2-0.1-0.3-0.1-0.4-0.2c0,0,0,0-0.1,0c-0.1,0-0.1,0-0.1-0.1
			c-0.2-0.1-0.3-0.2-0.5-0.3c-0.2-0.1-0.3-0.2-0.5-0.3c-0.7-0.4-1.4-0.7-2-1.1c-0.6-0.4-1.3-0.8-2-1.2c-0.2-0.1-0.4-0.2-0.6-0.3
			c-0.2-0.1-0.4-0.2-0.6-0.4c-0.3-0.2-0.7-0.4-1.1-0.6c-0.4-0.2-0.8-0.4-1.2-0.6c-0.3-0.2-0.6-0.4-0.9-0.6c-0.3-0.2-0.6-0.4-0.9-0.6
			c-0.5-0.3-1.1-0.5-1.7-0.7c-0.6-0.2-1.2-0.5-1.6-0.8c-0.1,0-0.2-0.1-0.3-0.2l-0.3-0.2c-0.3-0.2-0.6-0.3-1-0.4
			c-0.3-0.1-0.7-0.3-1-0.4c-0.2-0.1-0.4-0.2-0.5-0.3c-0.2-0.1-0.3-0.2-0.5-0.3c-0.4,0.2-0.7,0.4-0.9,0.5c-0.5,0.3-1,0.4-1.3,0.4
			c-0.4,0-0.6-0.1-0.6-0.4c0-0.2,0.2-0.4,0.7-0.7c0.2-0.1,0.4-0.2,0.7-0.3c0.2-0.1,0.5-0.2,0.7-0.3c0,0,0.1-0.1,0.1-0.1
			c0.1,0,0.1-0.1,0.3-0.1c0.2-0.1,0.4-0.2,0.6-0.4c0.2-0.1,0.4-0.2,0.6-0.4c0.5-0.3,1-0.4,1.2-0.4c0.3,0,0.5,0.1,0.6,0.4
			c0,0.2-0.1,0.3-0.3,0.4c-0.1,0.1-0.2,0.1-0.4,0.1c-0.1,0-0.3,0.1-0.4,0.1c-0.1,0.1-0.2,0.1-0.3,0.2
			C194.4,101.2,194.4,101.3,194.5,101.4z"/>
		<path fill="#FFFFFF" d="M198.6,97.5c0.1,0.1,0.1,0.1,0.1,0.1l0.2,0.1c0.4,0.1,0.9,0.2,1.4,0.4c0.6,0.2,0.9,0.3,1.1,0.3
			c0.3,0.1,0.5,0.1,0.8,0.2c0.3,0.1,0.5,0.1,0.8,0.2c0.3,0.1,0.7,0.2,1,0.3c0.3,0.1,0.7,0.2,1,0.3c0.9,0.2,1.7,0.4,2.5,0.7
			c0.8,0.2,1.6,0.4,2.4,0.7l0.1,0c0,0,0,0,0.1,0c0.2,0.1,0.4,0.2,0.6,0.3c0.2,0.1,0.4,0.2,0.6,0.3c0.4,0.2,0.9,0.4,1.4,0.5
			c0.5,0.1,1,0.3,1.6,0.4c0.5,0.1,0.9,0.2,1.3,0.4c0.4,0.1,0.9,0.2,1.4,0.3c0.7,0.1,1.4,0.2,2.1,0.3c0.7,0.1,1.5,0.2,2.1,0.3
			c-0.7-0.3-1.4-0.7-2-1.1c-0.6-0.4-1.3-0.7-2-1.1l-0.7-0.3c-0.2-0.1-0.4-0.2-0.6-0.4c-0.2-0.1-0.4-0.2-0.7-0.4
			c-0.4-0.2-0.8-0.4-1.2-0.6c-0.4-0.2-0.8-0.4-1.2-0.6c-0.4-0.2-0.9-0.5-1.3-0.7c-0.4-0.2-0.8-0.5-1.3-0.7c-0.6-0.3-1.3-0.5-2.1-0.8
			c-0.8-0.2-1.4-0.5-1.9-0.9c-0.1,0-0.2-0.1-0.3-0.1c-0.1-0.1-0.2-0.1-0.3-0.2c-0.3-0.1-0.5-0.2-0.8-0.3c-0.3-0.1-0.5-0.2-0.8-0.3
			c-0.1,0-0.2-0.1-0.4-0.2c-0.2-0.1-0.3-0.1-0.4-0.1c-0.1,0-0.1-0.1,0.1-0.3c0.1-0.2,0.2-0.3,0.2-0.3c0.3-0.4,0.7-0.5,1.2-0.5
			c0,0,0.1,0,0.1,0.1c0,0.1,0.1,0.1,0.1,0.1c0.5,0.2,1,0.4,1.6,0.6c0.2,0.1,0.3,0.1,0.4,0.2c0.1,0.1,0.3,0.1,0.4,0.2
			c0.1,0.1,0.2,0.1,0.3,0.2c0.1,0.1,0.2,0.1,0.3,0.2l0.9,0.5l0.9,0.4c0.1,0.1,0.2,0.1,0.3,0.2c0.1,0.1,0.2,0.1,0.3,0.2
			c0.1,0,0.2,0.1,0.3,0.1c0.1,0,0.2,0.1,0.2,0.1c0.6,0.3,1.2,0.6,1.8,1c0.5,0.4,1.1,0.7,1.8,1c0.3,0.1,0.6,0.3,0.9,0.4
			c0.3,0.1,0.6,0.3,0.9,0.4c1.2,0.5,2.3,1,3.4,1.6c0.1,0.1,0.2,0.2,0.3,0.3c0.1,0.1,0.2,0.2,0.3,0.2c0.2,0.1,0.3,0.1,0.5,0.2
			c0.2,0.1,0.3,0.1,0.5,0.2c0.4,0.2,0.7,0.4,1,0.6c0.3,0.2,0.7,0.4,1,0.6c0.1,0.1,0.3,0.1,0.5,0.3c0.3,0.2,0.5,0.3,0.8,0.5
			c0.3,0.2,0.5,0.3,0.8,0.5c0.1,0.1,0.3,0.1,0.5,0.2c0.2,0.1,0.3,0.1,0.5,0.2l0,0l0,0c0.3,0.1,0.4,0.2,0.5,0.3l0.1,0
			c0.7,0.2,0.7,0.5,0.2,0.8c-0.2,0.1-0.6,0.2-1.1,0.2c-0.5,0-0.9-0.1-1.1-0.1c-0.1,0-0.1-0.1-0.2-0.1c-0.1-0.1-0.1-0.1-0.2-0.1
			c-0.9-0.3-1.7-0.5-2.4-0.6c-0.2,0-0.4-0.1-0.6-0.1c-0.2-0.1-0.4-0.1-0.6-0.1c-0.1,0-0.3-0.1-0.4-0.1c-0.1,0-0.3-0.1-0.4-0.1
			c-0.4-0.1-0.8-0.2-1.1-0.2l-1.1-0.3c-0.1,0-0.3-0.1-0.4-0.1l-0.4-0.1c-0.1,0-0.2,0-0.3,0c-0.1,0-0.2,0-0.3,0
			c-0.7-0.1-1.3-0.3-1.9-0.5c-0.6-0.2-1.2-0.4-1.9-0.5c-0.7-0.2-1.4-0.4-2.1-0.6c-0.7-0.2-1.3-0.5-1.9-0.7c0.2,0.1,0.2,0.1,0,0.1
			c-0.2,0-0.3-0.1-0.3-0.1c-0.1,0-0.2-0.1-0.3-0.1c-0.1-0.1-0.2-0.1-0.4-0.1c-0.2,0-0.4-0.1-0.6-0.1c-0.2,0-0.4-0.1-0.6-0.1
			c-0.4-0.1-0.8-0.2-1.2-0.3c-0.4-0.1-0.8-0.2-1.2-0.3l0.1,0c0.1,0,0.1,0.1,0.2,0.1c0.1,0,0.2,0.1,0.2,0.1c0.6,0.3,1.1,0.6,1.7,1
			c0.5,0.3,1.1,0.7,1.7,0.9c0.9,0.4,1.8,0.9,2.8,1.3c0.9,0.4,1.8,0.9,2.7,1.4c0.1,0.1,0.3,0.2,0.4,0.3c0.1,0.1,0.2,0.2,0.4,0.3
			c0.2,0.1,0.3,0.1,0.5,0.2c0.2,0.1,0.4,0.1,0.5,0.2c0.4,0.2,0.7,0.4,1,0.6c0.3,0.2,0.7,0.4,1.1,0.6c0.2,0.1,0.5,0.2,0.7,0.4
			c0.3,0.2,0.5,0.3,0.7,0.4l0,0l0,0c0.6,0.2,1,0.3,1.2,0.4c0,0,0,0,0,0l0,0c0.4,0.1,0.6,0.2,0.6,0.4c0,0.1,0.1,0.1,0,0.2
			c0,0,0,0.1,0,0.1c-0.1,0.2-0.4,0.4-1.1,0.4c0,0,0,0-0.2,0l-0.2,0c-0.1,0-0.2,0-0.4-0.1c-0.2-0.1-0.3-0.1-0.3-0.2l-0.6-0.3
			c-0.3-0.2-0.5-0.3-0.5-0.3c0,0-0.2-0.1-0.5-0.3c-0.1-0.1-0.2-0.1-0.4-0.1c-0.1,0-0.3-0.1-0.4-0.2c-0.2-0.1-0.3-0.2-0.5-0.3
			c-0.1-0.1-0.3-0.2-0.5-0.3c-0.8-0.4-1.6-0.8-2.3-1.2c-0.7-0.4-1.5-0.9-2.3-1.3c-0.3-0.1-0.5-0.3-0.8-0.4c-0.3-0.1-0.5-0.3-0.8-0.4
			c-0.5-0.3-1-0.6-1.5-0.8c-0.5-0.3-1.1-0.5-1.6-0.8c-0.4-0.2-0.8-0.4-1.2-0.7c-0.4-0.2-0.8-0.5-1.2-0.7c-0.6-0.3-1.2-0.6-2-0.8
			c-0.8-0.2-1.4-0.5-1.8-0.9c-0.1,0-0.2-0.1-0.3-0.2c-0.1-0.1-0.3-0.1-0.3-0.2c-0.3-0.1-0.6-0.2-0.9-0.3c-0.3-0.1-0.6-0.2-0.9-0.3
			c-0.1,0-0.3-0.1-0.5-0.2c-0.2-0.1-0.3-0.1-0.5-0.2c-0.2,0-0.2-0.1-0.1-0.3c0.1-0.2,0.2-0.3,0.2-0.3c0.3-0.4,0.8-0.5,1.4-0.4
			C198.5,97.5,198.6,97.5,198.6,97.5z"/>
		<path fill="#FFFFFF" d="M210.3,90.8c-0.1,0-0.2,0-0.2,0.1c0,0-0.1,0.1-0.2,0.1c-0.1,0-0.2,0.1-0.3,0.1c-0.1,0-0.1,0.1-0.2,0.1
			c-0.1,0-0.1,0.1-0.2,0.1l-0.2,0.2c0,0,0,0,0,0l0,0c0,0,0,0.1,0.1,0.1c0.1,0.1,0.2,0.2,0.6,0.4c0,0,0.1,0,0.2,0.1
			c0.1,0,0.1,0.1,0.1,0.1c0,0,0.1,0.1,0.3,0.2c0.2,0.1,0.3,0.1,0.3,0.2c0.3,0.2,0.6,0.3,0.7,0.3c0.4,0.2,0.9,0.4,1.3,0.6
			c0.4,0.2,0.9,0.4,1.3,0.5c0.2,0.1,0.4,0.2,0.6,0.2c0.2,0.1,0.4,0.2,0.6,0.2c0,0,0.1,0,0.2,0.1s0.1,0,0.2,0c0.2,0,0.2,0,0.2,0
			c0.3,0.2,0.7,0.3,1,0.5c0.3,0.2,0.6,0.3,1,0.5c0.2-0.1,0.3-0.2,0.5-0.3c0.2-0.1,0.3-0.2,0.5-0.3c0.2-0.1,0.5-0.3,0.8-0.5
			c0.3-0.2,0.5-0.3,0.8-0.4c0.4-0.2,0.7-0.2,1-0.1c0.2,0.1,0.4,0.2,0.6,0.4c0.1,0.1,0.1,0.2-0.1,0.3c-0.1,0-0.2,0.1-0.3,0.1
			c-0.1,0-0.2,0.1-0.3,0.1c-0.1,0.1-0.2,0.1-0.3,0.2c-0.1,0.1-0.2,0.2-0.3,0.2c-0.2,0.1-0.5,0.3-1,0.6c-0.1,0-0.1,0.1-0.2,0.1
			c-0.1,0-0.1,0.1-0.2,0.1c1.1,0.4,2.1,0.9,3.2,1.3c1.1,0.4,2.1,0.9,3.2,1.3c0.3,0.1,0.7,0.3,1.3,0.6c0.2,0.1,0.4,0.2,0.6,0.3
			c0.2,0.1,0.4,0.2,0.6,0.3c0.2,0.1,0.4,0.2,0.7,0.3c0.3,0.1,0.5,0.2,0.7,0.3c0.3,0.2,0.7,0.3,1,0.5c0.3,0.2,0.7,0.3,1,0.5
			c0.2,0.1,0.4,0.2,0.7,0.3c0.2,0.1,0.5,0.2,0.7,0.3c0.1,0,0.2,0.1,0.3,0.1c0.1,0,0.2,0.1,0.3,0.1c0.2,0.1,0.4,0.2,0.5,0.2l0.1,0
			l0,0l0,0l0,0l-0.1,0l-0.1,0c-0.1,0-0.2,0-0.3,0c0,0-0.1,0-0.3,0c-0.2,0-0.3,0.1-0.4,0.1c0,0,0.2-0.1,0.8-0.4
			c0.5-0.3,0.9-0.5,1.2-0.7c0.3-0.1,0.5-0.3,0.7-0.5c0.2-0.2,0.5-0.3,0.7-0.5c0.4-0.4,0.9-0.6,1.6-0.7c1-0.1,1.3,0.1,1,0.6
			c-0.2,0.2-0.8,0.6-1.9,1.2c-1.1,0.6-1.8,0.9-2.2,1.2c-0.2,0.1-0.4,0.2-0.6,0.4c-0.1,0.1-0.3,0.1-0.4,0.1c0,0-0.1,0-0.3,0
			c-0.1,0-0.2,0-0.3,0c0,0-0.1,0-0.2,0c0,0,0,0-0.1,0c0,0,0,0-0.1,0c-0.3-0.1-0.4-0.1-0.2-0.1c-0.1,0-0.2-0.1-0.3-0.1
			c-0.1,0-0.2-0.1-0.3-0.1l0,0l0,0c-0.3-0.1-0.6-0.2-0.8-0.4c-0.3-0.1-0.5-0.3-0.8-0.4c-0.1,0-0.1-0.1-0.2-0.1c-1-0.4-2-0.9-3-1.3
			c-1-0.5-1.9-0.9-2.9-1.4c-0.1,0-0.2-0.1-0.4-0.2c-0.4-0.2-0.9-0.4-1.3-0.6c-0.4-0.2-0.8-0.4-1.2-0.6c-0.5-0.3-1.1-0.5-1.6-0.8
			c-0.6-0.2-1.1-0.5-1.7-0.7c-0.1,0.1-0.2,0.1-0.3,0c-0.3,0-0.5-0.1-0.8-0.4c-0.1-0.1-0.1-0.1-0.1-0.2c-0.3-0.1-0.6-0.3-0.9-0.5
			c-0.3-0.2-0.6-0.3-1-0.4c-0.1,0-0.2-0.1-0.3-0.1c-0.8-0.2-1.6-0.5-2.6-0.8c-1-0.3-1.7-0.6-2.3-1c-0.1,0-0.2-0.1-0.3-0.2l-0.4-0.2
			l-0.3-0.2c-0.6-0.3-1-0.6-1.2-0.8c-0.1-0.1-0.2-0.3-0.3-0.4c0-0.2,0-0.3,0.1-0.5c0-0.1,0.1-0.2,0.2-0.3c0.1-0.2,0.4-0.3,0.7-0.5
			c0,0,0.2-0.1,0.5-0.2c0.3-0.1,0.5-0.2,0.6-0.3c0.5-0.2,0.8-0.4,0.9-0.4c0.2-0.1,0.5-0.2,0.8-0.4c0.4-0.1,0.7-0.2,1-0.1
			c0.4,0.1,0.4,0.4,0,0.8c-0.4,0.4-0.7,0.7-1,0.8C210.5,90.7,210.4,90.7,210.3,90.8z"/>
		<path fill="#FFFFFF" d="M221.3,84.9c-0.1,0.1-0.1,0.2-0.1,0.2c0,0.3,0.1,0.6,0.2,0.9c0,0.1,0.1,0.3,0.2,0.5
			c0.1,0.2,0.2,0.4,0.3,0.4c0.2,0.4,0.4,0.6,0.5,0.7c0.2,0.2,0.4,0.3,0.5,0.4c0,0,0.1,0.1,0.2,0.1l0.2,0.1c0,0.1,0.5,0.3,1.2,0.6
			c0.8,0.3,1.3,0.5,1.4,0.6l0.6,0.2c0.2,0.1,0.4,0.1,0.6,0.2c0.1,0,0.2,0.1,0.4,0.1c0.1,0,0.3,0,0.4,0.1c0.6,0.2,1.2,0.4,2,0.6
			c0.8,0.2,1.5,0.3,2.2,0.3c1.1,0,2.1,0,3-0.1c0.9-0.1,1.9,0,3.1,0.1c0.2,0,0.5,0.1,0.7,0.2c0.2,0.1,0.4,0.1,0.7,0.2
			c0.5,0.1,0.8,0.1,0.9,0.2c0.4,0.1,0.7,0.1,0.9,0.2c1.3,0.4,2.3,0.9,3.1,1.6c0,0,0,0,0.1,0.1l0,0c0.4,0.6,0.5,1.3,0,2.2l-0.1,0.1
			c0,0.1-0.1,0.1-0.1,0.1c-0.3,0.5-0.6,0.9-0.8,1.1c-0.1,0.1-0.2,0.2-0.3,0.3c-0.3,0.2-0.6,0.4-0.9,0.4l0,0l0,0c-0.1,0-0.3,0-0.4,0
			c-0.2,0.1-0.3,0-0.2,0l0,0l0,0l0,0l0,0c-0.1,0-0.1,0-0.1,0c0,0-0.1,0-0.1,0c0,0,0,0,0,0l0,0l-0.1,0c0,0-0.1-0.1-0.1-0.1
			c-0.1-0.1-0.1-0.1-0.1-0.2c0,0,0,0,0,0c0,0,0.1-0.2,0.4-0.4c0.3-0.2,0.5-0.4,0.7-0.6c0.2-0.2,0.4-0.4,0.6-0.7
			c0.1-0.1,0.2-0.3,0.2-0.5c0-0.2,0-0.5-0.2-0.7c0,0,0-0.1-0.1-0.1l-0.1-0.1c0,0-0.1-0.1-0.2-0.2c-0.1-0.1-0.2-0.2-0.3-0.2
			c-0.7-0.4-1.6-0.7-2.8-1c-1.2-0.3-2.2-0.5-3.3-0.5c-0.3,0-0.5,0-0.8,0c-0.3,0-0.6,0-0.8,0c-0.6,0-1.1,0-1.7,0c-0.6,0-1.1,0-1.7,0
			c-0.6,0-1.2-0.1-1.8-0.3c-0.6-0.1-1.2-0.3-1.7-0.4c-1.2-0.3-2.2-0.6-3-0.8c-0.8-0.3-1.7-0.6-2.7-1c-0.4-0.1-0.7-0.3-0.9-0.7
			c-0.3-0.3-0.5-0.5-0.6-0.6c-0.5-0.6-0.8-1.1-1.1-1.6c0,0,0-0.1-0.1-0.2c0-0.1,0-0.2-0.1-0.2c-0.1-0.4-0.1-0.8,0.1-1.3
			c0,0,0-0.1,0.1-0.2c0-0.1,0.1-0.2,0.1-0.2c0.1-0.1,0.1-0.2,0.2-0.4c0.1-0.1,0.3-0.3,0.6-0.4c0.3-0.1,0.6-0.1,0.8-0.1
			c0.1,0,0.2,0.1,0.3,0.3c0,0.2,0.1,0.3,0.1,0.3c0.1,0.2,0.1,0.4,0.1,0.5l0,0C221.4,84.8,221.4,84.8,221.3,84.9z"/>
		<path fill="#FFFFFF" d="M230,79.8c-0.1,0.1-0.1,0.2-0.1,0.2c0,0.3,0.1,0.6,0.2,0.9c0,0.1,0.1,0.3,0.2,0.5c0.1,0.2,0.2,0.4,0.3,0.4
			c0.2,0.4,0.4,0.6,0.5,0.7c0.2,0.2,0.4,0.3,0.5,0.4c0,0,0.1,0.1,0.2,0.1l0.2,0.1c0,0.1,0.5,0.3,1.3,0.6c0.8,0.3,1.3,0.5,1.5,0.6
			l0.6,0.2c0.2,0.1,0.4,0.1,0.6,0.2c0.1,0,0.2,0.1,0.4,0.1c0.1,0,0.3,0,0.4,0.1c0.6,0.2,1.3,0.4,2,0.6c0.8,0.2,1.5,0.3,2.3,0.3
			c1.1,0,2.2,0,3.1-0.1c0.9-0.1,2-0.1,3.2,0.1c0.2,0,0.5,0.1,0.7,0.2c0.2,0.1,0.5,0.1,0.7,0.2c0.5,0.1,0.8,0.1,0.9,0.2
			c0.4,0.1,0.7,0.1,0.9,0.2c1.3,0.4,2.4,0.9,3.1,1.7c0,0,0,0,0.1,0.1l0,0c0.5,0.6,0.5,1.3,0,2.2l-0.1,0.1c0,0.1-0.1,0.1-0.1,0.1
			c-0.4,0.6-0.6,0.9-0.8,1.1c-0.1,0.1-0.2,0.2-0.3,0.3c-0.3,0.2-0.6,0.4-1,0.4l0,0l0,0c-0.1,0-0.3,0-0.4,0c-0.2,0.1-0.3,0-0.2,0
			l-0.1,0l0,0l0,0l0,0c-0.1,0-0.1,0-0.1,0c0,0-0.1,0-0.1,0c0,0,0,0,0,0l0,0l-0.1,0c0,0-0.1-0.1-0.1-0.1c-0.1-0.1-0.1-0.1-0.1-0.2
			c0,0,0,0,0,0c0,0,0.2-0.2,0.4-0.5c0.3-0.2,0.5-0.5,0.7-0.6c0.2-0.2,0.4-0.4,0.6-0.7c0.1-0.1,0.2-0.3,0.2-0.5c0-0.2,0-0.5-0.2-0.7
			c0,0,0-0.1-0.1-0.1l-0.1-0.1c0,0-0.1-0.1-0.2-0.2c-0.1-0.1-0.2-0.2-0.3-0.2c-0.7-0.4-1.7-0.8-2.8-1.1c-1.2-0.3-2.3-0.5-3.3-0.5
			c-0.3,0-0.5,0-0.8,0c-0.3,0-0.6,0-0.8,0c-0.6,0-1.2,0-1.8,0c-0.6,0-1.2,0-1.8,0c-0.6,0-1.2-0.1-1.9-0.3c-0.6-0.1-1.2-0.3-1.7-0.4
			c-1.2-0.3-2.2-0.6-3.1-0.8c-0.8-0.2-1.8-0.6-2.8-1c-0.4-0.1-0.7-0.3-0.9-0.7c-0.3-0.3-0.5-0.5-0.6-0.6c-0.5-0.6-0.9-1.1-1.1-1.6
			c0,0,0-0.1-0.1-0.2c0-0.1,0-0.2-0.1-0.2c-0.1-0.4-0.1-0.8,0.1-1.4c0,0,0-0.1,0.1-0.2c0-0.1,0.1-0.2,0.1-0.2
			c0.1-0.1,0.1-0.2,0.3-0.4c0.1-0.1,0.3-0.3,0.6-0.4c0.3-0.1,0.6-0.1,0.9-0.1c0.1,0,0.2,0.1,0.3,0.3c0,0.2,0.1,0.3,0.1,0.3
			c0.1,0.2,0.1,0.4,0.1,0.5l0,0C230.1,79.7,230.1,79.7,230,79.8z"/>
		<path fill="#FFFFFF" d="M201.2,134.9c0.1,0.1,0.1,0.1,0.2,0.2c0.3,0.2,0.6,0.3,1,0.5c0.3,0.2,0.7,0.3,1,0.5
			c0.2,0.1,0.3,0.2,0.4,0.2c0.1,0.1,0.3,0.2,0.4,0.2c0.1,0.1,0.2,0.1,0.3,0.2c0.1,0.1,0.2,0.1,0.3,0.2c0.3,0.2,0.5,0.3,0.8,0.5
			c0.3,0.2,0.5,0.3,0.7,0.4l0.5,0.3c0.1,0,0.1,0.1,0.2,0.1c0.1,0,0.1,0,0.2,0.1c0.4,0.3,0.8,0.5,1.2,0.8c0.4,0.3,0.8,0.6,1.3,0.8
			l2.1,1.1c0.7,0.4,1.4,0.8,2.1,1.1c0.1,0.1,0.2,0.2,0.3,0.3c0.1,0.1,0.2,0.2,0.3,0.2c0.1,0.1,0.3,0.1,0.4,0.2
			c0.2,0.1,0.3,0.1,0.4,0.2c0.4,0.2,0.7,0.4,1,0.6c0.3,0.2,0.7,0.4,1.1,0.6c0.1,0.1,0.2,0.1,0.3,0.2c0.1,0.1,0.2,0.1,0.3,0.2
			c0.5,0.3,1,0.6,1.4,0.8c0.2,0.1,0.4,0.2,0.6,0.3c0.3-0.2,0.6-0.3,0.7-0.4c0.5-0.2,0.9-0.4,1.3-0.4c0.5,0,0.8,0.1,0.8,0.4
			c0,0.2-0.2,0.4-0.7,0.7c-0.3,0.2-0.6,0.4-1,0.5c-0.1,0.4-0.4,0.5-1.1,0.5c-0.5,0.2-0.7,0.3-0.8,0.3c-0.1,0.1-0.2,0.1-0.3,0.2
			c-0.1,0.1-0.1,0.1-0.2,0.2c-0.2,0.1-0.5,0.2-0.8,0.1c-0.5,0-0.7-0.2-0.8-0.3c-0.1-0.2,0.1-0.4,0.6-0.6c0.2-0.1,0.4-0.2,0.8-0.4
			c-0.3-0.2-0.6-0.3-0.8-0.5c-0.3-0.2-0.5-0.3-0.6-0.3c0,0-0.2-0.1-0.4-0.2c-0.2-0.1-0.3-0.2-0.4-0.2c0,0,0,0-0.1,0
			c-0.1,0-0.1,0-0.1-0.1c-0.2-0.1-0.3-0.2-0.5-0.3c-0.2-0.1-0.3-0.2-0.5-0.3c-0.7-0.4-1.4-0.8-2-1.2c-0.6-0.4-1.3-0.8-1.9-1.2
			c-0.2-0.1-0.4-0.2-0.6-0.3c-0.2-0.1-0.4-0.2-0.6-0.4c-0.3-0.2-0.7-0.5-1.1-0.7c-0.4-0.2-0.8-0.4-1.2-0.7c-0.3-0.2-0.6-0.4-0.9-0.6
			c-0.3-0.2-0.6-0.4-0.9-0.6c-0.5-0.3-1.1-0.5-1.7-0.8c-0.6-0.2-1.1-0.5-1.6-0.9c-0.1,0-0.2-0.1-0.3-0.2l-0.3-0.2
			c-0.3-0.2-0.6-0.3-0.9-0.4c-0.3-0.1-0.7-0.3-1-0.4c-0.2-0.1-0.4-0.2-0.5-0.3c-0.2-0.1-0.3-0.2-0.5-0.3c-0.4,0.2-0.7,0.3-0.9,0.4
			c-0.5,0.2-1,0.3-1.3,0.3c-0.4,0-0.6-0.1-0.6-0.4c0-0.2,0.2-0.4,0.7-0.6c0.2-0.1,0.4-0.2,0.7-0.3c0.2-0.1,0.5-0.2,0.7-0.3
			c0,0,0.1-0.1,0.1-0.1c0.1,0,0.1-0.1,0.3-0.1c0.2-0.1,0.4-0.2,0.6-0.3c0.2-0.1,0.4-0.2,0.6-0.3c0.5-0.2,1-0.3,1.2-0.3
			c0.3,0,0.5,0.2,0.6,0.4c0,0.2-0.1,0.3-0.3,0.4c-0.1,0.1-0.2,0.1-0.4,0.1c-0.1,0-0.3,0.1-0.4,0.1c-0.1,0.1-0.2,0.1-0.3,0.1
			C201.1,134.8,201.2,134.8,201.2,134.9z"/>
		<path fill="#FFFFFF" d="M205.4,131.4c0.1,0.1,0.1,0.1,0.1,0.1l0.2,0.1c0.4,0.1,0.9,0.2,1.4,0.4c0.5,0.2,0.9,0.3,1.1,0.4
			c0.3,0.1,0.5,0.2,0.8,0.2c0.3,0.1,0.5,0.1,0.8,0.2c0.3,0.1,0.7,0.2,1,0.3c0.3,0.1,0.7,0.2,1,0.3c0.9,0.2,1.7,0.5,2.5,0.7
			c0.8,0.3,1.6,0.5,2.4,0.7l0.1,0c0,0,0,0,0.1,0c0.2,0.1,0.4,0.2,0.6,0.3c0.2,0.1,0.4,0.2,0.6,0.3c0.4,0.2,0.9,0.4,1.4,0.6
			c0.5,0.2,1,0.3,1.5,0.5c0.5,0.1,0.9,0.3,1.3,0.4c0.4,0.1,0.9,0.3,1.3,0.4c0.6,0.2,1.3,0.3,2.1,0.4c0.7,0.1,1.4,0.2,2.1,0.4
			c-0.7-0.4-1.4-0.7-2-1.1c-0.6-0.4-1.3-0.8-2-1.1l-0.7-0.4c-0.2-0.1-0.4-0.2-0.6-0.4c-0.2-0.1-0.4-0.3-0.7-0.4
			c-0.4-0.2-0.8-0.4-1.2-0.6c-0.4-0.2-0.8-0.4-1.2-0.6c-0.4-0.2-0.9-0.5-1.3-0.7c-0.4-0.3-0.8-0.5-1.3-0.7c-0.6-0.3-1.3-0.6-2.1-0.8
			c-0.8-0.3-1.4-0.6-1.9-0.9c-0.1,0-0.2-0.1-0.3-0.2c-0.1-0.1-0.2-0.1-0.3-0.2c-0.3-0.1-0.5-0.2-0.8-0.3c-0.3-0.1-0.5-0.2-0.8-0.3
			c-0.1,0-0.2-0.1-0.4-0.2c-0.2-0.1-0.3-0.1-0.4-0.1c-0.1,0-0.1-0.1,0.1-0.2c0.1-0.1,0.2-0.2,0.2-0.3c0.3-0.3,0.7-0.5,1.2-0.4
			c0,0,0.1,0,0.1,0.1c0,0.1,0.1,0.1,0.1,0.1c0.5,0.2,1,0.4,1.5,0.6c0.2,0.1,0.3,0.1,0.4,0.2c0.1,0.1,0.3,0.1,0.4,0.2
			c0.1,0.1,0.2,0.1,0.3,0.2c0.1,0.1,0.2,0.1,0.3,0.2l0.9,0.5l0.9,0.5c0.1,0.1,0.2,0.1,0.3,0.2c0.1,0.1,0.2,0.1,0.3,0.2
			c0.1,0,0.2,0.1,0.3,0.1c0.1,0,0.2,0.1,0.2,0.1c0.6,0.3,1.2,0.7,1.7,1c0.5,0.4,1.1,0.7,1.8,1c0.3,0.1,0.6,0.3,0.9,0.4
			c0.3,0.1,0.6,0.3,0.9,0.4c1.1,0.6,2.3,1.1,3.3,1.7c0.1,0.1,0.2,0.2,0.3,0.3c0.1,0.1,0.2,0.2,0.3,0.2c0.1,0.1,0.3,0.1,0.5,0.2
			c0.2,0.1,0.3,0.1,0.5,0.2c0.4,0.2,0.7,0.4,1,0.6c0.3,0.2,0.7,0.4,1,0.6c0.1,0.1,0.3,0.1,0.5,0.3c0.3,0.2,0.5,0.3,0.8,0.5
			c0.2,0.2,0.5,0.3,0.8,0.5c0.1,0.1,0.3,0.1,0.5,0.2c0.2,0.1,0.3,0.1,0.5,0.2l0,0l0,0c0.3,0.1,0.4,0.2,0.5,0.3l0.1,0
			c0.6,0.2,0.7,0.5,0.2,0.8c-0.2,0.1-0.6,0.2-1.1,0.1c-0.5-0.1-0.9-0.1-1.1-0.2c-0.1,0-0.1-0.1-0.2-0.1c-0.1-0.1-0.1-0.1-0.2-0.1
			c-0.9-0.3-1.6-0.5-2.4-0.7c-0.2,0-0.4-0.1-0.6-0.2c-0.2-0.1-0.4-0.1-0.6-0.2c-0.1,0-0.3-0.1-0.4-0.1c-0.1,0-0.3-0.1-0.4-0.1
			c-0.4-0.1-0.8-0.2-1.1-0.3l-1.1-0.3c-0.1,0-0.2-0.1-0.4-0.1l-0.4-0.1c-0.1,0-0.2,0-0.3,0c-0.1,0-0.2,0-0.3,0
			c-0.7-0.2-1.3-0.4-1.9-0.6c-0.6-0.2-1.2-0.4-1.9-0.6c-0.7-0.2-1.4-0.4-2.1-0.7c-0.7-0.2-1.3-0.5-1.9-0.8c0.2,0.1,0.2,0.1,0,0.1
			c-0.2-0.1-0.3-0.1-0.3-0.1c-0.1,0-0.2-0.1-0.3-0.1c-0.1-0.1-0.2-0.1-0.4-0.2c-0.2-0.1-0.4-0.1-0.6-0.1c-0.2,0-0.4-0.1-0.6-0.1
			c-0.4-0.1-0.8-0.2-1.2-0.4c-0.4-0.1-0.8-0.3-1.2-0.4l0.1,0c0.1,0,0.1,0.1,0.2,0.1c0.1,0,0.2,0.1,0.2,0.1c0.6,0.3,1.1,0.7,1.6,1
			c0.5,0.4,1.1,0.7,1.7,1c0.9,0.5,1.8,0.9,2.8,1.4c0.9,0.5,1.8,0.9,2.7,1.4c0.1,0.1,0.3,0.2,0.4,0.3c0.1,0.1,0.2,0.2,0.4,0.3
			c0.2,0.1,0.3,0.2,0.5,0.2c0.2,0.1,0.4,0.1,0.5,0.2c0.4,0.2,0.7,0.4,1,0.6c0.3,0.2,0.7,0.4,1.1,0.6c0.2,0.1,0.4,0.3,0.7,0.4
			c0.3,0.2,0.5,0.3,0.7,0.4l0,0l0,0c0.6,0.2,1,0.4,1.2,0.5c0,0,0,0,0,0l0,0c0.4,0.1,0.6,0.3,0.6,0.4c0,0.1,0.1,0.1,0,0.2
			c0,0,0,0.1,0,0.1c-0.1,0.2-0.4,0.3-1.1,0.4c0,0,0,0-0.2,0l-0.2,0c-0.1,0-0.2,0-0.4-0.1c-0.2-0.1-0.3-0.1-0.3-0.2l-0.6-0.3
			c-0.3-0.2-0.5-0.3-0.5-0.3c0,0-0.2-0.1-0.5-0.3c-0.1-0.1-0.2-0.1-0.4-0.2c-0.1,0-0.3-0.1-0.4-0.2c-0.2-0.1-0.3-0.2-0.4-0.3
			c-0.1-0.1-0.3-0.2-0.4-0.3c-0.8-0.4-1.6-0.8-2.3-1.3c-0.7-0.4-1.5-0.9-2.2-1.3c-0.3-0.1-0.5-0.3-0.8-0.4c-0.3-0.1-0.5-0.3-0.8-0.5
			c-0.5-0.3-0.9-0.6-1.5-0.9c-0.5-0.3-1.1-0.5-1.6-0.8c-0.4-0.2-0.8-0.5-1.2-0.7c-0.4-0.3-0.8-0.5-1.2-0.7c-0.6-0.3-1.2-0.6-2-0.9
			c-0.8-0.3-1.4-0.6-1.8-0.9c-0.1,0-0.2-0.1-0.3-0.2c-0.1-0.1-0.3-0.1-0.3-0.2c-0.3-0.1-0.6-0.2-0.8-0.3c-0.3-0.1-0.6-0.2-0.9-0.3
			c-0.1,0-0.3-0.1-0.5-0.2c-0.2-0.1-0.3-0.2-0.5-0.2c-0.2,0-0.2-0.1-0.1-0.3c0.1-0.1,0.2-0.2,0.2-0.3c0.3-0.4,0.8-0.4,1.4-0.3
			C205.3,131.3,205.3,131.4,205.4,131.4z"/>
		<path fill="#FFFFFF" d="M228.6,118c0.2-0.1,0.4-0.2,0.6-0.2c0.4-0.2,0.8-0.4,1.2-0.6c0.4-0.2,0.8-0.4,1.2-0.6
			c0.2-0.1,0.4-0.2,0.7-0.2c0.3,0,0.5,0,0.8,0c0.2,0,0.4,0.1,0.6,0.2c0.1,0.1,0.2,0.3,0.2,0.4c0,0,0,0.1,0,0.2c0,0.1,0,0.2-0.1,0.2
			c0,0.2-0.1,0.4-0.2,0.6c-0.1,0.2-0.2,0.4-0.2,0.6c0,0.2-0.1,0.3-0.1,0.3c0,0.1,0,0.2-0.1,0.3c0,0.1,0,0.2,0,0.3l0,0l0,0
			c0.8-0.1,1.7-0.1,2.5-0.1c0.3,0,0.8,0,1.5,0c0.2,0,0.3,0,0.5,0c0.2,0,0.3,0,0.5,0c0.5,0,0.9,0.1,1.3,0.2c1,0.2,1.8,0.4,2.5,0.6
			c0.7,0.2,1.5,0.5,2.3,0.8c0,0,0.1,0,0.2,0.1c1.3,0.5,2.6,1.1,3.7,1.7c1.2,0.6,2.4,1.2,3.6,1.7c0.2,0.1,0.5,0.2,0.7,0.4
			c0.2,0.1,0.4,0.2,0.7,0.3c0.1,0,0.3,0.1,0.6,0.2c0.6,0.2,1,0.4,1.2,0.4c1,0.6,1.6,1.2,2,1.9c0.2,0.4,0.2,0.7,0.2,1.1
			c0,0.1-0.1,0.3-0.2,0.5c-0.3,0.5-0.9,1-1.9,1.5c-0.7,0.3-1.5,0.5-2.2,0.6c0,0-0.1,0-0.2,0c-0.7,0.1-1.3,0-2-0.1
			c-0.1,0-0.2,0-0.5-0.1c-0.3-0.1-0.4-0.1-0.5-0.1c-0.9-0.2-1.4-0.5-1.4-1c0-0.5,0.5-0.7,1.5-0.4c0.4,0.1,0.7,0.3,0.9,0.4
			c0.2,0.1,0.6,0.3,1,0.4c0.4,0.1,0.7,0.1,1,0.1c0.4,0,0.8-0.1,1.2-0.3l0.1,0c0.5-0.2,0.8-0.5,1-0.8l0-0.1l0-0.1
			c0.2-0.4,0.2-0.7,0.1-1l0,0l0,0c-0.4-0.7-1.3-1.4-2.5-1.9c-0.7-0.3-1.4-0.6-2-0.9c-0.6-0.3-1.3-0.6-1.9-1
			c-0.4-0.2-0.7-0.4-1.1-0.6c-0.4-0.2-0.7-0.4-1-0.6c-0.8-0.5-1.8-1-3-1.5c-0.5-0.2-0.8-0.3-1.1-0.4c-0.6-0.2-1.1-0.4-1.6-0.6
			c-0.5-0.2-1.1-0.3-1.8-0.4c0,0-0.1,0-0.5-0.1c-0.9-0.1-1.8-0.1-2.7,0c-0.9,0.1-1.8,0.2-2.7,0.3c-0.3,0-0.5,0-0.7,0
			c-0.3,0-0.5-0.1-0.6-0.2c-0.2-0.1-0.4-0.3-0.4-0.5c0,0,0-0.2,0-0.4c0-0.2,0.1-0.3,0.1-0.4c0-0.1,0.1-0.2,0.1-0.2
			c0.1-0.4,0.2-0.6,0.3-0.8l0,0c-0.4,0.2-0.9,0.4-1.4,0.7c-0.5,0.2-0.9,0.4-1.3,0.7c-0.2,0.1-0.5,0.3-0.9,0.4
			c-0.4,0.1-0.7,0.2-1.1,0.1c-0.4-0.1-0.4-0.4,0.1-0.8c0.5-0.4,0.8-0.7,1-0.9C228.2,118.2,228.3,118.1,228.6,118z M231.8,117
			L231.8,117L231.8,117L231.8,117z"/>
		<path fill="#FFFFFF" d="M275.6,119c-0.3-0.2-0.6-0.3-0.8-0.4c-0.2-0.1-0.5-0.2-1.1-0.4c-0.2-0.1-0.4-0.2-0.6-0.3
			c-0.2-0.1-0.4-0.2-0.6-0.4c-1.1-0.5-2.1-0.9-3.1-1.4c-1-0.5-2-1-3-1.5c-0.3-0.2-0.7-0.3-1-0.5c-0.3-0.2-0.7-0.3-1-0.5
			c-0.6-0.3-1.2-0.6-1.8-0.9c-0.6-0.3-1.3-0.6-1.9-0.9c-0.5-0.2-1-0.5-1.4-0.8c-0.4-0.3-0.9-0.5-1.4-0.8c-0.6-0.3-1.4-0.6-2.2-0.9
			c-0.9-0.3-1.5-0.6-2-1c-0.1-0.1-0.3-0.2-0.6-0.3c-0.3-0.1-0.5-0.2-0.8-0.3c-0.3-0.1-0.6-0.2-0.8-0.3c-0.1-0.1-0.3-0.1-0.4-0.2
			c-0.1-0.1-0.2-0.2-0.4-0.2c-0.1,0-0.1-0.1,0.1-0.3c-0.2-0.1-0.4-0.1-0.4-0.2c-0.1-0.2,0.3-0.4,1.2-0.6c0.9-0.2,1.5-0.4,1.8-0.4
			c0.2,0,0.4,0,0.6,0c0.2,0,0.4,0,0.6,0c1.6-0.2,2.9-0.3,3.9-0.4c0.1,0,0.3,0,0.6,0c0.1,0,0.3,0,0.6,0c0.3,0,0.5,0,0.6,0
			c0.5,0,1,0.1,1.4,0.2c0.4,0.1,0.8,0.1,1.2,0.2c0.1,0,0.5,0.1,0.9,0.2c0.5,0.1,0.8,0.2,0.9,0.3c0.2,0.1,0.3,0.1,0.5,0.2
			c0.2,0.1,0.3,0.1,0.5,0.2c0.1,0,0.2,0.1,0.3,0.1c0.1,0,0.3,0.1,0.4,0.1c0.1,0.1,0.2,0.1,0.4,0.2c0.1,0.1,0.3,0.1,0.4,0.1
			c0.5,0.2,0.9,0.5,1.3,0.7c0.4,0.2,0.9,0.5,1.4,0.7c2,0.9,3.9,1.7,5.5,2.6c0.4,0.2,0.9,0.5,1.6,0.9c0.2,0.1,0.3,0.2,0.5,0.4
			c0.1,0.1,0.3,0.2,0.5,0.4c0.2,0.1,0.4,0.2,0.6,0.3c0.2,0.1,0.4,0.2,0.5,0.3c0.3,0.2,0.4,0.3,0.4,0.3c0.5,0.5,0.9,0.9,1.1,1.2
			c0.3,0.3,0.3,0.7,0.2,1c0,0,0,0,0,0.1l0,0c-0.1,0.3-0.2,0.5-0.2,0.7c0,0.2,0.1,0.4,0.1,0.6c0,0.3-0.1,0.6-0.3,0.9l0,0l0,0
			c-0.4,0.4-0.7,0.8-1.2,1.1c-0.1,0.1-0.1,0.1-0.1,0.1c-0.1,0.1-0.1,0.2-0.2,0.2c0.1,0,0-0.1-0.1,0c-0.1,0-0.1,0-0.2,0l0,0l0,0
			c-0.2,0.2-0.4,0.3-0.6,0.5c-0.2,0.1-0.6,0.1-1.1,0l0,0l0,0c-0.1-0.1-0.2-0.2-0.3-0.3C276.3,119.4,275.9,119.2,275.6,119z
			 M254.2,107c0.1,0.1,0.3,0.1,0.4,0.2c0.1,0.1,0.2,0.1,0.4,0.2c0.1,0.1,0.2,0.1,0.3,0.2c0.1,0.1,0.2,0.1,0.3,0.2
			c0.3,0.2,0.6,0.3,0.9,0.5c0.3,0.2,0.6,0.3,1,0.5c0.1,0.1,0.2,0.1,0.3,0.2c0.1,0.1,0.2,0.1,0.4,0.2c0.1,0,0.2,0.1,0.3,0.1
			c0.1,0,0.2,0.1,0.3,0.1c0.7,0.3,1.3,0.7,1.9,1.1c0.6,0.4,1.3,0.7,2,1c1.1,0.5,2.3,1,3.4,1.5c1.2,0.5,2.3,1,3.4,1.5
			c0.2,0.1,0.4,0.2,0.5,0.3c0.2,0.1,0.3,0.2,0.5,0.3c0.2,0.1,0.4,0.2,0.7,0.3c0.2,0.1,0.5,0.2,0.7,0.3c0.5,0.2,1,0.5,1.5,0.7
			c0.5,0.3,1,0.5,1.5,0.7c0.4,0.2,0.8,0.4,1.1,0.6c0.3,0.2,0.7,0.4,1.1,0.6c0,0,0.1,0,0.1,0c0,0,0.1,0,0.1,0
			c0.5-0.3,0.8-0.5,1.1-0.8c0.1-0.1,0.2-0.3,0.2-0.5l0-0.1c0-0.2-0.1-0.3-0.2-0.5c-0.1-0.1-0.1-0.3-0.1-0.5c0-0.2,0.1-0.4,0.2-0.6
			c0.1-0.1,0.1-0.3-0.1-0.5l0,0l0,0c-0.3-0.3-0.6-0.6-1-1c-1.1-0.9-2.3-1.7-3.6-2.4c-0.1,0-0.1,0-0.1-0.1c-0.3-0.2-0.7-0.3-1-0.5
			c-0.3-0.2-0.7-0.4-1-0.6c-0.6-0.3-1.2-0.7-1.8-1c-0.7-0.3-1.3-0.6-2-0.9c-0.3-0.2-0.7-0.3-1-0.5c-0.3-0.2-0.7-0.3-1-0.5l-0.1,0
			l-0.1,0c-0.7-0.2-1.3-0.4-2-0.6c-0.6-0.1-1.3-0.3-2.1-0.4c-0.2,0-0.5-0.1-0.8-0.1c-0.3,0-0.5-0.1-0.8-0.1c-0.1,0-0.5-0.1-1.1-0.1
			l-0.2,0c-0.1,0-0.1,0-0.2,0c-0.2,0-0.7,0-1.3,0.1c-0.7,0.1-1.1,0.1-1.4,0.2c-0.4,0.1-0.8,0.1-1.3,0.1c-0.4,0-0.8,0.1-1.3,0.1
			C253.6,106.7,253.8,106.9,254.2,107z"/>
		<path fill="#FFFFFF" d="M283.2,108.2c0.1,0.1,0.3,0.2,0.4,0.3c0.1,0.1,0.2,0.2,0.4,0.3c0.1,0.1,0.3,0.2,0.5,0.3
			c0.2,0.1,0.4,0.2,0.5,0.3c0.4,0.3,0.8,0.5,1.1,0.8c0.3,0.3,0.7,0.5,1.1,0.8c0.1,0.1,0.3,0.2,0.6,0.5c0.3,0.2,0.5,0.4,0.8,0.6
			c0.2,0.2,0.5,0.4,0.8,0.6c0.1,0.1,0.3,0.2,0.5,0.3l0.6,0.3l0,0l0,0c0.4,0.2,0.6,0.4,0.5,0.7c0,0.1,0,0.1-0.1,0.2
			c0,0.1-0.1,0.1-0.1,0.1c0,0-0.1,0-0.2,0.1c-0.2,0.1-0.3,0.1-0.4,0.1c-0.1,0-0.3-0.1-0.5,0c-0.1,0-0.1,0-0.2,0c-0.1,0-0.3,0-0.3,0
			c0,0,0,0-0.1,0l0,0c-0.1,0-0.2-0.1-0.4-0.2c-0.2-0.1-0.3-0.2-0.3-0.3c-0.3-0.2-0.5-0.4-0.8-0.6c-0.3-0.2-0.5-0.4-0.8-0.6
			c-0.1-0.1-0.2-0.1-0.4-0.3c-0.2-0.1-0.3-0.2-0.4-0.3c0,0-0.1,0-0.1-0.1c-0.1,0-0.1-0.1-0.2-0.1c-0.2-0.1-0.3-0.2-0.5-0.4
			c-0.1-0.1-0.3-0.3-0.5-0.4c-0.8-0.5-1.6-1-2.3-1.5c-0.7-0.5-1.5-1-2.2-1.5c-0.3-0.2-0.5-0.3-0.8-0.5c-0.2-0.2-0.5-0.3-0.7-0.5
			c-0.1-0.1-0.3-0.2-0.5-0.4c-0.5-0.3-0.9-0.6-1.4-0.9c-0.5-0.3-1-0.6-1.5-0.9c-0.5-0.3-0.9-0.6-1.3-0.9c-0.4-0.3-0.9-0.6-1.4-0.9
			c-0.6-0.4-1.4-0.8-2.3-1.1c-0.9-0.4-1.5-0.8-2-1.2c-0.1-0.1-0.3-0.2-0.7-0.4c-0.3-0.2-0.6-0.3-0.9-0.5c-0.3-0.1-0.6-0.3-0.9-0.5
			c-0.2-0.1-0.3-0.2-0.5-0.3c-0.2-0.1-0.3-0.2-0.5-0.3c-0.2-0.1-0.1-0.2,0.1-0.3c0.2-0.1,0.4-0.2,0.5-0.3l0,0l0.1,0l0.1,0
			c0.4-0.3,1-0.4,1.8-0.4c0.1,0,0.2,0,0.3,0.1c0.1,0.1,0.2,0.1,0.3,0.1c0.9,0.1,1.8,0.3,2.9,0.6c0.2,0.1,0.5,0.1,0.7,0.2
			c0.2,0.1,0.4,0.1,0.7,0.2l0.5,0.2c0.2,0.1,0.3,0.1,0.5,0.1c0.5,0.1,0.9,0.3,1.4,0.4c0.4,0.2,0.9,0.3,1.3,0.4
			c0.1,0.1,0.3,0.1,0.4,0.2c0.1,0.1,0.3,0.1,0.5,0.2c0.1,0,0.2,0.1,0.3,0.1c0.1,0,0.2,0,0.3,0.1c0.6,0.2,1.1,0.4,1.4,0.5
			c0.5,0.2,0.9,0.4,1.4,0.6c0.5,0.2,1,0.4,1.5,0.6c0.8,0.3,1.6,0.5,2.4,0.8c0.8,0.3,1.6,0.5,2.4,0.8c0.1,0,0.2,0,0.5,0.1
			c0.4,0.1,0.8,0.3,1.1,0.5l0,0c0.2,0.1,0.3,0.1,0.5,0.2c0.1,0.1,0.3,0.2,0.5,0.2c0.2,0.1,0.4,0.1,0.6,0.2c0.2,0,0.4,0.1,0.6,0.1
			c0.3,0.1,0.6,0.2,0.9,0.3c0.3,0.1,0.6,0.2,0.9,0.3c0.1,0,0.2,0.1,0.3,0.1c0.5,0.2,1.1,0.4,1.7,0.7c0.6,0.3,1.2,0.5,1.7,0.7
			c0.3,0.1,0.6,0.2,0.9,0.3c0.3,0.1,0.7,0.2,1,0.3c0.7,0.1,0.9,0.3,0.7,0.5c-0.2,0.3-0.7,0.6-1.4,0.7c-0.4,0-1.1-0.2-2.2-0.7
			c-1.1-0.5-1.8-0.8-2.1-0.9c-0.3-0.1-0.5-0.2-0.8-0.3c-0.2-0.1-0.5-0.2-0.8-0.3c-0.1,0-0.2-0.1-0.4-0.2c-0.2-0.1-0.2-0.1-0.2-0.1
			l-0.1,0c0,0-0.1,0-0.1,0c-0.7-0.2-1.3-0.4-2-0.6c-0.6-0.2-1.2-0.5-1.8-0.7c-0.2,0.1-0.4,0.2-0.6,0.2c-0.2,0.1-0.4,0.1-0.6,0.2
			c-0.2,0.1-0.3,0.2-0.4,0.2c-0.2,0-0.3,0.1-0.4,0.2c-0.1,0.1-0.2,0.1-0.3,0.2c-0.1,0-0.2,0.1-0.4,0.1c-0.2,0-0.3,0.1-0.4,0.1
			c-0.1,0.1-0.2,0.2-0.3,0.3c0,0.1-0.2,0.2-0.5,0.2c0,0-0.1,0-0.2,0.1c-0.1,0.1-0.2,0.1-0.2,0.2s-0.1,0.1-0.2,0.2l-0.2,0.1
			C282.9,107.9,283.1,108.1,283.2,108.2z M269.9,99.7C269.9,99.7,269.9,99.7,269.9,99.7c0.2,0.1,0.4,0.3,0.8,0.5
			c0.3,0.2,0.7,0.4,1,0.6c0.3,0.2,0.6,0.4,1,0.6c0.1,0.1,0.2,0.2,0.3,0.2c0.1,0.1,0.2,0.2,0.4,0.2c0.1,0.1,0.2,0.1,0.3,0.1
			c0.1,0,0.2,0.1,0.3,0.1c0.7,0.4,1.3,0.9,1.8,1.3c0.6,0.5,1.2,0.9,1.9,1.3c0.4,0.2,0.8,0.5,1.2,0.7c0.4,0.2,0.8,0.5,1.2,0.7
			c0.2,0.1,0.4,0.3,0.7,0.4c0.2,0.1,0.4,0.2,0.7,0.4c0,0,0.1,0,0.1-0.1c0.1,0,0.1-0.1,0.2-0.1c-0.1,0.1,0,0,0.3-0.1l0.1,0l0.1,0
			c0.1,0,0.2-0.1,0.3-0.1c0.1,0,0.2-0.1,0.3-0.1c0.1,0,0.2,0,0.2-0.1c0,0,0,0,0,0s0,0,0,0c0.1-0.1,0.3-0.1,0.6-0.1
			c0.2,0,0.4-0.1,0.5-0.2c0.2-0.1,0.3-0.2,0.5-0.3c0.2-0.1,0.4-0.2,0.6-0.3c0,0,0.1,0,0.2,0c0.1,0,0.1,0,0.2,0c0,0,0,0,0-0.1
			c0,0,0-0.1,0.1-0.1l0,0c-0.3-0.1-0.6-0.2-0.8-0.3c-0.3-0.1-0.5-0.2-0.8-0.3c-0.5-0.3-1.1-0.5-1.8-0.7c-0.6-0.2-1.3-0.4-1.9-0.6
			c-0.4-0.1-0.7-0.3-1.1-0.5c-0.3-0.2-0.7-0.3-1.1-0.5c-0.4-0.1-0.7-0.3-0.9-0.3c-0.8-0.3-1.8-0.5-2.8-0.7c-1-0.2-1.9-0.5-2.7-0.8
			c-0.1-0.1-0.4-0.2-1-0.3L269.9,99.7C269.8,99.6,269.8,99.6,269.9,99.7z"/>
		<path fill="#FFFFFF" d="M275.2,93.5c0,0,0.1,0.1,0.1,0.1c0.2,0,0.4,0,0.7,0c0.2,0,0.4,0,0.6,0c0.1,0,0.2,0,0.3,0
			c0.1,0,0.2,0,0.3,0c0.1,0,0.2,0,0.3,0c0.1,0,0.2,0,0.3,0c0.2,0,0.5,0.1,0.7,0.1c0.2,0,0.5,0.1,0.7,0.1c0.1,0,0.2,0,0.2,0
			c0.1,0,0.2,0,0.3,0c0.1,0,0.1,0,0.2,0s0.1,0,0.2,0c0.5,0.1,0.9,0.1,1.4,0.2c0.5,0.1,0.9,0.2,1.4,0.2c0.8,0,1.2,0.1,1.4,0.1
			c0.8,0,1.8,0.1,2.7,0.2c0.1,0,0.2,0,0.3,0.1c0.1,0,0.2,0.1,0.3,0.1c0.1,0,0.2,0,0.4,0c0.1,0,0.3,0,0.4,0c0.3,0,0.6,0.1,0.8,0.1
			c0.3,0.1,0.6,0.1,0.9,0.1l-0.1,0c-0.4-0.3-0.8-0.6-1.3-0.9c-0.4-0.3-0.8-0.6-1.1-1c-0.2-0.1-0.3-0.4-0.3-0.6
			c0-0.1-0.1-0.2-0.2-0.3s-0.2-0.2-0.2-0.3c-0.2-0.2-0.4-0.5-0.6-0.7c-0.2-0.2-0.4-0.5-0.6-0.7l0,0c0,0,0,0,0,0
			c-0.1-0.2-0.3-0.4-0.4-0.6c-0.1-0.2-0.3-0.4-0.6-0.6c-0.3-0.2-0.3-0.5,0.3-0.8c0.3-0.2,0.8-0.3,1.4-0.1c0.6,0.1,0.9,0.3,1.1,0.4
			c0.1,0.1,0.1,0.2,0.1,0.3c0,0.1,0.1,0.2,0.1,0.3c0.2,0.3,0.4,0.4,0.5,0.6c0.1,0.1,0.2,0.2,0.4,0.5c0.2,0.3,0.3,0.5,0.4,0.6
			c0.1,0.1,0.2,0.3,0.2,0.4c0.1,0.1,0.1,0.3,0.2,0.4c0.2,0.3,0.3,0.4,0.4,0.6c0.1,0.1,0.2,0.2,0.2,0.3c0.3,0.4,0.5,0.7,0.8,1
			c0.1,0.1,0.1,0.1,0.2,0.2c0.1,0.1,0.1,0.1,0.2,0.2c0,0,0.1,0.1,0.2,0.1c0.1,0,0.1,0.1,0.2,0.1c0.2,0.2,0.4,0.4,0.7,0.6
			c0.2,0.2,0.5,0.4,0.7,0.6c0,0,0,0,0,0c0,0,0,0,0,0c0.4,0,0.6,0.1,0.5,0.3c0.3,0.2,0.5,0.3,0.6,0.3c0.8,0.3,1.6,0.6,2.4,0.8
			c0.8,0.2,1.7,0.4,2.7,0.7c0.2,0.1,0.4,0.1,0.6,0.2c0.1,0,0.2,0.1,0.3,0.2c0.1,0.1,0.2,0.2,0.4,0.2c0.2,0.1,0.4,0.2,0.6,0.2
			c0.2,0.1,0.5,0.1,0.7,0.2c0.6,0.3,1.2,0.6,1.8,0.8c0.6,0.3,1.2,0.6,1.8,0.9c0.1,0,0.2,0.1,0.4,0.1c0.5,0.2,1,0.5,1.4,0.7
			c0.4,0.3,0.9,0.5,1.4,0.7c0.1,0.1,0.3,0.1,0.4,0.2l0.4,0.1c0.1,0,0.3,0.1,0.6,0.3c0.4,0.1,0.6,0.3,0.7,0.5c0.1,0.1,0.1,0.2,0,0.4
			c0,0,0,0,0,0l0,0c-0.1,0.1-0.2,0.2-0.2,0.2c0,0-0.1,0.1-0.2,0.1c-0.2,0.1-0.4,0-0.4,0c0-0.1-0.1-0.1-0.3-0.1c0,0-0.1,0-0.2,0
			c0,0-0.1,0-0.1,0c-0.1,0-0.1,0-0.1,0c-0.1,0-0.2,0-0.2,0c-0.1,0-0.1,0-0.2,0l-0.1,0c-0.1,0-0.3-0.1-0.6-0.3
			c-0.3-0.2-0.5-0.3-0.5-0.3c-0.5-0.3-1-0.6-1.5-0.9c-0.2-0.1-0.4-0.2-0.7-0.3c-0.2-0.1-0.4-0.2-0.7-0.3c-0.1-0.1-0.3-0.1-0.5-0.2
			c-0.2-0.1-0.3-0.2-0.5-0.2c-0.1-0.1-0.4-0.2-0.8-0.4l-4.9-2.2l-0.2,0c-0.1,0-0.2,0-0.2,0c-1-0.2-1.7-0.4-2.2-0.6
			c-0.6-0.2-1.1-0.4-1.7-0.6c-0.6-0.2-1.1-0.5-1.6-0.7l-0.1,0c-0.2,0.1-0.5,0-0.9-0.1c0,0-0.1,0-0.4-0.1c-0.3-0.1-0.4-0.1-0.5-0.1
			c-0.2,0-0.3,0-0.4,0c-0.1,0-0.2,0-0.4,0c-0.1,0-0.2,0-0.3-0.1c-0.1,0-0.3-0.1-0.5-0.1c-0.6,0-1.2-0.1-1.7-0.2
			c-0.5-0.1-1.1-0.2-1.7-0.2c-0.6-0.1-1-0.1-1.1-0.1c-0.2,0-0.4-0.1-0.6-0.1c-0.3,0-0.6-0.1-0.9-0.1c-0.3,0-0.6,0-0.9-0.1
			c-0.3,0-0.7-0.1-1-0.2c-0.3-0.1-0.7-0.1-1-0.2c-0.5,0-1,0-1.6,0c-0.6,0-1.1,0-1.5-0.1c-0.2,0-0.3,0-0.5-0.1c-0.2,0-0.5,0-0.7,0
			c-0.2,0-0.4,0-0.7,0c-0.1,0-0.3,0-0.4,0c-0.1,0-0.3,0-0.4-0.1c-0.2,0-0.2-0.1-0.1-0.3c0.1-0.2,0.2-0.3,0.2-0.3
			c0.1-0.1,0.2-0.2,0.4-0.4C274.7,93.6,274.9,93.5,275.2,93.5C275.1,93.5,275.1,93.5,275.2,93.5z"/>
		<path fill="#FFFFFF" d="M295.6,85c-0.1,0.1-0.1,0.2-0.1,0.2c0,0.3,0,0.6,0.1,1c0,0.1,0.1,0.3,0.2,0.5s0.2,0.4,0.3,0.5
			c0.3,0.4,0.5,0.7,0.6,0.8c0.3,0.2,0.5,0.4,0.6,0.5c0,0,0.1,0.1,0.3,0.1l0.2,0.1c0.1,0.1,0.5,0.3,1.5,0.6c0.9,0.4,1.5,0.6,1.7,0.6
			l0.7,0.3c0.2,0.1,0.4,0.2,0.7,0.2c0.1,0,0.3,0.1,0.4,0.1c0.2,0,0.3,0,0.5,0.1c0.7,0.2,1.5,0.4,2.4,0.6c0.9,0.2,1.8,0.3,2.6,0.3
			c1.3,0,2.5,0,3.7-0.1c1.1-0.1,2.3-0.1,3.7,0.1c0.3,0,0.5,0.1,0.8,0.2c0.3,0.1,0.5,0.1,0.8,0.2c0.6,0.1,1,0.2,1.1,0.2
			c0.4,0.1,0.8,0.1,1,0.2c1.5,0.4,2.7,1,3.6,1.8c0,0,0.1,0,0.1,0.1l0,0c0.5,0.7,0.5,1.4-0.1,2.4l-0.1,0.1c-0.1,0.1-0.1,0.1-0.1,0.1
			c-0.4,0.6-0.8,1-1,1.2c-0.1,0.1-0.2,0.3-0.4,0.4c-0.4,0.2-0.8,0.4-1.2,0.4l0,0l0,0c-0.2,0-0.3,0-0.5,0c-0.3,0.1-0.4,0-0.2,0
			l-0.1,0l-0.1,0l0,0l0,0c-0.1,0-0.1,0-0.1,0c0,0-0.1,0-0.2,0c0,0,0,0,0,0l0,0l-0.1,0c0,0-0.1-0.1-0.1-0.1c-0.1-0.1-0.1-0.1-0.1-0.3
			c0,0,0,0,0-0.1c0,0,0.2-0.2,0.5-0.5c0.3-0.3,0.6-0.5,0.9-0.7c0.3-0.2,0.5-0.4,0.7-0.7c0.1-0.1,0.2-0.3,0.3-0.5
			c0-0.2,0-0.5-0.2-0.8c0,0,0-0.1-0.1-0.1l-0.1-0.1c0,0-0.1-0.1-0.2-0.2c-0.1-0.1-0.2-0.2-0.3-0.3c-0.8-0.4-1.9-0.8-3.3-1.2
			c-1.4-0.3-2.7-0.5-3.9-0.6c-0.3,0-0.6,0-1,0c-0.3,0-0.7,0-1,0c-0.7,0-1.4,0-2.1,0c-0.7,0-1.4,0-2.1,0c-0.7,0-1.4-0.1-2.2-0.3
			c-0.7-0.2-1.4-0.3-2-0.5c-1.4-0.3-2.6-0.6-3.5-0.9c-1-0.3-2-0.7-3.2-1.1c-0.4-0.1-0.8-0.4-1-0.7c-0.3-0.3-0.6-0.5-0.7-0.7
			c-0.6-0.6-1-1.2-1.2-1.7c0,0,0-0.1-0.1-0.2c0-0.1,0-0.2-0.1-0.2c-0.1-0.4,0-0.9,0.1-1.5c0,0,0-0.1,0.1-0.2c0-0.1,0.1-0.2,0.1-0.2
			c0.1-0.1,0.2-0.3,0.3-0.4c0.1-0.1,0.4-0.3,0.8-0.4c0.4-0.1,0.7-0.2,1-0.1c0.1,0.1,0.2,0.2,0.3,0.3c0,0.2,0.1,0.3,0.1,0.4
			c0.1,0.2,0.1,0.4,0.1,0.6l0,0C295.8,84.8,295.7,84.9,295.6,85z"/>
	</g>
	<polygon fill="#CC5A5A" points="244.7,173.9 322.4,217.4 458.7,136.1 372.2,93.9 336.5,144 	"/>
	<polygon fill="#CC5A5A" points="316.5,140.7 316.5,125.6 334.3,128.1 334.3,140.7 	"/>
</g>
<g>
</g>
<g>
</g>
<g>
</g>
<g>
</g>
<g>
</g>
<g>
</g>
<g>
</g>
<g>
</g>
<g>
</g>
<g>
</g>
<g>
</g>
<g>
</g>
<g>
</g>
<g>
</g>
<g>
</g>
</svg>
