<?xml version="1.0" encoding="iso-8859-1"?>
<!-- Generator: Adobe Illustrator 18.0.0, SVG Export Plug-In . SVG Version: 6.00 Build 0)  -->
<!DOCTYPE svg PUBLIC "-//W3C//DTD SVG 1.1//EN" "http://www.w3.org/Graphics/SVG/1.1/DTD/svg11.dtd">
<svg version="1.1" xmlns="http://www.w3.org/2000/svg" xmlns:xlink="http://www.w3.org/1999/xlink" x="0px" y="0px"
	 viewBox="0 0 535.234 591.726" style="enable-background:new 0 0 535.234 591.726;" xml:space="preserve">
<g id="_x23_lunch">
	<g>
		<defs>
			<circle id="SVGID_1_" cx="256" cy="256.001" r="256"/>
		</defs>
		<clipPath id="SVGID_2_">
			<use xlink:href="#SVGID_1_"  style="overflow:visible;"/>
		</clipPath>
		<g style="clip-path:url(#SVGID_2_);">
			<defs>
				<circle id="SVGID_3_" cx="256" cy="256.001" r="256"/>
			</defs>
			<clipPath id="SVGID_4_">
				<use xlink:href="#SVGID_3_"  style="overflow:visible;"/>
			</clipPath>
			<circle style="clip-path:url(#SVGID_4_);fill:#E8B750;" cx="256" cy="256.001" r="256"/>
		</g>
		<g style="opacity:0.49;clip-path:url(#SVGID_2_);">
			<rect x="1.272" y="209.663" style="fill:#FFFFFF;" width="511.519" height="381.275"/>
			<rect x="321.914" y="527.454" style="fill:#DB605A;" width="63.444" height="63.444"/>
			<g>
				<rect x="0.714" y="209.406" style="fill:#DB605A;" width="63.444" height="63.444"/>
				<rect x="65.109" y="272.85" style="fill:#DB605A;" width="63.444" height="63.444"/>
				<rect x="1.19" y="336.294" style="fill:#DB605A;" width="63.444" height="63.444"/>
				<rect x="65.585" y="399.738" style="fill:#DB605A;" width="63.444" height="63.444"/>
				<rect x="1.665" y="463.182" style="fill:#DB605A;" width="63.444" height="63.444"/>
				<rect x="66.061" y="526.626" style="fill:#DB605A;" width="63.444" height="63.444"/>
				<rect x="128.251" y="210.234" style="fill:#DB605A;" width="63.444" height="63.444"/>
				<rect x="192.647" y="273.678" style="fill:#DB605A;" width="63.444" height="63.444"/>
				<rect x="128.727" y="337.122" style="fill:#DB605A;" width="63.444" height="63.444"/>
				<rect x="193.123" y="400.566" style="fill:#DB605A;" width="63.444" height="63.444"/>
				<rect x="129.203" y="464.01" style="fill:#DB605A;" width="63.444" height="63.444"/>
				<rect x="193.599" y="527.454" style="fill:#DB605A;" width="63.444" height="63.444"/>
				<rect x="256.567" y="210.234" style="fill:#DB605A;" width="63.444" height="63.444"/>
				<rect x="320.962" y="273.678" style="fill:#DB605A;" width="63.444" height="63.444"/>
				<rect x="257.043" y="337.122" style="fill:#DB605A;" width="63.444" height="63.444"/>
				<rect x="321.438" y="400.566" style="fill:#DB605A;" width="63.444" height="63.444"/>
				<rect x="257.518" y="464.01" style="fill:#DB605A;" width="63.444" height="63.444"/>
				<rect x="384.105" y="211.062" style="fill:#DB605A;" width="63.444" height="63.444"/>
				<rect x="448.5" y="274.506" style="fill:#DB605A;" width="63.444" height="63.444"/>
				<rect x="384.58" y="337.95" style="fill:#DB605A;" width="63.444" height="63.444"/>
				<rect x="448.976" y="401.394" style="fill:#DB605A;" width="63.444" height="63.444"/>
				<rect x="385.056" y="464.838" style="fill:#DB605A;" width="63.444" height="63.444"/>
			</g>
			<rect x="449.452" y="528.282" style="fill:#DB605A;" width="63.444" height="63.444"/>
		</g>
		<polygon style="opacity:0.2;clip-path:url(#SVGID_2_);fill:#0D0B10;" points="394.241,186.444 535.234,345.436 323.745,544.926 
			118.255,349.936 		"/>
		<polygon style="opacity:0.2;clip-path:url(#SVGID_2_);fill:#0D0B10;" points="87.113,146.226 427.24,477.429 259.248,591.423 
			53.758,396.433 		"/>
		<polygon style="opacity:0.2;clip-path:url(#SVGID_2_);fill:#0D0B10;" points="456.094,137.226 530.734,256.001 484.237,423.432 
			449.113,404.501 		"/>
		<circle style="clip-path:url(#SVGID_2_);fill:#D1D1CF;" cx="258.5" cy="266.726" r="161"/>
		<path style="clip-path:url(#SVGID_2_);fill:#EAEBE1;" d="M258.5,417.726c-83.262,0-151-67.738-151-151s67.738-151,151-151
			s151,67.738,151,151S341.762,417.726,258.5,417.726z"/>
		<path style="clip-path:url(#SVGID_2_);fill:#EAEBE1;" d="M449.113,404.501L449.113,404.501c-5.775,0-10.5-4.725-10.5-10.5v-250
			c0-5.775,4.725-10.5,10.5-10.5h0c2.404,0,4.626,0.819,6.401,2.191c2.489,1.925,4.099,4.938,4.099,8.309v250
			C459.613,399.776,454.888,404.501,449.113,404.501z"/>
		<path style="clip-path:url(#SVGID_2_);fill:#EAEBE1;" d="M457.613,141.726c0,0,28,102,28,127c0,14-30.5,23.5-30.5,23.5
			L457.613,141.726z"/>
		<path style="opacity:0.49;clip-path:url(#SVGID_2_);fill:#D1D1CF;" d="M258.5,387.726c-66.72,0-121-54.28-121-121
			s54.28-121,121-121s121,54.28,121,121S325.22,387.726,258.5,387.726z"/>
		<path style="clip-path:url(#SVGID_2_);fill:#EAEBE1;" d="M87.113,146.226c0-3.575-2.925-6.5-6.5-6.5s-6.5,2.925-6.5,6.5v34h-4.5
			v-34c0-3.575-2.925-6.5-6.5-6.5s-6.5,2.925-6.5,6.5v34h-4.5v-34c0-3.575-2.925-6.5-6.5-6.5s-6.5,2.925-6.5,6.5v43.57
			c-0.163,0.786-0.25,1.598-0.25,2.43v55c0,6.6,5.4,12,12,12h1.112c-0.706,1.526-1.112,3.216-1.112,5v134.5c0,6.6,5.4,12,12,12
			c6.6,0,12-5.4,12-12v-134.5c0-1.784-0.405-3.474-1.112-5h1.112c6.6,0,12-5.4,12-12v-54.241c0.159-0.561,0.25-1.149,0.25-1.759
			V146.226z"/>
	</g>
</g>
<g id="Livello_1">
</g>
</svg>
