<?xml version="1.0" encoding="iso-8859-1"?>
<!-- Generator: Adobe Illustrator 18.0.0, SVG Export Plug-In . SVG Version: 6.00 Build 0)  -->
<!DOCTYPE svg PUBLIC "-//W3C//DTD SVG 1.1//EN" "http://www.w3.org/Graphics/SVG/1.1/DTD/svg11.dtd">
<svg version="1.1" xmlns="http://www.w3.org/2000/svg" xmlns:xlink="http://www.w3.org/1999/xlink" x="0px" y="0px"
	 viewBox="0 0 537.493 551.436" style="enable-background:new 0 0 537.493 551.436;" xml:space="preserve">
<g id="_x23_mail">
	<g>
		<defs>
			<circle id="SVGID_1_" cx="256" cy="256" r="256"/>
		</defs>
		<clipPath id="SVGID_2_">
			<use xlink:href="#SVGID_1_"  style="overflow:visible;"/>
		</clipPath>
		<g style="clip-path:url(#SVGID_2_);">
			<circle style="fill:#26424B;" cx="256" cy="256" r="256"/>
		</g>
		<rect x="238.384" y="160.984" style="clip-path:url(#SVGID_2_);fill:#DB605A;" width="299.109" height="235.87"/>
		<path style="clip-path:url(#SVGID_2_);fill:#6E302D;" d="M292.562,361.144l-0.203,36.486l-162.532-0.921
			c-39.109-0.222-71.061-8.576-71.005-18.565v0c0.057-9.989,32.101-17.981,71.211-17.759L292.562,361.144z"/>
		<path style="clip-path:url(#SVGID_2_);fill:#A44844;" d="M292.562,358.887l-0.203,36.486l-162.532-0.921
			c-39.109-0.222-71.061-8.576-71.005-18.565v0c0.057-9.989,32.101-17.981,71.211-17.759L292.562,358.887z"/>
		<g style="clip-path:url(#SVGID_2_);">
			<path style="fill:#6E302D;" d="M231.291,161.045c-25.401,3.941-40.006,31.339-40.006,55.744v141.809h103.277v-135.9
				C294.562,190.887,266.492,155.584,231.291,161.045z"/>
		</g>
		<polygon style="clip-path:url(#SVGID_2_);fill:#7B3633;" points="189.285,358.598 292.562,394.244 292.562,358.598 		"/>
		<g style="clip-path:url(#SVGID_2_);">
			<path style="fill:#FFFFFF;" d="M350.642,254.84h13.354l7.315,20.031l7.315-20.031h13.392v52.329h-11.929v-19.581
				c0-4.952,0.199-9.979,0.6-15.08h-0.901c-0.525,2.526-1.563,6.002-3.113,10.428l-5.364,15.266l-5.327-15.266
				c-1.551-4.451-2.588-7.927-3.113-10.428h-0.938c0.425,4.727,0.638,9.753,0.638,15.08v19.581h-11.929V254.84z"/>
			<path style="fill:#FFFFFF;" d="M409.661,254.84h12.128l13.78,52.329h-13.279l-1.86-10.391h-10.032l-1.912,10.391h-12.492
				L409.661,254.84z M415.481,269.132l-3.359,18.268h6.63L415.481,269.132z"/>
			<path style="fill:#FFFFFF;" d="M439.62,254.84h12.304v52.329H439.62V254.84z"/>
			<path style="fill:#FFFFFF;" d="M459.538,254.84h12.229v41.638h16.805v10.691h-29.034V254.84z"/>
		</g>
		<g style="clip-path:url(#SVGID_2_);">
			<rect x="325.295" y="90.905" style="fill:#FFFFFF;" width="7.901" height="69.578"/>
		</g>
		<polygon style="clip-path:url(#SVGID_2_);fill:#DB605A;" points="322.097,97.677 267.918,115.36 322.097,133.044 		"/>
		<g style="clip-path:url(#SVGID_2_);">
			<g>
				<rect x="122.856" y="235.409" style="fill:#EAEBE1;" width="206.169" height="129.05"/>
				<polygon style="fill:#D1D1CF;" points="229.247,323.382 124.267,236.465 329.025,235.409 				"/>
				<polygon style="fill:#EAEBE1;" points="229.247,315.014 229.247,315.014 122.856,235.409 329.025,235.409 				"/>
				<polygon style="fill:#26424B;" points="151.063,244.395 127.044,244.395 130.332,235.916 154.351,235.916 				"/>
				<polygon style="fill:#DB605A;" points="193.346,244.395 169.328,244.395 172.615,235.916 196.634,235.916 				"/>
				<polygon style="fill:#26424B;" points="235.63,244.395 211.611,244.395 214.899,235.916 238.917,235.916 				"/>
				<polygon style="fill:#26424B;" points="320.197,244.395 296.178,244.395 299.466,235.916 323.484,235.916 				"/>
				<polygon style="fill:#DB605A;" points="277.913,244.395 253.894,244.395 257.182,235.916 281.201,235.916 				"/>
				<polygon style="fill:#DB605A;" points="132.131,326.129 132.131,350.147 123.652,346.86 123.652,322.841 				"/>
				<polygon style="fill:#26424B;" points="132.131,289.931 132.131,313.95 123.652,310.662 123.652,286.643 				"/>
				<polygon style="fill:#DB605A;" points="132.131,253.733 132.131,277.752 123.652,274.464 123.652,250.446 				"/>
				<polygon style="fill:#DB605A;" points="320.766,322.071 320.766,346.09 329.245,342.803 329.245,318.784 				"/>
				<polygon style="fill:#26424B;" points="320.766,285.874 320.766,309.893 329.245,306.605 329.245,282.586 				"/>
				<polygon style="fill:#DB605A;" points="320.766,249.676 320.766,273.695 329.245,270.407 329.245,246.388 				"/>
				<polygon style="fill:#26424B;" points="151.063,364.004 127.044,364.004 130.332,355.525 154.351,355.525 				"/>
				<polygon style="fill:#DB605A;" points="193.346,364.004 169.328,364.004 172.615,355.525 196.634,355.525 				"/>
				<polygon style="fill:#26424B;" points="235.63,364.004 211.611,364.004 214.899,355.525 238.917,355.525 				"/>
				<polygon style="fill:#26424B;" points="320.197,364.004 296.178,364.004 299.466,355.525 323.484,355.525 				"/>
				<polygon style="fill:#DB605A;" points="277.913,364.004 253.894,364.004 257.182,355.525 281.201,355.525 				"/>
			</g>
			<rect x="292.562" y="229.925" style="fill:#DB605A;" width="49.099" height="149.08"/>
		</g>
		<rect x="335.406" y="396.854" style="clip-path:url(#SVGID_2_);fill:#EAEBE1;" width="61.333" height="154.582"/>
		<rect x="372.406" y="396.854" style="clip-path:url(#SVGID_2_);fill:#D1D1CF;" width="24.753" height="154.582"/>
		<g style="clip-path:url(#SVGID_2_);">
			<path style="opacity:0.1;fill:#FFFFFF;" d="M291.587,396.854l204.046-235.87H245.282c28.363,4.198,49.28,34.254,49.28,61.714
				v135.9"/>
		</g>
	</g>
</g>
<g id="Livello_1">
</g>
</svg>
