<?xml version="1.0" encoding="utf-8"?>
<!-- Generator: Adobe Illustrator 18.1.0, SVG Export Plug-In . SVG Version: 6.00 Build 0)  -->
<!DOCTYPE svg PUBLIC "-//W3C//DTD SVG 1.1//EN" "http://www.w3.org/Graphics/SVG/1.1/DTD/svg11.dtd">
<svg version="1.1" id="Livello_1" xmlns="http://www.w3.org/2000/svg" xmlns:xlink="http://www.w3.org/1999/xlink" x="0px" y="0px"
	 viewBox="0 0 584.5 598.1" enable-background="new 0 0 584.5 598.1" xml:space="preserve">
<circle fill="#26424B" cx="256" cy="275.6" r="256"/>
<g>
	<polygon fill="#D2D3D1" points="117.3,85.6 397.4,77.7 425,565 147,557 	"/>
	<polygon opacity="9.000000e-02" fill="#231F20" points="117.3,110.7 397.4,102.7 412.7,564.8 145.7,562.8 	"/>
	<g>
		<path fill="#DB605A" d="M508,318.3c-0.3,0-0.6,0-1-0.1c-0.3,0-30.1-4.5-59.6-9.2c-62.1-9.8-62.4-10.3-63.9-12.6
			c-0.7-1.1-0.7-2.3-0.1-3.4c1.2-1.9,4.2-2.7,6.7-1.8c0.3,0.1,0.5,0.2,0.8,0.3c8.2,2.2,76.2,12.8,118.1,19.1
			c2.7,0.4,4.5,2.4,3.9,4.5C512.4,317,510.3,318.3,508,318.3z"/>
	</g>
	<rect x="100" y="0" fill="#EFEFEF" width="297.4" height="598.1"/>
	<rect x="100" y="0" fill="#DB605A" width="297.4" height="77.7"/>
	<rect x="134.3" y="122.8" fill="#FFFFFF" width="77.2" height="77.2"/>
	<rect x="134.3" y="236" fill="#FFFFFF" width="77.2" height="77.2"/>
	<rect x="134.3" y="349.2" fill="#FFFFFF" width="77.2" height="77.2"/>
	<rect x="134.3" y="462.5" fill="#FFFFFF" width="77.2" height="77.2"/>
	<g>
		<path d="M141,182.3c11.7-17.9,17.9-27.5,18.7-28.9c0.8-1.4,1.2-2.7,1.2-3.9c0-0.6-0.1-1.2-0.2-1.8c-0.4-1.9-1.4-3.3-2.9-4.2
			c-1-0.6-2.1-0.9-3.1-0.9c-0.5,0-1,0.1-1.4,0.2c-1.7,0.4-3,1.3-3.9,2.9c-0.6,0.9-1,2.2-1.2,4l-5.5-0.8c0.2-2.2,0.8-4,1.7-5.5
			c1.8-2.8,4.3-4.6,7.5-5.3c1-0.2,2-0.4,2.9-0.4c2.3,0,4.5,0.6,6.5,1.9c2.8,1.7,4.5,4.2,5.2,7.2c0.2,1.1,0.4,2.1,0.4,3.1
			c0,1.8-0.5,3.6-1.5,5.3c-1,1.8-5.8,9.2-14.4,22.3h15.9v4.8H141z"/>
		<path d="M186.9,177.5v-30.9l-2.8,1.8l-4.1-3l12.4-9v41.1h9.1v4.8h-23.9v-4.8H186.9z"/>
	</g>
	<g>
		<path d="M140.5,299c11.7-17.9,17.9-27.5,18.7-28.9c0.8-1.4,1.2-2.7,1.2-3.9c0-0.6-0.1-1.2-0.2-1.8c-0.4-1.9-1.4-3.3-2.9-4.2
			c-1-0.6-2.1-0.9-3.1-0.9c-0.5,0-1,0.1-1.4,0.2c-1.7,0.4-3,1.3-3.9,2.9c-0.6,0.9-1,2.2-1.2,4l-5.5-0.8c0.2-2.2,0.8-4,1.7-5.5
			c1.8-2.8,4.3-4.6,7.5-5.3c1-0.2,2-0.4,2.9-0.4c2.3,0,4.5,0.6,6.5,1.9c2.8,1.7,4.5,4.2,5.2,7.2c0.2,1.1,0.4,2.1,0.4,3.1
			c0,1.8-0.5,3.6-1.5,5.3c-1,1.8-5.8,9.2-14.4,22.3h15.9v4.8H140.5z"/>
		<path d="M176.7,299c11.7-17.9,17.9-27.5,18.7-28.9c0.8-1.4,1.2-2.7,1.2-3.9c0-0.6-0.1-1.2-0.2-1.8c-0.4-1.9-1.4-3.3-2.9-4.2
			c-1-0.6-2.1-0.9-3.1-0.9c-0.5,0-1,0.1-1.4,0.2c-1.7,0.4-3,1.3-3.9,2.9c-0.6,0.9-1,2.2-1.2,4l-5.5-0.8c0.2-2.2,0.8-4,1.7-5.5
			c1.8-2.8,4.3-4.6,7.5-5.3c1-0.2,2-0.4,2.9-0.4c2.3,0,4.5,0.6,6.5,1.9c2.8,1.7,4.5,4.2,5.2,7.2c0.2,1.1,0.4,2.1,0.4,3.1
			c0,1.8-0.5,3.6-1.5,5.3c-1,1.8-5.8,9.2-14.4,22.3h15.9v4.8H176.7z"/>
	</g>
	<g>
		<path d="M141,410.1c11.7-17.9,17.9-27.5,18.7-28.9c0.8-1.4,1.2-2.7,1.2-3.9c0-0.6-0.1-1.2-0.2-1.8c-0.4-1.9-1.4-3.3-2.9-4.2
			c-1-0.6-2.1-0.9-3.1-0.9c-0.5,0-1,0.1-1.4,0.2c-1.7,0.4-3,1.3-3.9,2.9c-0.6,0.9-1,2.2-1.2,4l-5.5-0.8c0.2-2.2,0.8-4,1.7-5.5
			c1.8-2.8,4.3-4.6,7.5-5.3c1-0.2,2-0.4,2.9-0.4c2.3,0,4.5,0.6,6.5,1.9c2.8,1.7,4.5,4.2,5.2,7.2c0.2,1.1,0.4,2.1,0.4,3.1
			c0,1.8-0.5,3.6-1.5,5.3c-1,1.8-5.8,9.2-14.4,22.3h15.9v4.8H141z"/>
		<path d="M188,386.8l-3.3-0.1v-4.7c2.4,0,4-0.2,4.8-0.5c0.8-0.3,1.7-1,2.8-2.1c1-1.1,1.5-2.4,1.5-3.9c0-1.5-0.5-2.8-1.5-3.8
			c-1-1-2.1-1.4-3.3-1.4s-2.3,0.5-3.3,1.4c-0.6,0.6-1.1,1.7-1.8,3.4l-5.1-2c0.6-2,1.5-3.5,2.6-4.6c2.1-2.1,4.6-3.1,7.6-3.1
			c3,0,5.5,1,7.5,3s3,4.4,3,7.1c0,2.7-1.4,5.6-4.2,8.6c1.1,0.2,2.6,1.3,4.5,3.3c2.6,2.8,3.9,6,3.9,9.7c0,3.7-1.4,6.9-4.1,9.6
			s-6,4.1-10,4.1c-3.9,0-7.3-1.4-10.1-4.2c-2.1-2.1-3.4-4.9-3.9-8.3l5.5-2c0.4,3.3,1.3,5.6,2.8,7.1c1.6,1.6,3.5,2.4,5.8,2.4
			c2.3,0,4.2-0.8,5.9-2.5c1.7-1.7,2.5-3.8,2.5-6.3c0-2.5-0.8-4.7-2.5-6.5C193.8,388.6,191.3,387.4,188,386.8z"/>
	</g>
	<g>
		<path d="M140.6,526.8c11.7-17.9,17.9-27.5,18.7-28.9c0.8-1.4,1.2-2.7,1.2-3.9c0-0.6-0.1-1.2-0.2-1.8c-0.4-1.9-1.4-3.3-2.9-4.2
			c-1-0.6-2.1-0.9-3.1-0.9c-0.5,0-1,0.1-1.4,0.2c-1.7,0.4-3,1.3-3.9,2.9c-0.6,0.9-1,2.2-1.2,4l-5.5-0.8c0.2-2.2,0.8-4,1.7-5.5
			c1.8-2.8,4.3-4.6,7.5-5.3c1-0.2,2-0.4,2.9-0.4c2.3,0,4.5,0.6,6.5,1.9c2.8,1.7,4.5,4.2,5.2,7.2c0.2,1.1,0.4,2.1,0.4,3.1
			c0,1.8-0.5,3.6-1.5,5.3c-1,1.8-5.8,9.2-14.4,22.3h15.9v4.8H140.6z"/>
		<path d="M199.4,476.4v34.9h4v4.8h-4v10.8h-5.6V516h-18.1L199.4,476.4z M193.8,495.9l-9.1,15.3h9.1V495.9z"/>
	</g>
	<g>
		<g>
			<rect x="231.5" y="134.8" fill="#ADBCC3" width="134.6" height="3"/>
		</g>
		<g>
			<rect x="231.5" y="149.8" fill="#ADBCC3" width="134.6" height="3"/>
		</g>
		<g>
			<rect x="231.5" y="164.8" fill="#ADBCC3" width="134.6" height="3"/>
		</g>
		<g>
			<rect x="231.5" y="179.8" fill="#ADBCC3" width="134.6" height="3"/>
		</g>
	</g>
	<g>
		<g>
			<rect x="229.5" y="249.6" fill="#ADBCC3" width="134.6" height="3"/>
		</g>
		<g>
			<rect x="229.5" y="264.6" fill="#ADBCC3" width="134.6" height="3"/>
		</g>
		<g>
			<rect x="229.5" y="279.6" fill="#ADBCC3" width="134.6" height="3"/>
		</g>
		<g>
			<rect x="229.5" y="294.6" fill="#ADBCC3" width="134.6" height="3"/>
		</g>
	</g>
	<g>
		<g>
			<rect x="230.5" y="361.7" fill="#ADBCC3" width="134.6" height="3"/>
		</g>
		<g>
			<rect x="230.5" y="376.7" fill="#ADBCC3" width="134.6" height="3"/>
		</g>
		<g>
			<rect x="230.5" y="391.7" fill="#ADBCC3" width="134.6" height="3"/>
		</g>
		<g>
			<rect x="230.5" y="406.7" fill="#ADBCC3" width="134.6" height="3"/>
		</g>
	</g>
	<g>
		<g>
			<rect x="228.5" y="476.5" fill="#ADBCC3" width="134.6" height="3"/>
		</g>
		<g>
			<rect x="228.5" y="491.5" fill="#ADBCC3" width="134.6" height="3"/>
		</g>
		<g>
			<rect x="228.5" y="506.5" fill="#ADBCC3" width="134.6" height="3"/>
		</g>
		<g>
			<rect x="228.5" y="521.5" fill="#ADBCC3" width="134.6" height="3"/>
		</g>
	</g>
	<g>
		<g>
			<path fill="#78C1B0" d="M338.6,183.1c-16.7,0-30.2-13.6-30.2-30.2s13.6-30.2,30.2-30.2s30.2,13.6,30.2,30.2
				S355.2,183.1,338.6,183.1z M338.6,131.7c-11.7,0-21.2,9.5-21.2,21.2c0,11.7,9.5,21.2,21.2,21.2s21.2-9.5,21.2-21.2
				C359.8,141.2,350.3,131.7,338.6,131.7z"/>
		</g>
		<g>
			<polygon fill="#78C1B0" points="338.8,174.8 320.3,152.1 327.3,146.4 338.4,160 365.4,122.7 372.7,128.1 			"/>
		</g>
	</g>
	<g>
		<g>
			<path fill="#DB605A" d="M340.8,304.9c-16.7,0-30.3-13.6-30.3-30.3c0-16.7,13.6-30.3,30.3-30.3s30.3,13.6,30.3,30.3
				C371.1,291.3,357.5,304.9,340.8,304.9z M340.8,253.5c-5.8,0-11.1,2.4-15,6.2c-3.8,3.8-6.2,9.1-6.2,15c0,11.7,9.5,21.2,21.2,21.2
				s21.2-9.5,21.2-21.2S352.5,253.5,340.8,253.5z"/>
		</g>
		<g>
			
				<rect x="322.7" y="272.1" transform="matrix(0.7496 0.6619 -0.6619 0.7496 267.3652 -156.0347)" fill="#DB605A" width="34.4" height="6.6"/>
		</g>
		<g>
			
				<rect x="323.5" y="272.2" transform="matrix(-0.7496 0.6619 -0.6619 -0.7496 778.4926 256.4763)" fill="#DB605A" width="34.4" height="6.6"/>
		</g>
	</g>
	<g>
		<line fill="#78C1B0" x1="397.4" y1="149.8" x2="473" y2="96.8"/>
		<polygon fill="#78C1B0" points="397.7,153.1 397.1,145.6 470.7,93.6 475.3,100.1 		"/>
	</g>
	<rect x="466" y="66.8" fill="#78C1B0" width="102" height="37.5"/>
	<rect x="482.5" y="294.5" fill="#DB605A" width="102" height="37.5"/>
	<g>
		<line fill="#78C1B0" x1="390.8" y1="502.4" x2="482.4" y2="490.7"/>
		<polygon fill="#78C1B0" points="389.5,505.4 392.5,498.5 481.9,486.7 482.9,494.7 		"/>
	</g>
	<rect x="462.6" y="479.5" fill="#78C1B0" width="102" height="18.7"/>
	<rect x="462.6" y="530.3" fill="#78C1B0" width="102" height="18.7"/>
	<rect x="462.6" y="504.9" fill="#78C1B0" width="102" height="18.7"/>
	<g>
		<g>
			<path fill="#78C1B0" d="M338.6,418c-16.7,0-30.2-13.6-30.2-30.2s13.6-30.2,30.2-30.2c16.7,0,30.2,13.6,30.2,30.2
				S355.2,418,338.6,418z M338.6,366.6c-11.7,0-21.2,9.5-21.2,21.2s9.5,21.2,21.2,21.2s21.2-9.5,21.2-21.2S350.3,366.6,338.6,366.6z
				"/>
		</g>
		<g>
			<polygon fill="#78C1B0" points="338.8,409.7 320.3,387 327.3,381.3 338.4,394.8 365.4,357.6 372.7,362.9 			"/>
		</g>
	</g>
	<g>
		<g>
			<path fill="#78C1B0" d="M338.6,531.8c-16.7,0-30.2-13.6-30.2-30.2c0-16.7,13.6-30.2,30.2-30.2s30.2,13.6,30.2,30.2
				C368.8,518.3,355.2,531.8,338.6,531.8z M338.6,480.4c-11.7,0-21.2,9.5-21.2,21.2c0,11.7,9.5,21.2,21.2,21.2s21.2-9.5,21.2-21.2
				C359.8,489.9,350.3,480.4,338.6,480.4z"/>
		</g>
		<g>
			<polygon fill="#78C1B0" points="338.8,523.5 320.3,500.8 327.3,495.1 338.4,508.7 365.4,471.4 372.7,476.8 			"/>
		</g>
	</g>
</g>
<g>
</g>
<g>
</g>
<g>
</g>
<g>
</g>
<g>
</g>
<g>
</g>
<g>
</g>
<g>
</g>
<g>
</g>
<g>
</g>
<g>
</g>
<g>
</g>
<g>
</g>
<g>
</g>
<g>
</g>
</svg>
