<?xml version="1.0" encoding="utf-8"?>
<!-- Generator: Adobe Illustrator 18.1.0, SVG Export Plug-In . SVG Version: 6.00 Build 0)  -->
<!DOCTYPE svg PUBLIC "-//W3C//DTD SVG 1.1//EN" "http://www.w3.org/Graphics/SVG/1.1/DTD/svg11.dtd">
<svg version="1.1" id="Livello_1" xmlns="http://www.w3.org/2000/svg" xmlns:xlink="http://www.w3.org/1999/xlink" x="0px" y="0px"
	 viewBox="0 0 555.7 535.9" enable-background="new 0 0 555.7 535.9" xml:space="preserve">
<circle fill="#DB605A" cx="253.3" cy="253.3" r="253.3"/>
<polygon opacity="0.1" points="198.9,132 298.4,197.7 242,213.8 142.6,160.4 "/>
<g>
	<polygon fill="#E2E2E2" points="223.8,213.5 450,274.3 443.2,228.9 	"/>
	<path fill="#F8F8F8" d="M492,246.8c-10-0.1-273.2-34.4-268.2-33.3s214.5-16.9,214.5-16.9L492,246.8z"/>
	<path fill="#E2E2E2" d="M223.8,213.5c0,0,225.6-93.1,226.2-92.3s-11.8,75.4-11.8,75.4L223.8,213.5z"/>
</g>
<g>
	<path fill="#6E7476" d="M306.2,535.9c-0.6,0-1.2,0-1.9,0l0.1-5.2c8.2,0.1,16.5-0.4,24.6-1.5l0.7,5.2
		C322,535.4,314.1,535.9,306.2,535.9z M279.1,533.9c-8.4-1.3-16.7-3.2-24.7-5.7l1.5-5c7.8,2.4,15.8,4.2,24,5.5L279.1,533.9z
		 M354.5,529.3l-1.4-5c7.9-2.3,15.7-5.1,23.1-8.5l2.2,4.7C370.7,524,362.7,526.9,354.5,529.3z M230.8,518.9c-7.7-3.7-15-8.1-21.8-13
		l3-4.2c6.6,4.7,13.7,8.9,21.1,12.5L230.8,518.9z M400.5,508.2l-2.9-4.3c4.5-3,8.8-6.2,12.9-9.7c2.1-1.8,4.3-3.7,6.3-5.6l3.6,3.8
		c-2.1,2-4.3,3.9-6.5,5.8C409.7,501.7,405.2,505.1,400.5,508.2z M189.6,489.6c-5.9-5.8-11.6-12.1-16.9-18.9l4.1-3.2
		c5.1,6.6,10.7,12.8,16.4,18.4L189.6,489.6z M437.4,473.5l-4.2-3.1c5-6.7,9.3-13.7,12.7-20.9l4.7,2.3
		C447,459.2,442.6,466.5,437.4,473.5z M158.4,449.8c-0.8-1.4-1.6-2.7-2.4-4.1c-0.8-1.4-1.6-2.8-2.4-4.3c-2.5-4.3-5-8.8-7.7-13.2
		l4.4-2.8c2.8,4.4,5.3,9,7.8,13.3c0.8,1.4,1.6,2.9,2.4,4.2c0.8,1.4,1.6,2.7,2.4,4L158.4,449.8z M459.1,427.6l-5.1-1.1
		c0.2-0.9,0.4-1.7,0.6-2.6c1.2-6,1.8-12.1,1.8-18.3c0-1.1,0-2.2-0.1-3.3l5.2-0.2c0,1.2,0.1,2.3,0.1,3.5c0,6.5-0.6,13-1.9,19.3
		C459.5,425.8,459.3,426.7,459.1,427.6z M130.8,409.2c-6.5-6-13.2-9.3-20.5-10l0.5-5.2c8.5,0.9,16.2,4.6,23.6,11.4L130.8,409.2z
		 M411.3,384.7l-0.1-5.2c8.2-0.1,16.5-0.7,24.6-1.8l0.7,5.2C428.2,383.9,419.7,384.5,411.3,384.7z M385.8,382.9
		c-5.3-1.2-9.8-2.9-13.8-5.3c-3.3-2-6.4-4.7-8.9-7.8l4.1-3.2c2.1,2.6,4.7,4.9,7.5,6.6c3.5,2.1,7.6,3.7,12.3,4.7L385.8,382.9z
		 M452.3,378.4c-2.4-7.9-5.9-15.3-10.3-21.8l4.3-2.9c4.7,7,8.4,14.8,11,23.2L452.3,378.4z M461.4,378.3l-1.2-5.1
		c8-1.9,16-4.3,23.7-7.1l1.8,4.9C477.7,373.9,469.5,376.3,461.4,378.3z M508.9,361.2l-2.3-4.7c1.3-0.6,2.6-1.3,3.8-1.9
		c7.1-3.6,12.6-7,17.2-10.5l3.1,4.1c-4.9,3.7-10.6,7.2-18,11C511.5,359.9,510.2,360.6,508.9,361.2z M363.4,345.8l-4.8-2.1
		c1.8-4.1,4.9-7.9,8.9-11.2c3.3-2.6,7-4.7,11-6.2l1.8,4.9c-3.5,1.3-6.7,3.1-9.5,5.3C367.4,339.3,364.8,342.5,363.4,345.8z
		 M425.3,339.4c-6.7-4.6-14.2-7.9-21.8-9.4l1-5.1c8.3,1.7,16.5,5.2,23.8,10.3L425.3,339.4z M547.9,328.9l-4.6-2.5
		c3.5-6.5,5.9-14,7.2-22.4l0.1-0.4l5.2,0.7l-0.1,0.5C554.3,313.8,551.7,321.9,547.9,328.9z M550.5,279.4c-1.2-8.1-3.5-15.9-6.8-23.2
		l4.7-2.2c3.5,7.8,6,16.1,7.2,24.6L550.5,279.4z M530.6,235.9c-5.3-6-11.6-11.1-18.6-15.3l2.7-4.5c7.5,4.5,14.2,10,19.8,16.3
		L530.6,235.9z M489.6,211.5c-7.9-1.9-16.1-2.6-24-2l-0.4-5.2c8.4-0.7,17.1,0.1,25.6,2.1L489.6,211.5z"/>
</g>
<polygon fill="#F8F8F8" points="158.3,132 168.7,113.2 176,132 198.9,132 178.6,147.6 190.5,167.3 164.5,155.1 142.6,160.4 
	154.1,144.5 142.6,130.9 "/>
<g>
	<path opacity="0.1" d="M223.8,213.5l266.8,127.9c9.4-26.9,14.5-55.7,14.5-85.8c0-42.5-10.2-82.6-28.2-118L450,121.2L223.8,213.5z"
		/>
	<path opacity="0.1" d="M441.1,423.5l-257.9-127l40.2-28.8l22.3,11.4c-58.7-32.8-103.1-57.4-103.1-57.4l-61.9,59.2l335,167.3
		C424,440.8,433.8,431.9,441.1,423.5z"/>
	<path opacity="0.1" d="M461,400.6c1.9-2.8,3.7-5.6,5.5-8.5L245.7,279.1C313.7,317.1,400.9,366,461,400.6z"/>
	<path opacity="0.1" d="M245.7,279.1l-22.3-11.4l-40.2,28.8l257.9,130c7.1-8.2,13.8-16.9,19.9-25.9
		C400.9,366,313.7,317.1,245.7,279.1z"/>
	<path opacity="0.1" d="M245.7,279.1l-22.3-11.4l-40.2,28.8l257.9,130c7.1-8.2,13.8-16.9,19.9-25.9
		C400.9,366,313.7,317.1,245.7,279.1z"/>
</g>
<polygon fill="#F8F8F8" points="89,235.3 93.9,199.8 113.7,230.1 142.6,221.7 129.4,242 142.6,264.6 108.6,261 80.7,280.9 
	85.7,254.8 55.1,245.8 "/>
<polygon fill="#F8F8F8" points="194.8,282.6 194.8,267.7 207.2,277.4 223.4,267.7 218.8,282.6 231.2,287.9 211.1,294.2 207.2,310.6 
	202.1,298.6 183.2,296.5 "/>
<g>
</g>
<g>
</g>
<g>
</g>
<g>
</g>
<g>
</g>
<g>
</g>
<g>
</g>
<g>
</g>
<g>
</g>
<g>
</g>
<g>
</g>
<g>
</g>
<g>
</g>
<g>
</g>
<g>
</g>
</svg>
