<?xml version="1.0" encoding="utf-8"?>
<!-- Generator: Adobe Illustrator 18.1.0, SVG Export Plug-In . SVG Version: 6.00 Build 0)  -->
<!DOCTYPE svg PUBLIC "-//W3C//DTD SVG 1.1//EN" "http://www.w3.org/Graphics/SVG/1.1/DTD/svg11.dtd">
<svg version="1.1" id="Livello_1" xmlns="http://www.w3.org/2000/svg" xmlns:xlink="http://www.w3.org/1999/xlink" x="0px" y="0px"
	 viewBox="0 0 512 512" enable-background="new 0 0 512 512" xml:space="preserve">
<circle fill="#E8B750" cx="256" cy="256" r="256"/>
<path opacity="0.2" fill="#231F20" d="M58.7,346.1l244.2,161.6c0,0,196.7-30.3,209.1-251.7c0.2-2.9-12-8.9-12-8.9l-266.7-97.5
	L58.7,346.1z"/>
<polygon fill="#F8F8F8" points="58.7,346.1 240.1,250 441.3,298 296,427.8 "/>
<path fill="#C0D7A1" d="M441.7,210.9c0,0,3.8,1.8,9.6,4.5c20.3,9.8,64.3,32.2,48.7,34.6c-20,3.1-173.6,169.1-173.6,169.1L77.3,315
	l199.6-179.9L441.7,210.9z"/>
<path opacity="0.2" fill="#231F20" d="M365.6,285.2c0.9-2.8,70.7-4.6,70.7-4.6L419,251l-53.4-3.2V285.2z"/>
<polygon fill="#F8F8F8" points="30.7,285.1 324.8,378.7 338.5,383.1 405.1,177.8 198.5,135.1 "/>
<polygon opacity="0.2" fill="#231F20" points="71.3,260.6 58.7,275.9 290.1,351.1 "/>
<path fill="#F4B9B1" d="M94.1,210.6c0,0-53.2,36.3-47.7,39.4s243.6,101.1,243.6,101.1L451.3,202l-222-116.4L94.1,210.6z"/>
<path fill="#E4DC7E" d="M132.9,229.8L118,285.1l323.7-22c0,0-71.7-133.1-77.7-136.5s-212.9,8.5-212.9,8.5L132.9,229.8z"/>
<polygon fill="#77B4BE" points="117.4,184.5 76.8,202 276.9,301.1 432,147.2 151.1,85.6 "/>
<polygon fill="#F8F8F8" points="49.8,147.2 188.2,63.1 472,147.2 259.7,263.1 "/>
<polygon opacity="0.2" fill="#231F20" points="270.3,257.6 290.3,269.6 378.7,200 "/>
<polygon opacity="0.2" fill="#231F20" points="113.6,149.5 248.7,228.6 292.6,198.9 "/>
<polygon fill="#DB605A" points="108.7,147.2 290.1,51.1 491.3,99.1 279.9,227.1 "/>
<path fill="#F4B9B1" d="M77.3,263.1"/>
<polygon opacity="0.2" fill="#231F20" points="99.1,324.2 82.8,333.3 302.5,409.1 "/>
<polygon opacity="0.2" fill="#231F20" points="324.8,378.7 319,394 88.6,303.6 "/>
<g>
</g>
<g>
</g>
<g>
</g>
<g>
</g>
<g>
</g>
<g>
</g>
<g>
</g>
<g>
</g>
<g>
</g>
<g>
</g>
<g>
</g>
<g>
</g>
<g>
</g>
<g>
</g>
<g>
</g>
</svg>
