<?xml version="1.0" encoding="utf-8"?>
<!-- Generator: Adobe Illustrator 18.1.0, SVG Export Plug-In . SVG Version: 6.00 Build 0)  -->
<!DOCTYPE svg PUBLIC "-//W3C//DTD SVG 1.1//EN" "http://www.w3.org/Graphics/SVG/1.1/DTD/svg11.dtd">
<svg version="1.1" id="Livello_1" xmlns="http://www.w3.org/2000/svg" xmlns:xlink="http://www.w3.org/1999/xlink" x="0px" y="0px"
	 viewBox="0 0 512 512" enable-background="new 0 0 512 512" xml:space="preserve">
<circle fill="#77B4BE" cx="256" cy="256" r="256"/>
<path opacity="0.2" fill="#231F20" d="M380.5,368.8l82.1,34.6c0,0-66.5,92.5-174.6,106.6L108.2,370.4L380.5,368.8z"/>
<g>
	<path fill="#E4DC7E" d="M108.2,150.1c0,4.9,0,220.4,0,220.4l176.1,46.5V169.7L108.2,150.1z"/>
	<polygon fill="#E8B750" points="284.2,169.7 386.7,139.3 380.5,368.8 284.2,416.9 	"/>
	<polygon fill="#CC9B46" points="108.2,149.5 208.2,98.8 386.7,139.3 284.2,179.9 	"/>
	<polygon fill="#E8B750" points="108.2,149.5 210.8,59.7 368,29.1 268.4,112.5 	"/>
	<polygon opacity="0.2" fill="#323336" points="108.2,149.5 206.9,166.5 354.5,132 268.4,112.5 	"/>
	<g>
		<g opacity="0.5">
			<line fill="none" x1="108.1" y1="169.8" x2="283.9" y2="208.4"/>
			<g>
				<path fill="#494A4D" d="M281.9,216.8c-6.5-1.7-12.7-2.5-19.5-3.9c-6.7-1.4-12.4-2.8-18.9-4.3c-13.3-3-24.8-6-38-8.8
					c-5.3-1.1-98.2-23.2-98.9-21.9c-0.2,0.3,14,3.5,14.7,3.7c14,4,73.3,18,83.9,20.1c19.7,3.9,37.1,7.5,57.3,11.6
					c6.7,1.4,12.9,2,19.4,3.7c0.1,0,0.3,0,0.3,0C282.2,216.9,282.1,216.8,281.9,216.8z"/>
				<path fill="#494A4D" d="M282.9,212.2c-6.5-1.7-12.7-2.4-19.5-3.9c-6.7-1.4-12.4-2.8-19-4.3c-13.3-3-24.8-6-38-8.8
					c-5.3-1.1-98.2-23-99-21.8c-0.2,0.3,14,3.5,14.7,3.7c14,4,73.3,17.9,83.9,20c19.7,3.9,37.1,7.5,57.4,11.5
					c6.7,1.3,12.9,2,19.4,3.7c0.1,0,0.3,0,0.3,0C283.1,212.3,283,212.2,282.9,212.2z"/>
				<path fill="#494A4D" d="M283.8,207.6c-6.5-1.7-12.7-2.4-19.5-3.9c-6.7-1.4-12.5-2.7-19-4.2c-13.3-3-24.8-5.9-38.1-8.7
					c-5.3-1.1-98.3-22.9-99.1-21.6c-0.2,0.3,14,3.5,14.8,3.7c14,4,73.4,17.8,84,19.9c19.8,3.9,37.1,7.4,57.4,11.4
					c6.7,1.3,12.9,2,19.4,3.6c0.1,0,0.3,0,0.3,0C284.1,207.7,284,207.6,283.8,207.6z"/>
				<path fill="#494A4D" d="M284.8,203c-6.5-1.7-12.7-2.4-19.5-3.8c-6.7-1.4-12.5-2.7-19-4.2c-13.3-3-24.8-5.9-38.1-8.6
					c-5.3-1.1-98.4-22.7-99.1-21.5c-0.2,0.3,14.1,3.5,14.8,3.7c14,4,73.4,17.7,84.1,19.8c19.8,3.9,37.2,7.4,57.4,11.3
					c6.7,1.3,12.9,2,19.4,3.6c0.1,0,0.3,0,0.3,0C285,203.1,284.9,203,284.8,203z"/>
				<path fill="#494A4D" d="M285.7,198.4c-6.5-1.7-12.7-2.4-19.6-3.8c-6.7-1.4-12.5-2.7-19-4.2c-13.3-3-24.8-5.8-38.1-8.6
					c-5.3-1.1-98.5-22.6-99.2-21.4c-0.2,0.3,14.1,3.4,14.8,3.6c14,4,73.5,17.6,84.1,19.7c19.8,3.8,37.2,7.3,57.5,11.2
					c6.8,1.3,12.9,2,19.5,3.6c0.1,0,0.3,0,0.3,0C286,198.5,285.9,198.4,285.7,198.4z"/>
			</g>
		</g>
		<g opacity="0.5">
			<line fill="none" x1="108.1" y1="195.2" x2="283.8" y2="235.4"/>
			<g>
				<path fill="#494A4D" d="M281.8,243.8c-6.5-1.7-12.7-2.6-19.5-4.1c-6.7-1.5-12.4-2.9-18.9-4.5c-13.2-3.2-24.7-6.2-38-9.1
					c-5.3-1.2-98.1-24-98.9-22.8c-0.2,0.3,14,3.7,14.7,3.9c14,4.2,73.2,18.7,83.8,20.9c19.7,4.1,37.1,7.8,57.3,12.1
					c6.7,1.4,12.9,2.1,19.4,3.9c0.1,0,0.3,0,0.3,0C282.1,243.9,282,243.8,281.8,243.8z"/>
				<path fill="#494A4D" d="M282.7,239.2c-6.5-1.7-12.7-2.6-19.5-4.1c-6.7-1.5-12.4-2.9-19-4.4c-13.3-3.1-24.8-6.2-38-9.1
					c-5.3-1.2-98.2-23.9-98.9-22.7c-0.2,0.3,14,3.6,14.7,3.8c14,4.1,73.3,18.6,83.9,20.8c19.7,4.1,37.1,7.8,57.3,12
					c6.7,1.4,12.9,2.1,19.4,3.8c0.1,0,0.3,0,0.3,0C283,239.3,282.9,239.2,282.7,239.2z"/>
				<path fill="#494A4D" d="M283.7,234.6c-6.5-1.7-12.7-2.5-19.5-4c-6.7-1.5-12.4-2.9-19-4.4c-13.3-3.1-24.8-6.1-38.1-9
					c-5.3-1.2-98.3-23.8-99-22.5c-0.2,0.3,14,3.6,14.7,3.8c14,4.1,73.3,18.5,83.9,20.6c19.7,4.1,37.1,7.7,57.4,11.9
					c6.7,1.4,12.9,2.1,19.4,3.8c0.1,0,0.3,0,0.3,0C284,234.7,283.9,234.6,283.7,234.6z"/>
				<path fill="#494A4D" d="M284.7,230c-6.5-1.7-12.7-2.5-19.5-4c-6.7-1.4-12.5-2.8-19-4.4c-13.3-3.1-24.8-6.1-38.1-9
					c-5.3-1.1-98.3-23.6-99.1-22.4c-0.2,0.3,14,3.6,14.8,3.8c14,4.1,73.4,18.4,84,20.5c19.8,4,37.1,7.7,57.4,11.8
					c6.7,1.4,12.9,2.1,19.4,3.8c0.1,0,0.3,0,0.3,0C284.9,230.1,284.8,230.1,284.7,230z"/>
				<path fill="#494A4D" d="M285.6,225.4c-6.5-1.7-12.7-2.5-19.5-4c-6.7-1.4-12.5-2.8-19-4.3c-13.3-3.1-24.8-6.1-38.1-8.9
					c-5.3-1.1-98.4-23.5-99.1-22.2c-0.2,0.3,14.1,3.6,14.8,3.8c14,4.1,73.4,18.3,84.1,20.4c19.8,4,37.2,7.6,57.4,11.7
					c6.7,1.4,12.9,2.1,19.4,3.8c0.1,0,0.3,0,0.3,0C285.9,225.5,285.8,225.5,285.6,225.4z"/>
			</g>
		</g>
		<g opacity="0.5">
			<line fill="none" x1="108.1" y1="220.6" x2="283.7" y2="262.4"/>
			<g>
				<path fill="#494A4D" d="M281.7,270.7c-6.5-1.8-12.7-2.7-19.5-4.3c-6.7-1.5-12.4-3-18.9-4.6c-13.2-3.3-24.7-6.4-38-9.5
					c-5.3-1.2-98.1-24.9-98.8-23.7c-0.2,0.3,14,3.8,14.7,4c13.9,4.3,73.2,19.3,83.8,21.6c19.7,4.3,37,8.2,57.2,12.6
					c6.7,1.5,12.9,2.3,19.4,4c0.1,0,0.3,0,0.3,0C281.9,270.8,281.8,270.7,281.7,270.7z"/>
				<path fill="#494A4D" d="M282.6,266.1c-6.5-1.8-12.7-2.7-19.5-4.2c-6.7-1.5-12.4-3-18.9-4.6c-13.2-3.3-24.7-6.4-38-9.4
					c-5.3-1.2-98.1-24.8-98.9-23.5c-0.2,0.3,14,3.8,14.7,4c14,4.3,73.2,19.2,83.8,21.5c19.7,4.3,37.1,8.1,57.3,12.5
					c6.7,1.5,12.9,2.2,19.4,4c0.1,0,0.3,0,0.3,0C282.9,266.3,282.8,266.2,282.6,266.1z"/>
				<path fill="#494A4D" d="M283.6,261.6c-6.5-1.8-12.7-2.7-19.5-4.2c-6.7-1.5-12.4-3-19-4.6c-13.3-3.2-24.8-6.4-38-9.4
					c-5.3-1.2-98.2-24.6-98.9-23.4c-0.2,0.3,14,3.7,14.7,3.9c14,4.2,73.3,19.1,83.9,21.4c19.7,4.2,37.1,8.1,57.3,12.4
					c6.7,1.5,12.9,2.2,19.4,4c0.1,0,0.3,0,0.3,0C283.8,261.7,283.7,261.6,283.6,261.6z"/>
				<path fill="#494A4D" d="M284.5,257c-6.5-1.8-12.7-2.6-19.5-4.2c-6.7-1.5-12.4-3-19-4.5c-13.3-3.2-24.8-6.3-38.1-9.3
					c-5.3-1.2-98.3-24.5-99-23.3c-0.2,0.3,14,3.7,14.7,3.9c14,4.2,73.3,19,83.9,21.3c19.7,4.2,37.1,8,57.4,12.3
					c6.7,1.4,12.9,2.2,19.4,4c0.1,0,0.3,0,0.3,0C284.8,257.1,284.7,257,284.5,257z"/>
				<path fill="#494A4D" d="M285.5,252.4c-6.5-1.8-12.7-2.6-19.5-4.1c-6.7-1.5-12.5-2.9-19-4.5c-13.3-3.2-24.8-6.3-38.1-9.3
					c-5.3-1.2-98.3-24.3-99.1-23.1c-0.2,0.3,14,3.7,14.8,3.9c14,4.2,73.4,18.9,84,21.1c19.8,4.2,37.1,8,57.4,12.2
					c6.7,1.4,12.9,2.2,19.4,3.9c0.1,0,0.3,0,0.3,0C285.7,252.5,285.7,252.4,285.5,252.4z"/>
			</g>
		</g>
		<g opacity="0.5">
			<line fill="none" x1="108.1" y1="246" x2="283.6" y2="289.3"/>
			<g>
				<path fill="#494A4D" d="M281.6,297.6c-6.5-1.9-12.6-2.8-19.5-4.4c-6.7-1.6-12.4-3.1-18.9-4.8c-13.2-3.4-24.7-6.6-37.9-9.8
					c-5.3-1.3-98-25.8-98.7-24.5c-0.2,0.2,14,3.9,14.7,4.1c13.9,4.4,73.1,20,83.7,22.4c19.7,4.5,37,8.5,57.2,13.1
					c6.7,1.5,12.9,2.4,19.4,4.2c0.1,0,0.3,0,0.3,0C281.8,297.7,281.7,297.6,281.6,297.6z"/>
				<path fill="#494A4D" d="M282.5,293.1c-6.5-1.8-12.7-2.8-19.5-4.4c-6.7-1.6-12.4-3.1-18.9-4.8c-13.2-3.4-24.7-6.6-38-9.8
					c-5.3-1.3-98.1-25.6-98.8-24.4c-0.2,0.2,14,3.9,14.7,4.1c13.9,4.4,73.2,19.9,83.8,22.2c19.7,4.4,37,8.4,57.2,13
					c6.7,1.5,12.9,2.4,19.4,4.2c0.1,0,0.3,0,0.3,0C282.8,293.2,282.7,293.1,282.5,293.1z"/>
				<path fill="#494A4D" d="M283.5,288.5c-6.5-1.8-12.7-2.8-19.5-4.4c-6.7-1.6-12.4-3.1-18.9-4.7c-13.2-3.4-24.7-6.6-38-9.7
					c-5.3-1.2-98.1-25.5-98.9-24.3c-0.2,0.3,14,3.9,14.7,4.1c14,4.4,73.2,19.8,83.8,22.1c19.7,4.4,37.1,8.4,57.3,12.9
					c6.7,1.5,12.9,2.3,19.4,4.2c0.1,0,0.3,0,0.3,0C283.7,288.6,283.6,288.5,283.5,288.5z"/>
				<path fill="#494A4D" d="M284.4,283.9c-6.5-1.8-12.7-2.7-19.5-4.3c-6.7-1.6-12.4-3.1-19-4.7c-13.3-3.3-24.8-6.5-38-9.6
					c-5.3-1.2-98.2-25.3-98.9-24.1c-0.2,0.2,14,3.8,14.7,4.1c14,4.3,73.3,19.7,83.9,22c19.7,4.4,37.1,8.3,57.3,12.8
					c6.7,1.5,12.9,2.3,19.4,4.1c0.1,0,0.3,0,0.3,0C284.7,284,284.6,284,284.4,283.9z"/>
				<path fill="#494A4D" d="M285.4,279.4c-6.5-1.8-12.7-2.7-19.5-4.3c-6.7-1.6-12.4-3-19-4.7c-13.3-3.3-24.8-6.5-38.1-9.6
					c-5.3-1.2-98.3-25.2-99-24c-0.2,0.3,14,3.8,14.7,4c14,4.3,73.3,19.5,84,21.9c19.8,4.3,37.1,8.3,57.4,12.7
					c6.7,1.5,12.9,2.3,19.4,4.1c0.1,0,0.3,0,0.3,0C285.6,279.5,285.5,279.4,285.4,279.4z"/>
			</g>
		</g>
		<g opacity="0.5">
			<line fill="none" x1="108.1" y1="275.2" x2="283.4" y2="320.2"/>
			<g>
				<path fill="#494A4D" d="M281.4,328.5c-6.5-1.9-12.6-2.9-19.4-4.6c-6.7-1.7-12.4-3.2-18.9-5c-13.2-3.5-24.7-6.9-37.9-10.2
					c-5.3-1.3-97.9-26.7-98.7-25.5c-0.2,0.2,14,4,14.7,4.3c13.9,4.5,73.1,20.7,83.7,23.2c19.7,4.7,37,8.9,57.2,13.6
					c6.7,1.6,12.9,2.5,19.3,4.4c0.1,0,0.3,0,0.3,0C281.7,328.6,281.6,328.5,281.4,328.5z"/>
				<path fill="#494A4D" d="M282.4,324c-6.5-1.9-12.6-2.9-19.5-4.6c-6.7-1.6-12.4-3.2-18.9-5c-13.2-3.5-24.7-6.9-37.9-10.1
					c-5.3-1.3-98-26.6-98.7-25.4c-0.2,0.2,14,4,14.7,4.2c13.9,4.5,73.1,20.6,83.7,23.1c19.7,4.6,37,8.8,57.2,13.6
					c6.7,1.6,12.9,2.5,19.4,4.4c0.1,0,0.3,0,0.3,0C282.6,324.1,282.6,324,282.4,324z"/>
				<path fill="#494A4D" d="M283.3,319.4c-6.5-1.9-12.7-2.9-19.5-4.6c-6.7-1.6-12.4-3.2-18.9-4.9c-13.2-3.5-24.7-6.8-38-10.1
					c-5.3-1.3-98.1-26.5-98.8-25.3c-0.2,0.2,14,4,14.7,4.2c13.9,4.5,73.2,20.5,83.8,23c19.7,4.6,37,8.8,57.2,13.5
					c6.7,1.6,12.9,2.5,19.4,4.4c0.1,0,0.3,0,0.3,0C283.6,319.5,283.5,319.5,283.3,319.4z"/>
				<path fill="#494A4D" d="M284.3,314.9c-6.5-1.9-12.7-2.9-19.5-4.5c-6.7-1.6-12.4-3.2-18.9-4.9c-13.2-3.5-24.7-6.8-38-10
					c-5.3-1.3-98.1-26.3-98.9-25.1c-0.2,0.2,14,4,14.7,4.2c14,4.5,73.2,20.4,83.8,22.8c19.7,4.6,37.1,8.7,57.3,13.4
					c6.7,1.6,12.9,2.5,19.4,4.3c0.1,0,0.3,0,0.3,0C284.5,315,284.5,314.9,284.3,314.9z"/>
				<path fill="#494A4D" d="M285.2,310.3c-6.5-1.9-12.7-2.9-19.5-4.5c-6.7-1.6-12.4-3.2-19-4.9c-13.3-3.5-24.8-6.8-38-10
					c-5.3-1.3-98.2-26.2-98.9-25c-0.2,0.2,14,4,14.7,4.2c14,4.5,73.3,20.3,83.9,22.7c19.7,4.5,37.1,8.7,57.3,13.3
					c6.7,1.6,12.9,2.4,19.4,4.3c0.1,0,0.3,0,0.3,0C285.5,310.4,285.4,310.4,285.2,310.3z"/>
			</g>
		</g>
		<g opacity="0.5">
			<line fill="none" x1="108" y1="300.5" x2="283.3" y2="347.1"/>
			<g>
				<path fill="#494A4D" d="M281.3,355.3c-6.5-2-12.6-3-19.4-4.8c-6.7-1.7-12.4-3.3-18.9-5.1c-13.2-3.6-24.7-7.1-37.9-10.5
					c-5.2-1.4-97.9-27.6-98.6-26.4c-0.2,0.2,14,4.2,14.7,4.4c13.9,4.7,73,21.3,83.6,23.9c19.7,4.8,37,9.2,57.1,14.1
					c6.7,1.7,12.9,2.6,19.3,4.6c0.1,0,0.3,0,0.3,0C281.6,355.4,281.5,355.4,281.3,355.3z"/>
				<path fill="#494A4D" d="M282.3,350.8c-6.5-2-12.6-3-19.4-4.8c-6.7-1.7-12.4-3.3-18.9-5.1c-13.2-3.6-24.7-7.1-37.9-10.5
					c-5.3-1.4-97.9-27.5-98.7-26.3c-0.2,0.2,14,4.1,14.7,4.4c13.9,4.6,73.1,21.2,83.7,23.8c19.7,4.8,37,9.1,57.2,14.1
					c6.7,1.6,12.9,2.6,19.4,4.5c0.1,0,0.3,0,0.3,0C282.5,350.9,282.4,350.8,282.3,350.8z"/>
				<path fill="#494A4D" d="M283.2,346.3c-6.5-2-12.6-3-19.5-4.7c-6.7-1.7-12.4-3.3-18.9-5.1c-13.2-3.6-24.7-7-37.9-10.4
					c-5.3-1.3-98-27.3-98.7-26.1c-0.2,0.2,14,4.1,14.7,4.4c13.9,4.6,73.1,21.1,83.7,23.7c19.7,4.8,37,9.1,57.2,14
					c6.7,1.6,12.9,2.6,19.4,4.5c0.1,0,0.3,0,0.3,0C283.5,346.4,283.4,346.3,283.2,346.3z"/>
				<path fill="#494A4D" d="M284.2,341.7c-6.5-2-12.7-3-19.5-4.7c-6.7-1.7-12.4-3.3-18.9-5.1c-13.2-3.6-24.7-7-38-10.4
					c-5.3-1.3-98.1-27.2-98.8-26c-0.2,0.2,14,4.1,14.7,4.3c13.9,4.6,73.2,21,83.8,23.6c19.7,4.7,37,9,57.2,13.9
					c6.7,1.6,12.9,2.6,19.4,4.5c0.1,0,0.3,0,0.3,0C284.4,341.9,284.3,341.8,284.2,341.7z"/>
				<path fill="#494A4D" d="M285.1,337.2c-6.5-1.9-12.7-3-19.5-4.7c-6.7-1.7-12.4-3.3-18.9-5c-13.3-3.6-24.7-7-38-10.3
					c-5.3-1.3-98.1-27-98.9-25.8c-0.2,0.2,14,4.1,14.7,4.3c14,4.6,73.2,20.9,83.8,23.5c19.7,4.7,37.1,9,57.3,13.8
					c6.7,1.6,12.9,2.5,19.4,4.5c0.1,0,0.3,0,0.3,0C285.4,337.3,285.3,337.2,285.1,337.2z"/>
			</g>
		</g>
		<g opacity="0.5">
			<line fill="none" x1="108" y1="325.8" x2="283.2" y2="373.9"/>
			<g>
				<path fill="#494A4D" d="M281.2,382.1c-6.5-2-12.6-3.2-19.4-5c-6.7-1.8-12.4-3.5-18.9-5.3c-13.2-3.8-24.7-7.3-37.9-10.9
					c-5.2-1.4-97.8-28.4-98.5-27.3c-0.2,0.2,14,4.3,14.7,4.5c13.9,4.8,73,22,83.5,24.7c19.7,5,36.9,9.5,57.1,14.6
					c6.7,1.7,12.8,2.7,19.3,4.7c0.1,0,0.3,0,0.3,0C281.5,382.2,281.4,382.1,281.2,382.1z"/>
				<path fill="#494A4D" d="M282.2,377.6c-6.5-2-12.6-3.1-19.4-4.9c-6.7-1.8-12.4-3.4-18.9-5.3c-13.2-3.7-24.7-7.3-37.9-10.8
					c-5.2-1.4-97.9-28.3-98.6-27.1c-0.2,0.2,14,4.3,14.7,4.5c13.9,4.8,73,21.9,83.6,24.5c19.7,5,37,9.5,57.1,14.6
					c6.7,1.7,12.9,2.7,19.3,4.7c0.1,0,0.3,0,0.3,0C282.4,377.7,282.3,377.6,282.2,377.6z"/>
				<path fill="#494A4D" d="M283.1,373.1c-6.5-2-12.6-3.1-19.4-4.9c-6.7-1.8-12.4-3.4-18.9-5.3c-13.2-3.7-24.7-7.3-37.9-10.7
					c-5.3-1.4-97.9-28.2-98.7-27c-0.2,0.2,14,4.2,14.7,4.5c13.9,4.7,73.1,21.8,83.7,24.4c19.7,4.9,37,9.4,57.2,14.5
					c6.7,1.7,12.9,2.7,19.4,4.7c0.1,0,0.3,0,0.3,0C283.4,373.2,283.3,373.1,283.1,373.1z"/>
				<path fill="#494A4D" d="M284.1,368.6c-6.5-2-12.6-3.1-19.5-4.9c-6.7-1.7-12.4-3.4-18.9-5.2c-13.2-3.7-24.7-7.2-37.9-10.7
					c-5.3-1.4-98-28-98.7-26.9c-0.2,0.2,14,4.2,14.7,4.5c13.9,4.7,73.1,21.7,83.7,24.3c19.7,4.9,37,9.4,57.2,14.4
					c6.7,1.7,12.9,2.7,19.4,4.7c0.1,0,0.3,0,0.3,0C284.3,368.7,284.2,368.6,284.1,368.6z"/>
				<path fill="#494A4D" d="M285,364c-6.5-2-12.7-3.1-19.5-4.9c-6.7-1.7-12.4-3.4-18.9-5.2c-13.2-3.7-24.7-7.2-38-10.6
					c-5.3-1.4-98.1-27.9-98.8-26.7c-0.2,0.2,14,4.2,14.7,4.4c13.9,4.7,73.2,21.6,83.8,24.2c19.7,4.9,37,9.3,57.3,14.3
					c6.7,1.7,12.9,2.7,19.4,4.6c0.1,0,0.3,0,0.3,0C285.3,364.2,285.2,364.1,285,364z"/>
			</g>
		</g>
		<g opacity="0.5">
			<line fill="none" x1="108" y1="351" x2="283.1" y2="400.7"/>
			<g>
				<path fill="#494A4D" d="M281.1,408.9c-6.5-2.1-12.6-3.3-19.4-5.1c-6.7-1.8-12.4-3.6-18.9-5.5c-13.2-3.9-24.6-7.5-37.8-11.2
					c-5.2-1.4-97.7-29.3-98.5-28.1c-0.2,0.2,14,4.4,14.7,4.7c13.9,4.9,72.9,22.6,83.5,25.4c19.6,5.2,36.9,9.8,57,15.1
					c6.7,1.8,12.8,2.8,19.3,4.9c0.1,0,0.3,0,0.3,0C281.4,409,281.3,408.9,281.1,408.9z"/>
				<path fill="#494A4D" d="M282.1,404.4c-6.5-2.1-12.6-3.2-19.4-5.1c-6.7-1.8-12.4-3.5-18.9-5.4c-13.2-3.9-24.7-7.5-37.9-11.1
					c-5.2-1.4-97.8-29.2-98.5-28c-0.2,0.2,14,4.4,14.7,4.6c13.9,4.9,73,22.5,83.6,25.3c19.7,5.1,36.9,9.8,57.1,15.1
					c6.7,1.8,12.8,2.8,19.3,4.9c0.1,0,0.3,0,0.3,0C282.3,404.5,282.2,404.4,282.1,404.4z"/>
				<path fill="#494A4D" d="M283,399.9c-6.5-2.1-12.6-3.2-19.4-5.1c-6.7-1.8-12.4-3.5-18.9-5.4c-13.2-3.8-24.7-7.5-37.9-11.1
					c-5.2-1.4-97.9-29-98.6-27.9c-0.2,0.2,14,4.4,14.7,4.6c13.9,4.9,73,22.4,83.6,25.2c19.7,5.1,37,9.7,57.1,15
					c6.7,1.8,12.9,2.8,19.3,4.9c0.1,0,0.3,0,0.3,0C283.3,400,283.2,399.9,283,399.9z"/>
				<path fill="#494A4D" d="M283.9,395.4c-6.5-2.1-12.6-3.2-19.5-5.1c-6.7-1.8-12.4-3.5-18.9-5.4c-13.2-3.8-24.7-7.4-37.9-11
					c-5.3-1.4-97.9-28.9-98.7-27.7c-0.2,0.2,14,4.3,14.7,4.6c13.9,4.8,73.1,22.3,83.7,25c19.7,5.1,37,9.7,57.2,14.9
					c6.7,1.7,12.9,2.8,19.4,4.8c0.1,0,0.3,0,0.3,0C284.2,395.5,284.1,395.4,283.9,395.4z"/>
				<path fill="#494A4D" d="M284.9,390.9c-6.5-2.1-12.6-3.2-19.5-5c-6.7-1.8-12.4-3.5-18.9-5.4c-13.2-3.8-24.7-7.4-38-11
					c-5.3-1.4-98-28.8-98.8-27.6c-0.2,0.2,14,4.3,14.7,4.6c13.9,4.8,73.1,22.2,83.7,24.9c19.7,5.1,37,9.6,57.2,14.8
					c6.7,1.7,12.9,2.8,19.4,4.8c0.1,0,0.3,0,0.3,0C285.1,391,285.1,390.9,284.9,390.9z"/>
			</g>
		</g>
	</g>
	<g>
		<g opacity="0.5">
			<line fill="#323336" x1="384.6" y1="164.1" x2="286.6" y2="202.5"/>
			<g>
				<path fill="#494A4D" d="M287.6,210.8c3.7-1.7,7.2-2.5,11.1-4c3.8-1.4,7-2.8,10.7-4.3c7.5-3.1,13.9-6,21.3-8.8
					c2.9-1.1,54.3-22.9,54.7-21.7c0.1,0.2-7.7,3.5-8.1,3.7c-7.7,4-40.5,17.8-46.5,19.9c-11,4-20.8,7.6-32.2,11.6
					c-3.8,1.4-7.3,2.1-11,3.8c-0.1,0-0.2,0-0.2,0C287.5,210.9,287.5,210.9,287.6,210.8z"/>
				<path fill="#494A4D" d="M287.2,206.2c3.7-1.7,7.2-2.5,11.1-3.9c3.8-1.4,7-2.8,10.7-4.3c7.5-3,13.9-6,21.3-8.8
					c2.9-1.1,54.3-22.7,54.7-21.5c0.1,0.2-7.7,3.4-8.1,3.6c-7.7,3.9-40.5,17.7-46.5,19.8c-11,3.9-20.8,7.5-32.2,11.5
					c-3.8,1.4-7.3,2.1-11,3.7c-0.1,0-0.2,0-0.2,0C287,206.3,287.1,206.3,287.2,206.2z"/>
				<path fill="#494A4D" d="M286.7,201.7c3.7-1.7,7.2-2.5,11.1-3.9c3.8-1.4,7-2.8,10.7-4.3c7.5-3,13.9-5.9,21.3-8.7
					c2.9-1.1,54.3-22.5,54.7-21.3c0.1,0.2-7.7,3.4-8.1,3.6c-7.7,3.9-40.5,17.5-46.5,19.6c-11.1,3.9-20.8,7.4-32.2,11.4
					c-3.8,1.3-7.3,2-11,3.7c-0.1,0-0.2,0-0.2,0C286.5,201.8,286.6,201.7,286.7,201.7z"/>
				<path fill="#494A4D" d="M286.2,197.1c3.7-1.7,7.2-2.4,11.1-3.9c3.8-1.4,7-2.7,10.7-4.2c7.5-3,13.9-5.9,21.3-8.6
					c2.9-1.1,54.3-22.3,54.7-21.1c0.1,0.2-7.7,3.4-8.1,3.6c-7.7,3.9-40.6,17.4-46.5,19.4c-11.1,3.8-20.8,7.3-32.2,11.3
					c-3.8,1.3-7.3,2-11,3.6c-0.1,0-0.2,0-0.2,0C286.1,197.2,286.1,197.1,286.2,197.1z"/>
				<path fill="#494A4D" d="M285.8,192.5c3.7-1.7,7.2-2.4,11.1-3.8c3.8-1.4,7-2.7,10.7-4.2c7.5-3,13.9-5.8,21.4-8.5
					c2.9-1.1,54.3-22.1,54.7-20.9c0.1,0.2-7.7,3.3-8.1,3.5c-7.7,3.8-40.6,17.2-46.5,19.3c-11.1,3.8-20.8,7.3-32.2,11.2
					c-3.8,1.3-7.3,2-11,3.6c-0.1,0-0.2,0-0.2,0C285.6,192.6,285.7,192.6,285.8,192.5z"/>
			</g>
		</g>
		<g opacity="0.5">
			<line fill="#323336" x1="384.6" y1="188.9" x2="286.3" y2="229.5"/>
			<g>
				<path fill="#494A4D" d="M287.3,237.8c3.7-1.8,7.2-2.7,11.1-4.2c3.8-1.5,7.1-3,10.7-4.6c7.5-3.2,14-6.3,21.4-9.3
					c2.9-1.2,54.4-24.1,54.9-22.9c0.1,0.2-7.7,3.6-8.1,3.8c-7.7,4.1-40.7,18.8-46.6,21c-11.1,4.2-20.9,8-32.3,12.4
					c-3.8,1.5-7.3,2.2-11,4c-0.1,0-0.2,0-0.2,0C287.2,237.9,287.2,237.8,287.3,237.8z"/>
				<path fill="#494A4D" d="M286.8,233.2c3.7-1.8,7.2-2.6,11.1-4.2c3.8-1.5,7.1-2.9,10.7-4.5c7.5-3.2,14-6.3,21.4-9.2
					c3-1.2,54.5-23.9,54.9-22.7c0.1,0.2-7.7,3.6-8.1,3.8c-7.7,4.1-40.7,18.6-46.6,20.8c-11.1,4.2-20.9,7.9-32.3,12.2
					c-3.8,1.4-7.3,2.2-11,4c-0.1,0-0.2,0-0.2,0C286.7,233.3,286.7,233.2,286.8,233.2z"/>
				<path fill="#494A4D" d="M286.4,228.6c3.7-1.8,7.2-2.6,11.1-4.1c3.8-1.5,7.1-2.9,10.7-4.5c7.5-3.2,14-6.2,21.4-9.2
					c3-1.2,54.5-23.7,54.9-22.5c0.1,0.2-7.7,3.6-8.1,3.8c-7.7,4.1-40.7,18.5-46.6,20.7c-11.1,4.1-20.9,7.9-32.3,12.1
					c-3.8,1.4-7.3,2.2-11,3.9c-0.1,0-0.2,0-0.2,0C286.2,228.7,286.3,228.7,286.4,228.6z"/>
				<path fill="#494A4D" d="M285.9,224c3.7-1.8,7.2-2.6,11.1-4.1c3.8-1.5,7.1-2.9,10.7-4.5c7.5-3.1,14-6.2,21.4-9.1
					c3-1.2,54.5-23.5,54.9-22.3c0.1,0.2-7.7,3.5-8.1,3.7c-7.7,4.1-40.7,18.3-46.6,20.5c-11.1,4.1-20.9,7.8-32.4,12
					c-3.8,1.4-7.3,2.2-11,3.9c-0.1,0-0.2,0-0.2,0C285.7,224.1,285.8,224.1,285.9,224z"/>
				<path fill="#494A4D" d="M285.4,219.4c3.7-1.7,7.2-2.6,11.1-4.1c3.8-1.5,7.1-2.9,10.7-4.4c7.5-3.1,14-6.1,21.4-9
					c3-1.1,54.5-23.3,54.9-22.1c0.1,0.2-7.7,3.5-8.1,3.7c-7.7,4-40.7,18.2-46.6,20.3c-11.1,4-20.9,7.7-32.4,11.9
					c-3.8,1.4-7.3,2.1-11,3.8c-0.1,0-0.2,0-0.2,0C285.3,219.5,285.3,219.5,285.4,219.4z"/>
			</g>
		</g>
		<g opacity="0.5">
			<line fill="#323336" x1="384.6" y1="213.8" x2="286" y2="256.6"/>
			<g>
				<path fill="#494A4D" d="M287,265c3.7-1.9,7.2-2.8,11.1-4.5c3.8-1.6,7.1-3.1,10.8-4.8c7.5-3.4,14-6.6,21.5-9.8
					c3-1.3,54.6-25.3,55-24.1c0.1,0.2-7.7,3.8-8.1,4c-7.7,4.3-40.8,19.7-46.8,22.1c-11.1,4.4-20.9,8.5-32.4,13.1
					c-3.8,1.5-7.4,2.4-11.1,4.3c-0.1,0-0.2,0-0.2,0C286.8,265.1,286.9,265,287,265z"/>
				<path fill="#494A4D" d="M286.5,260.4c3.7-1.9,7.2-2.8,11.1-4.4c3.8-1.6,7.1-3.1,10.8-4.8c7.5-3.4,14-6.6,21.5-9.7
					c3-1.2,54.6-25.1,55.1-23.9c0.1,0.2-7.7,3.8-8.1,4c-7.7,4.3-40.8,19.5-46.8,21.9c-11.1,4.4-20.9,8.4-32.5,13
					c-3.8,1.5-7.4,2.4-11.1,4.2c-0.1,0-0.2,0-0.2,0C286.3,260.5,286.4,260.4,286.5,260.4z"/>
				<path fill="#494A4D" d="M286,255.8c3.7-1.9,7.2-2.8,11.1-4.4c3.8-1.6,7.1-3.1,10.8-4.7c7.5-3.3,14-6.5,21.5-9.6
					c3-1.2,54.7-24.9,55.1-23.7c0.1,0.2-7.7,3.7-8.1,4c-7.7,4.3-40.8,19.4-46.8,21.7c-11.1,4.4-21,8.3-32.5,12.8
					c-3.8,1.5-7.4,2.3-11.1,4.2c-0.1,0-0.2,0-0.2,0C285.9,255.9,285.9,255.8,286,255.8z"/>
				<path fill="#494A4D" d="M285.5,251.1c3.7-1.8,7.2-2.8,11.1-4.3c3.8-1.6,7.1-3.1,10.8-4.7c7.5-3.3,14-6.5,21.5-9.6
					c3-1.2,54.7-24.7,55.1-23.5c0.1,0.2-7.7,3.7-8.1,3.9c-7.7,4.2-40.8,19.2-46.8,21.5c-11.1,4.3-21,8.3-32.5,12.7
					c-3.8,1.5-7.4,2.3-11.1,4.1c-0.1,0-0.2,0-0.2,0C285.4,251.3,285.5,251.2,285.5,251.1z"/>
				<path fill="#494A4D" d="M285.1,246.5c3.7-1.8,7.2-2.7,11.1-4.3c3.8-1.5,7.1-3,10.8-4.7c7.5-3.3,14-6.4,21.5-9.5
					c3-1.2,54.7-24.5,55.1-23.3c0.1,0.2-7.7,3.7-8.1,3.9c-7.7,4.2-40.8,19.1-46.8,21.4c-11.1,4.3-21,8.2-32.5,12.6
					c-3.8,1.5-7.4,2.3-11.1,4.1c-0.1,0-0.2,0-0.2,0C284.9,246.6,285,246.6,285.1,246.5z"/>
			</g>
		</g>
		<g opacity="0.5">
			<line fill="#323336" x1="384.6" y1="238.9" x2="285.6" y2="283.9"/>
			<g>
				<path fill="#494A4D" d="M286.6,292.4c3.7-2,7.3-3,11.2-4.7c3.8-1.7,7.1-3.3,10.8-5.1c7.5-3.6,14.1-7,21.6-10.3
					c3-1.3,54.8-26.6,55.2-25.4c0.1,0.2-7.8,4-8.1,4.2c-7.7,4.5-40.9,20.6-46.9,23.1c-11.2,4.7-21,9-32.6,13.8
					c-3.9,1.6-7.4,2.6-11.1,4.5c-0.1,0-0.2,0-0.2,0C286.5,292.5,286.5,292.4,286.6,292.4z"/>
				<path fill="#494A4D" d="M286.2,287.7c3.7-2,7.3-3,11.2-4.7c3.8-1.7,7.1-3.3,10.8-5c7.5-3.5,14.1-6.9,21.6-10.2
					c3-1.3,54.8-26.4,55.2-25.2c0.1,0.2-7.8,4-8.1,4.2c-7.7,4.5-40.9,20.5-46.9,23c-11.2,4.7-21,8.9-32.6,13.7
					c-3.9,1.6-7.4,2.5-11.1,4.5c-0.1,0-0.2,0-0.2,0C286,287.8,286.1,287.8,286.2,287.7z"/>
				<path fill="#494A4D" d="M285.7,283.1c3.7-1.9,7.3-2.9,11.2-4.6c3.8-1.7,7.1-3.2,10.8-5c7.5-3.5,14.1-6.9,21.6-10.1
					c3-1.3,54.8-26.2,55.2-25c0.1,0.2-7.8,3.9-8.1,4.1c-7.8,4.4-40.9,20.3-46.9,22.8c-11.2,4.6-21,8.8-32.6,13.6
					c-3.9,1.6-7.4,2.5-11.1,4.4c-0.1,0-0.2,0-0.2,0C285.5,283.2,285.6,283.1,285.7,283.1z"/>
				<path fill="#494A4D" d="M285.2,278.4c3.7-1.9,7.3-2.9,11.2-4.6c3.8-1.6,7.1-3.2,10.8-4.9c7.5-3.5,14.1-6.8,21.6-10.1
					c3-1.3,54.8-26,55.3-24.8c0.1,0.2-7.8,3.9-8.2,4.1c-7.8,4.4-41,20.2-46.9,22.6c-11.2,4.6-21,8.7-32.6,13.5
					c-3.9,1.6-7.4,2.5-11.1,4.4c-0.1,0-0.2,0-0.2,0C285.1,278.6,285.1,278.5,285.2,278.4z"/>
				<path fill="#494A4D" d="M284.7,273.8c3.7-1.9,7.3-2.9,11.2-4.6c3.8-1.6,7.1-3.2,10.8-4.9c7.5-3.5,14.1-6.8,21.6-10
					c3-1.3,54.9-25.8,55.3-24.6c0.1,0.2-7.8,3.9-8.2,4.1c-7.8,4.4-41,20-46.9,22.4c-11.2,4.5-21,8.7-32.6,13.3
					c-3.9,1.6-7.4,2.5-11.1,4.3c-0.1,0-0.2,0-0.2,0C284.6,273.9,284.6,273.8,284.7,273.8z"/>
			</g>
		</g>
		<g opacity="0.5">
			<line fill="#323336" x1="384.5" y1="268" x2="285.2" y2="315.6"/>
			<g>
				<path fill="#494A4D" d="M286.2,324c3.7-2.1,7.3-3.2,11.2-5c3.8-1.8,7.1-3.5,10.9-5.3c7.6-3.8,14.1-7.3,21.6-10.9
					c3-1.4,55-28,55.4-26.8c0.1,0.2-7.8,4.2-8.2,4.4c-7.8,4.7-41.1,21.7-47.1,24.4c-11.2,5-21.1,9.5-32.7,14.7
					c-3.9,1.7-7.4,2.7-11.2,4.8c-0.1,0-0.2,0-0.2,0C286.1,324.2,286.1,324.1,286.2,324z"/>
				<path fill="#494A4D" d="M285.8,319.4c3.7-2.1,7.3-3.2,11.2-5c3.8-1.8,7.1-3.5,10.9-5.3c7.6-3.7,14.1-7.3,21.7-10.8
					c3-1.4,55-27.8,55.4-26.6c0.1,0.2-7.8,4.2-8.2,4.4c-7.8,4.7-41.1,21.6-47.1,24.2c-11.2,4.9-21.1,9.4-32.7,14.5
					c-3.9,1.7-7.4,2.7-11.2,4.7c-0.1,0-0.2,0-0.2,0C285.6,319.5,285.7,319.4,285.8,319.4z"/>
				<path fill="#494A4D" d="M285.3,314.7c3.7-2,7.3-3.1,11.2-4.9c3.8-1.8,7.1-3.4,10.9-5.3c7.6-3.7,14.1-7.2,21.7-10.7
					c3-1.4,55-27.6,55.5-26.4c0.1,0.2-7.8,4.1-8.2,4.4c-7.8,4.6-41.1,21.4-47.1,24c-11.2,4.9-21.1,9.4-32.7,14.4
					c-3.9,1.7-7.4,2.7-11.2,4.7c-0.1,0-0.2,0-0.2,0C285.1,314.8,285.2,314.8,285.3,314.7z"/>
				<path fill="#494A4D" d="M284.8,310.1c3.7-2,7.3-3.1,11.2-4.9c3.8-1.7,7.1-3.4,10.9-5.2c7.6-3.7,14.1-7.2,21.7-10.6
					c3-1.4,55-27.4,55.5-26.2c0.1,0.2-7.8,4.1-8.2,4.3c-7.8,4.6-41.1,21.2-47.1,23.8c-11.2,4.9-21.1,9.3-32.7,14.3
					c-3.9,1.7-7.4,2.7-11.2,4.7c-0.1,0-0.2,0-0.2,0C284.7,310.2,284.7,310.1,284.8,310.1z"/>
				<path fill="#494A4D" d="M284.3,305.4c3.7-2,7.3-3.1,11.2-4.9c3.8-1.7,7.1-3.4,10.9-5.2c7.6-3.7,14.1-7.1,21.7-10.5
					c3-1.4,55.1-27.2,55.5-26c0.1,0.2-7.8,4.1-8.2,4.3c-7.8,4.6-41.1,21.1-47.1,23.7c-11.2,4.8-21.1,9.2-32.7,14.2
					c-3.9,1.7-7.4,2.6-11.2,4.6c-0.1,0-0.2,0-0.2,0C284.2,305.5,284.2,305.4,284.3,305.4z"/>
			</g>
		</g>
		<g opacity="0.5">
			<line fill="#323336" x1="384.5" y1="293.4" x2="284.9" y2="343.3"/>
			<g>
				<path fill="#494A4D" d="M285.9,351.8c3.8-2.2,7.3-3.4,11.3-5.3c3.8-1.9,7.2-3.7,10.9-5.6c7.6-3.9,14.2-7.7,21.7-11.4
					c3-1.5,55.2-29.3,55.6-28.1c0.1,0.2-7.8,4.4-8.2,4.6c-7.8,4.9-41.2,22.7-47.2,25.5c-11.2,5.2-21.2,10-32.8,15.4
					c-3.9,1.8-7.4,2.9-11.2,5c-0.1,0-0.2,0-0.2,0C285.8,351.9,285.8,351.9,285.9,351.8z"/>
				<path fill="#494A4D" d="M285.4,347.1c3.8-2.1,7.3-3.3,11.3-5.2c3.9-1.9,7.2-3.6,10.9-5.6c7.6-3.9,14.2-7.6,21.7-11.3
					c3-1.5,55.2-29.1,55.6-27.9c0.1,0.2-7.8,4.3-8.2,4.6c-7.8,4.9-41.2,22.5-47.3,25.3c-11.2,5.2-21.2,9.9-32.8,15.3
					c-3.9,1.8-7.4,2.9-11.2,5c-0.1,0-0.2,0-0.2,0C285.3,347.3,285.3,347.2,285.4,347.1z"/>
				<path fill="#494A4D" d="M284.9,342.4c3.8-2.1,7.3-3.3,11.3-5.2c3.9-1.8,7.2-3.6,10.9-5.5c7.6-3.9,14.2-7.6,21.7-11.2
					c3-1.4,55.2-28.9,55.6-27.7c0.1,0.2-7.8,4.3-8.2,4.6c-7.8,4.8-41.2,22.4-47.3,25.1c-11.3,5.2-21.2,9.8-32.8,15.2
					c-3.9,1.8-7.4,2.9-11.2,5c-0.1,0-0.2,0-0.2,0C284.8,342.6,284.9,342.5,284.9,342.4z"/>
				<path fill="#494A4D" d="M284.5,337.8c3.8-2.1,7.3-3.3,11.3-5.1c3.9-1.8,7.2-3.6,10.9-5.5c7.6-3.9,14.2-7.5,21.7-11.1
					c3-1.4,55.2-28.7,55.6-27.5c0.1,0.2-7.8,4.3-8.2,4.5c-7.8,4.8-41.2,22.2-47.3,24.9c-11.3,5.1-21.2,9.8-32.8,15.1
					c-3.9,1.8-7.4,2.8-11.2,4.9c-0.1,0-0.2,0-0.2,0C284.3,337.9,284.4,337.8,284.5,337.8z"/>
				<path fill="#494A4D" d="M284,333.1c3.8-2.1,7.3-3.2,11.3-5.1c3.9-1.8,7.2-3.5,10.9-5.4c7.6-3.8,14.2-7.5,21.7-11
					c3-1.4,55.2-28.5,55.7-27.3c0.1,0.2-7.8,4.3-8.2,4.5c-7.8,4.8-41.3,22-47.3,24.8c-11.3,5.1-21.2,9.7-32.8,14.9
					c-3.9,1.8-7.4,2.8-11.2,4.9c-0.1,0-0.2,0-0.2,0C283.8,333.2,283.9,333.1,284,333.1z"/>
			</g>
		</g>
		<g opacity="0.5">
			<line fill="#323336" x1="384.5" y1="319" x2="284.5" y2="371.2"/>
			<g>
				<path fill="#494A4D" d="M285.6,379.8c3.8-2.2,7.3-3.5,11.3-5.5c3.9-2,7.2-3.8,10.9-5.9c7.6-4.1,14.2-8,21.8-11.9
					c3-1.5,55.4-30.6,55.8-29.4c0.1,0.2-7.8,4.6-8.2,4.8c-7.8,5.1-41.4,23.6-47.4,26.6c-11.3,5.5-21.3,10.5-32.9,16.2
					c-3.9,1.9-7.5,3.1-11.2,5.3c-0.1,0.1-0.2,0-0.2,0C285.4,379.9,285.5,379.8,285.6,379.8z"/>
				<path fill="#494A4D" d="M285.1,375.1c3.8-2.2,7.4-3.5,11.3-5.5c3.9-2,7.2-3.8,10.9-5.8c7.6-4.1,14.2-8,21.8-11.8
					c3-1.5,55.4-30.4,55.8-29.2c0.1,0.2-7.8,4.5-8.2,4.8c-7.8,5.1-41.4,23.5-47.4,26.4c-11.3,5.5-21.3,10.4-32.9,16.1
					c-3.9,1.9-7.5,3.1-11.2,5.3c-0.1,0.1-0.2,0-0.2,0C284.9,375.2,285,375.1,285.1,375.1z"/>
				<path fill="#494A4D" d="M284.6,370.4c3.8-2.2,7.4-3.5,11.3-5.5c3.9-1.9,7.2-3.8,10.9-5.8c7.6-4.1,14.2-7.9,21.8-11.7
					c3-1.5,55.4-30.2,55.8-29c0.1,0.2-7.8,4.5-8.2,4.7c-7.8,5-41.4,23.3-47.4,26.2c-11.3,5.4-21.3,10.3-32.9,15.9
					c-3.9,1.9-7.5,3-11.2,5.2c-0.1,0.1-0.2,0-0.2,0C284.5,370.5,284.5,370.4,284.6,370.4z"/>
				<path fill="#494A4D" d="M284.1,365.7c3.8-2.2,7.4-3.4,11.3-5.4c3.9-1.9,7.2-3.7,10.9-5.7c7.6-4,14.2-7.9,21.8-11.6
					c3-1.5,55.4-30,55.8-28.8c0.1,0.2-7.8,4.5-8.2,4.7c-7.8,5-41.4,23.2-47.4,26.1c-11.3,5.4-21.3,10.3-32.9,15.8
					c-3.9,1.9-7.5,3-11.2,5.2c-0.1,0.1-0.2,0-0.2,0C284,365.8,284,365.7,284.1,365.7z"/>
				<path fill="#494A4D" d="M283.6,361c3.8-2.2,7.4-3.4,11.3-5.4c3.9-1.9,7.2-3.7,10.9-5.7c7.6-4,14.2-7.8,21.8-11.6
					c3-1.5,55.4-29.8,55.8-28.6c0.1,0.2-7.8,4.4-8.2,4.7c-7.8,5-41.4,23-47.4,25.9c-11.3,5.3-21.3,10.2-33,15.7
					c-3.9,1.9-7.5,3-11.3,5.1c-0.1,0-0.2,0-0.2,0C283.5,361.1,283.5,361,283.6,361z"/>
			</g>
		</g>
		<g opacity="0.5">
			<line fill="#323336" x1="384.5" y1="344.8" x2="284.2" y2="399.3"/>
			<g>
				<path fill="#494A4D" d="M285.2,407.9c3.8-2.3,7.4-3.7,11.3-5.8c3.9-2.1,7.2-4,11-6.1c7.7-4.3,14.3-8.4,21.9-12.4
					c3-1.6,55.6-31.9,56-30.7c0.1,0.2-7.9,4.7-8.3,5c-7.9,5.3-41.5,24.6-47.6,27.7c-11.3,5.8-21.3,11-33,17c-3.9,2-7.5,3.3-11.3,5.6
					c-0.1,0.1-0.2,0-0.2,0C285.1,408.1,285.1,408,285.2,407.9z"/>
				<path fill="#494A4D" d="M284.7,403.2c3.8-2.3,7.4-3.7,11.3-5.8c3.9-2,7.2-4,11-6.1c7.7-4.3,14.3-8.3,21.9-12.3
					c3-1.6,55.6-31.7,56-30.5c0.1,0.2-7.9,4.7-8.3,5c-7.9,5.2-41.5,24.5-47.6,27.5c-11.3,5.7-21.3,10.9-33.1,16.8
					c-3.9,2-7.5,3.2-11.3,5.5c-0.1,0.1-0.2,0-0.2,0C284.6,403.3,284.6,403.2,284.7,403.2z"/>
				<path fill="#494A4D" d="M284.3,398.5c3.8-2.3,7.4-3.6,11.3-5.7c3.9-2,7.2-3.9,11-6c7.7-4.3,14.3-8.2,21.9-12.2
					c3-1.6,55.6-31.5,56-30.3c0.1,0.2-7.9,4.7-8.3,4.9c-7.9,5.2-41.5,24.3-47.6,27.4c-11.3,5.7-21.3,10.8-33.1,16.7
					c-3.9,2-7.5,3.2-11.3,5.5c-0.1,0.1-0.2,0-0.2,0C284.1,398.6,284.2,398.5,284.3,398.5z"/>
				<path fill="#494A4D" d="M283.8,393.7c3.8-2.3,7.4-3.6,11.4-5.7c3.9-2,7.2-3.9,11-6c7.7-4.2,14.3-8.2,21.9-12.2
					c3-1.6,55.6-31.3,56-30.1c0.1,0.2-7.9,4.7-8.3,4.9c-7.9,5.2-41.5,24.2-47.6,27.2c-11.3,5.6-21.3,10.7-33.1,16.6
					c-3.9,2-7.5,3.2-11.3,5.4c-0.1,0.1-0.2,0-0.2,0C283.6,393.9,283.7,393.8,283.8,393.7z"/>
				<path fill="#494A4D" d="M283.3,389c3.8-2.3,7.4-3.6,11.4-5.6c3.9-2,7.2-3.9,11-6c7.7-4.2,14.3-8.1,21.9-12.1
					c3-1.6,55.6-31.1,56-29.9c0.1,0.2-7.9,4.6-8.3,4.9c-7.9,5.2-41.5,24-47.6,27c-11.3,5.6-21.3,10.7-33.1,16.5
					c-3.9,1.9-7.5,3.1-11.3,5.4c-0.1,0.1-0.2,0-0.2,0C283.1,389.2,283.2,389.1,283.3,389z"/>
			</g>
		</g>
	</g>
</g>
<g>
</g>
<g>
</g>
<g>
</g>
<g>
</g>
<g>
</g>
<g>
</g>
<g>
</g>
<g>
</g>
<g>
</g>
<g>
</g>
<g>
</g>
<g>
</g>
<g>
</g>
<g>
</g>
<g>
</g>
</svg>
