<?xml version="1.0" encoding="iso-8859-1"?>
<!-- Generator: Adobe Illustrator 18.0.0, SVG Export Plug-In . SVG Version: 6.00 Build 0)  -->
<!DOCTYPE svg PUBLIC "-//W3C//DTD SVG 1.1//EN" "http://www.w3.org/Graphics/SVG/1.1/DTD/svg11.dtd">
<svg version="1.1" xmlns="http://www.w3.org/2000/svg" xmlns:xlink="http://www.w3.org/1999/xlink" x="0px" y="0px"
	 viewBox="0 0 545.817 512.009" style="enable-background:new 0 0 545.817 512.009;" xml:space="preserve">
<g id="_x23_old-phone">
	<g>
		<defs>
			<circle id="SVGID_1_" cx="256" cy="256.005" r="256"/>
		</defs>
		<clipPath id="SVGID_2_">
			<use xlink:href="#SVGID_1_"  style="overflow:visible;"/>
		</clipPath>
		<g style="clip-path:url(#SVGID_2_);">
			<circle style="fill:#DB605A;" cx="256" cy="256.005" r="256"/>
		</g>
		<g style="clip-path:url(#SVGID_2_);">
			<path style="fill:#26424B;" d="M534.875,164.067c-34.166-18.046-83.385-63.858-151.698-79.6
				c-44.982-10.366-79.404-9.989-138.967,6.192c-79.025,21.468-134.828,85.691-136.944,87.521c-6.12,4.305-8.499,12.24-5.757,19.202
				l7.974,20.249c0.228,1.082,0.561,2.158,1.014,3.211l15.841,36.894c3.722,8.669,13.861,12.717,22.531,8.995l51.885-22.279
				c8.67-3.722,12.717-13.861,8.995-22.531l-15.841-36.894c-1.449-3.373-3.875-6.034-6.801-7.823
				c17.966-9.4,39.957-18.986,65.014-26.102c40.465-11.49,80.984-14.392,120.437-8.634c29.947,4.374,59.449,13.831,88.216,28.178
				c-4.779,1.518-8.866,5.088-10.82,10.094l-14.598,37.403c-3.43,8.789,0.955,18.787,9.744,22.217l52.602,20.529
				c8.789,3.43,18.787-0.955,22.217-9.744l13.599-34.845l10.764-26.303C548.285,180.217,544.219,169.002,534.875,164.067z"/>
			<g>
				<path style="fill:#26424B;" d="M143.791,436.942c-6.672,0-13.07-2.396-18.319-7c-5.166-4.532-9.16-11.154-11.552-18.931
					c-3.727-0.925-7.292-2.375-10.533-4.27c-13.1-7.663-23.218-22.053-27.066-38.492c-1.258-5.377-1.825-10.927-1.744-16.41
					c-6.155-4.085-11.629-9.818-15.841-16.882c-9.933-16.664-12.38-39.968-6.232-59.371c1.729-5.453,4.121-10.76,7.246-16.048
					c-0.911-4.828-0.967-10.463-0.141-16.763c2.071-15.796,7.571-29.559,15.489-38.755c9.465-10.984,22.789-15.324,33.956-11.052
					l-2.939,12.455c-7.796-2.985-17.272,0.235-24.135,8.207c-6.233,7.24-10.6,18.351-12.297,31.287
					c-0.043,0.328-0.083,0.66-0.123,0.999c4.151-4.596,9.531-8.939,16.087-9.879c5.351-0.768,11.012,1.471,15.125,5.997
					c3.454,3.798,5.435,8.842,5.578,14.206c0.231,8.558-4.232,16.865-11.107,20.671c-4.85,2.684-10.567,3.226-17.48,1.668
					c-3.476-0.783-8.416-2.322-12.329-6.657c-1.405,2.839-2.552,5.673-3.457,8.533c-4.83,15.241-2.909,33.547,4.895,46.636
					c2.576,4.323,5.755,8.01,9.318,10.946c1.734-7.739,4.825-14.873,9.136-20.605c6.338-8.427,14.496-12.843,22.412-12.068
					c9.742,0.931,17.917,10.256,19.016,21.689c0.602,6.257-0.823,12.375-4.121,17.688c-4.563,7.352-12.48,12.644-20.665,13.812
					c-5.698,0.815-11.484,0.214-17.014-1.621c0.191,2.566,0.573,5.116,1.155,7.599c3.02,12.906,11.074,24.267,21.541,30.389
					c1.225,0.718,2.505,1.348,3.828,1.892c-0.544-11.223,2.094-21.998,7.412-29.983c6.07-9.113,14.932-13.948,23.102-12.614
					c9.967,1.621,17.899,13.057,17.324,24.97c-0.246,5.093-1.892,10.199-4.89,15.176c-7.063,11.723-17.796,17.083-28.61,17.754
					c1.486,2.828,3.324,5.248,5.454,7.115c5.066,4.445,11.848,5.823,18.605,3.789c6.76-2.036,12.337-7.14,15.301-14.005l8.949,6.27
					c-4.355,10.078-12.335,17.51-21.898,20.391C149.408,436.525,146.576,436.942,143.791,436.942z M121.933,399.14
					c9.318,0.434,18.761-3.355,24.388-12.695c1.739-2.885,2.679-5.597,2.799-8.057c0.248-5.142-3.768-10.514-8.424-11.272
					c-4.731-0.781-10.221,2.424-14.019,8.126c-3.979,5.976-5.738,14.43-4.822,23.198
					C121.878,398.676,121.905,398.907,121.933,399.14z M85.63,343.683c4.89,1.956,10.085,2.682,15.199,1.945
					c5.404-0.771,10.946-4.367,13.79-8.95c1.591-2.566,2.262-5.273,1.996-8.046c-0.502-5.218-4.829-9.839-9.644-10.3
					c-4.766-0.457-10.113,2.57-14.272,8.097C89.217,331.063,86.806,337.125,85.63,343.683z M71.681,261.559
					c0.032,0.04,0.063,0.083,0.095,0.123c1.511,1.937,3.979,3.239,7.768,4.092c4.874,1.101,8.678,0.845,11.627-0.787
					c2.965-1.643,5.056-5.133,4.972-8.298c-0.058-2.18-1.145-3.819-2.046-4.809c-1.936-2.13-4.82-3.277-7.307-2.915
					c-4.516,0.648-9.064,4.297-14.313,11.49C72.206,260.822,71.94,261.191,71.681,261.559z"/>
			</g>
			<path style="fill:#E8B750;" d="M215.188,240.95l-82.295,34.853c-3.039,1.287-6.578-0.146-7.865-3.185l-7.4-17.472
				c-1.287-3.039,0.146-6.578,3.185-7.865l82.295-34.853c3.039-1.287,6.578,0.146,7.865,3.185l7.4,17.472
				C219.66,236.124,218.226,239.663,215.188,240.95z"/>
			<path style="fill:#E8B750;" d="M523.965,240.133L441.67,205.28c-3.039-1.287-6.578,0.146-7.865,3.185l-7.4,17.472
				c-1.287,3.039,0.146,6.578,3.185,7.865l82.295,34.853c3.039,1.287,6.578-0.146,7.865-3.185l7.4-17.472
				C528.437,244.959,527.004,241.42,523.965,240.133z"/>
			<g>
				<path style="fill:#26424B;" d="M413.259,221.811H235.266c-13.592,0-24.651-13.146-24.651-29.305V149.62
					c0-6.711,5.109-12.151,11.411-12.151s11.411,5.44,11.411,12.151v42.886c0,2.915,1.331,4.71,1.915,5.003h177.818
					c0.585-0.293,1.915-2.088,1.915-5.003V149.62c0-6.711,5.109-12.151,11.411-12.151c6.302,0,11.411,5.44,11.411,12.151v42.886
					C437.91,208.665,426.851,221.811,413.259,221.811z"/>
			</g>
			<path style="fill:#26424B;" d="M480.272,395.658c-1.474-6.07-4.16-11.779-8.018-16.691
				c-31.059-39.542-60.763-157.248-60.763-157.248l-77.675-0.373l0.004-0.103l-10.721,0.052l-10.721-0.052l0.005,0.103
				l-77.675,0.373c0,0-29.704,117.705-60.763,157.248c-3.858,4.912-6.544,10.622-8.018,16.691
				c-3.235,13.324-11.505,47.107-9.883,60.503c0,0,27.036,2.4,166.376,3.798l0.001,0.014c0.23-0.002,0.451-0.005,0.68-0.007
				c0.229,0.002,0.451,0.005,0.68,0.007l0.001-0.014c139.34-1.398,166.376-3.798,166.376-3.798
				C491.777,442.765,483.507,408.982,480.272,395.658z"/>
			<ellipse style="fill:#E8B750;" cx="323.098" cy="279.734" rx="87.201" ry="42.767"/>
			<ellipse style="fill:#26424B;" cx="323.098" cy="273.897" rx="54.322" ry="27.161"/>
			<path style="fill:#E8B750;" d="M483.654,449.013c0,0-124.355,4.331-165.825,4.289c-38.433-0.039-153.674-4.289-153.674-4.289
				l10.982-52.294c1.516-7.022,7.726-12.034,14.91-12.034h265.549c8.05,0,15.028,5.57,16.812,13.42L483.654,449.013z"/>
		</g>
		<g style="clip-path:url(#SVGID_2_);">
			<path style="fill:#26424B;" d="M534.875,164.067c-34.166-18.046-83.385-63.858-151.698-79.6
				c-44.982-10.366-79.404-9.989-138.967,6.192c-79.025,21.468-134.828,85.691-136.944,87.521c-6.12,4.305-8.499,12.24-5.757,19.202
				l7.974,20.249c0.228,1.082,0.561,2.158,1.014,3.211l15.841,36.894c3.722,8.669,13.861,12.717,22.531,8.995l51.885-22.279
				c8.67-3.722,12.717-13.861,8.995-22.531l-15.841-36.894c-1.449-3.373-3.875-6.034-6.801-7.823
				c17.966-9.4,39.957-18.986,65.014-26.102c40.465-11.49,80.984-14.392,120.437-8.634c29.947,4.374,59.449,13.831,88.216,28.178
				c-4.779,1.518-8.866,5.088-10.82,10.094l-14.598,37.403c-3.43,8.789,0.955,18.787,9.744,22.217l52.602,20.529
				c8.789,3.43,18.787-0.955,22.217-9.744l13.599-34.845l10.764-26.303C548.285,180.217,544.219,169.002,534.875,164.067z"/>
			<g>
				<path style="fill:#26424B;" d="M143.791,436.942c-6.672,0-13.07-2.396-18.319-7c-5.166-4.532-9.16-11.154-11.552-18.931
					c-3.727-0.925-7.292-2.375-10.533-4.27c-13.1-7.663-23.218-22.053-27.066-38.492c-1.258-5.377-1.825-10.927-1.744-16.41
					c-6.155-4.085-11.629-9.818-15.841-16.882c-9.933-16.664-12.38-39.968-6.232-59.371c1.729-5.453,4.121-10.76,7.246-16.048
					c-0.911-4.828-0.967-10.463-0.141-16.763c2.071-15.796,7.571-29.559,15.489-38.755c9.465-10.984,22.789-15.324,33.956-11.052
					l-2.939,12.455c-7.796-2.985-17.272,0.235-24.135,8.207c-6.233,7.24-10.6,18.351-12.297,31.287
					c-0.043,0.328-0.083,0.66-0.123,0.999c4.151-4.596,9.531-8.939,16.087-9.879c5.351-0.768,11.012,1.471,15.125,5.997
					c3.454,3.798,5.435,8.842,5.578,14.206c0.231,8.558-4.232,16.865-11.107,20.671c-4.85,2.684-10.567,3.226-17.48,1.668
					c-3.476-0.783-8.416-2.322-12.329-6.657c-1.405,2.839-2.552,5.673-3.457,8.533c-4.83,15.241-2.909,33.547,4.895,46.636
					c2.576,4.323,5.755,8.01,9.318,10.946c1.734-7.739,4.825-14.873,9.136-20.605c6.338-8.427,14.496-12.843,22.412-12.068
					c9.742,0.931,17.917,10.256,19.016,21.689c0.602,6.257-0.823,12.375-4.121,17.688c-4.563,7.352-12.48,12.644-20.665,13.812
					c-5.698,0.815-11.484,0.214-17.014-1.621c0.191,2.566,0.573,5.116,1.155,7.599c3.02,12.906,11.074,24.267,21.541,30.389
					c1.225,0.718,2.505,1.348,3.828,1.892c-0.544-11.223,2.094-21.998,7.412-29.983c6.07-9.113,14.932-13.948,23.102-12.614
					c9.967,1.621,17.899,13.057,17.324,24.97c-0.246,5.093-1.892,10.199-4.89,15.176c-7.063,11.723-17.796,17.083-28.61,17.754
					c1.486,2.828,3.324,5.248,5.454,7.115c5.066,4.445,11.848,5.823,18.605,3.789c6.76-2.036,12.337-7.14,15.301-14.005l8.949,6.27
					c-4.355,10.078-12.335,17.51-21.898,20.391C149.408,436.525,146.576,436.942,143.791,436.942z M121.933,399.14
					c9.318,0.434,18.761-3.355,24.388-12.695c1.739-2.885,2.679-5.597,2.799-8.057c0.248-5.142-3.768-10.514-8.424-11.272
					c-4.731-0.781-10.221,2.424-14.019,8.126c-3.979,5.976-5.738,14.43-4.822,23.198
					C121.878,398.676,121.905,398.907,121.933,399.14z M85.63,343.683c4.89,1.956,10.085,2.682,15.199,1.945
					c5.404-0.771,10.946-4.367,13.79-8.95c1.591-2.566,2.262-5.273,1.996-8.046c-0.502-5.218-4.829-9.839-9.644-10.3
					c-4.766-0.457-10.113,2.57-14.272,8.097C89.217,331.063,86.806,337.125,85.63,343.683z M71.681,261.559
					c0.032,0.04,0.063,0.083,0.095,0.123c1.511,1.937,3.979,3.239,7.768,4.092c4.874,1.101,8.678,0.845,11.627-0.787
					c2.965-1.643,5.056-5.133,4.972-8.298c-0.058-2.18-1.145-3.819-2.046-4.809c-1.936-2.13-4.82-3.277-7.307-2.915
					c-4.516,0.648-9.064,4.297-14.313,11.49C72.206,260.822,71.94,261.191,71.681,261.559z"/>
			</g>
			<path style="fill:#E8B750;" d="M215.188,240.95l-82.295,34.853c-3.039,1.287-6.578-0.146-7.865-3.185l-7.4-17.472
				c-1.287-3.039,0.146-6.578,3.185-7.865l82.295-34.853c3.039-1.287,6.578,0.146,7.865,3.185l7.4,17.472
				C219.66,236.124,218.226,239.663,215.188,240.95z"/>
			<path style="fill:#E8B750;" d="M523.965,240.133L441.67,205.28c-3.039-1.287-6.578,0.146-7.865,3.185l-7.4,17.472
				c-1.287,3.039,0.146,6.578,3.185,7.865l82.295,34.853c3.039,1.287,6.578-0.146,7.865-3.185l7.4-17.472
				C528.437,244.959,527.004,241.42,523.965,240.133z"/>
			<g>
				<path style="fill:#26424B;" d="M413.259,221.811H235.266c-13.592,0-24.651-13.146-24.651-29.305V149.62
					c0-6.711,5.109-12.151,11.411-12.151s11.411,5.44,11.411,12.151v42.886c0,2.915,1.331,4.71,1.915,5.003h177.818
					c0.585-0.293,1.915-2.088,1.915-5.003V149.62c0-6.711,5.109-12.151,11.411-12.151c6.302,0,11.411,5.44,11.411,12.151v42.886
					C437.91,208.665,426.851,221.811,413.259,221.811z"/>
			</g>
			<path style="fill:#26424B;" d="M480.272,395.658c-1.474-6.07-4.16-11.779-8.018-16.691
				c-31.059-39.542-60.763-157.248-60.763-157.248l-77.675-0.373l0.004-0.103l-10.721,0.052l-10.721-0.052l0.005,0.103
				l-77.675,0.373c0,0-29.704,117.705-60.763,157.248c-3.858,4.912-6.544,10.622-8.018,16.691
				c-3.235,13.324-11.505,47.107-9.883,60.503c0,0,27.036,2.4,166.376,3.798l0.001,0.014c0.23-0.002,0.451-0.005,0.68-0.007
				c0.229,0.002,0.451,0.005,0.68,0.007l0.001-0.014c139.34-1.398,166.376-3.798,166.376-3.798
				C491.777,442.765,483.507,408.982,480.272,395.658z"/>
			<ellipse style="fill:#E8B750;" cx="323.098" cy="279.734" rx="87.201" ry="42.767"/>
			<ellipse style="fill:#26424B;" cx="323.098" cy="273.897" rx="54.322" ry="27.161"/>
			<path style="fill:#E8B750;" d="M483.654,449.013c0,0-124.355,4.331-165.825,4.289c-38.433-0.039-153.674-4.289-153.674-4.289
				l10.982-52.294c1.516-7.022,7.726-12.034,14.91-12.034h265.549c8.05,0,15.028,5.57,16.812,13.42L483.654,449.013z"/>
		</g>
		<g style="clip-path:url(#SVGID_2_);">
			<path style="fill:none;" d="M78.568,262.774c4.874,1.101,8.678,0.845,11.627-0.787c2.965-1.643,5.056-5.133,4.972-8.298
				c-0.058-2.18-1.145-3.819-2.046-4.81c-1.936-2.129-4.82-3.277-7.307-2.915c-4.516,0.648-9.064,4.297-14.313,11.49
				c-0.269,0.368-0.535,0.737-0.794,1.105c0.032,0.04,0.063,0.083,0.095,0.123C72.312,260.619,74.78,261.921,78.568,262.774z"/>
			<path style="fill:none;" d="M209.64,189.506v-26.529c-8.439,3.659-16.303,7.457-23.509,11.227
				c2.927,1.789,5.353,4.45,6.801,7.823l11.563,26.93c2.326,0.015,4.542,1.388,5.502,3.656l7.4,17.472
				c1.287,3.039-0.146,6.578-3.185,7.865l-82.295,34.853c-3.039,1.287-6.578-0.146-7.865-3.185l-7.4-17.472
				c-1.287-3.039,0.146-6.578,3.185-7.865l0.876-0.371l-11.193-26.068c-0.452-1.053-0.785-2.128-1.014-3.211l-5.013-12.73
				c-7.453-1.984-16.103,1.312-22.491,8.732c-6.233,7.24-10.6,18.351-12.297,31.287c-0.043,0.328-0.083,0.66-0.123,0.999
				c4.151-4.596,9.531-8.939,16.087-9.879c5.351-0.768,11.012,1.471,15.125,5.997c3.454,3.797,5.435,8.842,5.578,14.206
				c0.231,8.558-4.232,16.865-11.107,20.671c-4.85,2.684-10.567,3.226-17.48,1.668c-3.476-0.783-8.416-2.322-12.329-6.657
				c-1.405,2.839-2.552,5.673-3.457,8.533c-4.83,15.241-2.909,33.547,4.895,46.636c2.576,4.323,5.755,8.01,9.318,10.946
				c1.734-7.739,4.825-14.873,9.136-20.605c6.338-8.427,14.496-12.843,22.412-12.068c9.742,0.931,17.917,10.256,19.016,21.689
				c0.602,6.257-0.823,12.375-4.121,17.688c-4.563,7.352-12.48,12.644-20.665,13.812c-5.698,0.815-11.484,0.214-17.014-1.622
				c0.191,2.566,0.573,5.116,1.155,7.599c3.02,12.906,11.074,24.267,21.541,30.389c1.225,0.718,2.505,1.348,3.828,1.892
				c-0.544-11.223,2.094-21.998,7.412-29.983c6.07-9.113,14.932-13.948,23.102-12.614c9.967,1.621,17.899,13.056,17.324,24.97
				c-0.246,5.093-1.892,10.199-4.89,15.176c-7.063,11.723-17.796,17.083-28.61,17.754c1.486,2.828,3.324,5.248,5.454,7.115
				c5.066,4.445,11.848,5.823,18.605,3.789c4.488-1.352,8.448-4.062,11.475-7.735c1.716-7.872,3.452-14.99,4.578-19.627
				c1.474-6.07,4.16-11.78,8.018-16.691c30.635-39.002,59.949-154.037,60.744-157.173
				C220.387,218.426,209.64,205.434,209.64,189.506z"/>
			<path style="fill:none;" d="M113.645,333.679c1.591-2.566,2.262-5.273,1.996-8.046c-0.502-5.218-4.829-9.839-9.644-10.301
				c-4.766-0.457-10.113,2.57-14.272,8.097c-3.482,4.634-5.894,10.696-7.069,17.254c4.89,1.956,10.085,2.682,15.199,1.945
				C105.259,341.858,110.801,338.262,113.645,333.679z"/>
			<path style="fill:none;" d="M145.346,383.445c1.739-2.885,2.68-5.597,2.799-8.057c0.248-5.142-3.768-10.514-8.424-11.272
				c-4.731-0.781-10.221,2.424-14.019,8.126c-3.979,5.976-5.738,14.43-4.822,23.198c0.023,0.235,0.05,0.466,0.078,0.698
				C130.277,396.574,139.72,392.785,145.346,383.445z"/>
			<path style="fill:none;" d="M436.935,189.506c0,5.31-1.2,10.29-3.286,14.589c1.389-1.756,3.678-2.616,5.892-2.172l9.438-24.184
				c1.954-5.007,6.041-8.576,10.82-10.094c-3.608-1.799-7.228-3.514-10.859-5.157l-12.005,15.425V189.506z"/>
			<path style="fill:none;" d="M371.582,139.467c-39.453-5.758-79.971-2.855-120.437,8.634c-6.436,1.828-12.667,3.821-18.682,5.929
				v35.475c0,2.915,1.331,4.71,1.915,5.003h177.818c0.585-0.293,1.915-2.089,1.915-5.003v-40.314
				C400.057,144.812,385.871,141.554,371.582,139.467z"/>
			<path style="fill:none;" d="M436.935,177.914l12.005-15.425c-3.989-1.805-7.991-3.522-12.005-5.143V177.914z"/>
			<path style="opacity:0.3;fill:#0D0B10;" d="M533.9,161.067c-15.409-8.138-33.891-21.925-55.793-36.053l-29.167,37.475
				c3.631,1.643,7.251,3.357,10.859,5.157c-4.779,1.518-8.866,5.088-10.82,10.094l-9.438,24.184
				c-2.214-0.444-4.502,0.416-5.892,2.172c2.086-4.3,3.286-9.28,3.286-14.589v-11.592L220.923,455.455
				c24.231,0.53,56.861,1.066,100.519,1.504l0.001,0.014c0.23-0.002,0.451-0.005,0.68-0.007c0.229,0.002,0.451,0.005,0.68,0.007
				l0.001-0.014c139.34-1.398,166.376-3.798,166.376-3.798c1.622-13.396-6.648-47.179-9.883-60.503
				c-1.474-6.07-4.16-11.78-8.018-16.691c-30.561-38.908-59.809-153.49-60.74-157.156h1.745c8.36,0,15.756-4.978,20.216-12.566
				l-7.069,16.692c-1.287,3.039,0.146,6.578,3.185,7.865l82.295,34.853c3.039,1.287,6.578-0.146,7.865-3.185l7.4-17.472
				c1.256-2.965-0.083-6.402-2.973-7.762l9.341-23.935l10.764-26.303C547.31,177.217,543.244,166.002,533.9,161.067z"/>
		</g>
	</g>
</g>
<g id="Livello_1">
</g>
</svg>
