<?xml version="1.0" encoding="iso-8859-1"?>
<!-- Generator: Adobe Illustrator 18.0.0, SVG Export Plug-In . SVG Version: 6.00 Build 0)  -->
<!DOCTYPE svg PUBLIC "-//W3C//DTD SVG 1.1//EN" "http://www.w3.org/Graphics/SVG/1.1/DTD/svg11.dtd">
<svg version="1.1" xmlns="http://www.w3.org/2000/svg" xmlns:xlink="http://www.w3.org/1999/xlink" x="0px" y="0px"
	 viewBox="0 0 637.603 637.676" style="enable-background:new 0 0 637.603 637.676;" xml:space="preserve">
<g id="_x23_organizer">
	<g>
		<defs>
			<circle id="SVGID_1_" cx="256" cy="256.005" r="256"/>
		</defs>
		<clipPath id="SVGID_2_">
			<use xlink:href="#SVGID_1_"  style="overflow:visible;"/>
		</clipPath>
		<g style="clip-path:url(#SVGID_2_);">
			<circle style="fill:#77B4BE;" cx="256" cy="256.005" r="256"/>
		</g>
		<polygon style="opacity:0.29;clip-path:url(#SVGID_2_);" points="469.135,637.676 97.009,466.084 291.676,233.418 333.155,31.271 
			669.009,386.751 		"/>
		<g style="clip-path:url(#SVGID_2_);">
			<g>
				<path style="fill:#26424B;" d="M430.792,473.018H98.62c-11.046,0-20-8.954-20-20V136.403c0-11.046,8.954-20,20-20h332.173
					c11.046,0,20,8.954,20,20v316.615C450.792,464.063,441.838,473.018,430.792,473.018z"/>
				<path style="fill:#26424B;" d="M275.511,425.868h-21.689c-2.386,0-4.338-1.952-4.338-4.338v-1.204
					c0-2.386,1.952-4.338,4.338-4.338h21.689c2.386,0,4.338,1.952,4.338,4.338v1.204
					C279.849,423.916,277.897,425.868,275.511,425.868z"/>
			</g>
			<rect x="425.267" y="175.92" style="fill:#DB605A;" width="41.112" height="34.578"/>
			<rect x="425.267" y="231.903" style="fill:#E8B750;" width="41.112" height="34.578"/>
			<rect x="425.267" y="287.886" style="fill:#78C1B0;" width="41.112" height="34.578"/>
			<g>
				<polygon style="fill:#E8B750;" points="346.034,296.559 309.098,296.559 309.098,46.218 327.566,24.785 346.034,46.218 				"/>
				<path style="fill:#DB605A;" d="M309.098,46.218c0,0,8.026,5.64,18.468,0v250.341h-18.468V46.218z"/>
				<path style="fill:#26424B;" d="M327.566,46.218c0,0,8.026,5.64,18.468,0v250.341h-18.468V46.218z"/>
				<polygon style="fill:#26424B;" points="333.155,31.271 327.566,24.785 321.977,31.271 				"/>
			</g>
			<rect x="425.267" y="343.869" style="fill:#EAEBE1;stroke:#FFFFFF;stroke-miterlimit:10;" width="41.112" height="34.578"/>
			<rect x="268.262" y="136.825" style="fill:#FFFFFF;" width="162.21" height="315.77"/>
			<rect x="100.819" y="136.825" style="fill:#FFFFFF;" width="162.21" height="315.77"/>
			<rect x="136.403" y="136.402" style="fill:#E8B750;" width="65.936" height="75.083"/>
			<g>
				<path style="fill:#26424B;" d="M169.371,161.39c-6.066,0-11.002-6.41-11.002-14.288v-11.639c0-7.879,4.935-14.288,11.002-14.288
					s11.002,6.41,11.002,14.288v11.639C180.373,154.98,175.438,161.39,169.371,161.39z M169.371,128.318
					c-3.033,0-5.501,3.205-5.501,7.144v11.639c0,3.939,2.468,7.144,5.501,7.144s5.501-3.205,5.501-7.144v-11.639
					C174.872,131.523,172.404,128.318,169.371,128.318z"/>
			</g>
			<path style="fill:#26424B;" d="M275.511,172.956h-21.689c-2.386,0-4.338-1.952-4.338-4.338v-1.204
				c0-2.386,1.952-4.338,4.338-4.338h21.689c2.386,0,4.338,1.952,4.338,4.338v1.204
				C279.849,171.004,277.897,172.956,275.511,172.956z"/>
			<path style="fill:#26424B;" d="M275.511,209.086h-21.689c-2.386,0-4.338-1.952-4.338-4.338v-1.204
				c0-2.386,1.952-4.338,4.338-4.338h21.689c2.386,0,4.338,1.952,4.338,4.338v1.204
				C279.849,207.134,277.897,209.086,275.511,209.086z"/>
			<path style="fill:#26424B;" d="M275.511,245.217h-21.689c-2.386,0-4.338-1.952-4.338-4.338v-1.204
				c0-2.386,1.952-4.338,4.338-4.338h21.689c2.386,0,4.338,1.952,4.338,4.338v1.204
				C279.849,243.265,277.897,245.217,275.511,245.217z"/>
			<path style="fill:#26424B;" d="M275.511,281.347h-21.689c-2.386,0-4.338-1.952-4.338-4.338v-1.204
				c0-2.386,1.952-4.338,4.338-4.338h21.689c2.386,0,4.338,1.952,4.338,4.338v1.204
				C279.849,279.395,277.897,281.347,275.511,281.347z"/>
			<path style="fill:#26424B;" d="M275.511,317.477h-21.689c-2.386,0-4.338-1.952-4.338-4.338v-1.204
				c0-2.386,1.952-4.338,4.338-4.338h21.689c2.386,0,4.338,1.952,4.338,4.338v1.204
				C279.849,315.525,277.897,317.477,275.511,317.477z"/>
			<path style="fill:#26424B;" d="M275.511,353.608h-21.689c-2.386,0-4.338-1.952-4.338-4.338v-1.204
				c0-2.386,1.952-4.338,4.338-4.338h21.689c2.386,0,4.338,1.952,4.338,4.338v1.204
				C279.849,351.656,277.897,353.608,275.511,353.608z"/>
			<path style="fill:#26424B;" d="M275.511,389.738h-21.689c-2.386,0-4.338-1.952-4.338-4.338v-1.204
				c0-2.386,1.952-4.338,4.338-4.338h21.689c2.386,0,4.338,1.952,4.338,4.338v1.204
				C279.849,387.786,277.897,389.738,275.511,389.738z"/>
		</g>
	</g>
</g>
<g id="Livello_1">
</g>
</svg>
