<?xml version="1.0" encoding="utf-8"?>
<!-- Generator: Adobe Illustrator 18.1.0, SVG Export Plug-In . SVG Version: 6.00 Build 0)  -->
<!DOCTYPE svg PUBLIC "-//W3C//DTD SVG 1.1//EN" "http://www.w3.org/Graphics/SVG/1.1/DTD/svg11.dtd">
<svg version="1.1" id="Livello_1" xmlns="http://www.w3.org/2000/svg" xmlns:xlink="http://www.w3.org/1999/xlink" x="0px" y="0px"
	 viewBox="0 0 512 549.3" enable-background="new 0 0 512 549.3" xml:space="preserve">
<g>
	<circle fill="#26424B" cx="256" cy="293.3" r="256"/>
	<g>
		<path fill="#26424B" d="M500,287.3c0-22.1-2.9-43.4-8.2-63.8L359.3,119.1L136,504.8l66,27.9c15.5,3,31.6,4.6,48,4.6
			C388.1,537.3,500,425.4,500,287.3z"/>
		<path opacity="0.2" fill="#231F20" d="M500,287.3c0-22.1-2.9-43.4-8.2-63.8L359.3,119.1L136,504.8l66,27.9c15.5,3,31.6,4.6,48,4.6
			C388.1,537.3,500,425.4,500,287.3z"/>
	</g>
	<g>
		<polygon fill="#C0D7A1" points="158.2,548.5 133.4,539.7 106.4,548.5 106.4,467.9 158.2,467.9 		"/>
		<rect x="375.1" y="218.1" fill="#78C1B0" width="80.4" height="33"/>
		<rect x="245.1" y="8.2" fill="#CE5959" width="48.9" height="88.5"/>
		<rect x="386.6" y="280.9" fill="#77B4BE" width="80.4" height="33"/>
		<polygon fill="#E8B750" points="367.1,102.7 318.2,102.7 318.2,13.7 342.6,0 367.1,13.7 		"/>
		<rect x="85.9" y="76.8" fill="#F8F8F8" width="324.6" height="424.3"/>
		<rect x="133.4" y="138.8" fill="#26424B" width="236.6" height="10.6"/>
		<rect x="133.4" y="175.8" fill="#26424B" width="236.6" height="10.6"/>
		<rect x="133.4" y="212.8" fill="#26424B" width="236.6" height="10.6"/>
		<rect x="133.4" y="249.8" fill="#26424B" width="236.6" height="10.6"/>
		<rect x="133.4" y="286.8" fill="#26424B" width="236.6" height="10.6"/>
		<rect x="133.4" y="323.7" fill="#26424B" width="236.6" height="10.6"/>
		<rect x="133.4" y="360.7" fill="#26424B" width="236.6" height="10.6"/>
		<rect x="133.4" y="397.7" fill="#26424B" width="236.6" height="10.6"/>
		<rect x="133.4" y="434.7" fill="#26424B" width="236.6" height="10.6"/>
		<rect x="386.6" y="155.8" fill="#CE5959" width="80.4" height="33"/>
	</g>
</g>
<g>
</g>
<g>
</g>
<g>
</g>
<g>
</g>
<g>
</g>
<g>
</g>
<g>
</g>
<g>
</g>
<g>
</g>
<g>
</g>
<g>
</g>
<g>
</g>
<g>
</g>
<g>
</g>
<g>
</g>
</svg>
