<?xml version="1.0" encoding="utf-8"?>
<!-- Generator: Adobe Illustrator 18.1.0, SVG Export Plug-In . SVG Version: 6.00 Build 0)  -->
<!DOCTYPE svg PUBLIC "-//W3C//DTD SVG 1.1//EN" "http://www.w3.org/Graphics/SVG/1.1/DTD/svg11.dtd">
<svg version="1.1" id="Livello_1" xmlns="http://www.w3.org/2000/svg" xmlns:xlink="http://www.w3.org/1999/xlink" x="0px" y="0px"
	 viewBox="0 0 512 512" enable-background="new 0 0 512 512" xml:space="preserve">
<circle fill="#E8B750" cx="256" cy="256" r="256"/>
<g>
	<g>
		<path fill="#6DA7AD" d="M479.3,435.6H37c-9.6,0-17.3-7.8-17.3-17.3v-319c0-9.6,7.8-17.3,17.3-17.3h442.3c9.6,0,17.3,7.8,17.3,17.3
			v319C496.6,427.8,488.9,435.6,479.3,435.6z"/>
		<rect x="46.7" y="109" fill="none" stroke="#507D7F" stroke-width="2" stroke-miterlimit="10" width="422.8" height="299.5"/>
		<g>
			<g>
				<path fill="#507D7F" d="M470.4,409.4H45.8V108.1h424.6V409.4z M47.6,407.6h421V109.9h-421V407.6z"/>
			</g>
			<g>
				<rect x="46.7" y="357.7" fill="#507D7F" width="422.8" height="1.8"/>
			</g>
			<g>
				<rect x="46.7" y="307.8" fill="#507D7F" width="422.8" height="1.8"/>
			</g>
			<g>
				<rect x="46.7" y="257.9" fill="#507D7F" width="422.8" height="1.8"/>
			</g>
			<g>
				<rect x="46.7" y="208" fill="#507D7F" width="422.8" height="1.8"/>
			</g>
			<g>
				<rect x="46.7" y="158" fill="#507D7F" width="422.8" height="1.8"/>
			</g>
			<g>
				<rect x="398.2" y="109" fill="#507D7F" width="1.8" height="299.5"/>
			</g>
			<g>
				<rect x="327.7" y="109" fill="#507D7F" width="1.8" height="299.5"/>
			</g>
			<g>
				<rect x="257.2" y="109" fill="#507D7F" width="1.8" height="299.5"/>
			</g>
			<g>
				<rect x="259.9" y="109" fill="#507D7F" width="1.8" height="299.5"/>
			</g>
			<g>
				<rect x="186.8" y="109" fill="#507D7F" width="1.8" height="299.5"/>
			</g>
			<g>
				<rect x="116.3" y="109" fill="#507D7F" width="1.8" height="299.5"/>
			</g>
		</g>
		<g>
			<g>
				<g>
					<rect x="58.9" y="109.9" fill="#507D7F" width="1.8" height="9.9"/>
				</g>
				<g>
					<rect x="72.5" y="108.1" fill="#507D7F" width="1.8" height="8.1"/>
				</g>
				<g>
					<rect x="102.5" y="109" fill="#507D7F" width="1.8" height="8.1"/>
				</g>
				<g>
					<rect x="86.6" y="109.9" fill="#507D7F" width="1.8" height="9.9"/>
				</g>
			</g>
			<g>
				<g>
					<rect x="130.8" y="109.9" fill="#507D7F" width="1.8" height="9.9"/>
				</g>
				<g>
					<rect x="144.3" y="108.1" fill="#507D7F" width="1.8" height="8.1"/>
				</g>
				<g>
					<rect x="174.3" y="109" fill="#507D7F" width="1.8" height="8.1"/>
				</g>
				<g>
					<rect x="158.5" y="109.9" fill="#507D7F" width="1.8" height="9.9"/>
				</g>
			</g>
			<g>
				<g>
					<rect x="198.7" y="109.9" fill="#507D7F" width="1.8" height="9.9"/>
				</g>
				<g>
					<rect x="212.2" y="108.1" fill="#507D7F" width="1.8" height="8.1"/>
				</g>
				<g>
					<rect x="242.2" y="109" fill="#507D7F" width="1.8" height="8.1"/>
				</g>
				<g>
					<rect x="226.4" y="109.9" fill="#507D7F" width="1.8" height="9.9"/>
				</g>
			</g>
			<g>
				<g>
					<rect x="270.5" y="109.9" fill="#507D7F" width="1.8" height="9.9"/>
				</g>
				<g>
					<rect x="284" y="108.1" fill="#507D7F" width="1.8" height="8.1"/>
				</g>
				<g>
					<rect x="314" y="109" fill="#507D7F" width="1.8" height="8.1"/>
				</g>
				<g>
					<rect x="298.2" y="109.9" fill="#507D7F" width="1.8" height="9.9"/>
				</g>
			</g>
			<g>
				<g>
					<rect x="341.4" y="109.9" fill="#507D7F" width="1.8" height="9.9"/>
				</g>
				<g>
					<rect x="354.9" y="108.1" fill="#507D7F" width="1.8" height="8.1"/>
				</g>
				<g>
					<rect x="384.9" y="109" fill="#507D7F" width="1.8" height="8.1"/>
				</g>
				<g>
					<rect x="369.1" y="109.9" fill="#507D7F" width="1.8" height="9.9"/>
				</g>
			</g>
			<g>
				<g>
					<rect x="413.2" y="109.9" fill="#507D7F" width="1.8" height="9.9"/>
				</g>
				<g>
					<rect x="426.8" y="108.1" fill="#507D7F" width="1.8" height="8.1"/>
				</g>
				<g>
					<rect x="456.7" y="109" fill="#507D7F" width="1.8" height="8.1"/>
				</g>
				<g>
					<rect x="440.9" y="109.9" fill="#507D7F" width="1.8" height="9.9"/>
				</g>
			</g>
		</g>
		<g>
			<g>
				<g>
					<rect x="46.1" y="392.9" fill="#507D7F" width="5.6" height="1.3"/>
				</g>
				<g>
					<rect x="46.8" y="372.2" fill="#507D7F" width="5.6" height="1.3"/>
				</g>
				<g>
					<rect x="47.4" y="383.1" fill="#507D7F" width="6.9" height="1.3"/>
				</g>
			</g>
			<g>
				<g>
					<rect x="46.1" y="343.2" fill="#507D7F" width="5.6" height="1.3"/>
				</g>
				<g>
					<rect x="46.8" y="322.5" fill="#507D7F" width="5.6" height="1.3"/>
				</g>
				<g>
					<rect x="47.4" y="333.4" fill="#507D7F" width="6.9" height="1.3"/>
				</g>
			</g>
			<g>
				<g>
					<rect x="46.1" y="296.2" fill="#507D7F" width="5.6" height="1.3"/>
				</g>
				<g>
					<rect x="46.8" y="275.5" fill="#507D7F" width="5.6" height="1.3"/>
				</g>
				<g>
					<rect x="47.4" y="286.4" fill="#507D7F" width="6.9" height="1.3"/>
				</g>
			</g>
			<g>
				<g>
					<rect x="46.1" y="246.5" fill="#507D7F" width="5.6" height="1.3"/>
				</g>
				<g>
					<rect x="46.8" y="225.8" fill="#507D7F" width="5.6" height="1.3"/>
				</g>
				<g>
					<rect x="47.4" y="236.7" fill="#507D7F" width="6.9" height="1.3"/>
				</g>
			</g>
			<g>
				<g>
					<rect x="46.1" y="197.4" fill="#507D7F" width="5.6" height="1.3"/>
				</g>
				<g>
					<rect x="46.8" y="176.7" fill="#507D7F" width="5.6" height="1.3"/>
				</g>
				<g>
					<rect x="47.4" y="187.6" fill="#507D7F" width="6.9" height="1.3"/>
				</g>
			</g>
			<g>
				<g>
					<rect x="46.1" y="147.7" fill="#507D7F" width="5.6" height="1.3"/>
				</g>
				<g>
					<rect x="46.8" y="127" fill="#507D7F" width="5.6" height="1.3"/>
				</g>
				<g>
					<rect x="47.4" y="137.9" fill="#507D7F" width="6.9" height="1.3"/>
				</g>
			</g>
		</g>
		<g>
			<g>
				<g>
					<rect x="57.4" y="397.7" fill="#507D7F" width="1.8" height="9.9"/>
				</g>
				<g>
					<rect x="71" y="401.3" fill="#507D7F" width="1.8" height="8.1"/>
				</g>
				<g>
					<rect x="100.9" y="400.4" fill="#507D7F" width="1.8" height="8.1"/>
				</g>
				<g>
					<rect x="85.1" y="397.7" fill="#507D7F" width="1.8" height="9.9"/>
				</g>
			</g>
			<g>
				<g>
					<rect x="129.3" y="397.7" fill="#507D7F" width="1.8" height="9.9"/>
				</g>
				<g>
					<rect x="142.8" y="401.3" fill="#507D7F" width="1.8" height="8.1"/>
				</g>
				<g>
					<rect x="172.8" y="400.4" fill="#507D7F" width="1.8" height="8.1"/>
				</g>
				<g>
					<rect x="157" y="397.7" fill="#507D7F" width="1.8" height="9.9"/>
				</g>
			</g>
			<g>
				<g>
					<rect x="197.2" y="397.7" fill="#507D7F" width="1.8" height="9.9"/>
				</g>
				<g>
					<rect x="210.7" y="401.3" fill="#507D7F" width="1.8" height="8.1"/>
				</g>
				<g>
					<rect x="240.7" y="400.4" fill="#507D7F" width="1.8" height="8.1"/>
				</g>
				<g>
					<rect x="224.9" y="397.7" fill="#507D7F" width="1.8" height="9.9"/>
				</g>
			</g>
			<g>
				<g>
					<rect x="269" y="397.7" fill="#507D7F" width="1.8" height="9.9"/>
				</g>
				<g>
					<rect x="282.5" y="401.3" fill="#507D7F" width="1.8" height="8.1"/>
				</g>
				<g>
					<rect x="312.5" y="400.4" fill="#507D7F" width="1.8" height="8.1"/>
				</g>
				<g>
					<rect x="296.7" y="397.7" fill="#507D7F" width="1.8" height="9.9"/>
				</g>
			</g>
			<g>
				<g>
					<rect x="339.9" y="397.7" fill="#507D7F" width="1.8" height="9.9"/>
				</g>
				<g>
					<rect x="353.4" y="401.3" fill="#507D7F" width="1.8" height="8.1"/>
				</g>
				<g>
					<rect x="383.4" y="400.4" fill="#507D7F" width="1.8" height="8.1"/>
				</g>
				<g>
					<rect x="367.6" y="397.7" fill="#507D7F" width="1.8" height="9.9"/>
				</g>
			</g>
			<g>
				<g>
					<rect x="411.7" y="397.7" fill="#507D7F" width="1.8" height="9.9"/>
				</g>
				<g>
					<rect x="425.3" y="401.3" fill="#507D7F" width="1.8" height="8.1"/>
				</g>
				<g>
					<rect x="455.2" y="400.4" fill="#507D7F" width="1.8" height="8.1"/>
				</g>
				<g>
					<rect x="439.4" y="397.7" fill="#507D7F" width="1.8" height="9.9"/>
				</g>
			</g>
		</g>
		<g>
			<g>
				<g>
					<rect x="464.7" y="392.9" fill="#507D7F" width="5.6" height="1.3"/>
				</g>
				<g>
					<rect x="464" y="372.2" fill="#507D7F" width="5.6" height="1.3"/>
				</g>
				<g>
					<rect x="462.2" y="383.1" fill="#507D7F" width="6.9" height="1.3"/>
				</g>
			</g>
			<g>
				<g>
					<rect x="464.7" y="343.2" fill="#507D7F" width="5.6" height="1.3"/>
				</g>
				<g>
					<rect x="464" y="322.5" fill="#507D7F" width="5.6" height="1.3"/>
				</g>
				<g>
					<rect x="462.2" y="333.4" fill="#507D7F" width="6.9" height="1.3"/>
				</g>
			</g>
			<g>
				<g>
					<rect x="464.7" y="296.2" fill="#507D7F" width="5.6" height="1.3"/>
				</g>
				<g>
					<rect x="464" y="275.5" fill="#507D7F" width="5.6" height="1.3"/>
				</g>
				<g>
					<rect x="462.2" y="286.4" fill="#507D7F" width="6.9" height="1.3"/>
				</g>
			</g>
			<g>
				<g>
					<rect x="464.7" y="246.5" fill="#507D7F" width="5.6" height="1.3"/>
				</g>
				<g>
					<rect x="464" y="225.8" fill="#507D7F" width="5.6" height="1.3"/>
				</g>
				<g>
					<rect x="462.2" y="236.7" fill="#507D7F" width="6.9" height="1.3"/>
				</g>
			</g>
			<g>
				<g>
					<rect x="464.7" y="197.4" fill="#507D7F" width="5.6" height="1.3"/>
				</g>
				<g>
					<rect x="464" y="176.7" fill="#507D7F" width="5.6" height="1.3"/>
				</g>
				<g>
					<rect x="462.2" y="187.6" fill="#507D7F" width="6.9" height="1.3"/>
				</g>
			</g>
			<g>
				<g>
					<rect x="464.7" y="147.7" fill="#507D7F" width="5.6" height="1.3"/>
				</g>
				<g>
					<rect x="464" y="127" fill="#507D7F" width="5.6" height="1.3"/>
				</g>
				<g>
					<rect x="462.2" y="137.9" fill="#507D7F" width="6.9" height="1.3"/>
				</g>
			</g>
		</g>
	</g>
	<g>
		<g>
			<path opacity="0.19" fill="#231F20" d="M164,234.2l-45.9,123.5l154.2,77.9c0,0,149.9,0.1,209.4-0.2c14.1-0.1,14.4-23.7,15-32.8
				L164,234.2z"/>
		</g>
		<g>
			<polygon fill="#F8F8F8" points="134.3,303.1 118.7,296.4 144.5,236.4 164,234.2 			"/>
			<path fill="#E81B56" d="M114.1,357.7L93,348.6c-2.5-1.1-3.7-4-2.6-6.6l38.3-88.9c1.1-2.5,4-3.7,6.6-2.6l21.1,9.1
				c2.5,1.1,3.7,4,2.6,6.6l-38.3,88.9C119.6,357.6,116.6,358.8,114.1,357.7z"/>
			<path fill="#F8F8F8" d="M120.8,334.5c-5.2-2.2-10.4-4.5-15.6-6.7c9.9-23,19.8-46,29.7-69c5.2,2.2,10.4,4.5,15.6,6.7
				C140.6,288.5,130.7,311.5,120.8,334.5z"/>
			<g>
				<path fill="#3F3F3F" d="M121.8,334.6l-16.9-7.3l5.4-12.5l16.9,7.3L121.8,334.6z M110.6,325l9,3.9l2-4.6l-9-3.9L110.6,325z"/>
			</g>
			
				<rect x="102.2" y="326.7" transform="matrix(0.9185 0.3955 -0.3955 0.9185 141.2193 -17.0861)" fill="#282828" width="19.7" height="14.6"/>
			<g>
				<path fill="#E81B56" d="M111.9,308.8c0.3-1.6,1.1-2.8,1.9-3.9c0.7-1,1.3-1.9,1.5-3.1l0.1-0.6c0.4-1.6,0.7-2.9,1.3-4.6
					c0.3-1,1-1.7,1.6-2.2c1.3-1.3,2.5-2.6,3-4.1c0.3-1,0.4-2,0.4-3.1c0-0.5,0-1,0.1-1.4c0.2-2.3,1-4.1,2.4-5
					c0.2-0.2,0.5-0.3,0.7-0.4c0.3-0.1,0.5-0.3,0.7-0.5c0.2-0.2,0.4-0.5,0.5-0.8c0.9-1.7,1.4-3.6,1.6-5.5c0-0.4,0.1-0.7,0.1-1.1
					c0.1-1.2,0.1-2.4,0.6-3.6c0.6-1.5,1.7-2.7,2.7-3.8c0.4-0.4,0.8-0.8,1.1-1.3c1-1.3,1.9-3.1,1.1-4.5l1.7-1c1,1.9,0.5,4.4-1.4,6.7
					c-0.4,0.5-0.8,0.9-1.2,1.3c-1,1-1.9,2-2.3,3.2c-0.3,0.9-0.4,1.9-0.5,3c0,0.4,0,0.8-0.1,1.2c-0.2,2.2-0.8,4.3-1.8,6.2
					c-0.2,0.5-0.5,1-1,1.4c-0.4,0.3-0.8,0.6-1.1,0.7c-0.2,0.1-0.4,0.2-0.5,0.3c-1.1,0.7-1.4,2.3-1.5,3.5c0,0.4-0.1,0.9-0.1,1.4
					c0,1.2-0.1,2.5-0.5,3.7c-0.7,2-2.1,3.4-3.4,4.9c-0.6,0.6-1,1.1-1.2,1.6c-0.5,1.5-0.8,2.8-1.2,4.4l-0.1,0.6
					c-0.3,1.5-1.1,2.6-1.8,3.7c-0.7,1-1.3,2-1.6,3.2L111.9,308.8z"/>
			</g>
			<g>
				<path fill="#E81B56" d="M129.9,316.5c0.9-1.3,1.3-2.7,1.6-4c0.3-1.2,0.5-2.3,1.2-3.2l0.4-0.5c0.9-1.3,1.7-2.5,2.5-4.1
					c0.5-0.9,0.5-1.9,0.5-2.7c0.1-1.8,0.2-3.6,0.9-5c0.5-0.9,1.2-1.6,2-2.4c0.3-0.3,0.7-0.7,1-1c1.6-1.7,2.2-3.5,2-5.2
					c0-0.3-0.1-0.5-0.2-0.8c-0.1-0.3-0.2-0.6-0.2-0.8c0-0.3,0.1-0.6,0.2-1c0.7-1.8,1.7-3.5,2.9-4.9c0.2-0.3,0.5-0.5,0.8-0.8
					c0.8-0.9,1.7-1.8,2.2-2.9c0.7-1.5,0.8-3.1,0.9-4.6c0-0.6,0.1-1.1,0.1-1.7c0.2-1.6,1-3.5,2.5-3.9l-0.5-1.9
					c-2.1,0.5-3.6,2.6-3.9,5.6c-0.1,0.6-0.1,1.2-0.2,1.8c-0.1,1.4-0.2,2.7-0.7,3.9c-0.4,0.9-1.1,1.6-1.9,2.4
					c-0.3,0.3-0.5,0.6-0.8,0.9c-1.4,1.6-2.5,3.5-3.3,5.5c-0.2,0.5-0.4,1.1-0.4,1.7c0,0.5,0.1,0.9,0.2,1.3c0.1,0.2,0.1,0.4,0.1,0.6
					c0.2,1.3-0.7,2.6-1.5,3.5c-0.3,0.3-0.6,0.7-0.9,1c-0.8,0.9-1.7,1.7-2.3,2.9c-1,1.8-1.1,3.9-1.2,5.8c0,0.8-0.1,1.4-0.3,1.9
					c-0.8,1.5-1.5,2.5-2.4,3.9l-0.4,0.5c-0.9,1.3-1.2,2.6-1.5,3.9c-0.3,1.2-0.5,2.3-1.3,3.3L129.9,316.5z"/>
			</g>
			
				<rect x="110.2" y="308.1" transform="matrix(0.9185 0.3955 -0.3955 0.9185 134.5293 -21.7609)" fill="#282828" width="19.7" height="14.6"/>
		</g>
		<g>
			<path opacity="0.8" fill="#FFFFFF" d="M286.5,50.2l121.1,361.2l63-21.1L349.5,29L286.5,50.2z M327.2,67.1
				c-4.1,1.4-8.5-0.8-9.8-4.9s0.8-8.5,4.9-9.8c4.1-1.4,8.5,0.8,9.8,4.9S331.3,65.7,327.2,67.1z"/>
			<g>
				<g>
					<g>
						<g>
							
								<rect x="368.5" y="95.9" transform="matrix(-0.318 -0.9481 0.9481 -0.318 392.6643 480.4608)" fill="#678073" width="1.4" height="6.2"/>
						</g>
						<g>
							
								<rect x="361.2" y="74.1" transform="matrix(-0.318 -0.9481 0.9481 -0.318 403.6773 444.8601)" fill="#678073" width="1.4" height="6.2"/>
						</g>
						<g>
							
								<rect x="365" y="85.6" transform="matrix(-0.318 -0.9481 0.9481 -0.318 397.8659 463.646)" fill="#678073" width="1.4" height="6.2"/>
						</g>
					</g>
					<g>
						<g>
							
								<rect x="379.1" y="127.8" transform="matrix(-0.318 -0.9481 0.9481 -0.318 376.5283 532.6223)" fill="#678073" width="1.4" height="6.2"/>
						</g>
						<g>
							
								<rect x="371.8" y="106" transform="matrix(-0.318 -0.9481 0.9481 -0.318 387.5413 497.0216)" fill="#678073" width="1.4" height="6.2"/>
						</g>
						<g>
							
								<rect x="375.7" y="117.5" transform="matrix(-0.318 -0.9481 0.9481 -0.318 381.7299 515.8074)" fill="#678073" width="1.4" height="6.2"/>
						</g>
					</g>
					<g>
						<g>
							
								<rect x="389.9" y="160" transform="matrix(-0.318 -0.9481 0.9481 -0.318 360.2385 585.2809)" fill="#678073" width="1.4" height="6.2"/>
						</g>
						<g>
							
								<rect x="382.6" y="138.2" transform="matrix(-0.318 -0.9481 0.9481 -0.318 371.2515 549.6803)" fill="#678073" width="1.4" height="6.2"/>
						</g>
						<g>
							
								<rect x="386.5" y="149.7" transform="matrix(-0.318 -0.9481 0.9481 -0.318 365.4401 568.4661)" fill="#678073" width="1.4" height="6.2"/>
						</g>
					</g>
					<g>
						<g>
							
								<rect x="400.6" y="191.8" transform="matrix(-0.318 -0.9481 0.9481 -0.318 344.1025 637.4424)" fill="#678073" width="1.4" height="6.2"/>
						</g>
						<g>
							
								<rect x="393.3" y="170.1" transform="matrix(-0.318 -0.9481 0.9481 -0.318 355.1155 601.8417)" fill="#678073" width="1.4" height="6.2"/>
						</g>
						<g>
							
								<rect x="397.2" y="181.6" transform="matrix(-0.318 -0.9481 0.9481 -0.318 349.3041 620.6276)" fill="#678073" width="1.4" height="6.2"/>
						</g>
					</g>
					<g>
						<g>
							
								<rect x="410.9" y="222.6" transform="matrix(-0.318 -0.9481 0.9481 -0.318 328.5404 687.7485)" fill="#678073" width="1.4" height="6.2"/>
						</g>
						<g>
							
								<rect x="403.6" y="200.8" transform="matrix(-0.318 -0.9481 0.9481 -0.318 339.5534 652.1479)" fill="#678073" width="1.4" height="6.2"/>
						</g>
						<g>
							
								<rect x="407.5" y="212.3" transform="matrix(-0.318 -0.9481 0.9481 -0.318 333.7422 670.9334)" fill="#678073" width="1.4" height="6.2"/>
						</g>
					</g>
					<g>
						<g>
							
								<rect x="421.6" y="254.5" transform="matrix(-0.318 -0.9481 0.9481 -0.318 312.4046 739.9097)" fill="#678073" width="1.4" height="6.2"/>
						</g>
						<g>
							
								<rect x="414.3" y="232.7" transform="matrix(-0.318 -0.9481 0.9481 -0.318 323.4174 704.3093)" fill="#678073" width="1.4" height="6.2"/>
						</g>
						<g>
							
								<rect x="418.2" y="244.2" transform="matrix(-0.318 -0.9481 0.9481 -0.318 317.6062 723.0948)" fill="#678073" width="1.4" height="6.2"/>
						</g>
					</g>
					<g>
						<g>
							
								<rect x="432.4" y="286.7" transform="matrix(-0.318 -0.9481 0.9481 -0.318 296.1146 792.5687)" fill="#678073" width="1.4" height="6.2"/>
						</g>
						<g>
							
								<rect x="425.1" y="264.9" transform="matrix(-0.318 -0.9481 0.9481 -0.318 307.1276 756.9681)" fill="#678073" width="1.4" height="6.2"/>
						</g>
						<g>
							
								<rect x="429" y="276.4" transform="matrix(-0.318 -0.9481 0.9481 -0.318 301.3162 775.7539)" fill="#678073" width="1.4" height="6.2"/>
						</g>
					</g>
					<g>
						<g>
							
								<rect x="443.1" y="318.6" transform="matrix(-0.318 -0.9481 0.9481 -0.318 279.9786 844.7302)" fill="#678073" width="1.4" height="6.2"/>
						</g>
						<g>
							
								<rect x="435.8" y="296.8" transform="matrix(-0.318 -0.9481 0.9481 -0.318 290.9916 809.1295)" fill="#678073" width="1.4" height="6.2"/>
						</g>
						<g>
							
								<rect x="439.7" y="308.3" transform="matrix(-0.318 -0.9481 0.9481 -0.318 285.1802 827.9153)" fill="#678073" width="1.4" height="6.2"/>
						</g>
					</g>
					<g>
						<g>
							
								<rect x="454" y="350.8" transform="matrix(-0.318 -0.9481 0.9481 -0.318 263.6382 897.5522)" fill="#678073" width="1.4" height="6.2"/>
						</g>
						<g>
							
								<rect x="446.7" y="329.1" transform="matrix(-0.318 -0.9481 0.9481 -0.318 274.6512 861.9515)" fill="#678073" width="1.4" height="6.2"/>
						</g>
						<g>
							
								<rect x="450.5" y="340.6" transform="matrix(-0.318 -0.9481 0.9481 -0.318 268.8398 880.7374)" fill="#678073" width="1.4" height="6.2"/>
						</g>
					</g>
				</g>
			</g>
		</g>
		<g>
			<path opacity="0.19" fill="#231F20" d="M368.4,82.5l116.6,352c0,0.1,0.1,0.1,0.2,0.1c1-0.2,7.5-2.1,11.4-13c0,0,0,0,0-0.1V159.5
				c0-0.1,0-0.1-0.1-0.1c-65.2-39.5-123-74-127.9-77C368.5,82.3,368.3,82.4,368.4,82.5z"/>
		</g>
	</g>
</g>
<g>
</g>
<g>
</g>
<g>
</g>
<g>
</g>
<g>
</g>
<g>
</g>
<g>
</g>
<g>
</g>
<g>
</g>
<g>
</g>
<g>
</g>
<g>
</g>
<g>
</g>
<g>
</g>
<g>
</g>
</svg>
