<?xml version="1.0" encoding="iso-8859-1"?>
<!-- Generator: Adobe Illustrator 18.0.0, SVG Export Plug-In . SVG Version: 6.00 Build 0)  -->
<!DOCTYPE svg PUBLIC "-//W3C//DTD SVG 1.1//EN" "http://www.w3.org/Graphics/SVG/1.1/DTD/svg11.dtd">
<svg version="1.1" xmlns="http://www.w3.org/2000/svg" xmlns:xlink="http://www.w3.org/1999/xlink" x="0px" y="0px"
	 viewBox="0 0 518.847 562.67" style="enable-background:new 0 0 518.847 562.67;" xml:space="preserve">
<g id="_x23_pen-ink">
	<g>
		<defs>
			<circle id="SVGID_1_" cx="262.847" cy="306.665" r="256"/>
		</defs>
		<clipPath id="SVGID_2_">
			<use xlink:href="#SVGID_1_"  style="overflow:visible;"/>
		</clipPath>
		<circle style="clip-path:url(#SVGID_2_);fill:#DB605A;" cx="262.847" cy="306.665" r="256"/>
		<path style="clip-path:url(#SVGID_2_);fill:#26424B;" d="M33.054,242.919h273.609c11.074,0,20.134-9.06,20.134-20.134v0
			c0-11.074-9.06-20.134-20.134-20.134H33.054c-11.074,0-20.134,9.06-20.134,20.134v0C12.92,233.859,21.981,242.919,33.054,242.919z
			"/>
		<path style="clip-path:url(#SVGID_2_);fill:#26424B;" d="M136.663,220.269c22.13,0,44.261,0,66.391,0
			c54.546,0,116.641,58.022,135.388,129.643c5.837,22.301-7.205,150.553-63.261,150.553c-70.215,0-140.43,0-210.645,0
			C8.48,500.466-4.562,372.214,1.276,349.912C20.021,278.292,82.117,220.267,136.663,220.269z"/>
		<polygon style="opacity:0.22;clip-path:url(#SVGID_2_);" points="26.098,294.859 313.265,294.308 289.591,265.012 50.281,263.75 
					"/>
		<rect x="43.183" y="316.636" style="clip-path:url(#SVGID_2_);fill:#EAEBE1;" width="253.35" height="117.267"/>
		<path style="clip-path:url(#SVGID_2_);fill:#26424B;" d="M33.054,267.815h273.609c11.074,0,20.134-9.06,20.134-20.134v0
			c0-11.074-9.06-20.134-20.134-20.134H33.054c-11.074,0-20.134,9.06-20.134,20.134v0C12.92,258.755,21.981,267.815,33.054,267.815z
			"/>
		<g style="clip-path:url(#SVGID_2_);">
			<path style="fill:#E8B750;" d="M116.307,347.882h13.167v56h-13.167V347.882z"/>
			<path style="fill:#E8B750;" d="M137.342,347.882h13.287l6.383,17.745c1.9,5.271,3.358,9.834,4.376,13.688h0.682l-0.321-9.474
				v-21.959h12.525v56h-13.247l-6.383-17.743c-1.901-5.273-3.359-9.849-4.376-13.729h-0.723l0.321,9.474v21.998h-12.525V347.882z"/>
			<path style="fill:#E8B750;" d="M181.7,347.882h13.047v20.193l9.875-20.193h12.927l-10.903,19.08l12.608,36.92h-14.637
				l-6.353-22.293l-3.518,6.156v16.138H181.7V347.882z"/>
		</g>
		<rect x="400.737" y="358.975" style="clip-path:url(#SVGID_2_);fill:#EAEBE1;" width="9.942" height="45.055"/>
		<path style="clip-path:url(#SVGID_2_);fill:#E8B750;" d="M403.127,372.014c-18.429-27.81-25.513-73.152-14.639-106.174
			c6.624-20.118,11.834-37.983,8.291-59.932c-1.659-10.281-4.88-20.009-7.743-29.855c-3.06-10.523-5.038-21.046-6.379-32.063
			c-2.55-20.948-4.968-41.465-2.743-62.647c2.084-19.834,6.307-39.555,12.858-57.935c2.581-7.241,5.498-14.38,9.032-21.02
			c1.446-2.717,1.748-2.376,4.34-2.376c2.906,0,3.37,2.436,4.834,5.423c7.958,16.237,13.281,34.393,16.842,52.702
			c2.637,13.363,4.413,27.161,4.552,40.913c0.152,15.102-1.987,30.048-3.8,44.939c-1.895,15.566-5.812,29.703-10.068,44.514
			c-4.088,14.225-6.659,29.304-4.851,44.385c1.701,14.183,7.589,26.641,11.269,40.086c3.914,14.298,3.471,28.808,1.522,43.506
			c-1.814,13.675-5.143,27.107-10.219,39.547c-1.936,4.714-4.1,9.321-6.635,13.609C407.726,372.789,406.224,372.014,403.127,372.014
			z"/>
		<path style="clip-path:url(#SVGID_2_);fill:#EAEBE1;" d="M387.805,419.244c0,17.614,17.903,47.84,17.903,47.84
			s17.903-30.226,17.903-47.84s-17.903-44.16-17.903-44.16S387.805,401.63,387.805,419.244z"/>
		<path style="clip-path:url(#SVGID_2_);fill:#D1D1CF;" d="M401.494,416.104c0,6.988,4.214,18.98,4.214,18.98
			s4.214-11.992,4.214-18.98c0-6.988-4.214-17.52-4.214-17.52S401.494,409.116,401.494,416.104z"/>
		<g style="opacity:0.4;clip-path:url(#SVGID_2_);">
			<path style="opacity:0.3;fill:#0D0B10;" d="M428.572,143.991c1.813-14.892,3.952-29.837,3.8-44.939
				c-0.138-13.752-1.915-27.55-4.552-40.913c-3.561-18.309-8.884-36.465-16.842-52.702c-1.464-2.987-1.928-5.423-4.834-5.423
				c-0.083,0-0.158-0.001-0.236-0.002v466.732c1.954-3.363,17.704-30.979,17.704-47.5c0-11.503-7.634-26.811-12.932-36.051v-15.5
				c2.067-3.727,3.896-7.65,5.545-11.663c5.076-12.44,8.405-25.872,10.219-39.547c1.95-14.698,2.392-29.208-1.522-43.506
				c-3.68-13.445-9.568-25.903-11.269-40.086c-1.808-15.081,0.764-30.16,4.851-44.385
				C422.76,173.694,426.677,159.557,428.572,143.991z"/>
		</g>
		<g style="opacity:0.09;clip-path:url(#SVGID_2_);">
			<path style="fill:#FFFFFF;" d="M306.663,202.651H33.054c-11.074,0-20.134,9.06-20.134,20.134c0,4.693,1.64,9.014,4.358,12.448
				c-2.718,3.433-4.358,7.755-4.358,12.448c0,11.073,9.06,20.134,20.134,20.134H46.17c-20.375,22.354-36.739,50.937-44.894,82.096
				c-4.361,16.66,1.818,92.438,28.59,129.714L306.831,202.66C306.775,202.659,306.72,202.651,306.663,202.651z"/>
		</g>
		<g style="opacity:0.22;clip-path:url(#SVGID_2_);">
			<rect x="19.907" y="233.584" width="302.5" height="2"/>
		</g>
	</g>
</g>
<g id="Livello_1">
</g>
</svg>
