<?xml version="1.0" encoding="iso-8859-1"?>
<!-- Generator: Adobe Illustrator 18.0.0, SVG Export Plug-In . SVG Version: 6.00 Build 0)  -->
<!DOCTYPE svg PUBLIC "-//W3C//DTD SVG 1.1//EN" "http://www.w3.org/Graphics/SVG/1.1/DTD/svg11.dtd">
<svg version="1.1" xmlns="http://www.w3.org/2000/svg" xmlns:xlink="http://www.w3.org/1999/xlink" x="0px" y="0px"
	 viewBox="0 0 579.039 630.962" style="enable-background:new 0 0 579.039 630.962;" xml:space="preserve">
<g id="_x23_plant">
	<g>
		<circle style="fill:#26424B;" cx="256" cy="256.005" r="256"/>
	</g>
	<g>
		<g>
			<defs>
				<circle id="SVGID_1_" cx="256" cy="256.005" r="256"/>
			</defs>
			<clipPath id="SVGID_2_">
				<use xlink:href="#SVGID_1_"  style="overflow:visible;"/>
			</clipPath>
			<polygon style="opacity:0.22;clip-path:url(#SVGID_2_);" points="457.545,572.502 137.703,150.621 241.421,37.609 
				579.039,344.513 			"/>
			<path style="clip-path:url(#SVGID_2_);fill:#DB605A;" d="M356.469,630.962H155.531c-28.036,0-50.764-22.728-50.764-50.764
				V382.603c0-28.036,22.728-50.764,50.764-50.764h200.937c28.036,0,50.764,22.728,50.764,50.764v197.595
				C407.232,608.234,384.505,630.962,356.469,630.962z"/>
			<ellipse style="opacity:0.2;clip-path:url(#SVGID_2_);fill:#231F20;" cx="256" cy="448.815" rx="151.232" ry="44.284"/>
			<g style="clip-path:url(#SVGID_2_);">
				<ellipse style="fill:#DB605A;" cx="256" cy="369.856" rx="175.463" ry="63.919"/>
				<ellipse style="fill:#DB605A;" cx="256" cy="370.85" rx="175.463" ry="63.919"/>
				<ellipse style="fill:#DB605A;" cx="256" cy="371.844" rx="175.463" ry="63.919"/>
				<ellipse style="fill:#DB605A;" cx="256" cy="372.837" rx="175.463" ry="63.919"/>
				<ellipse style="fill:#DB605A;" cx="256" cy="373.831" rx="175.463" ry="63.919"/>
				<ellipse style="fill:#DB605A;" cx="256" cy="374.824" rx="175.463" ry="63.919"/>
				<ellipse style="fill:#DB605A;" cx="256" cy="375.818" rx="175.463" ry="63.919"/>
				<ellipse style="fill:#DB605A;" cx="256" cy="376.812" rx="175.463" ry="63.919"/>
				<ellipse style="fill:#DB605A;" cx="256" cy="377.805" rx="175.463" ry="63.919"/>
				<ellipse style="fill:#DB605A;" cx="256" cy="378.799" rx="175.463" ry="63.919"/>
				<ellipse style="fill:#DB605A;" cx="256" cy="379.793" rx="175.463" ry="63.919"/>
				<ellipse style="fill:#DB605A;" cx="256" cy="380.786" rx="175.463" ry="63.919"/>
				<ellipse style="fill:#DB605A;" cx="256" cy="381.78" rx="175.463" ry="63.919"/>
				<ellipse style="fill:#DB605A;" cx="256" cy="382.773" rx="175.463" ry="63.919"/>
				<ellipse style="fill:#DB605A;" cx="256" cy="383.767" rx="175.463" ry="63.919"/>
				<ellipse style="fill:#DB605A;" cx="256" cy="384.761" rx="175.463" ry="63.919"/>
				<ellipse style="fill:#DB605A;" cx="256" cy="385.754" rx="175.463" ry="63.919"/>
				<ellipse style="fill:#DB605A;" cx="256" cy="386.748" rx="175.463" ry="63.919"/>
				<ellipse style="fill:#DB605A;" cx="256" cy="387.741" rx="175.463" ry="63.919"/>
				<ellipse style="fill:#DB605A;" cx="256" cy="388.735" rx="175.463" ry="63.919"/>
				<ellipse style="fill:#DB605A;" cx="256" cy="389.729" rx="175.463" ry="63.919"/>
				<ellipse style="fill:#DB605A;" cx="256" cy="390.722" rx="175.463" ry="63.919"/>
				<ellipse style="fill:#DB605A;" cx="256" cy="391.716" rx="175.463" ry="63.919"/>
				<ellipse style="fill:#DB605A;" cx="256" cy="392.71" rx="175.463" ry="63.919"/>
				<ellipse style="fill:#DB605A;" cx="256" cy="393.703" rx="175.463" ry="63.919"/>
				<ellipse style="fill:#DB605A;" cx="256" cy="394.697" rx="175.463" ry="63.919"/>
				<ellipse style="fill:#DB605A;" cx="256" cy="395.69" rx="175.463" ry="63.919"/>
				<ellipse style="fill:#DB605A;" cx="256" cy="396.684" rx="175.463" ry="63.919"/>
				<ellipse style="fill:#DB605A;" cx="256" cy="397.678" rx="175.463" ry="63.919"/>
				<ellipse style="fill:#DB605A;" cx="256" cy="398.671" rx="175.463" ry="63.919"/>
				<ellipse style="fill:#DB605A;" cx="256" cy="399.665" rx="175.463" ry="63.919"/>
				<ellipse style="fill:#DB605A;" cx="256" cy="400.658" rx="175.463" ry="63.919"/>
				<ellipse style="fill:#DB605A;" cx="256" cy="401.652" rx="175.463" ry="63.919"/>
				<ellipse style="fill:#DB605A;" cx="256" cy="402.646" rx="175.463" ry="63.919"/>
				<ellipse style="fill:#DB605A;" cx="256" cy="403.639" rx="175.463" ry="63.919"/>
				<ellipse style="fill:#DB605A;" cx="256" cy="404.633" rx="175.463" ry="63.919"/>
				<ellipse style="fill:#DB605A;" cx="256" cy="405.626" rx="175.463" ry="63.919"/>
				<ellipse style="fill:#DB605A;" cx="256" cy="406.62" rx="175.463" ry="63.919"/>
			</g>
			<ellipse style="clip-path:url(#SVGID_2_);fill:#A44844;" cx="251.577" cy="366.932" rx="137.618" ry="44.284"/>
			<path style="opacity:0.2;clip-path:url(#SVGID_2_);fill:#231F20;" d="M141.868,393.671c0,0,97.966-36.006,222.344-1.293
				C364.212,392.378,278.921,431.272,141.868,393.671z"/>
			
				<line style="clip-path:url(#SVGID_2_);fill:#78C1B0;stroke:#78C1B0;stroke-width:21;stroke-miterlimit:10;" x1="251.577" y1="409.127" x2="247.956" y2="168.91"/>
			<g style="clip-path:url(#SVGID_2_);">
				<path style="fill:#78C1B0;" d="M218.087,262.462c18.957,16.028,17.428,73.596,17.428,73.596s-56.512,11.083-75.469-4.945
					s-19.342-75.214-19.342-75.214S199.13,246.434,218.087,262.462z"/>
				<path style="opacity:0.3;fill:#231F20;" d="M140.703,255.899c0,0,58.426-9.464,77.384,6.563s17.428,73.596,17.428,73.596"/>
			</g>
			<g style="clip-path:url(#SVGID_2_);">
				<path style="fill:#78C1B0;" d="M215.087,157.184c18.957,16.028,17.428,73.596,17.428,73.596s-56.512,11.083-75.469-4.945
					s-19.342-75.214-19.342-75.214S196.13,141.156,215.087,157.184z"/>
				<path style="opacity:0.3;fill:#231F20;" d="M137.703,150.621c0,0,58.426-9.465,77.384,6.563s17.428,73.596,17.428,73.596"/>
			</g>
			<g style="clip-path:url(#SVGID_2_);">
				<path style="fill:#78C1B0;" d="M283.478,262.328c-18.957,16.028-17.428,73.596-17.428,73.596s56.512,11.083,75.469-4.945
					s19.342-75.214,19.342-75.214S302.436,246.3,283.478,262.328z"/>
				<path style="opacity:0.3;fill:#231F20;" d="M360.952,255.538c0,0-0.155,57.513-18.821,73.879
					c-18.666,16.366-75.368,6.302-75.368,6.302"/>
			</g>
			<g style="clip-path:url(#SVGID_2_);">
				<path style="fill:#78C1B0;" d="M283.478,157.05c-18.957,16.028-17.428,73.596-17.428,73.596s56.512,11.083,75.469-4.945
					s19.342-75.214,19.342-75.214S302.436,141.023,283.478,157.05z"/>
				<path style="opacity:0.3;fill:#231F20;" d="M360.862,150.487c0,0-0.707,60.479-20.187,75.868s-74.625,4.292-74.625,4.292"/>
			</g>
			<g style="clip-path:url(#SVGID_2_);">
				<path style="fill:#78C1B0;" d="M289.11,98.904c1.091,24.801-42.233,62.741-42.233,62.741s-46.488-33.99-47.579-58.791
					s42.123-65.245,42.123-65.245S288.019,74.103,289.11,98.904z"/>
				<path style="opacity:0.3;fill:#231F20;" d="M241.421,37.609c0,0,46.598,36.494,47.689,61.295s-42.233,62.741-42.233,62.741"/>
			</g>
		</g>
		<path style="fill:#FFFFFF;" d="M265.504,198.778c12.335,83.49-43.902,82.458-28.513-0.523
			c-83.49,12.335-82.458-43.902,0.523-28.513c-12.335-83.49,43.902-82.458,28.513,0.523
			C349.517,157.929,348.485,214.167,265.504,198.778z"/>
		<path style="fill:#EAEBE1;stroke:#FFFFFF;stroke-miterlimit:10;" d="M267.689,184.312c54.971,39.543,22.957,71.352-16.232,16.127
			c-39.543,54.971-71.352,22.957-16.127-16.232c-54.971-39.542-22.957-71.352,16.232-16.127
			C291.104,113.109,322.913,145.123,267.689,184.312z"/>
		<circle style="fill:#E8B750;" cx="251.931" cy="182.726" r="15.587"/>
	</g>
</g>
<g id="Livello_1">
</g>
</svg>
