<?xml version="1.0" encoding="utf-8"?>
<!-- Generator: Adobe Illustrator 18.1.0, SVG Export Plug-In . SVG Version: 6.00 Build 0)  -->
<!DOCTYPE svg PUBLIC "-//W3C//DTD SVG 1.1//EN" "http://www.w3.org/Graphics/SVG/1.1/DTD/svg11.dtd">
<svg version="1.1" id="Livello_1" xmlns="http://www.w3.org/2000/svg" xmlns:xlink="http://www.w3.org/1999/xlink" x="0px" y="0px"
	 viewBox="0 0 513.1 512" enable-background="new 0 0 513.1 512" xml:space="preserve">
<circle fill="#E8B750" cx="256" cy="256" r="256"/>
<polygon fill="#D19B65" points="419.9,452.6 105.2,456.6 70.5,427.6 449.2,423 "/>
<path fill="#D99748" d="M2,249.6c0,0,1.2,108.2,67.9,178.1h375.3c42.1-46.8,67.9-109.3,67.9-178.1c0-34.8-9.9-67.9-21.9-98.3
	L15.6,175C3.8,211.4,2,249.6,2,249.6z"/>
<path opacity="0.2" fill="#231F20" d="M224.2,193.4l281.1,122c0,0-5.5,24.6-22.7,60.1c-2.9,6-390.5-167.2-390.5-167.2L224.2,193.4z"
	/>
<g>
	<polygon fill="#F8F8F8" points="90.3,124.2 92.6,207.6 177.6,222 181.7,135.8 	"/>
	<polygon fill="#E1E2E0" points="181.7,135.8 230.6,111.5 223.7,193.7 177.6,222 	"/>
	<polygon fill="#F8F8F8" points="90.3,124.2 132.7,102.6 230.6,111.5 181.7,135.8 	"/>
	<circle fill="#26424B" cx="134.9" cy="170" r="10.3"/>
	<ellipse fill="#26424B" cx="194.7" cy="150.9" rx="4.3" ry="8.8"/>
	<ellipse fill="#26424B" cx="216.3" cy="142.3" rx="4.3" ry="8.8"/>
	
		<ellipse transform="matrix(0.9994 3.327465e-02 -3.327465e-02 0.9994 6.2551 -6.3704)" fill="#26424B" cx="194.5" cy="184.7" rx="4.3" ry="8.8"/>
	
		<ellipse transform="matrix(0.9994 3.327465e-02 -3.327465e-02 0.9994 6.0039 -7.1053)" fill="#26424B" cx="216.5" cy="176.8" rx="4.3" ry="8.8"/>
	<ellipse fill="#26424B" cx="135" cy="116" rx="6.6" ry="3.6"/>
	<ellipse fill="#26424B" cx="157.2" cy="118.4" rx="6.6" ry="3.6"/>
	<ellipse fill="#26424B" cx="180.9" cy="121" rx="6.6" ry="3.6"/>
</g>
<polygon opacity="0.2" fill="#231F20" points="362.4,331.3 475.3,388.1 459.9,411.2 438.3,435.7 231.3,345.2 "/>
<g>
	<polygon fill="#F8F8F8" points="229,261.8 231.3,345.2 316.2,359.6 320.3,273.4 	"/>
	<polygon fill="#E1E2E0" points="320.3,273.4 369.3,249.1 362.4,331.3 316.2,359.6 	"/>
	<polygon fill="#F8F8F8" points="229,261.8 271.4,240.2 369.3,249.1 320.3,273.4 	"/>
	<circle fill="#26424B" cx="248.5" cy="281.1" r="8"/>
	<circle fill="#26424B" cx="273.1" cy="285.8" r="8"/>
	<circle fill="#26424B" cx="299.2" cy="290.2" r="8"/>
	<circle fill="#26424B" cx="247.7" cy="318.6" r="8"/>
	<circle fill="#26424B" cx="272.3" cy="323.4" r="8"/>
	<circle fill="#26424B" cx="298.4" cy="327.7" r="8"/>
	<ellipse fill="#26424B" cx="355" cy="279.9" rx="4.3" ry="8.8"/>
	
		<ellipse transform="matrix(0.9994 3.327465e-02 -3.327465e-02 0.9994 10.9102 -10.9083)" fill="#26424B" cx="333.2" cy="322.3" rx="4.3" ry="8.8"/>
	<ellipse fill="#26424B" cx="295.8" cy="256" rx="6.6" ry="3.6"/>
</g>
<g>
</g>
<g>
</g>
<g>
</g>
<g>
</g>
<g>
</g>
<g>
</g>
<g>
</g>
<g>
</g>
<g>
</g>
<g>
</g>
<g>
</g>
<g>
</g>
<g>
</g>
<g>
</g>
<g>
</g>
</svg>
