<?xml version="1.0" encoding="iso-8859-1"?>
<!-- Generator: Adobe Illustrator 18.0.0, SVG Export Plug-In . SVG Version: 6.00 Build 0)  -->
<!DOCTYPE svg PUBLIC "-//W3C//DTD SVG 1.1//EN" "http://www.w3.org/Graphics/SVG/1.1/DTD/svg11.dtd">
<svg version="1.1" xmlns="http://www.w3.org/2000/svg" xmlns:xlink="http://www.w3.org/1999/xlink" x="0px" y="0px"
	 viewBox="0 0 595.429 595.482" style="enable-background:new 0 0 595.429 595.482;" xml:space="preserve">
<g id="_x23_search-document">
	<g>
		<g>
			<circle style="fill:#26424B;" cx="256" cy="256.001" r="256"/>
		</g>
		<g>
			<defs>
				<circle id="SVGID_1_" cx="256.429" cy="256.482" r="256"/>
			</defs>
			<clipPath id="SVGID_2_">
				<use xlink:href="#SVGID_1_"  style="overflow:visible;"/>
			</clipPath>
			<circle style="clip-path:url(#SVGID_2_);fill:#26424B;" cx="256.429" cy="256.482" r="256"/>
			<polygon style="opacity:0.29;clip-path:url(#SVGID_2_);" points="396.211,107.832 595.429,346.482 241.429,595.482 
				57.429,417.482 256.429,95.482 			"/>
			<g style="clip-path:url(#SVGID_2_);">
				<g>
					<g>
						<polygon style="fill:#FFFFFF;" points="262.114,169.482 57.648,169.482 57.648,468.482 293.648,468.482 293.648,199.9 						
							"/>
					</g>
					<polygon style="fill:#EAEBE1;" points="293.827,199.9 262.076,199.955 262.114,168.273 					"/>
				</g>
				<rect x="74.559" y="211.67" style="fill:#77B4BE;" width="201.108" height="81.083"/>
				<g>
					<rect x="74.648" y="325.482" style="fill:#26424B;" width="201" height="4"/>
				</g>
				<g>
					<rect x="74.648" y="346.482" style="fill:#26424B;" width="201" height="3"/>
				</g>
				<g>
					<rect x="74.648" y="366.482" style="fill:#26424B;" width="201" height="4"/>
				</g>
				<g>
					<rect x="74.648" y="387.482" style="fill:#26424B;" width="201" height="3"/>
				</g>
				<g>
					<rect x="74.648" y="407.482" style="fill:#26424B;" width="201" height="4"/>
				</g>
				<rect x="233.3" y="386.601" style="fill:#DB605A;" width="42.255" height="50.046"/>
			</g>
			<g style="clip-path:url(#SVGID_2_);">
				
					<rect x="369.362" y="267.856" transform="matrix(0.8503 -0.5263 0.5263 0.8503 -103.9467 246.6223)" style="fill:#EAEBE1;" width="24.442" height="76.381"/>
				<path style="fill:#E8B750;" d="M243.588,83.079c-55.374,34.271-72.482,106.943-38.211,162.318
					c34.271,55.374,106.943,72.482,162.318,38.211s72.482-106.943,38.211-162.318S298.962,48.808,243.588,83.079z M349.665,254.475
					c-39.222,24.275-90.881,12.114-115.155-27.108s-12.114-90.881,27.108-115.155c39.223-24.275,90.881-12.114,115.155,27.108
					S388.887,230.2,349.665,254.475z"/>
				<path style="fill:#EAEBE1;" d="M465.997,436.946l-4.917,3.043c-9.12,5.644-21.199,2.801-26.843-6.319l-58.818-95.037
					c-5.644-9.12-2.801-21.199,6.319-26.843l4.917-3.043c9.12-5.644,21.199-2.801,26.843,6.319l58.818,95.037
					C477.96,419.223,475.117,431.302,465.997,436.946z"/>
			</g>
		</g>
		<g>
			<defs>
				<circle id="SVGID_3_" cx="304.352" cy="184.22" r="83.392"/>
			</defs>
			<clipPath id="SVGID_4_">
				<use xlink:href="#SVGID_3_"  style="overflow:visible;"/>
			</clipPath>
			<g style="clip-path:url(#SVGID_4_);">
				<g>
					<g>
						<polygon style="fill:#FFFFFF;" points="302.09,121.482 4.648,121.482 4.648,561.482 350.648,561.482 350.648,167.015 						
							"/>
					</g>
					<polygon style="fill:#EAEBE1;" points="350.835,167.015 302.035,167.096 302.09,120.918 					"/>
				</g>
				<rect x="27.185" y="184.266" style="fill:#77B4BE;" width="294.771" height="118.846"/>
				<g>
					<rect x="28.648" y="351.482" style="fill:#26424B;" width="293" height="5"/>
				</g>
				<g>
					<rect x="28.648" y="381.482" style="fill:#26424B;" width="293" height="4"/>
				</g>
				<g>
					<rect x="28.648" y="412.482" style="fill:#26424B;" width="293" height="4"/>
				</g>
				<g>
					<rect x="28.648" y="442.482" style="fill:#26424B;" width="293" height="4"/>
				</g>
				<g>
					<rect x="28.648" y="469.482" style="fill:#26424B;" width="293" height="6"/>
				</g>
				<rect x="259.856" y="440.669" style="fill:#DB605A;" width="61.934" height="73.354"/>
			</g>
		</g>
		<g style="opacity:0.19;">
			<circle style="fill:#00A8D5;" cx="305.5" cy="183.348" r="83.554"/>
		</g>
		<g style="opacity:0.43;">
			<path style="fill:#FFFFFF;" d="M250.019,120.873c34.505-30.641,87.316-27.509,117.957,6.995s27.509,87.315-6.996,117.957"/>
		</g>
	</g>
</g>
<g id="Livello_1">
</g>
</svg>
