<?xml version="1.0" encoding="iso-8859-1"?>
<!-- Generator: Adobe Illustrator 18.0.0, SVG Export Plug-In . SVG Version: 6.00 Build 0)  -->
<!DOCTYPE svg PUBLIC "-//W3C//DTD SVG 1.1//EN" "http://www.w3.org/Graphics/SVG/1.1/DTD/svg11.dtd">
<svg version="1.1" xmlns="http://www.w3.org/2000/svg" xmlns:xlink="http://www.w3.org/1999/xlink" x="0px" y="0px"
	 viewBox="0 0 718.571 512.009" style="enable-background:new 0 0 718.571 512.009;" xml:space="preserve">
<g id="_x23_sofa">
	<g>
		<defs>
			<circle id="SVGID_1_" cx="354.33" cy="256.005" r="256"/>
		</defs>
		<clipPath id="SVGID_2_">
			<use xlink:href="#SVGID_1_"  style="overflow:visible;"/>
		</clipPath>
		<g style="clip-path:url(#SVGID_2_);">
			<circle style="fill:#E8B750;" cx="354.33" cy="256.005" r="256"/>
		</g>
		<rect x="578.913" y="309.129" style="clip-path:url(#SVGID_2_);fill:#660000;" width="22.417" height="59"/>
		<polygon style="opacity:0.22;clip-path:url(#SVGID_2_);" points="574.571,505.588 313.062,402.174 346.833,402.174 
			639.238,492.921 		"/>
		<polygon style="opacity:0.22;clip-path:url(#SVGID_2_);" points="676.571,488.254 400.395,403.508 422.786,403.629 
			718.571,466.921 		"/>
		<rect x="442.663" y="309.129" style="clip-path:url(#SVGID_2_);fill:#660000;" width="23.802" height="59"/>
		<g style="clip-path:url(#SVGID_2_);">
			<g>
				<rect x="24.395" y="373.874" style="fill:#660000;" width="33.771" height="28.301"/>
				<rect x="313.062" y="373.874" style="fill:#660000;" width="33.771" height="28.301"/>
				<path style="fill:#DB605A;" d="M336.626,377.046H33.374C15.018,377.046,0,362.027,0,343.672v-42.043
					c0-18.355,15.018-33.374,33.374-33.374h303.253c18.355,0,33.374,15.018,33.374,33.374v42.043
					C370,362.027,354.982,377.046,336.626,377.046z"/>
				<path style="fill:#DB605A;" d="M247.562,331.215H122.438C75.997,331.215,38,293.218,38,246.777v-30.165
					c0-46.441,37.997-84.438,84.438-84.438h125.125c46.441,0,84.438,37.997,84.438,84.438v30.165
					C332,293.218,294.003,331.215,247.562,331.215z"/>
			</g>
			<polygon style="opacity:0.22;" points="340.5,323.174 29.5,323.174 50.5,295.841 320.5,295.508 			"/>
			<g>
				<path style="fill:#A44844;" d="M2.045,270.733l6.997-8.918c0.531-0.885,1.166-1.701,1.899-2.421l0.006-0.007l0.001,0.002
					c2.167-2.122,5.126-3.439,8.381-3.439h43.218c6.6,0,12,5.4,12,12v35.688c0,1.97-0.49,3.828-1.34,5.473h0.003l-0.008,0.009
					c-0.89,1.718-2.181,3.193-3.75,4.305l-6.178,7.094l-3.219-4.881H19.328c-6.6,0-12-5.4-12-12v-32.35L2.045,270.733z"/>
				<path style="fill:#DB605A;" d="M12,324.174h42.547c6.6,0,12-5.4,12-12v-34.762c0-6.6-5.4-12-12-12H12c-6.6,0-12,5.4-12,12
					l0,34.762C0,318.774,5.4,324.174,12,324.174z"/>
			</g>
			<g>
				<path style="fill:#A44844;" d="M368.176,270.433l-6.997-8.918c-0.531-0.885-1.166-1.701-1.899-2.421l-0.006-0.007l-0.001,0.002
					c-2.167-2.122-5.126-3.439-8.381-3.439h-43.218c-6.6,0-12,5.4-12,12v35.688c0,1.97,0.49,3.828,1.34,5.473h-0.003l0.008,0.009
					c0.89,1.718,2.181,3.193,3.75,4.305l6.178,7.094l3.219-4.881h40.727c6.6,0,12-5.4,12-12v-32.35L368.176,270.433z"/>
				<path style="fill:#DB605A;" d="M358.221,323.874h-42.547c-6.6,0-12-5.4-12-12v-34.762c0-6.6,5.4-12,12-12h42.547
					c6.6,0,12,5.4,12,12v34.762C370.221,318.474,364.821,323.874,358.221,323.874z"/>
			</g>
		</g>
		<polygon style="clip-path:url(#SVGID_2_);fill:#A4674D;" points="563.036,335.285 395.997,335.285 443.291,297.346 
			610.33,297.346 		"/>
		<rect x="395.997" y="335.285" style="clip-path:url(#SVGID_2_);fill:#660000;" width="166.864" height="12.344"/>
		<polygon style="clip-path:url(#SVGID_2_);fill:#660000;" points="610.33,309.69 562.861,347.629 562.861,335.285 610.33,297.346 
					"/>
		<rect x="400.33" y="344.629" style="clip-path:url(#SVGID_2_);fill:#660000;" width="22.456" height="59"/>
		<polygon style="opacity:0.22;clip-path:url(#SVGID_2_);" points="570.997,401.254 442.759,367.841 466.149,367.962 
			582.323,386.73 		"/>
		<g style="clip-path:url(#SVGID_2_);">
			<path style="fill:#77B4BE;" d="M491.444,269.841h-35.152h-1.89v32.495c0,5.342,4.33,9.672,9.672,9.672h19.588
				c5.342,0,9.672-4.33,9.672-9.672v-32.495H491.444z"/>
		</g>
		<rect x="540.406" y="344.629" style="clip-path:url(#SVGID_2_);fill:#660000;" width="22.456" height="59"/>
		<path style="opacity:0.51;clip-path:url(#SVGID_2_);fill:#FFFFFF;" d="M458.302,298.706c0,4.703,3.812,8.515,8.515,8.515h13.917
			c4.703,0,8.515-3.812,8.515-8.515v-25.393h-30.947V298.706z"/>
		<circle style="opacity:0.51;clip-path:url(#SVGID_2_);fill:#FFFFFF;" cx="481.429" cy="260.616" r="4.956"/>
		<circle style="opacity:0.51;clip-path:url(#SVGID_2_);fill:#FFFFFF;" cx="466.466" cy="250.921" r="3.771"/>
		<circle style="opacity:0.51;clip-path:url(#SVGID_2_);fill:#FFFFFF;" cx="479.791" cy="242.741" r="2.808"/>
		<polygon style="opacity:0.22;clip-path:url(#SVGID_2_);" points="540.406,403.629 593.238,416.588 600.571,406.254 
			562.861,403.629 		"/>
		<polygon style="opacity:0.22;clip-path:url(#SVGID_2_);" points="578.913,368.129 597.571,376.588 613.238,368.921 		"/>
	</g>
</g>
<g id="Livello_1">
</g>
</svg>
