<?xml version="1.0" encoding="utf-8"?>
<!-- Generator: Adobe Illustrator 18.1.0, SVG Export Plug-In . SVG Version: 6.00 Build 0)  -->
<!DOCTYPE svg PUBLIC "-//W3C//DTD SVG 1.1//EN" "http://www.w3.org/Graphics/SVG/1.1/DTD/svg11.dtd">
<svg version="1.1" id="Livello_1" xmlns="http://www.w3.org/2000/svg" xmlns:xlink="http://www.w3.org/1999/xlink" x="0px" y="0px"
	 viewBox="0 0 544.5 601.4" enable-background="new 0 0 544.5 601.4" xml:space="preserve">
<path fill="#26424B" d="M544.5,345.4c0,141.4-114.6,256-256,256s-256-114.6-256-256c0-149.6,114.6-256,256-256
	S544.5,204,544.5,345.4z"/>
<g>
	<path fill="#E0DFDE" d="M55.7,142.7l5.8,104.4l61.5,9.3v59.1c0,0,52.2,17.4,52.2,13.9s0,47.5,0,47.5l41.7,10.4v45.2l39.4,13.5
		l-9.9,37.5l36.6,5.8l-9.4,38.3l42.5,16.2l-9.9,32.8l37.7,4l38.7-60.9l-276-386.3L55.7,142.7z"/>
	<path fill="#FFFFFF" d="M0,282.7"/>
	<polygon fill="#E8B750" points="85.9,168.9 85.9,220.9 148.5,231.9 148.5,296.2 200.6,303.2 192,348.8 238.9,354.6 238.9,405.4 
		282.4,414.1 273.7,455.9 322.4,466.3 308.5,515 346.7,527.7 344,580.7 481.2,530.3 487.6,496.4 437.5,489.4 438.3,456.9 
		401.2,446.1 409.7,407.1 373.4,395.9 374.2,342.1 341.7,335.6 344,284.2 312.7,274.5 316.2,204.9 272.6,192.8 277.5,135.4 	"/>
	<polygon fill="#F8F8F8" points="87,220.8 272.6,192.8 316.2,204.9 148.5,231.9 	"/>
	<polygon fill="#F8F8F8" points="148.8,296.5 312.7,274.5 344,284.2 200.6,303.2 	"/>
	<polygon fill="#F8F8F8" points="192,348.8 341.7,335.6 374.2,342.1 238.9,354.6 	"/>
	<polygon fill="#F8F8F8" points="238.9,405.3 373.4,395.9 409.7,407.1 282.4,414.1 	"/>
	<polygon fill="#F8F8F8" points="273.7,455.9 401.2,446.1 438.3,456.9 322.4,466.3 	"/>
	<polygon fill="#F8F8F8" points="308.5,515 437.5,489.4 487.6,496.4 346.7,527.7 	"/>
	<polygon fill="#F8F8F8" points="85.9,168.9 55.7,142.7 234.2,110.2 277.5,135.4 	"/>
	<polygon fill="#DB605A" points="132.3,128.8 161.7,155.6 208.9,147.4 180.4,120 	"/>
	<polygon fill="#C94F4F" points="132.3,128.8 136.1,83.7 102.8,85.9 148.8,0 192,80.7 166.6,82.3 180.4,120 	"/>
	<polygon fill="#C94F4F" points="161.7,155.6 166.6,208.8 215.7,201.4 208.9,147.4 	"/>
	<polygon fill="#DB605A" points="166.6,208.8 188.7,225.4 240.5,217.1 215.7,201.4 	"/>
	<polygon fill="#DB605A" points="199.4,288.8 238.9,298.1 286.7,292.1 251.6,282.7 	"/>
	<polygon fill="#DB605A" points="243.7,344.2 271.3,351.8 323.5,346.8 293.6,339.8 	"/>
	<polygon fill="#DB605A" points="277.5,402.6 306.3,412.8 348.1,410.5 327.6,398.3 	"/>
	<polygon fill="#DB605A" points="308.5,453.2 346.1,464.4 382.7,461.4 353.7,448.6 	"/>
	<polygon fill="#DB605A" points="348.4,507.1 385.9,519 425.1,510.3 389.1,499 	"/>
	<polygon fill="#C94F4F" points="188.7,225.4 199.4,288.8 251.6,282.7 240.5,217.1 	"/>
	<polygon fill="#C94F4F" points="238.9,298.1 243.7,344.2 293.6,339.8 286.7,292.1 	"/>
	<polygon fill="#C94F4F" points="271.3,351.8 277.5,402.6 327.6,398.3 323.5,346.8 	"/>
	<polygon fill="#C94F4F" points="306.3,412.8 308.5,453.2 353.7,448.6 348.1,410.5 	"/>
	<polygon fill="#C94F4F" points="346.1,464.4 348.4,507.1 389.1,499 382.7,461.4 	"/>
	<polygon fill="#C94F4F" points="385.9,519 389.1,564.1 432.5,548.2 425.1,510.3 385.9,519 	"/>
</g>
<g>
</g>
<g>
</g>
<g>
</g>
<g>
</g>
<g>
</g>
<g>
</g>
<g>
</g>
<g>
</g>
<g>
</g>
<g>
</g>
<g>
</g>
<g>
</g>
<g>
</g>
<g>
</g>
<g>
</g>
</svg>
