<?xml version="1.0" encoding="iso-8859-1"?>
<!-- Generator: Adobe Illustrator 18.0.0, SVG Export Plug-In . SVG Version: 6.00 Build 0)  -->
<!DOCTYPE svg PUBLIC "-//W3C//DTD SVG 1.1//EN" "http://www.w3.org/Graphics/SVG/1.1/DTD/svg11.dtd">
<svg version="1.1" xmlns="http://www.w3.org/2000/svg" xmlns:xlink="http://www.w3.org/1999/xlink" x="0px" y="0px"
	 viewBox="0 0 512 618.911" style="enable-background:new 0 0 512 618.911;" xml:space="preserve">
<g id="_x23_target">
	<g>
		<defs>
			<circle id="SVGID_1_" cx="256" cy="256.005" r="256"/>
		</defs>
		<clipPath id="SVGID_2_">
			<use xlink:href="#SVGID_1_"  style="overflow:visible;"/>
		</clipPath>
		<g style="clip-path:url(#SVGID_2_);">
			<defs>
				<circle id="SVGID_3_" cx="256" cy="256.005" r="256"/>
			</defs>
			<clipPath id="SVGID_4_">
				<use xlink:href="#SVGID_3_"  style="overflow:visible;"/>
			</clipPath>
			<g style="clip-path:url(#SVGID_4_);">
				<circle style="fill:#77B4BE;" cx="256" cy="256.005" r="256"/>
			</g>
		</g>
		
			<rect x="201.15" y="471.27" transform="matrix(0.9513 0.3084 -0.3084 0.9513 178.4708 -41.805)" style="clip-path:url(#SVGID_2_);fill:#26424B;" width="40.684" height="144.899"/>
		
			<rect x="279.15" y="471.27" transform="matrix(-0.9513 0.3084 -0.3084 -0.9513 752.0634 968.5787)" style="clip-path:url(#SVGID_2_);fill:#26424B;" width="40.684" height="144.899"/>
		<circle style="clip-path:url(#SVGID_2_);fill:#D1D1CF;" cx="253.54" cy="294.515" r="191.99"/>
		<circle style="clip-path:url(#SVGID_2_);fill:#EAEBE1;" cx="253.54" cy="286.515" r="191.99"/>
		<path style="clip-path:url(#SVGID_2_);fill:#DB605A;" d="M253.54,448.506c-89.321,0-161.99-72.669-161.99-161.991
			s72.669-161.99,161.99-161.99s161.99,72.668,161.99,161.99S342.862,448.506,253.54,448.506z"/>
		<path style="clip-path:url(#SVGID_2_);fill:#EAEBE1;" d="M253.54,408.506c-67.266,0-121.99-54.725-121.99-121.991
			c0-67.266,54.725-121.99,121.99-121.99s121.99,54.725,121.99,121.99C375.53,353.781,320.806,408.506,253.54,408.506z"/>
		<path style="clip-path:url(#SVGID_2_);fill:#DB605A;" d="M253.54,378.506c-50.724,0-91.99-41.267-91.99-91.991
			s41.267-91.99,91.99-91.99s91.99,41.267,91.99,91.99S304.264,378.506,253.54,378.506z"/>
		<path style="clip-path:url(#SVGID_2_);fill:#EAEBE1;" d="M253.54,348.506c-34.182,0-61.99-27.809-61.99-61.991
			s27.809-61.99,61.99-61.99s61.99,27.809,61.99,61.99S287.722,348.506,253.54,348.506z"/>
		<path style="clip-path:url(#SVGID_2_);fill:#DB605A;" d="M253.54,318.506c-17.64,0-31.99-14.351-31.99-31.991
			s14.351-31.99,31.99-31.99s31.99,14.351,31.99,31.99S271.18,318.506,253.54,318.506z"/>
		<g style="opacity:0.16;clip-path:url(#SVGID_2_);">
			<g>
				<polygon style="fill:#0D0B10;" points="252.107,287.725 256.418,281.479 340.967,363.754 338.95,372.356 				"/>
			</g>
			<g>
				<polygon style="fill:#0D0B10;" points="338.334,360.887 361.376,339.107 367.947,345.177 344.904,366.956 351.474,373.026 
					374.516,351.246 381.093,357.321 358.044,379.095 364.615,385.165 387.663,363.391 394.233,369.46 371.185,391.235 
					377.908,397.445 375.781,405.632 369.058,399.421 374.062,447.11 367.491,441.04 362.488,393.352 355.918,387.282 
					360.921,434.971 354.345,428.896 349.348,381.213 342.777,375.143 347.775,422.826 341.205,416.757 336.207,369.073 				"/>
			</g>
		</g>
		<g style="clip-path:url(#SVGID_2_);">
			<g>
				<polygon style="fill:#26424B;" points="254.167,290.902 251.141,282.128 375.477,214.12 380.276,222.894 				"/>
			</g>
			<g>
				<polygon style="fill:#26424B;" points="371.94,216.11 373.06,167.568 383.041,162.108 381.921,210.651 391.902,205.191 
					393.022,156.649 403.012,151.184 401.884,199.732 411.865,194.272 412.994,145.725 422.975,140.265 421.847,188.813 
					432.06,183.226 436.816,191.923 426.603,197.509 468.09,222.747 458.109,228.206 416.622,202.969 406.64,208.428 
					448.127,233.666 438.137,239.13 396.659,213.888 386.678,219.347 428.156,244.59 418.175,250.049 376.696,224.807 				"/>
			</g>
		</g>
		<g style="opacity:0.2;clip-path:url(#SVGID_2_);">
			<path style="fill:#FFFFFF;" d="M253.54,94.525c-106.033,0-191.99,85.957-191.99,191.99c0,53.144,21.595,101.242,56.485,136.005
				l271.51-271.51C354.782,116.12,306.684,94.525,253.54,94.525z"/>
		</g>
	</g>
</g>
<g id="Livello_1">
</g>
</svg>
