<?xml version="1.0" encoding="iso-8859-1"?>
<!-- Generator: Adobe Illustrator 18.0.0, SVG Export Plug-In . SVG Version: 6.00 Build 0)  -->
<!DOCTYPE svg PUBLIC "-//W3C//DTD SVG 1.1//EN" "http://www.w3.org/Graphics/SVG/1.1/DTD/svg11.dtd">
<svg version="1.1" xmlns="http://www.w3.org/2000/svg" xmlns:xlink="http://www.w3.org/1999/xlink" x="0px" y="0px"
	 viewBox="0 0 581.477 619.916" style="enable-background:new 0 0 581.477 619.916;" xml:space="preserve">
<g id="_x23_trash">
	<g>
		<defs>
			<circle id="SVGID_1_" cx="256" cy="283.421" r="256"/>
		</defs>
		<clipPath id="SVGID_2_">
			<use xlink:href="#SVGID_1_"  style="overflow:visible;"/>
		</clipPath>
		<circle style="clip-path:url(#SVGID_2_);fill:#26424B;" cx="256" cy="283.421" r="256"/>
		<polygon style="opacity:0.22;clip-path:url(#SVGID_2_);" points="459.983,619.916 118,364.408 400.417,266.284 581.477,391.927 		
			"/>
		<path style="clip-path:url(#SVGID_2_);fill:#78C1B0;" d="M369.016,553.945H142.984c-12.966,0-23.477-10.511-23.477-23.477V307.436
			c0-12.966,10.511-23.477,23.477-23.477h226.032c12.966,0,23.477,10.511,23.477,23.477v223.032
			C392.493,543.434,381.982,553.945,369.016,553.945z"/>
		<polygon style="opacity:0.22;clip-path:url(#SVGID_2_);" points="491.406,398.524 109,121.305 213.776,50.798 518.073,283.421 		
			"/>
		<path style="opacity:0.29;clip-path:url(#SVGID_2_);fill:#231F20;" d="M136.214,275.042c-5.257,0-10.262,1.12-14.801,3.121
			c-1.225,2.845-1.906,5.979-1.906,9.274v101.15c5.026,2.569,10.703,4.03,16.707,4.03h239.572c6.005,0,11.681-1.461,16.707-4.03
			v-101.15c0-3.294-0.681-6.428-1.906-9.274c-4.539-2.001-9.544-3.121-14.801-3.121H136.214z"/>
		<path style="clip-path:url(#SVGID_2_);fill:#78C1B0;" d="M394,364.408H118c-6.6,0-12-5.4-12-12v-76c0-6.6,5.4-12,12-12h276
			c6.6,0,12,5.4,12,12v76C406,359.008,400.6,364.408,394,364.408z"/>
		<path style="opacity:0.29;clip-path:url(#SVGID_2_);fill:#522422;" d="M369.234,332.481H142.766c-6.6,0-12-5.4-12-12v-30.318
			c0-6.6,5.4-12,12-12h226.468c6.6,0,12,5.4,12,12v30.318C381.234,327.081,375.834,332.481,369.234,332.481z"/>
		<polygon style="opacity:0.22;clip-path:url(#SVGID_2_);" points="512,325.857 283.667,163.741 359.512,123.131 545.435,250.845 		
			"/>
		<g style="clip-path:url(#SVGID_2_);">
			<polygon style="fill:#EAEBE1;" points="308.886,269.467 312.85,242.719 304.276,239.972 302.339,266.536 			"/>
			<path style="fill:#EAEBE1;" d="M216.436,201.692l-5.109,11.719l14.529-2.446C220.617,205.858,216.436,201.692,216.436,201.692z"
				/>
			<polygon style="fill:#EAEBE1;" points="175.653,296.032 168.16,301.959 171.046,319.102 185.072,320.501 			"/>
			<path style="fill:#EAEBE1;" d="M297.357,237.755l-7.401-2.371l-21.493-16.784c0,0-13.399,7.589-19.423,10.137l13.49,1.721
				L297.357,237.755z"/>
			<polygon style="fill:#EAEBE1;" points="325.822,331.687 303.401,328.88 305.982,333.829 344.719,333.829 345.22,333.358 
				355.631,305.279 342.546,295.72 347.005,301.138 			"/>
			<path style="fill:#EAEBE1;" d="M244.247,228.126c-2.498-2.031-6.752-5.976-11.201-10.22l5.021,9.432L244.247,228.126z"/>
			<polygon style="fill:#FFFFFF;" points="217.371,266.69 202.192,234.364 211.327,213.411 194.504,216.243 192.946,242.173 
				193.409,264.472 165.566,267.185 171.035,284.034 175.653,296.032 190.356,284.401 			"/>
			<path style="fill:#FFFFFF;" d="M249.04,228.738l-4.794-0.612c1.069,0.869,1.824,1.397,2.123,1.434
				C246.771,229.609,247.736,229.289,249.04,228.738z"/>
			<polygon style="fill:#FFFFFF;" points="304.332,239.217 297.357,237.755 304.276,239.972 			"/>
			<path style="fill:#FFFFFF;" d="M229.064,210.425l-3.207,0.54c2.282,2.225,4.761,4.623,7.19,6.94L229.064,210.425z"/>
			<polygon style="fill:#FFFFFF;" points="171.046,319.102 162.982,318.297 165.597,333.829 173.525,333.829 			"/>
			<polygon style="fill:#FFFFFF;" points="325.613,283.349 342.546,295.72 327.975,278.015 308.886,269.467 305.347,293.342 			"/>
			<path style="fill:#FFFFFF;" d="M213.823,333.829l-2.187-1.675l2.793-11.33l-12.207-2.552l-0.862-5.12l22.906-3.856l4.094,24.32
				l-0.033,0.213h77.654l-2.581-4.948l22.421,2.807l21.182-30.55l-4.459-5.418l-16.933-12.371l-20.266,9.993l3.538-23.875
				l-6.547-2.932l1.938-26.564l-6.92-2.217l-34.826-7.297l-13.49-1.721c-1.304,0.552-2.269,0.871-2.671,0.822
				c-0.299-0.037-1.054-0.565-2.123-1.434l-6.18-0.788l-5.021-9.432c-2.429-2.318-4.908-4.716-7.19-6.94l-14.529,2.446
				l-9.135,20.953l15.179,32.326l-7.876-16.773l2.166-15.502l14.632-2.463l3.178,18.88l13.932-6.623l-1.466,20.649l-16.252-1.871
				l-2.886-1.573l-5.428,5.276l-27.016,17.711l-14.703,11.63l9.419,24.469l-14.025-1.4l2.479,14.727H213.823z M280.117,273.568
				l24.979,7.641l-2.522,20.827l-17.178,2.892l-3.017-17.92l-16.97-3.066L280.117,273.568z M253.431,300.437l14.996,1.424
				l3.394,20.16l-8.364,1.408l-8.31-9.46l3.755-4.581l-10.177-4.21L253.431,300.437z"/>
			<polygon style="fill:#EAEBE1;" points="222.799,261.414 225.685,262.987 241.937,264.858 243.404,244.209 229.472,250.832 
				230.064,254.352 			"/>
			<polygon style="fill:#EAEBE1;" points="225.383,352.681 228.328,333.829 200.778,333.829 			"/>
			<polygon style="fill:#EAEBE1;" points="224.267,309.296 201.361,313.152 202.223,318.272 214.43,320.824 211.637,332.153 
				213.823,333.829 228.328,333.829 228.361,333.616 			"/>
			<polygon style="fill:#EAEBE1;" points="285.397,304.928 302.575,302.036 305.097,281.209 280.117,273.568 265.41,283.941 
				282.38,287.008 			"/>
			<polygon style="fill:#EAEBE1;" points="255.147,313.969 263.457,323.429 271.821,322.021 268.427,301.861 253.431,300.437 
				248.725,305.178 258.902,309.388 			"/>
			<polygon style="fill:#EAEBE1;" points="215.54,257.456 229.472,250.832 226.293,231.952 211.661,234.416 209.495,249.917 
				217.371,266.69 222.799,261.414 			"/>
			<polygon style="fill:#EAEBE1;" points="222.799,261.414 230.064,254.352 229.472,250.832 215.54,257.456 			"/>
		</g>
		<g style="clip-path:url(#SVGID_2_);">
			<g>
				<path style="fill:#EAEBE1;" d="M206.333,148.424l27.454-16.461l-8.115-18.858l15.338-14.421l7.803-21.045l-22.498-16.437
					l-15.19,7.49l5.623-37.943l-17.159-5.497l-16.109-12.58c0,0-14.869,8.423-16.559,8.214C165.23,20.678,144.484,0,144.484,0
					l-10.676,24.488l11.377,24.229l-20.248,13.274l-16.636,13.16l5.976,35.497l15.103-6.982l-0.992,29.271l0.262,13.275
					l20.384-4.912l5.144,15.906l7.467,17.981l25.903-4.361l2.226-14.187L206.333,148.424z"/>
				<path style="fill:#FFFFFF;" d="M179.033,21.561l31.33,6.564l-1.493,20.476l19.214,8.604l14.263,17.33L226.47,97.433
					l-16.805-2.104l17.737,34.01l-14.413,10.812l-11.102,17.161c0,0-16.807-3.09-18.336-2.339
					c-1.528,0.751-14.36,27.082-14.36,27.082l-18.105-19.643l2.817-26.618l-23.479-5.913l-20.027-6.987l-5.976-35.497l16.556,1.652
					l-10.521-27.332l-4.099-12.628l20.869-2.033l-0.347-16.713l1.168-19.435l25.903-4.361l6.748,12.676L179.033,21.561z"/>
			</g>
			<polygon style="fill:#EAEBE1;" points="143.813,41.795 164.697,31.867 163.598,47.344 151.416,45.941 			"/>
			<polygon style="fill:#EAEBE1;" points="133.185,83.54 150.354,80.65 153.422,98.878 152.235,106.477 140.887,97.782 
				142.981,89.29 133.831,87.378 			"/>
			<polygon style="fill:#EAEBE1;" points="192.214,53.871 210.936,59.599 209.046,75.209 196.171,77.376 193.91,63.945 
				181.191,61.647 			"/>
			<polygon style="fill:#EAEBE1;" points="182.37,116.696 194.548,111.686 201.444,123.35 200.406,131.91 195.299,140.17 
				184.954,132.045 168.992,124.374 			"/>
			<polygon style="fill:#EAEBE1;" points="172.212,74.01 183.452,75.078 185.996,90.188 179.727,91.243 173.498,84.153 
				176.313,80.719 168.685,77.564 			"/>
			<path style="fill:#EAEBE1;" d="M111.467,116.3c0,0,11.669-3.938,12.952-2.18c1.282,1.757,7.291,8.145,7.291,8.145l-15.05,2.534
				L111.467,116.3z"/>
			<polygon style="fill:#EAEBE1;" points="151.872,22.68 154.699,39.469 145.185,48.717 139.282,36.145 140.905,24.527 			"/>
		</g>
		<g style="clip-path:url(#SVGID_2_);">
			<g>
				<path style="fill:#EAEBE1;" d="M313.219,121.811l-16.36,9.809l4.836,11.238l-9.14,8.594l-4.65,12.541l13.407,9.795l9.052-4.463
					l-3.351,22.611l10.225,3.276l9.6,7.496c0,0,8.861-5.019,9.868-4.895c1.007,0.124,13.37,12.447,13.37,12.447l6.362-14.593
					l-6.78-14.438l12.066-7.91l9.914-7.842l-3.561-21.153l-9,4.161l0.591-17.443l-0.156-7.911l-12.147,2.927l-3.065-9.478
					l-4.449-10.715l-15.436,2.599l-1.326,8.454L313.219,121.811z"/>
				<path style="fill:#FFFFFF;" d="M329.488,197.411l-18.67-3.912l0.89-12.202l-11.45-5.127l-8.5-10.327l9.461-13.645l10.014,1.254
					l-10.57-20.267l8.589-6.443l6.616-10.226c0,0,10.016,1.841,10.927,1.394c0.911-0.447,8.558-16.138,8.558-16.138l10.789,11.706
					l-1.679,15.862l13.991,3.524l11.935,4.164l3.561,21.153l-9.866-0.985l6.27,16.288l2.443,7.526l-12.436,1.212l0.207,9.96
					l-0.696,11.581l-15.436,2.599l-4.021-7.554L329.488,197.411z"/>
			</g>
			<polygon style="fill:#EAEBE1;" points="350.476,185.353 338.031,191.27 338.686,182.047 345.945,182.883 			"/>
			<polygon style="fill:#EAEBE1;" points="356.809,160.477 346.578,162.199 344.749,151.337 345.457,146.808 352.219,151.99 
				350.972,157.05 356.424,158.19 			"/>
			<polygon style="fill:#EAEBE1;" points="321.633,178.157 310.476,174.744 311.602,165.442 319.275,164.15 320.622,172.154 
				328.201,173.524 			"/>
			<polygon style="fill:#EAEBE1;" points="327.499,140.719 320.242,143.705 316.132,136.754 316.751,131.652 319.794,126.73 
				325.959,131.572 335.471,136.144 			"/>
			<polygon style="fill:#EAEBE1;" points="333.552,166.156 326.854,165.52 325.338,156.515 329.074,155.887 332.786,160.112 
				331.108,162.158 335.654,164.038 			"/>
			<path style="fill:#EAEBE1;" d="M369.751,140.955c0,0-6.954,2.346-7.718,1.299s-4.345-4.854-4.345-4.854l8.968-1.51
				L369.751,140.955z"/>
			<polygon style="fill:#EAEBE1;" points="345.673,196.744 343.989,186.74 349.658,181.229 353.176,188.72 352.208,195.644 			"/>
		</g>
	</g>
</g>
<g id="Livello_1">
</g>
</svg>
