<?xml version="1.0" encoding="iso-8859-1"?>
<!-- Generator: Adobe Illustrator 18.0.0, SVG Export Plug-In . SVG Version: 6.00 Build 0)  -->
<!DOCTYPE svg PUBLIC "-//W3C//DTD SVG 1.1//EN" "http://www.w3.org/Graphics/SVG/1.1/DTD/svg11.dtd">
<svg version="1.1" xmlns="http://www.w3.org/2000/svg" xmlns:xlink="http://www.w3.org/1999/xlink" x="0px" y="0px"
	 viewBox="0 0 512 565.861" style="enable-background:new 0 0 512 565.861;" xml:space="preserve">
<g id="_x23_usb-pen">
	<g>
		<defs>
			<circle id="SVGID_1_" cx="256" cy="256.005" r="256"/>
		</defs>
		<clipPath id="SVGID_2_">
			<use xlink:href="#SVGID_1_"  style="overflow:visible;"/>
		</clipPath>
		<g style="clip-path:url(#SVGID_2_);">
			<circle style="fill:#26424B;" cx="256" cy="256.005" r="256"/>
		</g>
		<rect x="207.417" y="94.883" style="clip-path:url(#SVGID_2_);fill:#D1D1CF;" width="92.995" height="100.495"/>
		<rect x="207.417" y="163.521" style="opacity:0.2;clip-path:url(#SVGID_2_);fill:#0D0B10;" width="93.584" height="28.208"/>
		<g style="clip-path:url(#SVGID_2_);">
			<path style="fill:#EAEBE1;" d="M168.905,175.729c-0.8,4.926-1.236,9.998-1.236,15.187v293.569
				c0,44.757,31.175,81.376,69.278,81.376h33.936c38.103,0,69.278-36.619,69.278-81.376V190.916c0-5.189-0.436-10.261-1.236-15.187
				H168.905z"/>
		</g>
		<rect x="220.501" y="117.729" style="opacity:0.31;clip-path:url(#SVGID_2_);fill:#0D0B10;" width="18" height="26"/>
		<rect x="267.501" y="117.729" style="opacity:0.31;clip-path:url(#SVGID_2_);fill:#0D0B10;" width="18" height="26"/>
		<g style="display:none;opacity:0.4;clip-path:url(#SVGID_2_);">
			<path style="display:inline;fill:#FFFFFF;" d="M169.015,175.729c-0.871,4.926-1.346,9.998-1.346,15.187v144.832l174.143-160.019
				H169.015z"/>
		</g>
		<g style="opacity:0.2;clip-path:url(#SVGID_2_);">
			<polygon style="fill:#FFFFFF;" points="300.412,94.883 207.417,94.883 207.417,189.48 300.412,96.484 			"/>
		</g>
	</g>
</g>
<g id="Livello_1">
</g>
</svg>
