<?xml version="1.0" encoding="iso-8859-1"?>
<!-- Generator: Adobe Illustrator 18.0.0, SVG Export Plug-In . SVG Version: 6.00 Build 0)  -->
<!DOCTYPE svg PUBLIC "-//W3C//DTD SVG 1.1//EN" "http://www.w3.org/Graphics/SVG/1.1/DTD/svg11.dtd">
<svg version="1.1" xmlns="http://www.w3.org/2000/svg" xmlns:xlink="http://www.w3.org/1999/xlink" x="0px" y="0px"
	 viewBox="0 0 512 512.003" style="enable-background:new 0 0 512 512.003;" xml:space="preserve">
<g id="mac">
	<g>
		<defs>
			<circle id="SVGID_1_" cx="256" cy="256.001" r="256"/>
		</defs>
		<clipPath id="SVGID_2_">
			<use xlink:href="#SVGID_1_"  style="overflow:visible;"/>
		</clipPath>
		<circle style="clip-path:url(#SVGID_2_);fill:#E8B750;" cx="256" cy="256.001" r="256"/>
		<g style="clip-path:url(#SVGID_2_);">
			<path style="fill:#D1D1CF;" d="M281.787,489.397h-63.617c-7.142,0-12.986-5.844-12.986-12.986v-15.929
				c0-7.142,5.844-12.986,12.986-12.986h63.617c7.142,0,12.986,5.844,12.986,12.986v15.929
				C294.772,483.554,288.929,489.397,281.787,489.397z"/>
			<path style="fill:#EAEBE1;" d="M281.787,482.944h-63.617c-7.142,0-12.986-5.844-12.986-12.986V454.03
				c0-7.142,5.844-12.986,12.986-12.986h63.617c7.142,0,12.986,5.844,12.986,12.986v15.929
				C294.772,477.101,288.929,482.944,281.787,482.944z"/>
			<ellipse style="fill:#D1D1CF;" cx="224.612" cy="457.304" rx="4.592" ry="3.87"/>
		</g>
		<g style="clip-path:url(#SVGID_2_);">
			<g>
				<path style="fill:#EAEBE1;" d="M412.13,344.329H100.728c-10.863,0-19.669-8.806-19.669-19.669V123.148
					c0-10.863,8.806-19.669,19.669-19.669H412.13c10.863,0,19.669,8.806,19.669,19.669V324.66
					C431.8,335.523,422.993,344.329,412.13,344.329z"/>
				<path style="fill:#EAEBE1;" d="M479.614,405.696c-148.79,0-297.58,0-446.371,0c-9.138,0.151-10.637-6.182-3.433-14.044
					c18.578-21.954,55.733-65.863,55.733-65.863h341.771c0,0,37.155,43.909,55.733,65.863
					C490.252,399.513,488.752,405.852,479.614,405.696z"/>
				<g>
					<polygon style="fill:#D1D1CF;" points="61.384,385.541 94.891,345.944 417.967,345.944 451.474,385.541 					"/>
				</g>
				<rect x="25.26" y="401.668" style="fill:#D1D1CF;" width="462.338" height="21.601"/>
				<rect x="106.041" y="134.502" style="fill:#FFFFFF;" width="298.291" height="185.977"/>
				<path style="fill:#EAEBE1;" d="M445.646,371.756l-0.017-3.023l-37.004,0.207l-6.356-9.158H431.8v-3.023h-31.63l-9.341-13.459
					l-2.484,1.724l8.145,11.735h-25.607l-8.642-12.451l-2.484,1.724l7.445,10.727h-25.481l-9.341-13.459l-2.484,1.724l8.145,11.735
					h-25.607l-8.642-12.451l-2.484,1.724l7.445,10.727h-24.559l-5.441-13.173l-2.794,1.153l4.965,12.02h-20.699V340.13h-3.023
					v16.628h-20.699l4.965-12.02l-2.794-1.153l-5.441,13.173h-26.707l7.445-10.727l-2.484-1.724l-8.642,12.451h-25.607l8.145-11.735
					l-2.484-1.724l-9.341,13.459h-25.481l7.445-10.727l-2.484-1.724l-8.642,12.451h-25.607l8.145-11.735l-2.484-1.724l-9.341,13.459
					H76.312v3.023h36.698l-7.531,10.85l-39.25,0.219l0.017,3.023l37.126-0.207l-7.644,11.013l2.484,1.724l8.855-12.758l25.706-0.144
					l-8.457,12.185l2.484,1.724l9.668-13.93l25.58-0.143l-7.871,11.341l2.484,1.724l9.082-13.085l25.706-0.143l-8.684,12.512
					l2.484,1.724l9.895-14.257l31.387-0.175l-7.006,16.962l2.794,1.153l7.49-18.133l27.392-0.153v17.709h3.023v-17.726l27.259-0.152
					l7.623,18.455l2.794-1.153l-7.154-17.32l28.904-0.161l10.378,14.952l2.484-1.724l-9.195-13.248l25.508-0.142l9.791,14.107
					l2.484-1.724l-8.609-12.403l25.383-0.142l10.603,15.277l2.484-1.724l-9.421-13.573l25.508-0.142l10.017,14.432l2.484-1.724
					l-8.834-12.729L445.646,371.756z M109.174,370.611l7.516-10.83h25.607l-7.417,10.686L109.174,370.611z M138.575,370.446
					l7.403-10.665h25.481l-7.303,10.523L138.575,370.446z M167.85,370.283l7.289-10.502h25.607l-7.19,10.359L167.85,370.283z
					 M197.251,370.119l7.175-10.338h27.556l-4.2,10.167L197.251,370.119z M231.061,369.93l4.192-10.149h21.948v10.003
					L231.061,369.93z M260.225,369.767v-9.986h21.948l4.065,9.841L260.225,369.767z M289.501,369.604l-4.057-9.823h25.408
					l6.709,9.667L289.501,369.604z M321.227,369.427l-6.695-9.646h25.607l6.596,9.504L321.227,369.427z M350.401,369.264
					l-6.582-9.483H369.3l6.484,9.342L350.401,369.264z M379.45,369.102l-6.469-9.321h25.607l6.371,9.179L379.45,369.102z"/>
			</g>
			<g>
				<path style="fill:#DB605A;" d="M185.063,217.274h21.264v6.831h-6.831v26.84h-7.844v-26.84h-6.589V217.274z"/>
				<path style="fill:#DB605A;" d="M206.847,227.942h8.182l2.245,15.303l2.1-15.303h7.917l-6.155,23.002
					c-0.965,3.572-1.809,6.001-2.532,7.289c-0.723,1.287-1.644,2.269-2.761,2.945c-1.118,0.676-2.351,1.014-3.702,1.014
					c-1.335,0-2.685-0.323-4.051-0.965v-5.889c0.755,0.483,1.437,0.724,2.047,0.724c0.947,0,1.629-0.382,2.047-1.146
					c0.417-0.765,0.81-1.953,1.18-3.561L206.847,227.942z"/>
				<path style="fill:#DB605A;" d="M237.271,230.525c0.692-1.046,1.468-1.825,2.329-2.341c0.861-0.514,1.814-0.772,2.86-0.772
					c2.43,0,4.369,1.155,5.817,3.464c1.448,2.308,2.172,5.048,2.172,8.218c0,2.317-0.37,4.404-1.11,6.264
					c-0.741,1.857-1.75,3.342-3.029,4.453s-2.732,1.665-4.357,1.665c-0.772,0-1.525-0.16-2.257-0.481
					c-0.732-0.32-1.444-0.802-2.136-1.442v12.109h-7.579v-33.719h6.541L237.271,230.525z M237.561,243.652
					c0.29,0.419,0.611,0.738,0.965,0.955c0.354,0.219,0.74,0.326,1.159,0.326c0.917,0,1.633-0.499,2.148-1.499
					c0.514-1,0.772-2.363,0.772-4.089c0-1.757-0.246-3.103-0.736-4.04c-0.491-0.935-1.139-1.402-1.943-1.402
					c-0.789,0-1.38,0.343-1.774,1.028c-0.394,0.686-0.591,1.723-0.591,3.109V243.652z"/>
				<path style="fill:#DB605A;" d="M258.318,216.718c1.046,0,1.995,0.379,2.848,1.134c0.852,0.757,1.279,1.738,1.279,2.945
					c0,1.143-0.407,2.109-1.219,2.896c-0.813,0.789-1.782,1.183-2.908,1.183c-1.159,0-2.136-0.407-2.933-1.22
					c-0.797-0.812-1.195-1.773-1.195-2.884c0-1.126,0.41-2.083,1.231-2.872C256.243,217.114,257.208,216.718,258.318,216.718z
					 M254.432,227.942h7.675v23.002h-7.675V227.942z"/>
				<path style="fill:#DB605A;" d="M274.466,230.332c0.677-0.981,1.447-1.714,2.31-2.196c0.863-0.483,1.826-0.724,2.89-0.724
					c1.822,0,3.342,0.664,4.559,1.991c1.218,1.329,1.826,2.982,1.826,4.961v16.582h-7.675v-14.989c0-1.303-0.483-1.955-1.448-1.955
					c-0.676,0-1.215,0.354-1.617,1.062c-0.403,0.709-0.603,1.698-0.603,2.969v12.913h-7.579v-23.002h6.589L274.466,230.332z"/>
				<path style="fill:#DB605A;" d="M302.368,248.169c-0.66,0.917-1.392,1.61-2.196,2.076c-0.805,0.467-1.69,0.7-2.655,0.7
					c-2.156,0-4.015-1.126-5.576-3.379c-1.561-2.252-2.341-4.963-2.341-8.134c0-3.09,0.788-5.865,2.365-8.327
					c1.577-2.462,3.596-3.693,6.058-3.693c0.933,0,1.802,0.197,2.607,0.591c0.804,0.395,1.545,0.995,2.221,1.799l2.076-1.859h5.117
					v22.085c0,3.427-0.95,6.311-2.848,8.654c-1.899,2.34-4.594,3.511-8.086,3.511c-2.559,0-5.222-0.716-7.989-2.148v-7.579
					c2.43,1.898,4.545,2.848,6.348,2.848c1.4,0,2.566-0.471,3.5-1.411c0.933-0.943,1.4-2.129,1.4-3.561V248.169z M302.368,234.966
					c-0.354-0.401-0.708-0.7-1.062-0.893c-0.354-0.193-0.708-0.29-1.062-0.29c-0.885,0-1.585,0.479-2.1,1.437
					c-0.515,0.957-0.772,2.208-0.772,3.753c0,1.578,0.249,2.852,0.748,3.826c0.499,0.973,1.15,1.46,1.955,1.46
					c0.772,0,1.347-0.37,1.726-1.11c0.378-0.739,0.567-1.842,0.567-3.307V234.966z"/>
				<path style="fill:#DB605A;" d="M312.288,254.661h27.878v2.462h-27.878V254.661z"/>
			</g>
		</g>
	</g>
</g>
<g id="Livello_1">
</g>
</svg>
